<svg xmlns="http://www.w3.org/2000/svg" viewBox="0 0 16.42 19.41"><defs><style>.cls-1{fill:#ffdd15;}.cls-1,.cls-2{fill-rule:evenodd;}.cls-2{fill:#f5cd29;}.cls-3{fill:#282827;}.cls-4{fill:#fff;}.cls-5{fill:#e42027;}.cls-6{fill:none;stroke:#282827;stroke-miterlimit:10;}</style></defs><title>alert_1</title><g id="Layer_2" data-name="Layer 2"><g id="Layer_1-2" data-name="Layer 1"><path class="cls-1" d="M13.25,4.14A4.93,4.93,0,0,0,6.61,5.87L4,10.25.74,12.36l11.47,6.46L12.44,15,15,10.61A4.68,4.68,0,0,0,13.25,4.14Z"/><path class="cls-2" d="M13.59,4.35A22,22,0,0,0,5.84,15.24l6.37,3.58L12.44,15,15,10.61A4.67,4.67,0,0,0,13.59,4.35Z"/><path class="cls-1" d="M5.13,17.69A2.26,2.26,0,0,0,8,17.18L4.18,15.05A2.11,2.11,0,0,0,5.13,17.69Z"/><path class="cls-2" d="M5.32,17.79A2.26,2.26,0,0,0,8,17.18L5.74,15.93Q5.5,16.85,5.32,17.79Z"/><path class="cls-3" d="M10.67,3.91a4.84,4.84,0,0,1,2.38.63,4.65,4.65,0,0,1,2.22,2.84,4.54,4.54,0,0,1-.48,3.47l-2.19,3.7-.13.21V15l-.21,3.41h0a.67.67,0,0,1-.35-.1l-2.67-1.5-.79-.45-.52.75A2,2,0,0,1,6.23,18a2,2,0,0,1-1-.26,1.89,1.89,0,0,1-.79-2.48l.42-.85L4,13.9,1.14,12.27,1,12.2l3-1.93.2-.13.12-.2L6.54,6.23a4.81,4.81,0,0,1,4.13-2.32m0-1a5.77,5.77,0,0,0-5,2.82L3.49,9.43l-3.05,2c-.62.4-.6,1.23.17,1.72l2.93,1.65a2.89,2.89,0,0,0,1.2,3.8,3,3,0,0,0,4-.89l2.66,1.5a1.78,1.78,0,0,0,.85.23,1,1,0,0,0,1-.94l.21-3.41,2.19-3.7a5.56,5.56,0,0,0-2.11-7.69,5.82,5.82,0,0,0-2.87-.76Z"/><circle class="cls-4" cx="11.76" cy="13.63" r="0.51"/><circle class="cls-5" cx="5.52" cy="2.83" r="2.83"/><path class="cls-4" d="M12.5,12.79a.42.42,0,0,1-.21-.06.41.41,0,0,1-.14-.56l1.38-2.34A2.93,2.93,0,0,0,13,6.2a.41.41,0,0,1,.56-.59,3.75,3.75,0,0,1,.68,4.64l-1.39,2.34A.39.39,0,0,1,12.5,12.79Z"/><line class="cls-6" x1="3.44" y1="14.14" x2="9.21" y2="17.4"/><path class="cls-4" d="M4.41,1.86a.38.38,0,0,1,.07-.24.37.37,0,0,1,.23-.07.2.2,0,0,1,.13,0,.26.26,0,0,1,.11.1L6,3.4V1.79a.3.3,0,0,1,0-.18.23.23,0,0,1,.16-.06.2.2,0,0,1,.16.06.24.24,0,0,1,.06.18v2A.37.37,0,0,1,6.4,4a.26.26,0,0,1-.21.09l-.11,0L6,4,5.94,4l-.05-.07-1-1.66v1.6A.24.24,0,0,1,4.79,4a.24.24,0,0,1-.32,0,.24.24,0,0,1-.06-.18Z"/></g></g></svg>