<svg xmlns="http://www.w3.org/2000/svg" viewBox="0 0 16.42 16.5"><defs><style>.cls-1{fill:#282827;}.cls-2{fill:none;stroke:#282827;stroke-miterlimit:10;}</style></defs><title>alert_0</title><g id="Layer_2" data-name="Layer 2"><g id="Layer_1-2" data-name="Layer 1"><path class="cls-1" d="M10.67,1a4.94,4.94,0,0,1,2.38.62,4.7,4.7,0,0,1,2.22,2.84,4.53,4.53,0,0,1-.48,3.47L12.6,11.64l-.13.21v.24l-.21,3.41h0a.78.78,0,0,1-.35-.1L9.19,13.9l-.79-.45-.52.75a2,2,0,0,1-1.65.85,2,2,0,0,1-1-.26,1.9,1.9,0,0,1-.79-2.49l.42-.85L4,11,1.14,9.36,1,9.28,4,7.36l.2-.13L4.35,7,6.54,3.32A4.81,4.81,0,0,1,10.67,1m0-1a5.78,5.78,0,0,0-5,2.81L3.49,6.52l-3.05,2A1,1,0,0,0,.61,10.2l2.93,1.66a2.9,2.9,0,0,0,1.2,3.8,3.07,3.07,0,0,0,1.49.39A3,3,0,0,0,8.7,14.77l2.66,1.5a1.78,1.78,0,0,0,.85.23,1,1,0,0,0,1-.94l.21-3.41,2.19-3.71A5.57,5.57,0,0,0,13.54.75,5.81,5.81,0,0,0,10.67,0Z"/><line class="cls-2" x1="3.44" y1="11.23" x2="9.21" y2="14.48"/></g></g></svg>