<svg xmlns="http://www.w3.org/2000/svg" viewBox="0 0 20.81 20.99"><defs><style>.cls-1{fill:#e42027;}.cls-2,.cls-3,.cls-4{fill:#282827;}.cls-3{stroke:#282827;stroke-miterlimit:10;stroke-width:0.25px;}.cls-4{opacity:0.2;}.cls-5{fill:#fff;}</style></defs><title>call_1</title><g id="Layer_2" data-name="Layer 2"><g id="Layer_1-2" data-name="Layer 1"><path class="cls-1" d="M14.21,20.84a3.39,3.39,0,0,0,.45,0,4.23,4.23,0,0,0,2.16-.56,3.13,3.13,0,0,0,.77-.63l.59-.65A3.17,3.17,0,0,0,18,14.54l-1-.91a3.16,3.16,0,0,0-4.48.23l-.59.65a3.47,3.47,0,0,0-.55.84,11.08,11.08,0,0,1-5.43-5A3.07,3.07,0,0,0,7,9.58l.59-.65A3.17,3.17,0,0,0,7.4,4.45l-1-.9a3.18,3.18,0,0,0-4.48.22l-.59.66a2.31,2.31,0,0,0-.24.29A3.74,3.74,0,0,0,.22,8.18,15.74,15.74,0,0,0,14.21,20.84Z"/><path class="cls-2" d="M20.32,10.62a.48.48,0,0,1-.49-.48A9.17,9.17,0,0,0,10.67,1a.48.48,0,0,1-.49-.48A.49.49,0,0,1,10.67,0,10.15,10.15,0,0,1,20.81,10.14.48.48,0,0,1,20.32,10.62Z"/><path class="cls-2" d="M17.21,10.73a.49.49,0,0,1-.49-.49,6.16,6.16,0,0,0-6.15-6.15.49.49,0,0,1,0-1,7.13,7.13,0,0,1,7.12,7.13A.48.48,0,0,1,17.21,10.73Z"/><path class="cls-2" d="M13.91,11a.44.44,0,0,1-.44-.44,3.3,3.3,0,0,0-3.3-3.3.45.45,0,0,1,0-.89,4.2,4.2,0,0,1,4.19,4.19A.44.44,0,0,1,13.91,11Z"/><path class="cls-3" d="M14.21,20.84a3.39,3.39,0,0,0,.45,0,4.23,4.23,0,0,0,2.16-.56,3.13,3.13,0,0,0,.77-.63l.59-.65A3.17,3.17,0,0,0,18,14.54l-1-.91a3.16,3.16,0,0,0-4.48.23l-.59.65a3.47,3.47,0,0,0-.55.84,11.08,11.08,0,0,1-5.43-5A3.07,3.07,0,0,0,7,9.58l.59-.65A3.17,3.17,0,0,0,7.4,4.45l-1-.9a3.18,3.18,0,0,0-4.48.22l-.59.66a2.31,2.31,0,0,0-.24.29A3.74,3.74,0,0,0,.22,8.18,15.74,15.74,0,0,0,14.21,20.84ZM1.7,5.36l0,0,0,0s0,0,0,0A2,2,0,0,1,2,5l.59-.66A2.3,2.3,0,0,1,5.81,4.2l1,.9A2.3,2.3,0,0,1,7,8.34L6.38,9h0a2.35,2.35,0,0,1-1,.66l-.18,0a.44.44,0,0,0-.27.62l.09.17a11.89,11.89,0,0,0,6.3,5.79l.16.06a.47.47,0,0,0,.35,0,.45.45,0,0,0,.23-.26l.05-.16a2.23,2.23,0,0,1,.47-.8l.6-.66a2.29,2.29,0,0,1,3.23-.16l1,.9a2.29,2.29,0,0,1,.16,3.23l-.59.66a2.35,2.35,0,0,1-.57.46,3.46,3.46,0,0,1-2.08.42A14.86,14.86,0,0,1,1.08,8,2.91,2.91,0,0,1,1.7,5.36Z"/><path class="cls-4" d="M5.08,10s2.4-1.87,2.43-1.93.11-.77.12-.9a5.75,5.75,0,0,0-.19-.83l0-.17-.23-.5A9,9,0,0,1,5.08,10Z"/><path class="cls-5" d="M3,5.08a.25.25,0,0,1-.13-.46,2.68,2.68,0,0,1,2.46-.19.24.24,0,0,1,.13.33.26.26,0,0,1-.33.13,2.18,2.18,0,0,0-2,.15A.2.2,0,0,1,3,5.08Z"/><rect class="cls-5" x="5.66" y="4.86" width="0.46" height="0.46" rx="0.23"/><path class="cls-4" d="M13.87,20.42s2.85-.42,2.89-.5,2-2.26,2-2.45-.36-1.86-.4-2.1-.48-.37-.48-.37l-.32-.71A6.91,6.91,0,0,1,13.87,20.42Z"/></g></g></svg>