<svg xmlns="http://www.w3.org/2000/svg" viewBox="0 0 16.84 24.36"><defs><style>.cls-1,.cls-3{fill:#282827;}.cls-2{fill:none;stroke-linecap:round;stroke-width:0.58px;}.cls-2,.cls-3{stroke:#282827;stroke-miterlimit:10;}.cls-3{stroke-width:0.6px;}</style></defs><g id="Layer_2" data-name="Layer 2"><g id="Layer_1-2" data-name="Layer 1"><path class="cls-1" d="M3.42,24.28v-3a1.27,1.27,0,0,0-.2-.7.69.69,0,0,0-.49-.35l-.68.83-.71-.83a1.38,1.38,0,0,0-.64.65A2.81,2.81,0,0,0,.32,22.2a2.68,2.68,0,0,0,.27,1.27A1,1,0,0,0,1.5,24a.72.72,0,0,0,.6-.33l.26.19a1,1,0,0,1-.86.47,1.28,1.28,0,0,1-1.13-.59A2.76,2.76,0,0,1,0,22.2a3.06,3.06,0,0,1,.45-1.56,1.46,1.46,0,0,1,1-.74l.62.7.57-.68a1,1,0,0,1,.82.38,1.54,1.54,0,0,1,.3,1v3Z"/><path class="cls-1" d="M.61,19.43v-.32H3.74v.32Z"/><path class="cls-1" d="M7.54,24.28V21.42a1.16,1.16,0,0,0-.35-.86,1.25,1.25,0,0,0-.9-.34,1.42,1.42,0,0,0-1.18.62,2.37,2.37,0,0,0-.45,1.41,2.14,2.14,0,0,0,.28,1.24,1,1,0,0,0,.89.52.72.72,0,0,0,.61-.33l.26.19a1,1,0,0,1-.87.47,1.28,1.28,0,0,1-1.13-.59,2.61,2.61,0,0,1-.36-1.5A2.67,2.67,0,0,1,4.9,20.6a1.68,1.68,0,0,1,1.39-.7,1.66,1.66,0,0,1,.64.11,1.46,1.46,0,0,1,.49.31,1.37,1.37,0,0,1,.33.48,1.63,1.63,0,0,1,.11.59v2.89Z"/><path class="cls-1" d="M11.87,24.28v-3a1.27,1.27,0,0,0-.19-.7.72.72,0,0,0-.5-.35l-.68.83-.71-.83a1.41,1.41,0,0,0-.63.65,2.7,2.7,0,0,0-.38,1.33,2.46,2.46,0,0,0,.27,1.27A1,1,0,0,0,10,24a.72.72,0,0,0,.61-.33l.26.19a1,1,0,0,1-.87.47,1.29,1.29,0,0,1-1.13-.59,2.85,2.85,0,0,1-.37-1.55,3.06,3.06,0,0,1,.46-1.56,1.44,1.44,0,0,1,1-.74l.61.7.57-.68a1,1,0,0,1,.82.38,1.48,1.48,0,0,1,.31,1v3Z"/><path class="cls-1" d="M11.87,19.43v-1h.33v1Z"/><path class="cls-1" d="M16.84,22.13a2.27,2.27,0,0,1-.56,1.6,2,2,0,0,1-2.93,0,2.27,2.27,0,0,1-.56-1.6c0-.06,0-.19,0-.38H14.2v.32H13.11v.06a2,2,0,0,0,.48,1.37,1.57,1.57,0,0,0,1.23.54A1.53,1.53,0,0,0,16,23.5a2,2,0,0,0,.49-1.37A2,2,0,0,0,16,20.76a1.66,1.66,0,0,0-2.77.51h-.34a1.86,1.86,0,0,1,.7-1,2,2,0,0,1,1.19-.36,1.85,1.85,0,0,1,1.46.62A2.29,2.29,0,0,1,16.84,22.13Z"/><path class="cls-2" d="M14,10.22h0a1.91,1.91,0,0,0-.19,1.21l.45,2.35a.25.25,0,0,1-.32.28l-2.17-.67a1.82,1.82,0,0,0-.52-.08,2,2,0,0,0-.76.16,6.9,6.9,0,0,1-4,.37A6.86,6.86,0,1,1,14,10.22Z"/><path class="cls-3" d="M4.71,6.91a.25.25,0,0,0-.26.27.26.26,0,0,0,.26.27.27.27,0,0,0,0-.54Z"/><path class="cls-3" d="M7.88,6.91a.25.25,0,0,0-.26.27.26.26,0,0,0,.26.27.27.27,0,0,0,0-.54Z"/><path class="cls-3" d="M11.05,6.91a.25.25,0,0,0-.26.27.26.26,0,0,0,.26.27.27.27,0,0,0,0-.54Z"/></g></g></svg>