<svg xmlns="http://www.w3.org/2000/svg" xmlns:xlink="http://www.w3.org/1999/xlink" viewBox="0 0 19.96 24.55"><defs><style>.cls-1{fill:none;}.cls-2{clip-path:url(#clip-path);}.cls-3{fill:#282827;}</style><clipPath id="clip-path" transform="translate(-2.58 -0.06)"><rect class="cls-1" width="25.11" height="25.11"/></clipPath></defs><g id="Layer_2" data-name="Layer 2"><g id="Layer_1-2" data-name="Layer 1"><g class="cls-2"><path class="cls-3" d="M6.87,5.91a.3.3,0,0,1-.3-.3V3.81a.76.76,0,0,1,.76-.76H17.79a.76.76,0,0,1,.76.76V5.55a.3.3,0,0,1-.3.3.29.29,0,0,1-.3-.3V3.81a.16.16,0,0,0-.16-.16H7.33a.16.16,0,0,0-.16.16v1.8A.29.29,0,0,1,6.87,5.91Z" transform="translate(-2.58 -0.06)"/><path class="cls-3" d="M17.79,21.63H7.33c-.7,0-.76-.91-.76-1.76V18.7a.31.31,0,0,1,.3-.3.3.3,0,0,1,.3.3v1.17c0,1,.14,1.15.16,1.16H17.79a.16.16,0,0,0,.16-.16V18.69a.29.29,0,0,1,.3-.3.3.3,0,0,1,.3.3v2.18A.76.76,0,0,1,17.79,21.63Z" transform="translate(-2.58 -0.06)"/><path class="cls-3" d="M5,6.25a.29.29,0,0,1-.3-.3V3a3,3,0,0,1,3-3h9.82a3,3,0,0,1,3,3v2.9a.3.3,0,0,1-.3.3.29.29,0,0,1-.3-.3V3A2.37,2.37,0,0,0,17.47.66H7.65A2.37,2.37,0,0,0,5.28,3V6A.3.3,0,0,1,5,6.25Z" transform="translate(-2.58 -0.06)"/><path class="cls-3" d="M17.47,24.62H7.65a3,3,0,0,1-3-3v-2.6a.3.3,0,0,1,.3-.3.31.31,0,0,1,.3.3v2.6A2.37,2.37,0,0,0,7.65,24h9.82a2.37,2.37,0,0,0,2.37-2.37V19a.29.29,0,0,1,.3-.3.3.3,0,0,1,.3.3v2.61A3,3,0,0,1,17.47,24.62Z" transform="translate(-2.58 -0.06)"/><path class="cls-3" d="M2.88,19.85a.34.34,0,0,1-.17-.05.31.31,0,0,1-.13-.25V6.78a.29.29,0,0,1,.16-.26,11.11,11.11,0,0,1,9.82-.08,10.6,10.6,0,0,1,9.82.08.29.29,0,0,1,.16.26V19.55a.31.31,0,0,1-.14.25.3.3,0,0,1-.29,0,13.1,13.1,0,0,0-9.43,0,.31.31,0,0,1-.25,0,12.35,12.35,0,0,0-9.44,0ZM7.94,18.3a11.25,11.25,0,0,1,4.65.92,13.65,13.65,0,0,1,9.35-.11V7A9.93,9.93,0,0,0,12.72,7a.32.32,0,0,1-.3,0A10.47,10.47,0,0,0,3.18,7V19.12A14.64,14.64,0,0,1,7.94,18.3Z" transform="translate(-2.58 -0.06)"/><path class="cls-3" d="M12.56,18.12a.29.29,0,0,1-.3-.29V8.89a.29.29,0,0,1,.3-.3.3.3,0,0,1,.3.3v8.94A.3.3,0,0,1,12.56,18.12Z" transform="translate(-2.58 -0.06)"/><path class="cls-3" d="M10,11.39a.28.28,0,0,1-.15,0,4.89,4.89,0,0,0-4.38,0,.29.29,0,0,1-.4-.12.29.29,0,0,1,.11-.4,5.41,5.41,0,0,1,5,0,.3.3,0,0,1,.12.4A.3.3,0,0,1,10,11.39Z" transform="translate(-2.58 -0.06)"/><path class="cls-3" d="M10,15.77a.28.28,0,0,1-.15,0,4.89,4.89,0,0,0-4.38,0,.29.29,0,0,1-.4-.12.29.29,0,0,1,.11-.4,5.41,5.41,0,0,1,5,0,.3.3,0,0,1,.12.4A.3.3,0,0,1,10,15.77Z" transform="translate(-2.58 -0.06)"/><path class="cls-3" d="M20.14,11.39a.23.23,0,0,1-.14,0,4.93,4.93,0,0,0-4.38,0,.3.3,0,0,1-.41-.12.29.29,0,0,1,.12-.4,5.38,5.38,0,0,1,5,0,.3.3,0,0,1-.14.56Z" transform="translate(-2.58 -0.06)"/><path class="cls-3" d="M20.14,15.77a.23.23,0,0,1-.14,0,4.93,4.93,0,0,0-4.38,0,.3.3,0,0,1-.41-.12.29.29,0,0,1,.12-.4,5.38,5.38,0,0,1,5,0,.3.3,0,0,1-.14.56Z" transform="translate(-2.58 -0.06)"/><path class="cls-3" d="M12.56,23.77a.94.94,0,1,1,.94-.93A.94.94,0,0,1,12.56,23.77Zm0-1.27a.34.34,0,0,0-.34.34.34.34,0,0,0,.68,0A.34.34,0,0,0,12.56,22.5Z" transform="translate(-2.58 -0.06)"/></g></g></g></svg>