<svg xmlns="http://www.w3.org/2000/svg" xmlns:xlink="http://www.w3.org/1999/xlink" viewBox="0 0 23.69 24.14"><defs><style>.cls-1{fill:none;}.cls-2{clip-path:url(#clip-path);}.cls-3{fill:#282827;}</style><clipPath id="clip-path" transform="translate(-0.71 -0.19)"><rect class="cls-1" width="25.11" height="25.11"/></clipPath></defs><g id="Layer_2" data-name="Layer 2"><g id="Layer_1-2" data-name="Layer 1"><g class="cls-2"><path class="cls-3" d="M1.83,24.34a.3.3,0,0,1-.29-.23L.72,20.87a.32.32,0,0,1,.07-.28l9.68-10.37A7.22,7.22,0,0,1,11.86,2.5,7.25,7.25,0,0,1,22.1,2.14a7.24,7.24,0,0,1-8.31,11.71l-1.16,1.24a.29.29,0,0,1-.26.1l-1.89-.28L11,16.66a.3.3,0,0,1-.07.29L9.25,18.72a.31.31,0,0,1-.26.09L7.1,18.54l.49,1.75a.29.29,0,0,1-.07.28L6.1,22.09a.28.28,0,0,1-.26.1l-1-.14.25.89a.28.28,0,0,1-.06.28l-.83.89a.25.25,0,0,1-.2.09l-2.17.14Zm-.49-3.46.72,2.84,1.8-.11.63-.67-.33-1.18a.3.3,0,0,1,.07-.27.27.27,0,0,1,.27-.1l1.27.18L7,20.29l-.57-2A.28.28,0,0,1,6.46,18a.3.3,0,0,1,.27-.1l2.19.32,1.43-1.54-.57-2a.27.27,0,0,1,.06-.27.28.28,0,0,1,.27-.1l2.19.31,1.21-1.29a.29.29,0,0,1,.37-.06A6.64,6.64,0,0,0,21.69,2.58a6.66,6.66,0,0,0-9.39.32,6.64,6.64,0,0,0-1.2,7.26.33.33,0,0,1-.06.33ZM19.26,7.47a2.28,2.28,0,0,1-1.56-.61,2.29,2.29,0,1,1,3.24-.11h0A2.29,2.29,0,0,1,19.26,7.47Zm0-4A1.66,1.66,0,0,0,18,4,1.69,1.69,0,1,0,20.42,4,1.68,1.68,0,0,0,19.26,3.49Zm1.46,3.05h0Z" transform="translate(-0.71 -0.19)"/></g></g></g></svg>