<svg xmlns="http://www.w3.org/2000/svg" xmlns:xlink="http://www.w3.org/1999/xlink" viewBox="0 0 20.75 23.17"><defs><style>.cls-1{fill:none;}.cls-2{clip-path:url(#clip-path);}.cls-3{fill:#ff395a;}</style><clipPath id="clip-path" transform="translate(-2.18 -0.97)"><rect class="cls-1" width="25.11" height="25.11"/></clipPath></defs><g id="Layer_2" data-name="Layer 2"><g id="Layer_1-2" data-name="Layer 1"><g class="cls-2"><path class="cls-3" d="M12.56,24.14A10.38,10.38,0,0,1,7.71,4.59a.5.5,0,1,1,.47.88,9.37,9.37,0,1,0,8.76,0,.5.5,0,1,1,.47-.88,10.38,10.38,0,0,1-4.85,19.55Z" transform="translate(-2.18 -0.97)"/><path class="cls-3" d="M12.56,10a.5.5,0,0,1-.5-.5v-8a.5.5,0,0,1,1,0v8A.5.5,0,0,1,12.56,10Z" transform="translate(-2.18 -0.97)"/></g></g></g></svg>