<svg xmlns="http://www.w3.org/2000/svg" viewBox="0 0 19 24.55"><defs><style>.cls-1{fill:#ff395a;}.cls-2{fill:none;stroke:#ff395a;stroke-miterlimit:10;stroke-width:0.53px;}</style></defs><g id="Layer_2" data-name="Layer 2"><g id="Layer_1-2" data-name="Layer 1"><path class="cls-1" d="M0,24.48V20.16H.32v4.32Z"/><path class="cls-1" d="M4.65,24.48H4.37L3.17,20.7,2,24.48H1.72L.59,20.16H.91l1,3.78L3,20.16h.29L4.5,23.94l1-3.78h.31Z"/><path class="cls-1" d="M2.26,19.62V19.3H5.39v.32Z"/><path class="cls-1" d="M5.07,18.44v-.76h.32v.76Z"/><path class="cls-1" d="M9,24.15a1.57,1.57,0,0,1-1.12.4,1.93,1.93,0,0,1-.83-.19,1.42,1.42,0,0,1-.62-.49v.61H6.15V20.16h.32V23a1,1,0,0,0,.45.85,1.67,1.67,0,0,0,1,.35,1.32,1.32,0,0,0,.9-.3,1,1,0,0,0,.35-.8v-3h.32v3A1.31,1.31,0,0,1,9,24.15Z"/><path class="cls-1" d="M10.35,24.48V20.16h.32v4.32Z"/><path class="cls-1" d="M14.58,24.48v-3a1.3,1.3,0,0,0-.2-.7.71.71,0,0,0-.49-.35l-.68.83-.71-.83a1.38,1.38,0,0,0-.64.65,2.81,2.81,0,0,0-.38,1.34,2.67,2.67,0,0,0,.27,1.26,1,1,0,0,0,.91.55.71.71,0,0,0,.6-.34l.26.2a1,1,0,0,1-.86.46,1.28,1.28,0,0,1-1.13-.59,2.75,2.75,0,0,1-.37-1.54,3.06,3.06,0,0,1,.45-1.57,1.49,1.49,0,0,1,1-.74l.62.7.57-.68a1,1,0,0,1,.82.38,1.54,1.54,0,0,1,.3,1v3Z"/><path class="cls-1" d="M11.77,19.62V19.3H14.9v.32Z"/><path class="cls-1" d="M18.55,24.15a1.56,1.56,0,0,1-1.11.4,2,2,0,0,1-.84-.19,1.42,1.42,0,0,1-.62-.49v.61h-.32V20.16H16V23a1,1,0,0,0,.45.85,1.67,1.67,0,0,0,1,.35,1.31,1.31,0,0,0,.89-.3,1,1,0,0,0,.35-.8v-3H19v3A1.31,1.31,0,0,1,18.55,24.15Z"/><rect class="cls-2" x="1.93" y="0.26" width="5.94" height="5.94" rx="2.07"/><rect class="cls-2" x="10.1" y="0.26" width="5.94" height="5.94" rx="2.07"/><rect class="cls-2" x="1.93" y="8.5" width="5.94" height="5.94" rx="2.07"/><rect class="cls-2" x="10.1" y="8.5" width="5.94" height="5.94" rx="2.07"/></g></g></svg>