<svg xmlns="http://www.w3.org/2000/svg" viewBox="0 0 22.77 24.8"><defs><style>.cls-1{fill:none;stroke:#282827;stroke-miterlimit:10;stroke-width:0.6px;}.cls-2{fill:#282827;}</style></defs><g id="Layer_2" data-name="Layer 2"><g id="Layer_1-2" data-name="Layer 1"><path class="cls-1" d="M15.46,14.82H6A2.81,2.81,0,0,1,3.23,12V6.11a2.82,2.82,0,0,1,1.3-2.37l4.71-3a2.8,2.8,0,0,1,3,0l4.71,3a2.82,2.82,0,0,1,1.3,2.37V12A2.81,2.81,0,0,1,15.46,14.82Z"/><path class="cls-1" d="M10,8.65h1.58a1.81,1.81,0,0,1,1.81,1.81v4.36a0,0,0,0,1,0,0H8.19a0,0,0,0,1,0,0V10.46A1.81,1.81,0,0,1,10,8.65Z"/><path class="cls-2" d="M3.13,24.72V22.6a.93.93,0,0,0-.38-.75,1.33,1.33,0,0,0-.87-.3H1.66L.32,22.4v2.32H0V20.41H.32V22L3,20.41l.25.17-1.14.71a1.69,1.69,0,0,1,1,.41,1.13,1.13,0,0,1,.37.89v2.13Z"/><path class="cls-2" d="M7.17,24.72v-.6a1.49,1.49,0,0,1-.62.49,2.09,2.09,0,0,1-.83.19,1.66,1.66,0,0,1-1.13-.4,1.36,1.36,0,0,1-.44-1v-3h.33v3a1,1,0,0,0,.34.8,1.32,1.32,0,0,0,.9.3,1.63,1.63,0,0,0,1-.34,1.06,1.06,0,0,0,.45-.85V20.41h.32v4.31Z"/><path class="cls-2" d="M6.44,19.87v-.2c0-.16-.07-.23-.21-.23H6.11v-.33h.2c.3,0,.45.12.45.35v.09H8.12v.32Z"/><path class="cls-2" d="M10,24.72V21.94a1.42,1.42,0,0,0-.3-1,1.13,1.13,0,0,0-.89-.34,1.33,1.33,0,0,0-.84.25v-.33a1.78,1.78,0,0,1,.85-.23,1.45,1.45,0,0,1,1.14.45,1.51,1.51,0,0,1,.36,1.06v2.88Z"/><path class="cls-2" d="M14.21,24.72V22.6a.9.9,0,0,0-.38-.75,1.31,1.31,0,0,0-.87-.3h-.21l-1.34.83v2.32h-.33V20.41h.33V22l2.67-1.63.25.17-1.13.71a1.66,1.66,0,0,1,1,.41,1.13,1.13,0,0,1,.38.89v2.13Z"/><path class="cls-2" d="M18.35,24.72V23a1.31,1.31,0,0,0-.57-.62,1.71,1.71,0,0,0-.93-.25,1.43,1.43,0,0,0-1.06.39,1.3,1.3,0,0,0-.39.95,1,1,0,0,0,.25.7.76.76,0,0,0,.61.3.94.94,0,0,0,.55-.15l.19.26a1.27,1.27,0,0,1-.74.22,1.09,1.09,0,0,1-.86-.41,1.36,1.36,0,0,1-.32-.92,1.59,1.59,0,0,1,.47-1.16,1.7,1.7,0,0,1,1.3-.5,2,2,0,0,1,1.5.62v-.65a1,1,0,0,0-.43-.81,1.51,1.51,0,0,0-1-.29,1.6,1.6,0,0,0-.83.23,1.13,1.13,0,0,0-.51.6h-.35a1.42,1.42,0,0,1,.64-.83A1.93,1.93,0,0,1,17,20.33a1.85,1.85,0,0,1,1.18.4,1.27,1.27,0,0,1,.5,1v3Z"/><path class="cls-2" d="M17.27,19.87v-.65h.33v.33h2.48v.32Z"/><path class="cls-2" d="M22.45,24.72V21.83a1.06,1.06,0,0,0-.4-.88,1.44,1.44,0,0,0-.95-.29,1.56,1.56,0,0,0-1.35.64v3.42h-.32V21.21a1.91,1.91,0,0,1,1.67-.88,1.85,1.85,0,0,1,1.17.36,1.25,1.25,0,0,1,.5,1v3Z"/></g></g></svg>