<svg xmlns="http://www.w3.org/2000/svg" viewBox="0 0 16.31 16.31"><defs><style>.cls-1{fill:#272525;}</style></defs><title>setting_0</title><g id="Layer_2" data-name="Layer 2"><g id="Layer_1-2" data-name="Layer 1"><path class="cls-1" d="M15.16,11.36a.57.57,0,0,0,.66-.45l.48-2.5a.57.57,0,0,0-.45-.66l-1-.18A6.29,6.29,0,0,0,14.56,6l.81-.55a.57.57,0,0,0,.15-.79l-1.43-2.1a.53.53,0,0,0-.36-.24.53.53,0,0,0-.42.09L12.5,3a6.92,6.92,0,0,0-1.33-.87l.19-1a.56.56,0,0,0-.45-.66L8.41,0A.53.53,0,0,0,8,.1a.57.57,0,0,0-.24.36l-.18,1A6.8,6.8,0,0,0,6,1.75L5.47.93A.59.59,0,0,0,4.68.78L2.58,2.21a.58.58,0,0,0-.24.36A.55.55,0,0,0,2.43,3L3,3.81a7.17,7.17,0,0,0-.87,1.32L1.15,5A.55.55,0,0,0,.72,5a.52.52,0,0,0-.23.36L0,7.89a.56.56,0,0,0,.45.66l1,.19a6.91,6.91,0,0,0,.33,1.55l-.82.55a.52.52,0,0,0-.23.36.59.59,0,0,0,.08.43l1.43,2.1a.57.57,0,0,0,.36.23A.59.59,0,0,0,3,13.88l.81-.56a6.75,6.75,0,0,0,1.32.88l-.18,1a.56.56,0,0,0,.45.66l2.49.48H8a.56.56,0,0,0,.55-.46l.19-1a6.38,6.38,0,0,0,1.55-.32l.55.81a.53.53,0,0,0,.36.24.55.55,0,0,0,.43-.09l2.1-1.43a.56.56,0,0,0,.15-.78l-.56-.81a6.53,6.53,0,0,0,.88-1.33Zm-1.82-1a5.52,5.52,0,0,1-1.14,1.74.57.57,0,0,0-.06.71l.48.71-1.16.79L11,13.56a.57.57,0,0,0-.68-.21,5.51,5.51,0,0,1-2,.43.56.56,0,0,0-.55.46l-.16.84-1.39-.26L6.32,14A.58.58,0,0,0,6,13.34,5.41,5.41,0,0,1,4.25,12.2a.57.57,0,0,0-.71-.06l-.71.48L2,11.46,2.75,11a.56.56,0,0,0,.2-.68,5.5,5.5,0,0,1-.42-2,.58.58,0,0,0-.46-.55l-.84-.16.26-1.39.84.16A.55.55,0,0,0,3,6,5.58,5.58,0,0,1,4.1,4.25a.56.56,0,0,0,.07-.71l-.49-.71L4.85,2l.48.71A.57.57,0,0,0,6,3a5.55,5.55,0,0,1,2-.42.58.58,0,0,0,.55-.46l.16-.84,1.38.26L10,2.33a.56.56,0,0,0,.34.63A5.7,5.7,0,0,1,12.06,4.1a.56.56,0,0,0,.71.07l.71-.49.79,1.17-.71.48a.58.58,0,0,0-.21.69,5.68,5.68,0,0,1,.43,2,.56.56,0,0,0,.46.55l.84.16-.26,1.38L14,10A.57.57,0,0,0,13.34,10.32Z"/><path class="cls-1" d="M8.91,4.16a4.06,4.06,0,1,0-1.52,8h0a4,4,0,0,0,.76.07,4.06,4.06,0,0,0,.76-8ZM11,8.7A2.92,2.92,0,0,1,7.6,11h0A2.86,2.86,0,0,1,5.73,9.8a3,3,0,0,1-.46-2.2A2.91,2.91,0,0,1,6.51,5.73a2.86,2.86,0,0,1,1.64-.51,3.41,3.41,0,0,1,.55,0A2.93,2.93,0,0,1,11,8.7Z"/></g></g></svg>