<svg xmlns="http://www.w3.org/2000/svg" viewBox="0 0 16.31 16.31"><defs><style>.cls-1{fill:#e42027;}.cls-2{fill:#272525;}</style></defs><title>setting_1</title><g id="Layer_2" data-name="Layer 2"><g id="Layer_1-2" data-name="Layer 1"><path class="cls-1" d="M5.13,14.2h0l-.18,1a.52.52,0,0,0,.09.42A.52.52,0,0,1,5,15.16Z"/><path class="cls-1" d="M.49,5.4A.52.52,0,0,1,.72,5,.55.55,0,0,1,1.15,5l1,.18A7.17,7.17,0,0,1,3,3.81L2.43,3a.6.6,0,0,1-.09-.43.63.63,0,0,1,.24-.36L4.68.78A.57.57,0,0,1,5.1.7a.56.56,0,0,1,.37.23h0A.59.59,0,0,0,4.68.78L2.58,2.21a.58.58,0,0,0-.24.36A.55.55,0,0,0,2.43,3L3,3.81a7.17,7.17,0,0,0-.87,1.32L1.15,5A.55.55,0,0,0,.72,5a.52.52,0,0,0-.23.36L0,7.89a.58.58,0,0,0,.09.43A.58.58,0,0,1,0,7.89Z"/><path class="cls-1" d="M15.85,7.75a.63.63,0,0,1,.36.24h0a.63.63,0,0,0-.36-.24l-1-.18h0Z"/><path class="cls-1" d="M7.57,1.42l.18-1A.57.57,0,0,1,8,.1.53.53,0,0,1,8.41,0l2.5.48a.56.56,0,0,1,.36.23.56.56,0,0,0-.36-.23L8.41,0A.53.53,0,0,0,8,.1a.57.57,0,0,0-.24.36l-.18,1A6.8,6.8,0,0,0,6,1.75H6A6.8,6.8,0,0,1,7.57,1.42Z"/><path class="cls-1" d="M12.5,3l.81-.55a.55.55,0,0,1,.78.15h0a.53.53,0,0,0-.36-.24.53.53,0,0,0-.42.09L12.5,3a7.17,7.17,0,0,0-1.32-.87h0A7.17,7.17,0,0,1,12.5,3Z"/><path class="cls-1" d="M.7,11.2a.52.52,0,0,1,.23-.36l.82-.55a6.91,6.91,0,0,1-.33-1.55h0a6.91,6.91,0,0,0,.33,1.55l-.82.55a.52.52,0,0,0-.23.36.59.59,0,0,0,.08.43l1.43,2.1h0L.78,11.63A.59.59,0,0,1,.7,11.2Z"/><polygon class="cls-1" points="10.29 14.56 10.84 15.37 10.84 15.37 10.29 14.56 10.29 14.56"/><path class="cls-1" d="M12.63,13.48l-.49-.71a.57.57,0,0,1,.06-.71,5.41,5.41,0,0,0,1.14-1.74A.57.57,0,0,1,14,10l.85.16.26-1.38-.84-.16a.56.56,0,0,1-.46-.55,5.47,5.47,0,0,0-.43-2,.58.58,0,0,1,.21-.69l.71-.48-.79-1.17-.71.49a.56.56,0,0,1-.71-.07A5.76,5.76,0,0,0,10.32,3,.55.55,0,0,1,10,2.34l.16-.85L8.76,1.23l-.16.84a.58.58,0,0,1-.55.46A5.46,5.46,0,0,0,6,3a.58.58,0,0,1-.69-.2L4.85,2l-1.17.79.49.71a.56.56,0,0,1-.07.71A5.76,5.76,0,0,0,3,6a.57.57,0,0,1-.63.34l-.84-.17L1.23,7.55l.84.16a.58.58,0,0,1,.46.55,5.46,5.46,0,0,0,.42,2,.56.56,0,0,1-.2.68L2,11.46l.79,1.17.71-.49a.57.57,0,0,1,.71.06A5.41,5.41,0,0,0,6,13.34a.57.57,0,0,1,.33.63l-.16.85,1.39.26.16-.84a.56.56,0,0,1,.55-.46,5.47,5.47,0,0,0,2-.43.57.57,0,0,1,.68.21l.49.71ZM8.15,12.22a4,4,0,0,1-.76-.08,4,4,0,1,1,.76.08Z"/><path class="cls-2" d="M8.74,14.88l-.19,1a.56.56,0,0,1-.55.46H7.89L5.4,15.82A.55.55,0,0,1,5,15.58a.55.55,0,0,0,.36.24l2.49.48H8a.56.56,0,0,0,.55-.46l.19-1a6.38,6.38,0,0,0,1.55-.32h0A6.38,6.38,0,0,1,8.74,14.88Z"/><path class="cls-2" d="M16.21,8h0a.62.62,0,0,1,.09.42l-.48,2.5a.57.57,0,0,1-.66.45l-1-.19a6.53,6.53,0,0,1-.88,1.33l.56.81a.56.56,0,0,1-.15.78l-2.1,1.43a.55.55,0,0,1-.43.09.53.53,0,0,1-.36-.24h0a.53.53,0,0,0,.36.24.55.55,0,0,0,.43-.09l2.1-1.42a.57.57,0,0,0,.15-.79l-.55-.81a7.17,7.17,0,0,0,.87-1.32l1,.18a.57.57,0,0,0,.66-.45l.48-2.5A.62.62,0,0,0,16.21,8Z"/><path class="cls-2" d="M15.37,5.47,14.56,6a6.29,6.29,0,0,1,.32,1.55h0A6.29,6.29,0,0,0,14.56,6l.81-.55a.57.57,0,0,0,.15-.79L14.1,2.58h0l1.43,2.1A.57.57,0,0,1,15.37,5.47Z"/><path class="cls-2" d="M11.17,2.11h0l.18-1a.58.58,0,0,0-.09-.43.58.58,0,0,1,.09.43Z"/><path class="cls-2" d="M.46,8.55A.56.56,0,0,1,.1,8.32a.52.52,0,0,0,.36.23l1,.19h0Z"/><polygon class="cls-2" points="6.02 1.75 5.47 0.93 5.47 0.93 6.02 1.75 6.02 1.75"/><path class="cls-2" d="M3.81,13.32,3,13.88a.59.59,0,0,1-.43.08.57.57,0,0,1-.36-.23h0a.63.63,0,0,0,.36.24A.65.65,0,0,0,3,13.88l.81-.55a7.17,7.17,0,0,0,1.32.87h0A6.75,6.75,0,0,1,3.81,13.32Z"/><path class="cls-2" d="M11.63,15.52l2.1-1.43a.56.56,0,0,0,.15-.78l-.56-.81a6.53,6.53,0,0,0,.88-1.33l1,.19a.57.57,0,0,0,.66-.45l.48-2.5a.57.57,0,0,0-.45-.66l-1-.18h0A6.29,6.29,0,0,0,14.56,6l.81-.55a.57.57,0,0,0,.15-.79l-1.43-2.1a.55.55,0,0,0-.78-.15L12.5,3a7.17,7.17,0,0,0-1.32-.87h0l.19-1a.58.58,0,0,0-.09-.43.56.56,0,0,0-.36-.23L8.41,0A.53.53,0,0,0,8,.1a.57.57,0,0,0-.24.36l-.18,1A6.8,6.8,0,0,0,6,1.75H6L5.47.93A.56.56,0,0,0,5.1.7a.57.57,0,0,0-.42.08L2.58,2.21a.63.63,0,0,0-.24.36A.6.6,0,0,0,2.43,3L3,3.81a7.17,7.17,0,0,0-.87,1.32L1.15,5A.55.55,0,0,0,.72,5a.52.52,0,0,0-.23.36L0,7.89a.58.58,0,0,0,.09.43.56.56,0,0,0,.36.23l1,.19h0a6.91,6.91,0,0,0,.33,1.55l-.82.55a.52.52,0,0,0-.23.36.59.59,0,0,0,.08.43l1.43,2.1a.57.57,0,0,0,.36.23A.59.59,0,0,0,3,13.88l.81-.56a6.75,6.75,0,0,0,1.32.88h0l-.18,1a.52.52,0,0,0,.09.42.55.55,0,0,0,.36.24l2.49.48H8a.56.56,0,0,0,.55-.46l.19-1a6.38,6.38,0,0,0,1.55-.32h0l.55.81a.53.53,0,0,0,.36.24A.55.55,0,0,0,11.63,15.52Zm-1.34-2.17a5.47,5.47,0,0,1-2,.43.56.56,0,0,0-.55.46l-.16.84-1.39-.26L6.32,14A.57.57,0,0,0,6,13.34,5.41,5.41,0,0,1,4.25,12.2a.57.57,0,0,0-.71-.06l-.71.49L2,11.46,2.75,11a.56.56,0,0,0,.2-.68,5.46,5.46,0,0,1-.42-2,.58.58,0,0,0-.46-.55l-.84-.16.26-1.39.84.17A.57.57,0,0,0,3,6,5.76,5.76,0,0,1,4.1,4.25a.56.56,0,0,0,.07-.71l-.49-.71L4.85,2l.48.71A.58.58,0,0,0,6,3a5.46,5.46,0,0,1,2-.42.58.58,0,0,0,.55-.46l.16-.84,1.38.26L10,2.34a.55.55,0,0,0,.34.62A5.76,5.76,0,0,1,12.06,4.1a.56.56,0,0,0,.71.07l.71-.49.79,1.17-.71.48a.58.58,0,0,0-.21.69,5.47,5.47,0,0,1,.43,2,.56.56,0,0,0,.46.55l.84.16-.26,1.38L14,10a.57.57,0,0,0-.63.34,5.41,5.41,0,0,1-1.14,1.74.57.57,0,0,0-.06.71l.49.71-1.17.79L11,13.56A.57.57,0,0,0,10.29,13.35Z"/><path class="cls-2" d="M8.14,5.09a3,3,0,0,1,.59.06,3,3,0,0,1,1.95,1.28,3.06,3.06,0,0,1-2.52,4.79,2.78,2.78,0,0,1-.58-.06,3,3,0,0,1-2-1.29,3,3,0,0,1-.47-2.29,3.05,3.05,0,0,1,3-2.49m0-1a4.05,4.05,0,1,0,.77.07,4.9,4.9,0,0,0-.77-.07Z"/></g></g></svg>