<svg xmlns="http://www.w3.org/2000/svg" viewBox="0 0 24 32.79"><defs><style>.cls-1,.cls-5{fill:#e42027;}.cls-1,.cls-3{stroke:#282827;}.cls-1,.cls-3,.cls-6{stroke-miterlimit:10;}.cls-2,.cls-4{fill:#282827;}.cls-2{opacity:0.2;}.cls-3{fill:#fff;}.cls-6{fill:none;stroke:#fff;stroke-linecap:round;fill-rule:evenodd;}</style></defs><title>time_1_1</title><g id="Layer_2" data-name="Layer 2"><g id="Layer_1-2" data-name="Layer 1"><rect class="cls-1" x="2.4" y="1.99" width="19.09" height="19.81" rx="3.24"/><path class="cls-2" d="M15,2H17.9a3.59,3.59,0,0,1,3.59,3.59V18.21A3.59,3.59,0,0,1,17.9,21.8H8.7S8.88,10.27,15,2Z"/><path class="cls-3" d="M21.49,6.12V18.24a3.56,3.56,0,0,1-3.56,3.56H6A3.56,3.56,0,0,1,2.4,18.24V6.12Z"/><path class="cls-4" d="M7.17,3.28V.85a.85.85,0,1,1,1.69,0V3.28a.85.85,0,1,1-1.69,0Z"/><path class="cls-4" d="M15,3.28V.85a.85.85,0,1,1,1.69,0V3.28a.85.85,0,1,1-1.69,0Z"/><rect class="cls-5" x="4.89" y="8.39" width="3" height="3" rx="1.5"/><rect class="cls-4" x="9.79" y="8.66" width="2.47" height="2.47" rx="0.64"/><rect class="cls-4" x="5.15" y="12.92" width="2.47" height="2.47" rx="0.64"/><rect class="cls-4" x="5.15" y="17.19" width="2.47" height="2.47" rx="0.64"/><circle class="cls-1" cx="16.06" cy="15.57" r="7.36"/><polyline class="cls-6" points="16.06 12.92 16.06 15.87 18.86 19.42"/><path class="cls-5" d="M0,32.72v-4.4H.66v4.4Z"/><path class="cls-5" d="M4.88,30.52a2.46,2.46,0,0,1-.5,1.59,1.79,1.79,0,0,1-1.48.68,1.87,1.87,0,0,1-1.13-.37A1.84,1.84,0,0,1,1,31.35h.68a1.21,1.21,0,0,0,1.18.83,1.17,1.17,0,0,0,1-.52,2,2,0,0,0,.31-1.14,2,2,0,0,0-.31-1.15,1.19,1.19,0,0,0-1-.52,1.16,1.16,0,0,0-1.16.83H1A1.93,1.93,0,0,1,2.9,28.24a1.82,1.82,0,0,1,1.48.68A2.47,2.47,0,0,1,4.88,30.52Z"/><path class="cls-5" d="M8.56,32.72V30.94a1.26,1.26,0,0,0-.54-.5,1.73,1.73,0,0,0-.83-.2,1.41,1.41,0,0,0-1,.32,1,1,0,0,0-.36.79.85.85,0,0,0,.22.57.72.72,0,0,0,.55.24A1.19,1.19,0,0,0,7.3,32l.39.47a1.56,1.56,0,0,1-1.05.34,1.4,1.4,0,0,1-1-.42,1.42,1.42,0,0,1-.4-1,1.63,1.63,0,0,1,.53-1.21,2.05,2.05,0,0,1,1.45-.51,2,2,0,0,1,1.37.46v-.65A.86.86,0,0,0,8.13,29a1.47,1.47,0,0,0-.71-.18,1.31,1.31,0,0,0-1.3.68H5.41a1.75,1.75,0,0,1,.74-1,2.37,2.37,0,0,1,1.26-.33,2.08,2.08,0,0,1,1.21.34,1.33,1.33,0,0,1,.6.74v3.4Z"/><path class="cls-5" d="M11.67,32.72V30a1.25,1.25,0,0,0-.27-.84,1,1,0,0,0-.8-.31,1.86,1.86,0,0,0-1,.31v-.69a2.19,2.19,0,0,1,1-.23,1.68,1.68,0,0,1,1.28.47,1.46,1.46,0,0,1,.41,1.11v2.9Z"/><path class="cls-5" d="M16.65,30.47A2.11,2.11,0,0,1,16,32.13a2.65,2.65,0,0,1-1.83.6h-.49l-1-3.55.65-.19.9,3.16a1.71,1.71,0,0,0,1.29-.42A1.58,1.58,0,0,0,16,30.47q0-1.62-1.77-1.62h-.15l-.15,0v-.61h.38a2.43,2.43,0,0,1,1.78.6A2.22,2.22,0,0,1,16.65,30.47Z"/><path class="cls-5" d="M18.94,32.72V30a1.25,1.25,0,0,0-.27-.84,1,1,0,0,0-.8-.31,1.86,1.86,0,0,0-1,.31v-.69a2.19,2.19,0,0,1,1-.23,1.68,1.68,0,0,1,1.28.47,1.46,1.46,0,0,1,.41,1.11v2.9Z"/><path class="cls-5" d="M23.34,32.72v-.46a1.89,1.89,0,0,1-1.36.53,1.85,1.85,0,0,1-1.24-.41,1.41,1.41,0,0,1-.48-1.12V28.32h.66v2.87a.92.92,0,0,0,.29.72,1.13,1.13,0,0,0,.79.27,1.66,1.66,0,0,0,.91-.29.81.81,0,0,0,.43-.69V28.32H24v4.4Z"/></g></g></svg>