<svg xmlns="http://www.w3.org/2000/svg" xmlns:xlink="http://www.w3.org/1999/xlink" viewBox="0 0 75.9 89.35"><defs><style>.cls-1{fill:none;}.cls-2{clip-path:url(#clip-path);}.cls-3{fill:#fff;stroke:#27ff50;stroke-miterlimit:10;stroke-width:0.5px;}.cls-4{clip-path:url(#clip-path-2);}.cls-5{fill:#27ff50;}.cls-6{fill:#1a2e35;}.cls-7{fill:#fafafa;}.cls-8{fill:#ffbf9d;}.cls-9{fill:#ff9a6c;}.cls-10{fill:#375a64;}.cls-11{fill:#ff4f5b;}</style><clipPath id="clip-path" transform="translate(-1.51 -0.25)"><rect class="cls-1" width="78.3" height="90.62"/></clipPath><clipPath id="clip-path-2" transform="translate(-1.51 -0.25)"><circle class="cls-1" cx="39.46" cy="51.65" r="35"/></clipPath></defs><g id="Layer_2" data-name="Layer 2"><g id="Layer_1-2" data-name="Layer 1"><g class="cls-2"><circle class="cls-3" cx="37.95" cy="51.4" r="37.7"/><g class="cls-4"><path class="cls-5" d="M26.54,86.14,20.87,69.83s-5.36,4.4-6.12,10.27v0a22.3,22.3,0,0,1,11.67,6Z" transform="translate(-1.51 -0.25)"/><path class="cls-5" d="M63.28,78.75c-.28-6.67-.44-11.84-.44-11.84l-16.58-4-14.06.47L20.87,69.83c0,.32,1.46,6.84,3.14,14.23a21.35,21.35,0,0,1,2.38,2.08h.23a24,24,0,0,1,11.61,2.94A23.85,23.85,0,0,1,47,87.35a24.33,24.33,0,0,1,8.1-1.86A27,27,0,0,1,63.28,78.75Z" transform="translate(-1.51 -0.25)"/><path class="cls-5" d="M74.06,39.21c0-.47,0-.93,0-1.39a19.37,19.37,0,0,1-5.33-9L51.87,61.34c-1.93-.71-3.51,0-4.78,1.89L48,68.78,62.48,79.2c.3-.18.61-.35.93-.52,1.4-6.3,6-19,11.74-33.8A20.14,20.14,0,0,1,74.06,39.21Z" transform="translate(-1.51 -0.25)"/><path class="cls-6" d="M55.33,65.82a4.32,4.32,0,0,1-1-1.32,8.2,8.2,0,0,0-2.48-3,2.46,2.46,0,0,0-2-.26,4.1,4.1,0,0,0-1.5.87c-.77.68-1.18,1.17-1.22,1.14s.07-.15.25-.38a8.25,8.25,0,0,1,.83-.91,4.14,4.14,0,0,1,1.56-1,2.72,2.72,0,0,1,1.11-.12,2.77,2.77,0,0,1,1.13.39,5,5,0,0,1,1.61,1.59c.37.58.65,1.12.9,1.57C55,65.3,55.36,65.79,55.33,65.82Z" transform="translate(-1.51 -0.25)"/><path class="cls-6" d="M63.46,78.65V76.74c0-.91,0-1.67,0-2.26a4.27,4.27,0,0,0,0-.83,5,5,0,0,0-.07.83c0,.53,0,1.31-.07,2.26,0,.61,0,1.3,0,2Z" transform="translate(-1.51 -0.25)"/><path class="cls-6" d="M58,63.17s-.21-.36-.61-.87a4.86,4.86,0,0,0-2-1.47,4.67,4.67,0,0,0-2.47-.22c-.64.11-1,.29-1,.24a2.24,2.24,0,0,1,1-.45,4.5,4.5,0,0,1,2.63.15,4.4,4.4,0,0,1,2.06,1.62A2.09,2.09,0,0,1,58,63.17Z" transform="translate(-1.51 -0.25)"/><path class="cls-6" d="M65.21,60.22a21.65,21.65,0,0,0-1.89,4.24,21.9,21.9,0,0,0-.64,4.59,4.85,4.85,0,0,1-.12-1.38,12.4,12.4,0,0,1,.48-3.3,12.24,12.24,0,0,1,1.34-3.05A4.55,4.55,0,0,1,65.21,60.22Z" transform="translate(-1.51 -0.25)"/><path class="cls-7" d="M62.21,64.79l-.11.09-.31.25a13.2,13.2,0,0,0-1.2,1,31.4,31.4,0,0,0-3.89,4.1c-1.52,1.84-3.19,4.16-5.4,6.45a17.83,17.83,0,0,1-3.93,3.07,12.76,12.76,0,0,1-5.11,1.6,15.46,15.46,0,0,1-2.72,0A20.15,20.15,0,0,1,36.92,81a33.49,33.49,0,0,1-4.79-1.38c-3-1.1-5.57-2.28-7.82-3.06a28.66,28.66,0,0,0-5.46-1.43c-.66-.09-1.18-.14-1.53-.16l-.4,0c-.09,0-.14,0-.14,0h.54a13.46,13.46,0,0,1,1.54.11,26.28,26.28,0,0,1,5.52,1.34c2.27.76,4.88,1.92,7.85,3A31.71,31.71,0,0,0,37,80.67a19.78,19.78,0,0,0,2.58.35,15,15,0,0,0,2.68,0,12.41,12.41,0,0,0,5-1.55,17.71,17.71,0,0,0,3.87-3c2.2-2.26,3.89-4.57,5.44-6.39a28.38,28.38,0,0,1,4-4,11.13,11.13,0,0,1,1.24-.92l.34-.23C62.16,64.81,62.2,64.78,62.21,64.79Z" transform="translate(-1.51 -0.25)"/><path class="cls-7" d="M70.41,55.74s-.47-.56-1.26-1.44a19.72,19.72,0,0,0-7.5-5.16c-1.1-.43-1.81-.62-1.8-.67a1.71,1.71,0,0,1,.51.08,13.31,13.31,0,0,1,1.36.39,17.29,17.29,0,0,1,7.59,5.23,10.67,10.67,0,0,1,.84,1.12C70.34,55.57,70.43,55.73,70.41,55.74Z" transform="translate(-1.51 -0.25)"/><path class="cls-6" d="M32.12,58.37A7.12,7.12,0,0,1,22.62,52c-.1-2.07.69-4.23-.09-6.14-.54-1.32-1.74-2.28-2.22-3.62-.71-2,.38-4.14,1.43-6A13.62,13.62,0,0,1,24.09,33a4.61,4.61,0,0,1,3.68-1.38" transform="translate(-1.51 -0.25)"/><path class="cls-6" d="M49.2,30.23c0,1.56,1.12,2.88,2.24,4s2.35,2.23,2.69,3.75c.59,2.71-1.91,5.44-1.16,8.11.4,1.43,1.67,2.51,2,4a5.13,5.13,0,0,1-1.22,4A43,43,0,0,0,51,57.36s-1.53,3-7,1.53" transform="translate(-1.51 -0.25)"/><path class="cls-6" d="M25.47,34.32c-.14-1.41,1.09-2.59,2.36-3.2a19.75,19.75,0,0,0,3.84-1.78,19.75,19.75,0,0,0,2.42-2.87A8.7,8.7,0,0,1,49,29.41c.65,2,.48,4.38-1,5.82-1.73,1.68-4.48,1.53-6.86,1.22s-5.09-.6-7,.92A10.32,10.32,0,0,0,31.8,41,6.14,6.14,0,0,1,29,44.23c-1.33.57-3.25-.11-3.41-1.56" transform="translate(-1.51 -0.25)"/><path class="cls-8" d="M50.9,38.15c-.55-4-3.58-8.75-7.56-8L31.05,34.21a2.36,2.36,0,0,0-1.93,2.55l3,28.23a7.22,7.22,0,0,0,7.8,6.41h0a7.21,7.21,0,0,0,6.55-7.74c-.18-2.29-.33-4.22-.33-4.21s5.07-1.24,5.65-8C52.08,48.05,51.51,42.6,50.9,38.15Z" transform="translate(-1.51 -0.25)"/><path class="cls-6" d="M50,42.54c-.1.12-.79-.31-1.72-.24s-1.57.58-1.67.47,0-.25.32-.49a2.37,2.37,0,0,1,2.7-.19C50,42.29,50.07,42.49,50,42.54Z" transform="translate(-1.51 -0.25)"/><path class="cls-6" d="M40.94,43.44c-.1.12-.79-.31-1.71-.24s-1.57.58-1.68.48,0-.26.32-.5a2.44,2.44,0,0,1,1.34-.52,2.26,2.26,0,0,1,1.37.34C40.88,43.19,41,43.39,40.94,43.44Z" transform="translate(-1.51 -0.25)"/><path class="cls-6" d="M44.7,48.54a6.45,6.45,0,0,1,1.48-.38c.24,0,.46-.11.49-.27a1.27,1.27,0,0,0-.21-.69l-.83-1.75a31.57,31.57,0,0,1-1.92-4.59A30.6,30.6,0,0,1,46,45.29l.8,1.76A1.33,1.33,0,0,1,47,48a.58.58,0,0,1-.36.37,1.29,1.29,0,0,1-.4.08A6.34,6.34,0,0,1,44.7,48.54Z" transform="translate(-1.51 -0.25)"/><path class="cls-9" d="M46.15,59.45A17.12,17.12,0,0,1,37,57.71s2.6,4.45,9.27,3.32Z" transform="translate(-1.51 -0.25)"/><path class="cls-6" d="M41.09,39.65c-.07.26-1,.21-2.08.42s-1.94.57-2.1.35.07-.35.4-.62a3.7,3.7,0,0,1,3.18-.59C40.9,39.34,41.12,39.53,41.09,39.65Z" transform="translate(-1.51 -0.25)"/><path class="cls-6" d="M49.42,38.89c-.15.23-.8,0-1.57.1s-1.41.25-1.57,0,0-.32.28-.54a2.27,2.27,0,0,1,2.53-.11C49.38,38.58,49.48,38.79,49.42,38.89Z" transform="translate(-1.51 -0.25)"/><path class="cls-6" d="M28,56.61a6,6,0,0,0,6.61-7.09c-.32-1.63-1.33-3.25-.87-4.85.61-2.11,3.45-3,4.07-5.07.36-1.22-.14-2.59.28-3.8a4.48,4.48,0,0,1,2.61-2.34,11.8,11.8,0,0,0,3.19-1.66,2.61,2.61,0,0,0,.7-3.23,64,64,0,0,0-14.41,4.61,5.72,5.72,0,0,0-2.76,2.08A5.92,5.92,0,0,0,27,38.9l2.13,18" transform="translate(-1.51 -0.25)"/><path class="cls-10" d="M22.84,35.07a.53.53,0,0,0-.09.28,1,1,0,0,0,.32.79,1.68,1.68,0,0,0,1.24.52A3.87,3.87,0,0,0,26,36a4.81,4.81,0,0,1,1.91-.72,10.17,10.17,0,0,1,2.39,0,15.6,15.6,0,0,0,2.7.15,3.82,3.82,0,0,0,2.67-1.2,7.71,7.71,0,0,0,1.41-2.56,12.35,12.35,0,0,1,1.12-2.4A3.76,3.76,0,0,1,42,27.67a3.94,3.94,0,0,1,2.46,1.56,8.59,8.59,0,0,1,.56.95.87.87,0,0,0-.07-.28,4,4,0,0,0-.38-.75,3.86,3.86,0,0,0-4.68-1.53,4.06,4.06,0,0,0-1.93,1.55,12.3,12.3,0,0,0-1.17,2.45,7.76,7.76,0,0,1-1.34,2.46A3.54,3.54,0,0,1,33,35.17,16.39,16.39,0,0,1,30.31,35a10.13,10.13,0,0,0-2.46,0,5,5,0,0,0-2,.79,3.82,3.82,0,0,1-1.55.65A1.58,1.58,0,0,1,23.16,36a1,1,0,0,1-.34-.69C22.82,35.17,22.86,35.08,22.84,35.07Z" transform="translate(-1.51 -0.25)"/><path class="cls-6" d="M26.46,32.87a4.94,4.94,0,0,0-.93-9.63,3,3,0,0,0-2.88,1.13c-.55.89-.42,2.13-1.16,2.87s-2.09.57-3.16.88A3.65,3.65,0,0,0,16,32.23a5,5,0,0,0,3.37,3.6,7.85,7.85,0,0,0,5.08-.26A19.18,19.18,0,0,0,28.91,33" transform="translate(-1.51 -0.25)"/><path class="cls-10" d="M18.05,28.6a3.24,3.24,0,0,0,.58,1.2,6.9,6.9,0,0,0,2.42,2.12,6.76,6.76,0,0,0,3.11.79,3.08,3.08,0,0,0,1.31-.19c0-.06-.51,0-1.3-.05a7.64,7.64,0,0,1-5.34-2.82C18.33,29,18.11,28.57,18.05,28.6Z" transform="translate(-1.51 -0.25)"/><path class="cls-11" d="M22.14,35.76a13.21,13.21,0,0,1,3-3A12.94,12.94,0,0,1,29,31.12a3.16,3.16,0,0,0-1.28.1,8.27,8.27,0,0,0-2.84,1.23,8.45,8.45,0,0,0-2.21,2.17A3.09,3.09,0,0,0,22.14,35.76Z" transform="translate(-1.51 -0.25)"/><path class="cls-10" d="M29.34,30.75s0,.07.11.19a1.85,1.85,0,0,0,.47.42,2.93,2.93,0,0,0,2.25.34A5.64,5.64,0,0,0,35,29.76a15.73,15.73,0,0,1,2.79-2.94,5.27,5.27,0,0,1,3.82-.76,5.11,5.11,0,0,1,2.81,1.55,5.5,5.5,0,0,1,1.16,1.87c.18.5.23.79.26.79a.63.63,0,0,0,0-.22,5.3,5.3,0,0,0-.13-.61,5.45,5.45,0,0,0-1.11-2,5.2,5.2,0,0,0-2.94-1.69,5.48,5.48,0,0,0-4.06.79,15,15,0,0,0-2.84,3,5.45,5.45,0,0,1-2.6,1.91A2.88,2.88,0,0,1,30,31.25,5.39,5.39,0,0,1,29.34,30.75Z" transform="translate(-1.51 -0.25)"/><path class="cls-9" d="M44.82,50.9a4.05,4.05,0,0,1-.48,1,1.25,1.25,0,0,1-.9.54,1.14,1.14,0,0,1-1-.51,1.87,1.87,0,0,1-.29-1.11c0-.35.16-.77.51-.82a.88.88,0,0,1,.42.09l1.85.71" transform="translate(-1.51 -0.25)"/><path class="cls-6" d="M44.12,52.42a2.86,2.86,0,0,1-1-.1,1.4,1.4,0,0,1-.75-.66,1.51,1.51,0,0,1,0-1.2,1.56,1.56,0,0,1,.16-.28c.07-.07,0-.07.13-.06l.3.11.3.12,1.06.39a3.41,3.41,0,0,0,1,.28,3.45,3.45,0,0,0-.92-.5l-1-.45-.3-.13a3.08,3.08,0,0,0-.34-.13.42.42,0,0,0-.27,0,.43.43,0,0,0-.2.17,1.51,1.51,0,0,0-.2.35,1.72,1.72,0,0,0,.08,1.46,1.56,1.56,0,0,0,1,.73,1.42,1.42,0,0,0,.79,0C44,52.5,44.13,52.44,44.12,52.42Z" transform="translate(-1.51 -0.25)"/></g><circle class="cls-5" cx="39.46" cy="10.25" r="10" transform="translate(16.1 44.42) rotate(-72.14)"/><path class="cls-6" d="M36,7.73c.38,0,.73.38.77.93s-.22,1-.6,1.05-.73-.39-.77-.94S35.64,7.76,36,7.73Z" transform="translate(-1.51 -0.25)"/><path class="cls-6" d="M42.37,7.6c-.38,0-.7.41-.73,1s.27,1,.65,1,.71-.42.73-1S42.75,7.61,42.37,7.6Z" transform="translate(-1.51 -0.25)"/><path class="cls-6" d="M43.46,10.88s-.06.12-.22.29a7.06,7.06,0,0,1-.75.68,5.47,5.47,0,0,1-1.33.72,4.66,4.66,0,0,1-1.83.29,5.47,5.47,0,0,1-1.8-.42,7.77,7.77,0,0,1-1.33-.69,4.31,4.31,0,0,1-1.06-.87,9.47,9.47,0,0,1,1.17.68,10.37,10.37,0,0,0,1.32.61,5.71,5.71,0,0,0,1.71.38,4.77,4.77,0,0,0,1.73-.25,5.54,5.54,0,0,0,1.29-.64c.34-.23.61-.43.79-.58S43.45,10.86,43.46,10.88Z" transform="translate(-1.51 -0.25)"/><path class="cls-6" d="M36.47,5.48c0,.08-.5,0-1.07.15s-1,.26-1.06.18.38-.4,1-.49S36.49,5.4,36.47,5.48Z" transform="translate(-1.51 -0.25)"/><path class="cls-6" d="M44.52,5.94c-.06.08-.48-.18-1.05-.35s-1.06-.2-1.06-.29.52-.2,1.15,0S44.57,5.88,44.52,5.94Z" transform="translate(-1.51 -0.25)"/><path class="cls-6" d="M35.3,10.16s.1.09.11.28a1.12,1.12,0,0,1-.22.69,1.1,1.1,0,0,1-.58.44c-.18,0-.3,0-.3,0s.37-.22.63-.61S35.21,10.17,35.3,10.16Z" transform="translate(-1.51 -0.25)"/><path class="cls-6" d="M44.31,11.08s-.08.1-.23.11a.8.8,0,0,1-.57-.18.83.83,0,0,1-.34-.49c0-.15,0-.25,0-.25s.19.28.48.49S44.29,11,44.31,11.08Z" transform="translate(-1.51 -0.25)"/></g></g></g></svg>