<svg xmlns="http://www.w3.org/2000/svg" xmlns:xlink="http://www.w3.org/1999/xlink" viewBox="0 0 75.9 88.85"><defs><style>.cls-1{fill:none;}.cls-2{clip-path:url(#clip-path);}.cls-3{fill:#fff;stroke:#ffc622;stroke-miterlimit:10;stroke-width:0.5px;}.cls-4{clip-path:url(#clip-path-2);}.cls-5{fill:#ffc622;}.cls-6{fill:#1a2e35;}.cls-7{fill:#ffbf9d;}.cls-8{fill:#ff9a6c;}.cls-9{fill:#375a64;}</style><clipPath id="clip-path" transform="translate(-1.2 -0.74)"><rect class="cls-1" width="78.3" height="90.62"/></clipPath><clipPath id="clip-path-2" transform="translate(-1.2 -0.74)"><circle class="cls-1" cx="39.15" cy="51.65" r="35"/></clipPath></defs><g id="Layer_2" data-name="Layer 2"><g id="Layer_1-2" data-name="Layer 1"><g class="cls-2"><circle class="cls-3" cx="37.95" cy="50.9" r="37.7"/><g class="cls-4"><path class="cls-5" d="M23.19,84.33c4.79,2.53,10.74,3.3,16.22,3.8l3.33.27a12.08,12.08,0,0,1,1.7-.56A76.13,76.13,0,0,0,58.64,83a14.4,14.4,0,0,0,3-2,65.16,65.16,0,0,1,4.88-5.87,15,15,0,0,1,1.09-1c-6.59-6.79-17.07-11-17.07-11l-6.24.14a64.37,64.37,0,0,0-10-.89c-5.69-.18-12.14.54-15.24,1.68-2.78,1-6.12,5.15-9.15,9.77C14.52,77.43,18.8,82,23.19,84.33Z" transform="translate(-1.2 -0.74)"/><path class="cls-6" d="M18.47,81.09a48,48,0,0,0,1.08-5.57,50.79,50.79,0,0,0-1.36,5.35Z" transform="translate(-1.2 -0.74)"/><path class="cls-7" d="M55,40,50.41,68a8.59,8.59,0,0,1-9.33,7.15h0a8.59,8.59,0,0,1-7.71-9.28l.45-5.33S27.05,58.84,27.56,52c.25-3.31,1.31-10.07,2.34-16.19A12.88,12.88,0,0,1,44.32,25.16h0A12.73,12.73,0,0,1,55,40Z" transform="translate(-1.2 -0.74)"/><path class="cls-8" d="M33.81,60.51A16,16,0,0,0,43,58.75s-2.54,4.75-9.33,3.54Z" transform="translate(-1.2 -0.74)"/><path class="cls-6" d="M31.57,41.16a1,1,0,0,0,.86,1.07.94.94,0,0,0,1.09-.8,1,1,0,0,0-.86-1.07A1,1,0,0,0,31.57,41.16Z" transform="translate(-1.2 -0.74)"/><path class="cls-6" d="M33,39.32a5.13,5.13,0,0,0,2,0c.51-.34-1.93-.56-1.93-.56A4.83,4.83,0,0,0,31,39S30.52,39.27,33,39.32Z" transform="translate(-1.2 -0.74)"/><path class="cls-6" d="M41.86,42.48a1,1,0,0,0,.86,1.07.93.93,0,0,0,1.08-.8A1,1,0,0,0,43,41.68.94.94,0,0,0,41.86,42.48Z" transform="translate(-1.2 -0.74)"/><path class="cls-6" d="M43.38,40.18a5.13,5.13,0,0,0,2,0c.51-.34-1.94-.56-1.94-.56a4.78,4.78,0,0,0-2,.29S40.87,40.13,43.38,40.18Z" transform="translate(-1.2 -0.74)"/><path class="cls-6" d="M36.92,47.92a6.91,6.91,0,0,0-1.68-.46c-.27-.05-.52-.13-.55-.31a1.37,1.37,0,0,1,.25-.79l1-2a34.72,34.72,0,0,0,2.25-5.21,36.86,36.86,0,0,0-2.66,5l-.94,2a1.5,1.5,0,0,0-.23,1,.65.65,0,0,0,.41.43,1.64,1.64,0,0,0,.45.11A6.72,6.72,0,0,0,36.92,47.92Z" transform="translate(-1.2 -0.74)"/><ellipse class="cls-6" cx="34.54" cy="51.17" rx="3.2" ry="0.28"/><path class="cls-6" d="M41.43,37.45c.08.3,1.14.25,2.36.51s2.2.68,2.38.44-.06-.4-.44-.72A4,4,0,0,0,44,36.91a4,4,0,0,0-1.89.05C41.64,37.11,41.4,37.31,41.43,37.45Z" transform="translate(-1.2 -0.74)"/><path class="cls-6" d="M32.56,35.17c.16.26.91.09,1.79.18s1.59.34,1.78.11,0-.37-.3-.63a2.41,2.41,0,0,0-1.4-.55A2.46,2.46,0,0,0,33,34.6C32.62,34.81,32.49,35,32.56,35.17Z" transform="translate(-1.2 -0.74)"/><path class="cls-6" d="M48.23,31.9l0,0A5.4,5.4,0,0,1,50,35.59v.14c.1,2-.12,4,0,5.94a9,9,0,0,0,2,5.5c.55.6,1.57,1.08,2.11.47a1.64,1.64,0,0,0,.32-.87c.78-4.7,2.43-8.77,2.85-13.71a4.2,4.2,0,0,0-1.43-3.54c-1-.83-2.17-1.71-3.36-1.26s-2.88,2.46-3.85,3.3" transform="translate(-1.2 -0.74)"/><path class="cls-7" d="M52.45,43c.12,0,4.83-1,4.27,3.69s-5.13,3.16-5.13,3S52.45,43,52.45,43Z" transform="translate(-1.2 -0.74)"/><path class="cls-8" d="M53.23,48.07s.08.07.21.15a.85.85,0,0,0,.6.08,2,2,0,0,0,1.15-1.7,2.75,2.75,0,0,0-.09-1.19,1,1,0,0,0-.53-.7.42.42,0,0,0-.51.17C54,45,54,45.1,54,45.1s-.09-.09,0-.27a.56.56,0,0,1,.22-.28.66.66,0,0,1,.47-.06,1.16,1.16,0,0,1,.76.83,2.78,2.78,0,0,1,.13,1.33,2.15,2.15,0,0,1-1.43,1.88.89.89,0,0,1-.73-.21C53.23,48.18,53.22,48.08,53.23,48.07Z" transform="translate(-1.2 -0.74)"/><path class="cls-6" d="M52.92,29.78c1.57-1.55-.86-4.93-2.94-6.2s-5.32-.91-7.75-.72a12.76,12.76,0,0,1-4.57,0,10.37,10.37,0,0,1-2.72-1.46,7.7,7.7,0,0,0-2.78-1.3,2.84,2.84,0,0,0-2.78.93A1.78,1.78,0,0,0,30,23.65a2.43,2.43,0,0,0-3.71.83,2.43,2.43,0,0,0,2.08,3.18c-.52-.65-1.72-.09-1.84.74a2.45,2.45,0,0,0,1.13,2.12,8.78,8.78,0,0,0,6.12,1.41c2.14-.17,4.22-.75,6.35-1s5.72-.7,7.52.48c1.31.86,1.89,2.85,2.8,2.67a2.88,2.88,0,0,0,2-1.7,8.29,8.29,0,0,0,.56-2.62" transform="translate(-1.2 -0.74)"/><path class="cls-9" d="M30.16,24s-.09,0-.25.12a1.39,1.39,0,0,0-.56.54,2,2,0,0,0-.26,1.19,2,2,0,0,0,.76,1.39,3.77,3.77,0,0,0,1.82.78A7.81,7.81,0,0,0,34,28,23.07,23.07,0,0,0,39,26.33a14,14,0,0,1,5.22-1.26,6.39,6.39,0,0,1,2.32.46,5.69,5.69,0,0,1,1.72,1.12,5.87,5.87,0,0,1,1.61,2.48,3.79,3.79,0,0,1,.22,1.06s-.06-.39-.29-1a6,6,0,0,0-1.63-2.4,5.69,5.69,0,0,0-1.69-1.07,6.31,6.31,0,0,0-2.26-.43,14.07,14.07,0,0,0-5.15,1.26A22.69,22.69,0,0,1,34,28.19a7.79,7.79,0,0,1-2.36,0,3.94,3.94,0,0,1-1.89-.83,2.55,2.55,0,0,1-.57-.71,2.12,2.12,0,0,1-.21-.78,2,2,0,0,1,.31-1.24,1.31,1.31,0,0,1,.6-.54A1.08,1.08,0,0,1,30.16,24Z" transform="translate(-1.2 -0.74)"/><path class="cls-9" d="M47,23.88a1,1,0,0,1,.31,0,3.58,3.58,0,0,1,.79.25,4.59,4.59,0,0,1,2.76,4.41,3.69,3.69,0,0,1-.11.82,1,1,0,0,1-.1.29s.08-.43.08-1.12A4.9,4.9,0,0,0,50,26.05a4.83,4.83,0,0,0-2-1.75C47.38,24,47,23.92,47,23.88Z" transform="translate(-1.2 -0.74)"/><path class="cls-9" d="M56.53,37.34a.89.89,0,0,1-.4.06,1.93,1.93,0,0,1-1-.37,2.76,2.76,0,0,1-1-1.3,8.06,8.06,0,0,1-.39-1.92,8,8,0,0,0-.38-1.88,2.54,2.54,0,0,0-.9-1.22,1.82,1.82,0,0,0-.95-.38c-.25,0-.39,0-.39,0a.7.7,0,0,1,.39-.07,1.9,1.9,0,0,1,1,.34,2.69,2.69,0,0,1,1,1.28,7.51,7.51,0,0,1,.4,1.92,8.58,8.58,0,0,0,.37,1.88,2.61,2.61,0,0,0,.87,1.24,2,2,0,0,0,1,.41C56.38,37.35,56.52,37.32,56.53,37.34Z" transform="translate(-1.2 -0.74)"/><path class="cls-9" d="M55.87,40.39l-.12,0a2.08,2.08,0,0,1-.34,0,3.86,3.86,0,0,1-1.23-.26,5.67,5.67,0,0,1-3-2.74,8.38,8.38,0,0,1-.85-4,3.91,3.91,0,0,0,0-.7.86.86,0,0,0-.21-.45.62.62,0,0,0-.38-.2s.19-.07.43.14a1,1,0,0,1,.27.49,3.33,3.33,0,0,1,0,.72,8.72,8.72,0,0,0,.9,3.94,5.7,5.7,0,0,0,2.9,2.7A6.7,6.7,0,0,0,55.87,40.39Z" transform="translate(-1.2 -0.74)"/></g><circle class="cls-5" cx="39.31" cy="10.74" r="10" transform="translate(7.52 36.93) rotate(-56.65)"/><path class="cls-6" d="M35.86,8.22c.38,0,.73.39.77.94s-.22,1-.6,1-.73-.38-.77-.93S35.48,8.25,35.86,8.22Z" transform="translate(-1.2 -0.74)"/><path class="cls-6" d="M42.22,8.09c-.38,0-.7.42-.73,1s.27,1,.65,1,.71-.42.73-1S42.6,8.11,42.22,8.09Z" transform="translate(-1.2 -0.74)"/><path class="cls-6" d="M43.31,12.72a20,20,0,0,1-4.16.22A20,20,0,0,1,35,12.72a20.41,20.41,0,0,1,4.16-.21A20.41,20.41,0,0,1,43.31,12.72Z" transform="translate(-1.2 -0.74)"/><path class="cls-6" d="M36.63,7.07c0,.12-.5.12-1.06.21s-1,.23-1.06.13.35-.45,1-.55S36.66,7,36.63,7.07Z" transform="translate(-1.2 -0.74)"/><path class="cls-6" d="M44,7.56c-.08.09-.51-.13-1.07-.3s-1-.23-1-.35.53-.26,1.17-.06S44.1,7.47,44,7.56Z" transform="translate(-1.2 -0.74)"/></g></g></g></svg>