<svg xmlns="http://www.w3.org/2000/svg" xmlns:xlink="http://www.w3.org/1999/xlink" viewBox="0 0 75.9 88.72"><defs><style>.cls-1{fill:none;}.cls-2{clip-path:url(#clip-path);}.cls-3{fill:#fff;stroke:#ff4f5b;stroke-miterlimit:10;stroke-width:0.5px;}.cls-4{clip-path:url(#clip-path-2);}.cls-5{fill:#ffbf9d;}.cls-6{fill:#ff9a6c;}.cls-7{fill:#ff4f5b;}.cls-8{fill:#1a2e35;}.cls-9{fill:#fafafa;}.cls-10{fill:#bc3f4b;}</style><clipPath id="clip-path" transform="translate(-1.25 -0.87)"><rect class="cls-1" width="78.3" height="90.62"/></clipPath><clipPath id="clip-path-2" transform="translate(-1.25 -0.87)"><circle class="cls-1" cx="39.2" cy="51.65" r="35"/></clipPath></defs><g id="Layer_2" data-name="Layer 2"><g id="Layer_1-2" data-name="Layer 1"><g class="cls-2"><circle class="cls-3" cx="37.95" cy="50.77" r="37.7"/><g class="cls-4"><path class="cls-1" d="M21.94,44.42l-.17.71a.56.56,0,0,1,0,.38,6.75,6.75,0,0,1-1,3.39,10.31,10.31,0,0,0-1.29,3.28,9.71,9.71,0,0,0,2.72,2.63,2.69,2.69,0,0,0,3.1-.68,8.16,8.16,0,0,1,1.51-1.08c-.64-1-1.28-2.09-1.91-3.27C23.74,47.72,22.71,45.86,21.94,44.42Z" transform="translate(-1.25 -0.87)"/><path class="cls-1" d="M23.25,67.89c0,.24,0,.54,0,.91,0,.82.05,2,.09,3.33s.12,2.84.32,4.52l3.39-14.77a11.84,11.84,0,0,1,2.33-5.75,10.14,10.14,0,0,1-.81-.74,14.82,14.82,0,0,0-1.55,2c-.43.87-1.72,4.14-3.06,5.27s-1.57,4.24-1.64,4.89l.86,0h0A1.34,1.34,0,0,1,23.25,67.89Z" transform="translate(-1.25 -0.87)"/><path class="cls-5" d="M24,62.7c1.34-1.13,2.63-4.4,3.06-5.27a14.82,14.82,0,0,1,1.55-2l-.1-.11a15.6,15.6,0,0,1-1.72-2.23,8.16,8.16,0,0,0-1.51,1.08,2.69,2.69,0,0,1-3.1.68,9.71,9.71,0,0,1-2.72-2.63,10.31,10.31,0,0,1,1.29-3.28,6.75,6.75,0,0,0,1-3.39l0,0a.8.8,0,0,0-.05-.42.76.76,0,0,0-.92-.44,1.4,1.4,0,0,0-.66.42,3,3,0,0,0-.46.81L18.78,48c-.6,1.47-1.15,2.79-1.57,3.75a9.65,9.65,0,0,1-.73,1.52,11.91,11.91,0,0,1,.55-1.6c.37-1,.9-2.31,1.49-3.78.31-.73.59-1.43.86-2.07a3.17,3.17,0,0,1,.53-.87,1.6,1.6,0,0,1,.78-.45.92.92,0,0,1,.74.14.87.87,0,0,1,.34.45v.06l.17-.71L21.72,44c-.37-.7-.69-1.29-.93-1.76l0-.08c-.08.14-.44.58-.88,1.35a22.48,22.48,0,0,0-1.6,3.72A22.2,22.2,0,0,1,16.63,51a7.58,7.58,0,0,1-.72,1c-.19.23-.3.34-.32.33s.37-.53.86-1.44A27.39,27.39,0,0,0,18,47.15a18.42,18.42,0,0,1,1.69-3.73,4.85,4.85,0,0,1,.41-.58,4.36,4.36,0,0,1,.34-.42l.28-.28-.1-.2c-.15-.18-.31-.36-.45-.55l-4.91,11L15,67.72l7.39-.13C22.43,66.94,22.81,63.72,24,62.7Zm-3.22.64a1,1,0,0,0,0-.41,8.06,8.06,0,0,0-.3-1.12c-.3-.94-.8-2.22-1.25-3.68a10.7,10.7,0,0,1-.48-2.1,2.36,2.36,0,0,1,.12-1c.08-.27.16-.53.24-.77a2.67,2.67,0,0,0,.11-1.13c0-.26-.12-.4-.1-.41s.12.11.2.39a2.32,2.32,0,0,1,0,1.2c-.06.25-.14.51-.21.79A2.1,2.1,0,0,0,19,56a12.68,12.68,0,0,0,.5,2c.45,1.44.91,2.73,1.17,3.7a5.62,5.62,0,0,1,.22,1.17C20.91,63.21,20.79,63.36,20.78,63.34Zm.49-2.92a1.89,1.89,0,0,1-.26-.91,4.23,4.23,0,0,1,1.8-4,1.84,1.84,0,0,1,.85-.41s-.3.2-.73.56A4.71,4.71,0,0,0,21.2,59.5C21.22,60.06,21.31,60.41,21.27,60.42Z" transform="translate(-1.25 -0.87)"/><path class="cls-6" d="M21.77,45.13l-.05.21s0,.07,0,.17A.56.56,0,0,0,21.77,45.13Z" transform="translate(-1.25 -0.87)"/><path class="cls-6" d="M21.77,45.13v-.06a.87.87,0,0,0-.34-.45.92.92,0,0,0-.74-.14,1.6,1.6,0,0,0-.78.45,3.17,3.17,0,0,0-.53.87c-.27.64-.55,1.34-.86,2.07-.59,1.47-1.12,2.81-1.49,3.78a11.91,11.91,0,0,0-.55,1.6,9.65,9.65,0,0,0,.73-1.52c.42-1,1-2.28,1.57-3.75l.84-2.08a3,3,0,0,1,.46-.81,1.4,1.4,0,0,1,.66-.42.76.76,0,0,1,.92.44.8.8,0,0,1,.05.42l0,0c0-.1,0-.17,0-.17Z" transform="translate(-1.25 -0.87)"/><path class="cls-6" d="M20.45,42.42a4.36,4.36,0,0,0-.34.42,4.85,4.85,0,0,0-.41.58A18.42,18.42,0,0,0,18,47.15a27.39,27.39,0,0,1-1.56,3.75c-.49.91-.9,1.41-.86,1.44s.13-.1.32-.33a7.58,7.58,0,0,0,.72-1,22.2,22.2,0,0,0,1.64-3.75,22.48,22.48,0,0,1,1.6-3.72c.44-.77.8-1.21.88-1.35l0,0Z" transform="translate(-1.25 -0.87)"/><path class="cls-6" d="M21.61,57.38a4.81,4.81,0,0,1,1.32-1.72c.43-.36.75-.52.73-.56a1.84,1.84,0,0,0-.85.41,4.23,4.23,0,0,0-1.8,4,1.89,1.89,0,0,0,.26.91s-.05-.36-.07-.92A4.82,4.82,0,0,1,21.61,57.38Z" transform="translate(-1.25 -0.87)"/><path class="cls-6" d="M19.49,58.05a12.68,12.68,0,0,1-.5-2,2.1,2.1,0,0,1,.09-.87c.07-.28.15-.54.21-.79a2.32,2.32,0,0,0,0-1.2c-.08-.28-.19-.4-.2-.39s.06.15.1.41a2.67,2.67,0,0,1-.11,1.13c-.08.24-.16.5-.24.77a2.36,2.36,0,0,0-.12,1,10.7,10.7,0,0,0,.48,2.1c.45,1.46,1,2.74,1.25,3.68a8.06,8.06,0,0,1,.3,1.12,1,1,0,0,1,0,.41s.13-.13.1-.42a5.62,5.62,0,0,0-.22-1.17C20.4,60.78,19.94,59.49,19.49,58.05Z" transform="translate(-1.25 -0.87)"/><path class="cls-7" d="M54.54,47.8s1.5-.11,3.6-.18a.12.12,0,0,1,0,0s0,0,0,0h.12L50.69,45l1.76,3.14C53.74,47.92,54.54,47.8,54.54,47.8Z" transform="translate(-1.25 -0.87)"/><path class="cls-7" d="M30.52,56.82a3.24,3.24,0,0,1-.48-.25,4.66,4.66,0,0,1-.48-.33c0,.21.05.45.09.74s.09.88.19,1.45.17,1.2.33,1.9.27,1.41.47,2.18l1.29.18c1.32.2,2.5.44,3.35.63.42.09.76.18,1,.24l.31.08a3.48,3.48,0,0,1-.22-.78,5.52,5.52,0,0,1-.74-1.64,4.28,4.28,0,0,1,0-2.37,3.42,3.42,0,0,1,.27-.59.75.75,0,0,1,.14-.18,8,8,0,0,0-.3.8,4.34,4.34,0,0,0,0,2.29,5.15,5.15,0,0,0,.5,1.15s0,0,0-.08l.08.19.22.23a3,3,0,0,1,0-.32A3.53,3.53,0,0,1,37,60.62l.06-.09a5.18,5.18,0,0,1-.41-.76,5,5,0,0,1-.4-1.56,3.06,3.06,0,0,1,0-.6s0,.22,0,.59a5.36,5.36,0,0,0,.43,1.54,7.23,7.23,0,0,0,.39.71,3.42,3.42,0,0,1,1.11-1.13l.26-.13-.36-.7h0l0,0L37.39,57a8.86,8.86,0,0,1-6.69-.12h0S30.64,56.88,30.52,56.82Z" transform="translate(-1.25 -0.87)"/><path class="cls-7" d="M54.08,49.23,54.2,49l-1.09.33.5.91C53.79,49.84,54,49.48,54.08,49.23Z" transform="translate(-1.25 -0.87)"/><path class="cls-7" d="M40.15,70.88a46,46,0,0,1-6.35-1.63c-.31-.1-.58-.2-.84-.3l5.27,6.36-.39,1.24.31,0c1.58.23,3.77.49,6.21.67l1.85.12-4-6.18Q41.23,71.08,40.15,70.88Z" transform="translate(-1.25 -0.87)"/><path class="cls-7" d="M55,53.71a4.87,4.87,0,0,0-.6-.37l-1.12,3.5-1.15,3.58a5.15,5.15,0,0,1,1.6.91,5.64,5.64,0,0,1,.41.39c.08.1.13.16.12.17s-.21-.21-.58-.5a5.81,5.81,0,0,0-1.59-.86c-.94,2.9-1.61,4.92-1.63,4.91s.61-2,1.53-4.94a5.7,5.7,0,0,0-1.71-.29H50L49,63l-.67,1.81a3.79,3.79,0,0,1-.29.66v0l0,.07h.2a2.25,2.25,0,0,1,.52-.08,2.87,2.87,0,0,1,1.84.77,3.19,3.19,0,0,1,.26.26,5.08,5.08,0,0,1,.5.44,4.55,4.55,0,0,1,1.05,1.74L54.13,63c.15-.51.31-1,.47-1.54.68-2.17,1.31-4.22,1.87-6.05-.06-.1-.15-.25-.27-.43A5.9,5.9,0,0,0,55,53.71Z" transform="translate(-1.25 -0.87)"/><path class="cls-7" d="M55.05,53.62a5.1,5.1,0,0,1,1.21,1.32,2.64,2.64,0,0,1,.23.42l1.58-5.09c0-.83,0-1.49,0-2,0-.19,0-.34,0-.45l-2.22.66c-.2.66-.75,2.42-1.49,4.75A6.31,6.31,0,0,1,55.05,53.62Z" transform="translate(-1.25 -0.87)"/><path class="cls-7" d="M53.46,51.06c-.19.49-.42,1-.65,1.64h.1a3.13,3.13,0,0,1,.53.11,4.4,4.4,0,0,1,.88.37c.74-2.3,1.32-4,1.54-4.69L54.3,49c0,.09-.07.18-.12.3C54,49.74,53.75,50.35,53.46,51.06Z" transform="translate(-1.25 -0.87)"/><path class="cls-7" d="M27.53,62.2l1,.07c.55,0,1.23.13,2,.22-.2-.76-.34-1.48-.46-2.14s-.23-1.35-.31-1.91-.14-1.06-.18-1.46-.05-.55-.07-.76l-.11-.09a11.84,11.84,0,0,0-2.33,5.75l.26.31Z" transform="translate(-1.25 -0.87)"/><path class="cls-7" d="M48,71.55h1.4s-.06,0-.18,0H48c0,.36,0,.72,0,1.08a11.26,11.26,0,0,1-3.18-1.22c-.75-.06-1.55-.14-2.4-.25l4,6.17c1.63.08,3.1.11,4.24.12h2.47c-.05-.11-.09-.23-.14-.35A33.75,33.75,0,0,0,50.62,73a29.15,29.15,0,0,1-1.89-3.41c-.2-.44-.35-.84-.48-1.22l-.16-.15C48.06,69.34,48,70.44,48,71.55Z" transform="translate(-1.25 -0.87)"/><path class="cls-7" d="M50.84,72.88A32.64,32.64,0,0,1,53.18,77a31.8,31.8,0,0,1,1.38,4.56,12.42,12.42,0,0,0,1.23,3c.65-.36,1.3-.74,1.94-1.13-.58-1.23-1.19-2.58-1.8-4-.28-.68-.54-1.35-.79-2l-.87,0h-.46c-.1,0-.16,0-.16,0h.16l.46,0,.85-.05c-.78-2-1.4-3.87-1.84-5.32l-.38-1.28-.3.07c-.32.52-.64,1-1,1.51-.24-.39-.5-.76-.76-1.12h0a18.77,18.77,0,0,0-2.3-2.58c.11.28.23.57.38.88A31.51,31.51,0,0,0,50.84,72.88Z" transform="translate(-1.25 -0.87)"/><path class="cls-7" d="M66.51,75.94c-1,.23-2.3.49-3.72.73.18,1,.35,1.92.52,2.82C64.41,78.32,65.48,77.16,66.51,75.94Z" transform="translate(-1.25 -0.87)"/><path class="cls-7" d="M57.82,83.45c1.38-.85,2.75-1.71,4.12-2.49.44-.47.87-.92,1.29-1.38-.18-.93-.36-1.89-.54-2.9l-1.23.19c-2.15.31-4.1.47-5.51.54l-.69,0c.24.64.5,1.3.78,2C56.64,80.87,57.24,82.22,57.82,83.45Z" transform="translate(-1.25 -0.87)"/><path class="cls-7" d="M30.58,62.64v0c-.77-.11-1.46-.2-2-.26l-1-.11-.16,0,4.95,6c-.39-1-.73-2-1-2.94S30.76,63.47,30.58,62.64Z" transform="translate(-1.25 -0.87)"/><path class="cls-7" d="M41.19,66.2c0,.41,0,.67,0,.67s0-.06,0-.18a3.25,3.25,0,0,1,0-.5,3.79,3.79,0,0,1,.38-1.59s0-.06.06-.1l-1.28-.85A13.34,13.34,0,0,1,38,61.77a7.19,7.19,0,0,1-.86-1.13l0,0a3.77,3.77,0,0,0-.47,1.67c0,.15,0,.28,0,.39a41.86,41.86,0,0,0,5.42,4.89,42.76,42.76,0,0,0,4,2.41,8.24,8.24,0,0,1,.25-2.43l-.24-.15-1.36-.87c-.83-.54-1.89-1.23-3.07-2a.41.41,0,0,0,0,.09A4,4,0,0,0,41.19,66.2Z" transform="translate(-1.25 -0.87)"/><path class="cls-7" d="M52.22,69.07h0a3.94,3.94,0,0,0-.19-.61A4.4,4.4,0,0,1,52.22,69.07Z" transform="translate(-1.25 -0.87)"/><path class="cls-7" d="M35.26,63.4c-.85-.17-2-.4-3.34-.6l-1.25-.18h0c.19.83.45,1.69.72,2.6s.73,2.14,1.18,3.27l.31.37.95.32a50,50,0,0,0,6.34,1.59c.69.13,1.35.23,2,.32l-2-3.17L39,66.84a9.65,9.65,0,0,1-2.43-3.18l-.33-.06Z" transform="translate(-1.25 -0.87)"/><path class="cls-7" d="M44.55,71.35A23.68,23.68,0,0,1,40.28,68l2,3.07C43.08,71.21,43.84,71.29,44.55,71.35Z" transform="translate(-1.25 -0.87)"/><path class="cls-7" d="M46.08,70.33v0l-.34-.17Z" transform="translate(-1.25 -0.87)"/><path class="cls-7" d="M52.86,70.43c0,.09,0,.17.08.27l6.48-1.57,1.88-.45L61.18,68a26.38,26.38,0,0,1-.31-4.39,15.27,15.27,0,0,1,.45-3.29c-1.49.32-2.83.67-3.81,1l-1.26.38-.34.1-.12,0,.11,0,.34-.12c.29-.11.72-.25,1.25-.41,1-.31,2.34-.67,3.86-1,0-.21.1-.43.16-.63a21.23,21.23,0,0,1,3.11-6.18c.17-.25.34-.47.51-.71-2-.26-3.76-.4-5.09-.46l-1.72-.06h-.6c-.4,1.39-.89,3-1.45,4.87a54.9,54.9,0,0,1-1.13,7.45A23.16,23.16,0,0,1,52.86,70.43Z" transform="translate(-1.25 -0.87)"/><path class="cls-7" d="M61.41,68.65C65.2,67.76,68,67.1,68,67.13s-2.82.72-6.61,1.63c.46,2.77.91,5.4,1.35,7.8,1.47-.24,2.78-.5,3.83-.73.49-.58,1-1.18,1.45-1.79a14,14,0,0,1,.37-2.15,32.25,32.25,0,0,1-.17-5.56.78.78,0,0,1,0-.17v0a27.56,27.56,0,0,1,1.26-7l-.17.08-.11,0,.1-.06.19-.11a19.65,19.65,0,0,1,.73-1.87,10.84,10.84,0,0,0-.82.85,9.68,9.68,0,0,0-1.09,1.55c-.55.94-.75,1.58-.8,1.57a1.47,1.47,0,0,1,.11-.47,5.38,5.38,0,0,1,.2-.53,6.34,6.34,0,0,1,.31-.67A10.21,10.21,0,0,1,69.24,58a12.78,12.78,0,0,1,1.33-1.32A11.59,11.59,0,0,1,72.3,54.1l-1.06-.27c-1.41-.35-3.37-.78-5.56-1.1l-.46-.06c-.18.24-.36.47-.54.74a21.46,21.46,0,0,0-3.07,6.16l-.15.57.24,0c1.66-.34,3.19-.56,4.29-.69l1.31-.12.36,0h.12l-.12,0-.35,0L66,59.48c-1.1.14-2.62.38-4.28.72l-.29.06A15.55,15.55,0,0,0,61,63.59,26.29,26.29,0,0,0,61.29,68Z" transform="translate(-1.25 -0.87)"/><path class="cls-7" d="M52.82,70.5c0,.09-.12.18-.17.27l.23-.06Z" transform="translate(-1.25 -0.87)"/><path class="cls-7" d="M48,65.59l.09,0H48Z" transform="translate(-1.25 -0.87)"/><path class="cls-7" d="M37.22,60.56a7.85,7.85,0,0,0,.87,1.14,14.28,14.28,0,0,0,2.25,1.86l1.28.85a3.86,3.86,0,0,1,.89-1.1,3,3,0,0,1,.41-.28l.14-.07-3.62-2c-.33-.62-.63-1.2-.9-1.72l-.24.15A3.76,3.76,0,0,0,37.22,60.56Z" transform="translate(-1.25 -0.87)"/><path class="cls-7" d="M42.56,63.37a4.33,4.33,0,0,0-.85,1.1l3.06,2,1.33.91.23.15a2.63,2.63,0,0,1,.08-.3,3.08,3.08,0,0,1,1.47-1.64L43.07,63S42.83,63.13,42.56,63.37Z" transform="translate(-1.25 -0.87)"/><path class="cls-7" d="M50,60.14h.24a5.25,5.25,0,0,1,1.75.26l1.14-3.58c.41-1.26.79-2.45,1.14-3.52a5.64,5.64,0,0,0-.87-.39c-.29-.1-.51-.15-.62-.18-.49,1.26-1,2.71-1.64,4.3C50.76,58.12,50.38,59.17,50,60.14Z" transform="translate(-1.25 -0.87)"/><path class="cls-7" d="M53,70.77c.12.37.25.8.4,1.27.46,1.45,1.09,3.3,1.87,5.34l.71,0c1.41-.09,3.36-.26,5.5-.57l1.23-.19c-.44-2.39-.9-5-1.35-7.78l-1.88.45Z" transform="translate(-1.25 -0.87)"/><path class="cls-7" d="M51.15,84.87l2.3,0H55l-.33,0-1.19,0c-.62,0-1.39,0-2.23,0l.92,1.44a29.84,29.84,0,0,0,3.47-1.67,11.94,11.94,0,0,1-1.29-3.08,42.66,42.66,0,0,0-1.26-4.15H53l-.51,0c-.45,0-1.1,0-1.9,0-1.13,0-2.57,0-4.17-.08l.54.84C48.52,80.77,50,83,51.15,84.87Z" transform="translate(-1.25 -0.87)"/><path class="cls-7" d="M46.94,88.05a10,10,0,0,1,2.15-.69,18.53,18.53,0,0,0,3-.92c-.29-.46-.61-.94-1-1.47-.51,0-1,0-1.61,0-1.55-.06-2.94-.17-3.94-.27l-1.19-.13-.33,0-.11,0h.12l.32,0,1.19.09c1,.08,2.4.18,3.94.24l1.54,0c-1.19-1.82-2.62-4-4.18-6.46-.19-.31-.39-.6-.58-.9l-1.93-.12c-2.44-.17-4.63-.45-6.21-.7l-.33-.05-.32,1c.21.31.42.62.64.9.49.69,1,1.3,1.44,1.86s.88,1,1.25,1.47.71.79,1,1.07l.64.67a2.92,2.92,0,0,1,.22.24,2.92,2.92,0,0,1-.24-.22L41.78,83c-.28-.28-.63-.63-1-1.06S40,81,39.51,80.47s-1-1.17-1.45-1.85c-.21-.27-.41-.56-.61-.85l-.19.62c.5.62,1,1.24,1.57,1.86a68.15,68.15,0,0,0,5.39,5.45C45.2,86.56,46.13,87.36,46.94,88.05Z" transform="translate(-1.25 -0.87)"/><path class="cls-7" d="M72.34,54.06a6.7,6.7,0,0,1,2.6-1.78,2.34,2.34,0,0,1,.46-.09c0-.49.11-1,.18-1.47a47.46,47.46,0,0,0-5.41-2.22c-2.74-1-8.2-1-11.89-.89l.26.09-.37.11c0,.12,0,.27,0,.47,0,.5,0,1.17,0,2h0c-.15.53-.32,1.15-.51,1.81h.6c.41,0,1,0,1.72,0a51.11,51.11,0,0,1,5.17.44c.9-1.21,1.73-2.16,2.33-2.84s1.17-1.25,1.17-1.25l-.29.33-.85,1c-.58.68-1.39,1.63-2.28,2.82l.41.06a51.51,51.51,0,0,1,5.56,1.13C71.68,53.87,72,54,72.34,54.06Z" transform="translate(-1.25 -0.87)"/><path class="cls-7" d="M54.2,49a2.14,2.14,0,0,1,.22-.4,1.61,1.61,0,0,1-.12.37l1.56-.47.11-.29a1.45,1.45,0,0,1-.07.28l2.22-.66c0-.1,0-.17,0-.21-2.1.07-3.6.18-3.6.18s-.8.12-2.09.35l.66,1.18Z" transform="translate(-1.25 -0.87)"/><path class="cls-7" d="M58.17,47.81l.37-.11-.26-.09h-.12A1,1,0,0,1,58.17,47.81Z" transform="translate(-1.25 -0.87)"/><path class="cls-7" d="M25.24,84.91c-.14-.62-.29-1.24-.45-1.89-.27-1.06-.55-2.1-.79-3.11a8.27,8.27,0,0,1-1.57.84,11.07,11.07,0,0,1-1.88.58,13.39,13.39,0,0,1-1.87.2c0,.18,0,.39,0,.58Q22,83.43,25.24,84.91Z" transform="translate(-1.25 -0.87)"/><path class="cls-7" d="M15.51,79.05a9.56,9.56,0,0,1,1.64,2.31c.33,0,.65.07,1,.08l.43,0c0-.43,0-.84-.07-1.22-.08-1.28-.18-2.31-.27-3,0-.33-.07-.6-.1-.82s0-.17,0-.22h-.33a11.79,11.79,0,0,1-3.55-.67,6.41,6.41,0,0,1-1-.43c-.23-.12-.35-.19-.34-.21s.54.19,1.41.46a13.45,13.45,0,0,0,7,.21c.88-.21,1.41-.41,1.43-.37s-.12.09-.35.19a8,8,0,0,1-1,.37,11.46,11.46,0,0,1-3.24.44c0,.15.08.5.16,1,.1.71.2,1.74.3,3,0,.39.06.8.08,1.23a14.79,14.79,0,0,0,1.86-.19,11.08,11.08,0,0,0,1.87-.55c.26-.1.49-.21.69-.3a4.49,4.49,0,0,0,.5-.26l.32-.17.09,0a22.94,22.94,0,0,1-.52-2.81c-.22-1.86-.26-3.54-.29-5s0-2.56,0-3.34c0-.37,0-.67,0-.91a2,2,0,0,1,0-.32h0l-.86,0a.94.94,0,0,0,0,.12s-.49,2.86-4.66,1.81A23.51,23.51,0,0,1,18,72a21.94,21.94,0,0,1,0,2.67c0,.34,0,.61-.07.8a1.57,1.57,0,0,1,0,.3,1.17,1.17,0,0,1,0-.3c0-.26,0-.52,0-.81,0-.68,0-1.62-.05-2.65s-.19-1.88-.3-2.54a14.19,14.19,0,0,1-2.65-1l0-.77-2.17,0s-.32,4-.45,9.14A9.71,9.71,0,0,1,15.51,79.05Z" transform="translate(-1.25 -0.87)"/><path class="cls-7" d="M27.46,84.9A12.8,12.8,0,0,1,28.6,86c.21.23.41.49.62.75a28.93,28.93,0,0,0,3,1.25c.57-2.45,1.08-4.71,1.59-6.55A30.05,30.05,0,0,0,31,77.86a29.71,29.71,0,0,0-2.25-2.16c-.19.57-.38,1.17-.58,1.78-.68,2-1.29,3.92-1.77,5.34.39.68.76,1.36,1.09,2.06Z" transform="translate(-1.25 -0.87)"/><path class="cls-7" d="M35.77,76.26l-.18,0s.07,0,.18,0l.21,0C33.45,72,28.39,64,27.3,62.21l-.15,0h.13l-.19-.31L23.7,76.65c0,.14,0,.27,0,.41a20.87,20.87,0,0,0,.42,2.33c.76,1.09,1.49,2.19,2.15,3.34.46-1.43,1.06-3.27,1.72-5.29.21-.62.41-1.23.6-1.82-.73-.62-1.41-1.15-2-1.57s-1.1-.76-1.45-1l-.41-.26-.13-.09s.05,0,.14.07l.42.24c.36.21.87.53,1.48.95s1.27.92,2,1.53c1.18-3.57,2.07-6.21,2.09-6.2s-.83,2.68-2,6.27a28.83,28.83,0,0,1,2.3,2.19,27,27,0,0,1,2.79,3.56c.11-.38.21-.75.32-1.09a33.44,33.44,0,0,1,1.33-3.72,46.22,46.22,0,0,1-2.92-4.47c-.65-1.15-1.12-2.11-1.43-2.78l-.34-.79a1.27,1.27,0,0,1-.1-.28,1.5,1.5,0,0,1,.15.26l.39.76c.34.65.83,1.6,1.5,2.73A52.77,52.77,0,0,0,37,78.12c-.25-.46-.6-1.08-1-1.81Z" transform="translate(-1.25 -0.87)"/><path class="cls-7" d="M35.41,76.77c-.07.2-.17.44-.28.74-.23.64-.55,1.59-.89,2.77-.11.36-.22.75-.33,1.15.23.35.43.69.61,1,.38.64.67,1.17.85,1.55l.2.43,0,.07c.65-2.29,1.15-4.2,1.42-5.21.06-.23.1-.42.14-.55-.6-.74-1.16-1.46-1.68-2.17C35.48,76.57,35.46,76.64,35.41,76.77Z" transform="translate(-1.25 -0.87)"/><path class="cls-7" d="M34.4,88.6c.43-1.43.84-2.83,1.2-4.11l-.05-.08c-.06-.13-.14-.27-.22-.42-.19-.37-.49-.89-.87-1.53-.17-.28-.37-.59-.58-.9-.49,1.82-1,4-1.56,6.48A20.11,20.11,0,0,0,34.4,88.6Z" transform="translate(-1.25 -0.87)"/><path class="cls-7" d="M17.6,69.5s0-.07,0-.1c-.05-.28-.1-.54-.14-.8a2.55,2.55,0,0,1-.05-.29,1.32,1.32,0,0,1,.09.29c.05.18.11.45.17.78l0,.14c4.17,1,4.66-1.81,4.66-1.81a.94.94,0,0,1,0-.12L15,67.72l0,.77A14.19,14.19,0,0,0,17.6,69.5Z" transform="translate(-1.25 -0.87)"/><path class="cls-7" d="M27.09,61.88l.19.31h.07Z" transform="translate(-1.25 -0.87)"/><path class="cls-7" d="M36.48,76.35a48.14,48.14,0,0,1-3-5.34c-.34-.74-.65-1.47-.94-2.2-.24-.08-.46-.17-.63-.24l-.5-.2-.18-.08.18.06.51.18.59.21-.22-.55-4.95-6H27.3C28.39,64,33.45,72,36,76.27l.3,0Z" transform="translate(-1.25 -0.87)"/><path class="cls-7" d="M36.51,76.4l-.24,0-.27,0c.43.73.78,1.35,1,1.81l.23.27.19-.62c-.31-.43-.61-.89-.94-1.36Z" transform="translate(-1.25 -0.87)"/><path class="cls-7" d="M37.49,77.66l.32-1-1.16-.2C36.94,76.85,37.21,77.26,37.49,77.66Z" transform="translate(-1.25 -0.87)"/><path class="cls-7" d="M33,69l-.23-.08c.28.7.56,1.39.88,2.09a49.79,49.79,0,0,0,3,5.39v0l1.23.18.39-1.24Z" transform="translate(-1.25 -0.87)"/><path class="cls-7" d="M32.88,68.86l-.31-.37c0,.1.09.2.13.31Z" transform="translate(-1.25 -0.87)"/><path class="cls-8" d="M58.15,47.57a.12.12,0,0,0,0,0h0S58.15,47.57,58.15,47.57Z" transform="translate(-1.25 -0.87)"/><path class="cls-8" d="M58.07,50.26h0Z" transform="translate(-1.25 -0.87)"/><path class="cls-8" d="M48,65.53v0h.08l.13,0Z" transform="translate(-1.25 -0.87)"/><path class="cls-8" d="M58.11,48.28c0,.5,0,1.16,0,2h0v0h0l-1.58,5.09a.11.11,0,0,1,0,.06c.06.11.08.18.07.18s-.05-.06-.12-.19c-.56,1.83-1.19,3.88-1.87,6.05-.16.52-.32,1-.47,1.54.75-2.41,1.51-4.81,2.26-7.22L56.27,57c.56-1.83,1-3.48,1.45-4.87h0c.19-.66.36-1.28.51-1.81h0c0-.83,0-1.5,0-2,0-.2,0-.35,0-.47l-.05,0C58.12,47.94,58.11,48.09,58.11,48.28Z" transform="translate(-1.25 -0.87)"/><path class="cls-8" d="M58.17,47.81a1,1,0,0,0,0-.19h0s0,.11,0,.21Z" transform="translate(-1.25 -0.87)"/><path class="cls-8" d="M48.3,64.82,49,63l1-2.8h0l-2,5.25v0A3.79,3.79,0,0,0,48.3,64.82Z" transform="translate(-1.25 -0.87)"/><path class="cls-8" d="M53.61,50.24l0,0-.9,2.41h.07c.23-.59.46-1.15.65-1.64.29-.71.53-1.32.72-1.79,0-.12.09-.21.12-.3l-.1,0-.12.23C54,49.48,53.79,49.84,53.61,50.24Z" transform="translate(-1.25 -0.87)"/><path class="cls-8" d="M51.16,57c.59-1.59,1.15-3,1.64-4.3l-.06,0L50,60.14h0C50.38,59.17,50.76,58.12,51.16,57Z" transform="translate(-1.25 -0.87)"/><path class="cls-8" d="M54.42,48.6a2.14,2.14,0,0,0-.22.4l.1,0A1.61,1.61,0,0,0,54.42,48.6Z" transform="translate(-1.25 -0.87)"/><path class="cls-8" d="M35.82,61.17a4.34,4.34,0,0,1,0-2.29,8,8,0,0,1,.3-.8.75.75,0,0,0-.14.18,3.42,3.42,0,0,0-.27.59,4.28,4.28,0,0,0,0,2.37,5.52,5.52,0,0,0,.74,1.64,3.29,3.29,0,0,1,0-.54A5.15,5.15,0,0,1,35.82,61.17Z" transform="translate(-1.25 -0.87)"/><path class="cls-8" d="M50.62,73a33.75,33.75,0,0,1,2.3,4.12c0,.12.09.24.14.35h0a42.66,42.66,0,0,1,1.26,4.15,11.94,11.94,0,0,0,1.29,3.08l.18-.11a12.42,12.42,0,0,1-1.23-3A31.8,31.8,0,0,0,53.18,77a32.64,32.64,0,0,0-2.34-4.15,31.51,31.51,0,0,1-1.93-3.35c-.15-.31-.27-.6-.38-.88-.1-.09-.18-.18-.28-.26.13.38.28.78.48,1.22A29.15,29.15,0,0,0,50.62,73Z" transform="translate(-1.25 -0.87)"/><path class="cls-8" d="M46.75,88.14l.17-.08c-.23-.2-.47-.41-.73-.62-.59-.51-1.26-1.11-2-1.74-3-2.64-6.26-5.74-7-7.21l0,.22c.47.57.93,1.15,1.45,1.73a63.85,63.85,0,0,0,7.45,7.15Z" transform="translate(-1.25 -0.87)"/><path class="cls-8" d="M44.22,85.7a68.15,68.15,0,0,1-5.39-5.45c-.56-.62-1.07-1.24-1.57-1.86l0,.1C38,80,41.24,83.06,44.22,85.7Z" transform="translate(-1.25 -0.87)"/><path class="cls-8" d="M37,78.12A52.77,52.77,0,0,1,32.74,72c-.67-1.13-1.16-2.08-1.5-2.73l-.39-.76a1.5,1.5,0,0,0-.15-.26,1.27,1.27,0,0,0,.1.28l.34.79c.31.67.78,1.63,1.43,2.78a46.22,46.22,0,0,0,2.92,4.47v0c.52.71,1.08,1.43,1.68,2.17l0-.22C37.17,78.38,37.1,78.26,37,78.12Z" transform="translate(-1.25 -0.87)"/><path class="cls-8" d="M37.22,78.49l0-.1L37,78.12C37.1,78.26,37.17,78.38,37.22,78.49Z" transform="translate(-1.25 -0.87)"/><path class="cls-8" d="M23.7,76.65c-.2-1.68-.26-3.22-.32-4.52s-.07-2.51-.09-3.33c0-.37,0-.67,0-.91a1.34,1.34,0,0,0,0-.32h0l.32,9.74Z" transform="translate(-1.25 -0.87)"/><path class="cls-8" d="M23.48,77.09A22.94,22.94,0,0,0,24,79.9h0l0,0c.24,1,.52,2,.79,3.11.16.65.31,1.27.45,1.89l.24.1a55.16,55.16,0,0,0-1.64-5.88v-.19c.11.14.21.3.31.45a20.87,20.87,0,0,1-.42-2.33c0-.14,0-.27,0-.41l-.16.66-.32-9.74a2,2,0,0,0,0,.32c0,.24,0,.54,0,.91,0,.78,0,1.93,0,3.34S23.26,75.23,23.48,77.09Z" transform="translate(-1.25 -0.87)"/><path class="cls-8" d="M18.13,76.15a11.46,11.46,0,0,0,3.24-.44,7.29,7.29,0,0,0,1-.37c.24-.1.37-.17.36-.19s-.55.16-1.43.37a13.45,13.45,0,0,1-7-.21c-.87-.27-1.39-.5-1.41-.46s.11.09.34.21a6.41,6.41,0,0,0,1,.43,11.79,11.79,0,0,0,3.55.67h.33a.28.28,0,0,0,0-.08Z" transform="translate(-1.25 -0.87)"/><path class="cls-7" d="M74.29,65.1c-.8.47.43-.81.84-1.48.11-2,.08-4,.08-6.07l-.53.06a16.45,16.45,0,0,0-3.31.83c.22,1.76.58,4.58,1,8.07A10.42,10.42,0,0,1,74.29,65.1Z" transform="translate(-1.25 -0.87)"/><path class="cls-7" d="M70.75,58.58l.56-.22c-.11-.9-.18-1.52-.21-1.79a10,10,0,0,0-.84.73,19.65,19.65,0,0,0-.73,1.87l.11-.06C69.89,59,70.27,58.79,70.75,58.58Z" transform="translate(-1.25 -0.87)"/><path class="cls-7" d="M68.42,71.89c.07-.26.15-.52.23-.78-.23-2.53-.38-4.26-.4-4.78A32.25,32.25,0,0,0,68.42,71.89Z" transform="translate(-1.25 -0.87)"/><path class="cls-7" d="M71.17,67.9h-.06c-.73.12-1.32.23-1.73.31l-.47.09c-.11,0-.17,0-.17,0l.16,0,.47-.11c.41-.1,1-.22,1.73-.34l.14,0A9.09,9.09,0,0,1,72.3,66.6c-.43-3.52-.77-6.37-1-8.15l-.54.21c-.48.19-.87.36-1.12.49l-.14.07a27.56,27.56,0,0,0-1.26,7c.06.12.36,2.67.77,6.52l.53-.76.16-.21A8.35,8.35,0,0,1,71.17,67.9Z" transform="translate(-1.25 -0.87)"/><path class="cls-7" d="M73.11,55.35a12.53,12.53,0,0,0-2,1.2h0c0,.26.12.88.23,1.79a15.67,15.67,0,0,1,3.32-.85l.54-.06c0-.94,0-1.88,0-2.82l-.36.09A11.16,11.16,0,0,0,73.11,55.35Z" transform="translate(-1.25 -0.87)"/><path class="cls-7" d="M73,55.12a9.14,9.14,0,0,1,1.85-.6,2.12,2.12,0,0,1,.41-.08c0-.76.07-1.5.14-2.25a2.34,2.34,0,0,0-.46.09,6.7,6.7,0,0,0-2.6,1.78l.57.17.45.14.15.06-.16,0-.45-.12-.6-.17a11.59,11.59,0,0,0-1.73,2.56l.39-.33A10.7,10.7,0,0,1,73,55.12Z" transform="translate(-1.25 -0.87)"/><path class="cls-8" d="M68.25,66.16a.78.78,0,0,0,0,.17.76.76,0,0,1,0-.15Z" transform="translate(-1.25 -0.87)"/><path class="cls-8" d="M69.24,58a10.21,10.21,0,0,0-1.07,1.62,5.63,5.63,0,0,0-.31.68,4.49,4.49,0,0,0-.2.52,1.47,1.47,0,0,0-.11.47s.25-.63.8-1.57a9.68,9.68,0,0,1,1.09-1.55,10.84,10.84,0,0,1,.82-.85c.1-.22.21-.43.31-.64A12.78,12.78,0,0,0,69.24,58Z" transform="translate(-1.25 -0.87)"/><path class="cls-8" d="M71.09,56.4l0,.16h0a12.53,12.53,0,0,1,2-1.2,11.16,11.16,0,0,1,1.78-.64l.36-.09a1.09,1.09,0,0,0,0-.18,2.12,2.12,0,0,0-.41.08,9.14,9.14,0,0,0-1.85.6,10.7,10.7,0,0,0-2,1.21l-.39.33c-.1.21-.21.42-.31.64a10,10,0,0,1,.84-.73C71.09,56.47,71.09,56.4,71.09,56.4Z" transform="translate(-1.25 -0.87)"/><path class="cls-9" d="M69.34,59.28l-.1.06.11,0,.17-.08v0Z" transform="translate(-1.25 -0.87)"/><path class="cls-9" d="M70.78,58.66l.54-.21v-.09l-.56.22c-.48.21-.86.39-1.11.53l-.11.06v0l.13-.07C69.91,59,70.3,58.85,70.78,58.66Z" transform="translate(-1.25 -0.87)"/><path class="cls-9" d="M74.68,57.61l.53-.06v-.11l-.54.06a15.67,15.67,0,0,0-3.32.85l0,.09A16.45,16.45,0,0,1,74.68,57.61Z" transform="translate(-1.25 -0.87)"/><path class="cls-9" d="M71.31,58.36h0c-.11-.91-.2-1.53-.23-1.79h0C71.13,56.84,71.2,57.46,71.31,58.36Z" transform="translate(-1.25 -0.87)"/><path class="cls-9" d="M72.39,66.51c-.44-3.49-.8-6.31-1-8.07h-.05c.21,1.78.55,4.63,1,8.15Z" transform="translate(-1.25 -0.87)"/><path class="cls-9" d="M71.1,56.57h0l0-.16S71.09,56.47,71.1,56.57Z" transform="translate(-1.25 -0.87)"/><path class="cls-9" d="M71.32,58.45h.05l0-.09h0Z" transform="translate(-1.25 -0.87)"/><path class="cls-9" d="M44.36,77.27c-2.44-.18-4.63-.44-6.21-.67l-.31,0,0,.08.33.05c1.58.25,3.77.53,6.21.7l1.93.12-.07-.11Z" transform="translate(-1.25 -0.87)"/><path class="cls-9" d="M53,77.49H50.59c-1.14,0-2.61,0-4.24-.12l.07.11c1.6.08,3,.1,4.17.08.8,0,1.45,0,1.9,0l.51,0h.06v0Z" transform="translate(-1.25 -0.87)"/><path class="cls-9" d="M35.77,76.24c-.11,0-.18,0-.18,0l.18,0,.23,0,0,0Z" transform="translate(-1.25 -0.87)"/><path class="cls-9" d="M36.28,76.32l-.3,0,0,0,.27,0,.24,0,0-.05Z" transform="translate(-1.25 -0.87)"/><path class="cls-9" d="M36.61,76.37l0,.06,1.16.2,0-.08Z" transform="translate(-1.25 -0.87)"/><path class="cls-9" d="M53.06,77.49v0h0Z" transform="translate(-1.25 -0.87)"/><path class="cls-9" d="M54.27,77.43l-.46,0h-.16s.06,0,.16,0h.46l.87,0a.19.19,0,0,1,0-.07Z" transform="translate(-1.25 -0.87)"/><path class="cls-9" d="M61.44,76.76c-2.14.31-4.09.48-5.5.57l-.71,0,0,.06.69,0c1.41-.07,3.36-.23,5.51-.54l1.23-.19,0-.11Z" transform="translate(-1.25 -0.87)"/><path class="cls-9" d="M66.51,75.94l.09-.11c-1,.23-2.36.49-3.83.73l0,.11C64.21,76.43,65.48,76.17,66.51,75.94Z" transform="translate(-1.25 -0.87)"/><path class="cls-9" d="M40.17,70.77a50,50,0,0,1-6.34-1.59l-.95-.32L33,69c.26.1.53.2.84.3a46,46,0,0,0,6.35,1.63q1.08.2,2.1.33l-.08-.12C41.52,71,40.86,70.9,40.17,70.77Z" transform="translate(-1.25 -0.87)"/><path class="cls-9" d="M42.36,71.22c.85.11,1.65.19,2.4.25l-.21-.12c-.71-.06-1.47-.14-2.27-.25Z" transform="translate(-1.25 -0.87)"/><path class="cls-9" d="M48.66,71.6h.54c.12,0,.18,0,.18,0H48v.06Z" transform="translate(-1.25 -0.87)"/><path class="cls-9" d="M32.7,68.8l0,.07L33,69l-.08-.09Z" transform="translate(-1.25 -0.87)"/><path class="cls-9" d="M32,68.53l-.51-.18-.18-.06.18.08.5.2c.17.07.39.16.63.24l0-.07Z" transform="translate(-1.25 -0.87)"/><path class="cls-9" d="M59.44,69.24l1.88-.45,0-.11-1.88.45L52.94,70.7l0,.07Z" transform="translate(-1.25 -0.87)"/><path class="cls-9" d="M52.65,70.77a.22.22,0,0,0,0,.08l.3-.07,0-.07Z" transform="translate(-1.25 -0.87)"/><polygon class="cls-9" points="49.58 70.36 49.59 70.36 49.59 70.36 49.58 70.36"/><path class="cls-9" d="M68,67.13s-2.83.63-6.62,1.52v.11C65.21,67.85,68,67.15,68,67.13Z" transform="translate(-1.25 -0.87)"/><path class="cls-9" d="M61.72,60.2c1.66-.34,3.18-.58,4.28-.72l1.31-.16.35,0,.12,0h-.12l-.36,0L66,59.4c-1.1.13-2.63.35-4.29.69l-.24,0,0,.12Z" transform="translate(-1.25 -0.87)"/><path class="cls-9" d="M57.49,61.17c-.53.16-1,.3-1.25.41l-.34.12-.11,0,.12,0,.34-.1,1.26-.38c1-.28,2.32-.63,3.81-1l0-.12C59.83,60.5,58.48,60.86,57.49,61.17Z" transform="translate(-1.25 -0.87)"/><path class="cls-9" d="M57.86,52.12h.46l1.72.06c1.33.06,3.12.2,5.09.46l.08-.1A51.11,51.11,0,0,0,60,52.11c-.72,0-1.31,0-1.72,0h-.46Z" transform="translate(-1.25 -0.87)"/><path class="cls-9" d="M65.68,52.73c2.19.32,4.15.75,5.56,1.1l1.06.27,0,0c-.31-.1-.66-.19-1.08-.31a51.51,51.51,0,0,0-5.56-1.13l-.41-.06-.07.11Z" transform="translate(-1.25 -0.87)"/><path class="cls-9" d="M57.72,52.11Z" transform="translate(-1.25 -0.87)"/><path class="cls-9" d="M72.3,54.1l.6.17.45.12.16,0-.15-.06-.45-.14-.57-.17Z" transform="translate(-1.25 -0.87)"/><path class="cls-9" d="M50.26,60.13H50l0,.07h.26A5.7,5.7,0,0,1,52,60.5l0-.11A5.25,5.25,0,0,0,50.26,60.13Z" transform="translate(-1.25 -0.87)"/><path class="cls-9" d="M53.66,61.39c.37.29.57.51.58.5s0-.07-.12-.17a5.64,5.64,0,0,0-.41-.39,5.15,5.15,0,0,0-1.6-.91l0,.11A5.81,5.81,0,0,1,53.66,61.39Z" transform="translate(-1.25 -0.87)"/><path class="cls-9" d="M50,60.14l0,.07h0l0-.07Z" transform="translate(-1.25 -0.87)"/><path class="cls-9" d="M53.42,52.9a5.64,5.64,0,0,1,.87.39l0-.1a4.4,4.4,0,0,0-.88-.37,3.13,3.13,0,0,0-.53-.11h-.1v0C52.91,52.75,53.13,52.8,53.42,52.9Z" transform="translate(-1.25 -0.87)"/><path class="cls-9" d="M55.05,53.62a6.31,6.31,0,0,0-.64-.38l0,.1a4.87,4.87,0,0,1,.6.37A5.9,5.9,0,0,1,56.2,55c.12.18.21.33.27.43l0,0a2.64,2.64,0,0,0-.23-.42A5.1,5.1,0,0,0,55.05,53.62Z" transform="translate(-1.25 -0.87)"/><path class="cls-9" d="M56.59,55.6s0-.07-.07-.18a.11.11,0,0,0,0-.06l0,0C56.54,55.54,56.58,55.61,56.59,55.6Z" transform="translate(-1.25 -0.87)"/><path class="cls-9" d="M52.8,52.72v0h-.07Z" transform="translate(-1.25 -0.87)"/><path class="cls-9" d="M52,60.5c-.92,2.91-1.55,4.93-1.53,4.94s.69-2,1.63-4.91h0Z" transform="translate(-1.25 -0.87)"/><path class="cls-9" d="M54.41,53.24c.74-2.33,1.29-4.09,1.49-4.75h0c-.22.66-.8,2.39-1.54,4.69Z" transform="translate(-1.25 -0.87)"/><path class="cls-9" d="M53.15,56.81,52,60.39l.09,0h0l1.15-3.58,1.12-3.5-.09-.05C53.94,54.36,53.56,55.55,53.15,56.81Z" transform="translate(-1.25 -0.87)"/><path class="cls-9" d="M56,48.21l-.11.29h0A1.45,1.45,0,0,0,56,48.21Z" transform="translate(-1.25 -0.87)"/><path class="cls-9" d="M52,60.39l0,.11.09,0h0l0-.11h0Z" transform="translate(-1.25 -0.87)"/><path class="cls-9" d="M54.38,53.34l0-.1-.09-.05,0,.1Z" transform="translate(-1.25 -0.87)"/><path class="cls-9" d="M41.49,64.6a3.79,3.79,0,0,0-.38,1.59,3.25,3.25,0,0,0,0,.5c0,.12,0,.18,0,.18s0-.26,0-.67a4,4,0,0,1,.41-1.55.41.41,0,0,1,0-.09l-.1-.06S41.51,64.56,41.49,64.6Z" transform="translate(-1.25 -0.87)"/><path class="cls-9" d="M42.51,63.31a3.86,3.86,0,0,0-.89,1.1l.09.06a4.33,4.33,0,0,1,.85-1.1c.27-.24.47-.36.51-.4h0l-.14.07A3,3,0,0,0,42.51,63.31Z" transform="translate(-1.25 -0.87)"/><path class="cls-9" d="M38.3,59.39l.24-.15,0-.05-.26.13a3.42,3.42,0,0,0-1.11,1.13l.07.11A3.76,3.76,0,0,1,38.3,59.39Z" transform="translate(-1.25 -0.87)"/><path class="cls-9" d="M36.67,62.34a3.77,3.77,0,0,1,.47-1.67l0,0-.06-.11-.06.09a3.53,3.53,0,0,0-.45,1.72,3,3,0,0,0,0,.32l.06.07C36.67,62.62,36.66,62.49,36.67,62.34Z" transform="translate(-1.25 -0.87)"/><path class="cls-9" d="M44.77,66.51l-3.06-2a.47.47,0,0,0-.06.09c1.18.79,2.24,1.48,3.07,2l1.36.87.24.15v0l-.23-.15Z" transform="translate(-1.25 -0.87)"/><path class="cls-9" d="M40.27,63.65l1.28.85.07-.09-1.28-.85a14.28,14.28,0,0,1-2.25-1.86,7.85,7.85,0,0,1-.87-1.14l-.06.08A7.19,7.19,0,0,0,38,61.77,13.34,13.34,0,0,0,40.27,63.65Z" transform="translate(-1.25 -0.87)"/><path class="cls-9" d="M36.76,59.74a5.36,5.36,0,0,1-.43-1.54c0-.37,0-.59,0-.59a3.06,3.06,0,0,0,0,.6,5,5,0,0,0,.4,1.56,5.18,5.18,0,0,0,.41.76l0-.08A7.23,7.23,0,0,1,36.76,59.74Z" transform="translate(-1.25 -0.87)"/><path class="cls-9" d="M41.55,64.5l.1.06a.47.47,0,0,1,.06-.09l-.09-.06Z" transform="translate(-1.25 -0.87)"/><path class="cls-9" d="M37.22,60.56l-.07-.11,0,.08.06.11Z" transform="translate(-1.25 -0.87)"/><path class="cls-9" d="M49.5,84.81c-1.54-.06-2.93-.16-3.94-.24l-1.19-.09-.32,0h-.12l.11,0,.33,0,1.19.13c1,.1,2.39.21,3.94.27.56,0,1.1,0,1.61,0L51,84.86Z" transform="translate(-1.25 -0.87)"/><path class="cls-9" d="M53.45,85l1.19,0,.33,0H53.45l-2.3,0,.07.1C52.06,85,52.83,85,53.45,85Z" transform="translate(-1.25 -0.87)"/><path class="cls-9" d="M61.29,68A26.29,26.29,0,0,1,61,63.59a15.55,15.55,0,0,1,.45-3.33l-.11,0a15.27,15.27,0,0,0-.45,3.29A26.38,26.38,0,0,0,61.18,68l.12.71.11,0Z" transform="translate(-1.25 -0.87)"/><path class="cls-9" d="M61.32,68.79c.45,2.76.91,5.39,1.35,7.78h.1c-.44-2.4-.89-5-1.35-7.8Z" transform="translate(-1.25 -0.87)"/><path class="cls-9" d="M67.57,49.74l.85-1,.29-.33s-.43.43-1.17,1.25-1.43,1.63-2.33,2.84h.08C66.18,51.37,67,50.42,67.57,49.74Z" transform="translate(-1.25 -0.87)"/><path class="cls-9" d="M61.51,59.54c-.06.2-.11.42-.16.63l.11,0,.15-.57a21.46,21.46,0,0,1,3.07-6.16c.18-.27.36-.5.54-.74l-.09,0c-.17.24-.34.46-.51.71A21.23,21.23,0,0,0,61.51,59.54Z" transform="translate(-1.25 -0.87)"/><path class="cls-9" d="M62.69,76.68h.1l0-.11h-.1Z" transform="translate(-1.25 -0.87)"/><path class="cls-9" d="M61.42,68.76v-.11l-.11,0,0,.11Z" transform="translate(-1.25 -0.87)"/><path class="cls-9" d="M61.46,60.14l-.11,0,0,.12.11,0Z" transform="translate(-1.25 -0.87)"/><path class="cls-9" d="M65.22,52.67l.07-.11h-.08l-.08.1Z" transform="translate(-1.25 -0.87)"/><path class="cls-9" d="M46.86,78.4c1.56,2.41,3,4.64,4.18,6.46h.11C50,83,48.52,80.77,47,78.34l-.54-.84h-.14C46.47,77.8,46.67,78.09,46.86,78.4Z" transform="translate(-1.25 -0.87)"/><path class="cls-9" d="M42.28,71.1l-2-3.07-.13-.11,2,3.17Z" transform="translate(-1.25 -0.87)"/><path class="cls-9" d="M42.25,71.21l4,6.18h.14l-4-6.17Z" transform="translate(-1.25 -0.87)"/><path class="cls-9" d="M46.21,77.39l.07.11h.14l-.07-.11Z" transform="translate(-1.25 -0.87)"/><path class="cls-9" d="M42.17,71.09l.08.12h.11l-.08-.12Z" transform="translate(-1.25 -0.87)"/><path class="cls-9" d="M51.11,85h.11l-.07-.1H51Z" transform="translate(-1.25 -0.87)"/><path class="cls-9" d="M52.94,70.7c0-.1-.06-.18-.08-.27a.25.25,0,0,0,0,.07l.06.21Z" transform="translate(-1.25 -0.87)"/><path class="cls-9" d="M53.36,72c-.15-.47-.28-.9-.4-1.27H52.9l.38,1.28c.44,1.45,1.06,3.29,1.84,5.32h.11C54.45,75.34,53.82,73.49,53.36,72Z" transform="translate(-1.25 -0.87)"/><path class="cls-9" d="M57.73,83.5l.09,0c-.58-1.23-1.18-2.58-1.78-4-.28-.67-.54-1.33-.78-2h-.12c.25.65.51,1.32.79,2C56.54,80.92,57.15,82.27,57.73,83.5Z" transform="translate(-1.25 -0.87)"/><path class="cls-9" d="M55.12,77.38a.19.19,0,0,0,0,.07h.12l0-.06Z" transform="translate(-1.25 -0.87)"/><path class="cls-9" d="M52.94,70.7h-.06l0,.07H53Z" transform="translate(-1.25 -0.87)"/><path class="cls-9" d="M30.17,60.33c-.16-.7-.24-1.34-.33-1.9s-.15-1-.19-1.45-.06-.53-.09-.74l0,0c0,.21,0,.46.07.76s.09.89.18,1.46.16,1.21.31,1.91.26,1.38.46,2.14l.09,0C30.44,61.74,30.29,61,30.17,60.33Z" transform="translate(-1.25 -0.87)"/><path class="cls-9" d="M31.39,65.22c-.27-.91-.53-1.77-.72-2.6h-.1v0c.18.83.45,1.69.71,2.61s.64,1.93,1,2.94l.25.3C32.12,67.36,31.72,66.26,31.39,65.22Z" transform="translate(-1.25 -0.87)"/><path class="cls-9" d="M38.06,78.62c.49.68,1,1.29,1.45,1.85s.89,1,1.27,1.46.72.78,1,1.06l.65.66a2.92,2.92,0,0,0,.24.22,2.92,2.92,0,0,0-.22-.24L41.81,83c-.28-.28-.62-.64-1-1.07S40,81,39.57,80.42s-1-1.17-1.44-1.86c-.22-.28-.43-.59-.64-.9l0,.11C37.65,78.06,37.85,78.35,38.06,78.62Z" transform="translate(-1.25 -0.87)"/><path class="cls-9" d="M33.61,71c-.32-.7-.6-1.39-.88-2.09l-.16-.06c.29.73.6,1.46.94,2.2a48.14,48.14,0,0,0,3,5.34l.13,0v0A49.79,49.79,0,0,1,33.61,71Z" transform="translate(-1.25 -0.87)"/><path class="cls-9" d="M36.51,76.4h0c.33.47.63.93.94,1.36l0-.11c-.28-.4-.55-.81-.84-1.23Z" transform="translate(-1.25 -0.87)"/><path class="cls-9" d="M32.57,68.49l-.25-.3.22.55.16.06C32.66,68.69,32.61,68.59,32.57,68.49Z" transform="translate(-1.25 -0.87)"/><path class="cls-9" d="M36.51,76.4l.14,0,0-.06-.13,0Z" transform="translate(-1.25 -0.87)"/><path class="cls-9" d="M32.54,68.74l0,.07.16.06,0-.07Z" transform="translate(-1.25 -0.87)"/><path class="cls-9" d="M28.55,62.35c.56.06,1.25.15,2,.26a.5.5,0,0,1,0-.12c-.76-.09-1.44-.17-2-.22l-1-.07h-.18l0,0,.16,0Z" transform="translate(-1.25 -0.87)"/><path class="cls-9" d="M35.28,63.32c-.85-.19-2-.43-3.35-.63l-1.29-.18,0,.11,1.25.18c1.31.2,2.49.43,3.34.6l1,.2.33.06v0l-.31-.08C36,63.5,35.7,63.41,35.28,63.32Z" transform="translate(-1.25 -0.87)"/><path class="cls-9" d="M27.15,62.19l.15,0,0,0Z" transform="translate(-1.25 -0.87)"/><path class="cls-9" d="M27.35,62.19h-.07l0,0h.07Z" transform="translate(-1.25 -0.87)"/><path class="cls-9" d="M30.67,62.62l0-.11-.09,0a.5.5,0,0,0,0,.12Z" transform="translate(-1.25 -0.87)"/><path class="cls-9" d="M32.32,88c.56-2.43,1.07-4.66,1.56-6.48l-.07-.11c-.51,1.84-1,4.1-1.59,6.55Z" transform="translate(-1.25 -0.87)"/><path class="cls-9" d="M33.84,81.34l.07.09c.11-.4.22-.79.33-1.15.34-1.18.66-2.13.89-2.77.11-.3.21-.54.28-.74s.07-.2.08-.23h0a33.44,33.44,0,0,0-1.33,3.72C34.05,80.59,34,81,33.84,81.34Z" transform="translate(-1.25 -0.87)"/><path class="cls-9" d="M35.5,76.51v0h0Z" transform="translate(-1.25 -0.87)"/><path class="cls-9" d="M28.14,77.48c.2-.61.39-1.21.58-1.78l-.09-.08c-.19.59-.39,1.2-.6,1.82-.66,2-1.26,3.86-1.72,5.29l.06.09C26.85,81.4,27.46,79.53,28.14,77.48Z" transform="translate(-1.25 -0.87)"/><path class="cls-9" d="M30.75,69.32s-.91,2.63-2.09,6.2l.09.07C29.92,72,30.78,69.33,30.75,69.32Z" transform="translate(-1.25 -0.87)"/><path class="cls-9" d="M35.64,84.55l0-.08v0A.25.25,0,0,0,35.64,84.55Z" transform="translate(-1.25 -0.87)"/><path class="cls-9" d="M35.37,84c-.18-.38-.47-.91-.85-1.55-.18-.3-.38-.64-.61-1l0,.13c.21.31.41.62.58.9.38.64.68,1.16.87,1.53.08.15.16.29.22.42l.05.08v0l0-.07Z" transform="translate(-1.25 -0.87)"/><path class="cls-9" d="M26.67,74c-.61-.42-1.12-.74-1.48-.95l-.42-.24c-.09,0-.14-.08-.14-.07l.13.09.41.26c.35.21.85.55,1.45,1s1.28,1,2,1.57l0-.1C27.94,74.91,27.26,74.4,26.67,74Z" transform="translate(-1.25 -0.87)"/><path class="cls-9" d="M31,77.86a30.05,30.05,0,0,1,2.84,3.59l0-.11a27,27,0,0,0-2.79-3.56,28.83,28.83,0,0,0-2.3-2.19l0,.11A29.71,29.71,0,0,1,31,77.86Z" transform="translate(-1.25 -0.87)"/><path class="cls-9" d="M33.81,81.45l.07.11,0-.13-.07-.09Z" transform="translate(-1.25 -0.87)"/><path class="cls-9" d="M28.75,75.59l-.09-.07,0,.1.09.08Z" transform="translate(-1.25 -0.87)"/><path class="cls-9" d="M18.59,80.19c-.1-1.27-.2-2.3-.3-3-.08-.53-.14-.88-.16-1h0s0,.11,0,.21.06.49.1.82c.09.7.19,1.73.27,3,0,.38,0,.79.07,1.22h.09C18.65,81,18.62,80.58,18.59,80.19Z" transform="translate(-1.25 -0.87)"/><path class="cls-9" d="M18.11,76.08a.28.28,0,0,1,0,.08h0Z" transform="translate(-1.25 -0.87)"/><path class="cls-9" d="M17.9,72c.07,1,.07,2,.05,2.65,0,.29,0,.55,0,.81a1.17,1.17,0,0,0,0,.3,1.57,1.57,0,0,0,0-.3c0-.19.05-.46.07-.8A21.94,21.94,0,0,0,18,72a23.51,23.51,0,0,0-.32-2.51l-.09,0C17.71,70.16,17.83,71.05,17.9,72Z" transform="translate(-1.25 -0.87)"/><path class="cls-9" d="M17.49,68.6a1.32,1.32,0,0,0-.09-.29,2.55,2.55,0,0,0,.05.29c0,.26.09.52.14.8,0,0,0,.07,0,.1l.09,0,0-.14C17.6,69.05,17.54,68.78,17.49,68.6Z" transform="translate(-1.25 -0.87)"/><path class="cls-9" d="M20.55,81.33a11.07,11.07,0,0,0,1.88-.58A8.27,8.27,0,0,0,24,79.91h0l-.09,0-.32.17a4.49,4.49,0,0,1-.5.26c-.2.09-.43.2-.69.3a11.08,11.08,0,0,1-1.87.55,14.79,14.79,0,0,1-1.86.19s0,.07,0,.11A13.39,13.39,0,0,0,20.55,81.33Z" transform="translate(-1.25 -0.87)"/><path class="cls-9" d="M24,79.89h0Z" transform="translate(-1.25 -0.87)"/><path class="cls-9" d="M18.67,81.42h-.09v.11h.09S18.67,81.45,18.67,81.42Z" transform="translate(-1.25 -0.87)"/><path class="cls-10" d="M26,85.25l2,.93c-.14-.37-.29-.74-.45-1.1l-.08-.18v0c-.33-.7-.7-1.38-1.09-2.06l-.06-.09c-.66-1.15-1.39-2.25-2.15-3.34-.1-.15-.2-.31-.31-.45v.19A55.16,55.16,0,0,1,25.48,85Z" transform="translate(-1.25 -0.87)"/><path d="M36.61,62.66l-.22-.23-.08-.19s0,0,0,.08a4.76,4.76,0,0,0,.32.51A.43.43,0,0,1,36.61,62.66Z" transform="translate(-1.25 -0.87)"/><path class="cls-10" d="M52.48,69.24l0-.08c0-.15-.05-.22-.05-.22l.08.21,0,.09h0c0-.14-.07-.28-.11-.41l-.12.4Z" transform="translate(-1.25 -0.87)"/><path d="M36.69,62.91s0-.11,0-.18l-.06-.07a.43.43,0,0,0,0,.17A.35.35,0,0,0,36.69,62.91Z" transform="translate(-1.25 -0.87)"/><path d="M36.64,62.87a1.37,1.37,0,0,0,0,.19s0-.06,0-.15a.35.35,0,0,1,0-.08Z" transform="translate(-1.25 -0.87)"/><path d="M46.45,67.69h0v0h0l-.13-.1v0Z" transform="translate(-1.25 -0.87)"/><path d="M46.59,67.76l-.11-.08v0Z" transform="translate(-1.25 -0.87)"/><path d="M39.67,67.13s.17.29.48.79l.13.11Z" transform="translate(-1.25 -0.87)"/><path d="M52.51,69.27v0h0l0,.08v0Z" transform="translate(-1.25 -0.87)"/><path class="cls-10" d="M54.13,63l-1.78,5.65a4.55,4.55,0,0,0-1.05-1.74,5.08,5.08,0,0,0-.5-.44,3.19,3.19,0,0,0-.26-.26,2.87,2.87,0,0,0-1.84-.77,2.25,2.25,0,0,0-.52.08l-.13,0-.09,0,0,.07,0,0a3.08,3.08,0,0,0-1.47,1.64,2.63,2.63,0,0,0-.08.3l.13.1h0l.11.08-.12-.06h0l-.13-.09A8.24,8.24,0,0,0,46.07,70a42.76,42.76,0,0,1-4-2.41,41.86,41.86,0,0,1-5.42-4.89c0,.07,0,.13,0,.18s0,.15,0,.15a1.37,1.37,0,0,1,0-.19v0a4.76,4.76,0,0,1-.32-.51,3.29,3.29,0,0,0,0,.54,3.48,3.48,0,0,0,.22.78l0,0h0A9.65,9.65,0,0,0,39,66.84l1.12,1.08c-.31-.5-.49-.79-.48-.79l.61.9a23.68,23.68,0,0,0,4.27,3.32l.21.12a11.26,11.26,0,0,0,3.18,1.22c0-.36,0-.72,0-1.08v-.06c0-1.11.08-2.21.11-3.31l.16.15c.1.08.18.17.28.26a18.77,18.77,0,0,1,2.3,2.58h0c.26.36.52.73.76,1.12.36-.48.68-1,1-1.51a.22.22,0,0,1,0-.08c.05-.09.12-.18.17-.27a.25.25,0,0,1,0-.07,23.16,23.16,0,0,0,2.28-6A54.9,54.9,0,0,0,56.27,57l.12-1.2C55.64,58.19,54.88,60.59,54.13,63Z" transform="translate(-1.25 -0.87)"/><path class="cls-10" d="M46.08,70.29v0l-.34-.21Z" transform="translate(-1.25 -0.87)"/><path class="cls-10" d="M52.4,68.83c0,.13.08.27.11.41h0v.08l0-.08h-.2Z" transform="translate(-1.25 -0.87)"/><path class="cls-10" d="M52.23,69.06h0a4.4,4.4,0,0,0-.18-.62A3.94,3.94,0,0,1,52.23,69.06Z" transform="translate(-1.25 -0.87)"/><path class="cls-10" d="M52.4,68.94s0,.07.05.22l0,.08h0l0-.09Z" transform="translate(-1.25 -0.87)"/><path d="M36.64,63.66l0,0v0Z" transform="translate(-1.25 -0.87)"/><path class="cls-10" d="M68.42,71.89A14,14,0,0,0,68.05,74c.33-.44.66-.88,1-1.34-.41-3.85-.71-6.4-.77-6.52a.76.76,0,0,0,0,.15c0,.52.17,2.25.4,4.78C68.57,71.37,68.49,71.63,68.42,71.89Z" transform="translate(-1.25 -0.87)"/><path class="cls-5" d="M43.84,32.77l2.81,5c1.21-.62,2.88-2.11,1.41-4.9s-3.64-2-4.73-1.2l.51,1.08Zm1-.14a.6.6,0,0,1,.34-.3,1.09,1.09,0,0,1,1.06.23,2.68,2.68,0,0,1,.84,1,2.05,2.05,0,0,1-.1,2.29.85.85,0,0,1-.7.23c-.18,0-.24-.11-.23-.12s.09,0,.24,0a.82.82,0,0,0,.53-.27,2,2,0,0,0,0-2,2.75,2.75,0,0,0-.73-.9.91.91,0,0,0-.82-.26A.4.4,0,0,0,45,33c0,.14.07.21.06.23s-.13,0-.18-.21A.51.51,0,0,1,44.85,32.63Z" transform="translate(-1.25 -0.87)"/><path class="cls-6" d="M45,33.18S45,33.09,45,33a.4.4,0,0,1,.31-.41.91.91,0,0,1,.82.26,2.75,2.75,0,0,1,.73.9,2,2,0,0,1,0,2,.82.82,0,0,1-.53.27c-.15,0-.23,0-.24,0s0,.09.23.12a.85.85,0,0,0,.7-.23,2.05,2.05,0,0,0,.1-2.29,2.68,2.68,0,0,0-.84-1,1.09,1.09,0,0,0-1.06-.23.6.6,0,0,0-.34.3.51.51,0,0,0,0,.34C44.88,33.16,45,33.19,45,33.18Z" transform="translate(-1.25 -0.87)"/><path class="cls-8" d="M24.38,24.32l-.22.13.22-.12Z" transform="translate(-1.25 -0.87)"/><path class="cls-8" d="M20.3,41.14l-.12-.22a12.29,12.29,0,0,1-.86-9.68A1.49,1.49,0,0,0,19,32c0,.07-.26,0-.33,0a1.47,1.47,0,0,1-.34-.32c-.1-.22.19-.48.26-.71a1.86,1.86,0,0,1,.35-.63.65.65,0,0,1,.52-.29,3.24,3.24,0,0,1,.16-1,6.45,6.45,0,0,1,1.86-2.54,18.08,18.08,0,0,1,2.62-2,14.29,14.29,0,0,0-5.44,5.09,9.34,9.34,0,0,0-1.11,5.72A9.82,9.82,0,0,0,19.16,40c.37.54.68,1,1,1.44l.08-.2Z" transform="translate(-1.25 -0.87)"/><path class="cls-8" d="M20.48,41.59s.12.14.29.42c-.16-.29-.32-.58-.47-.87l0,0-.08.2c.14.19.3.37.45.55A1.56,1.56,0,0,1,20.48,41.59Z" transform="translate(-1.25 -0.87)"/><path class="cls-5" d="M45.63,38.14s-.47-.91-1-2a2.6,2.6,0,0,1-2.67-.25c-1-.73-3.37-2.61-3.94-3.76a18.44,18.44,0,0,0-2.82-4.4,7.51,7.51,0,0,0-4.5-2.49,4.78,4.78,0,0,0-4.56,2,28.16,28.16,0,0,0-1.2,3,4.18,4.18,0,0,1-1.55,1.8l-.78,6c.33-.47.54-.86.77-.84s.25.24.23.63A2.36,2.36,0,0,1,23,39.2a2.3,2.3,0,0,1-.67.56l-.3,2.3a.69.69,0,0,1,.21.76c-.08.42-.17.88-.26,1.3.82,1.44,1.92,3.37,3.11,5.53.64,1.18,1.27,2.29,1.89,3.26.67-.39,1.25-.68,1.25-.68l1.54,1.82s-.49.53-1.06,1.19a7,7,0,0,0,.78.77h0a2.57,2.57,0,0,1,0-.27s0,.1,0,.25A10.42,10.42,0,0,1,33,53.15a22.4,22.4,0,0,1,3-1.22l-1.21.13,1.09-2,14.27-5.23.52.18-4-7.22A2.48,2.48,0,0,1,45.63,38.14ZM31.39,32.68c1.11-.49,1.92-1.13,2.15-.94s0,.39-.26.77A4.11,4.11,0,0,1,30,34c-.47,0-.76-.17-.76-.31S30.29,33.2,31.39,32.68Zm-8.58,9.41c-.08,0-.11-.27,0-.64a2.53,2.53,0,0,1,1-1.19,2.62,2.62,0,0,1,1.53-.4c.41,0,.63.16.61.23s-.95.12-1.81.67S23,42.13,22.81,42.09Zm3.26,1.79a1,1,0,0,1-1.3-.34.92.92,0,0,1,.39-1.25,1,1,0,0,1,1.29.34A.92.92,0,0,1,26.07,43.88Zm4.83,2.38a1.74,1.74,0,0,1-.41.18.66.66,0,0,1-.57-.1,1.5,1.5,0,0,1-.43-.94c-.14-.67-.28-1.37-.43-2.1a35.15,35.15,0,0,1-.84-5.45,34.37,34.37,0,0,1,1.28,5.36c.13.73.27,1.43.39,2.1a1.35,1.35,0,0,0,.26.76c.13.13.37,0,.61-.08a6.9,6.9,0,0,1,1.58-.62A7.16,7.16,0,0,1,30.9,46.26Zm2-10.66c-.87.54-1.2,1.37-1.37,1.33s-.11-.27,0-.64a2.53,2.53,0,0,1,1-1.19,2.66,2.66,0,0,1,1.54-.4c.4,0,.62.15.61.23S33.73,35.05,32.86,35.6Zm.44,2.58a.92.92,0,0,1,.39-1.25,1,1,0,0,1,1.29.33.91.91,0,0,1-.38,1.25A1,1,0,0,1,33.3,38.18Zm1.62,8.07c-.51,1.13,0,2.13-.17,2.19s-.3-.15-.47-.59A2.4,2.4,0,0,1,34.36,46a2.76,2.76,0,0,1,1.33-1.35c.46-.21.78-.2.79-.13S35.42,45.11,34.92,46.25Z" transform="translate(-1.25 -0.87)"/><path class="cls-5" d="M20.9,42.23c.26.45.6,1,1,1.69l.12.2c.09-.42.18-.88.26-1.3a.69.69,0,0,0-.21-.76l-.13,1A7.74,7.74,0,0,1,20.9,42.23Z" transform="translate(-1.25 -0.87)"/><path class="cls-5" d="M28.74,55.24c.57-.66,1.06-1.19,1.06-1.19l-1.54-1.82s-.58.29-1.25.68a16.58,16.58,0,0,0,1.64,2.23Z" transform="translate(-1.25 -0.87)"/><path class="cls-5" d="M35.9,50.06l-1.09,2L36,51.93a131.8,131.8,0,0,1,16.43-3.78L50.69,45l-.52-.18Z" transform="translate(-1.25 -0.87)"/><path class="cls-5" d="M30.7,56.88a8.86,8.86,0,0,0,6.69.12,15.65,15.65,0,0,0,5.47-5.81L36,51.93a22.4,22.4,0,0,0-3,1.22A10.42,10.42,0,0,0,29.53,56v0A11.4,11.4,0,0,0,30.7,56.88Z" transform="translate(-1.25 -0.87)"/><polygon class="cls-5" points="28.27 55.14 28.27 55.14 28.27 55.14 28.27 55.14"/><path class="cls-5" d="M38.16,58.49l.36.7.22-.11c.12,0,.19-.07.19-.06a2.87,2.87,0,0,1-.39.22c.27.52.57,1.1.9,1.72l3.62,2h0l0,0,4.81,2.66.08,0v0l-.07,0H48l0-.07a4.93,4.93,0,0,1,.18-.67l.6-1.84c.26-.78.57-1.7.93-2.73a.92.92,0,0,1-.22,0,.51.51,0,0,1,.2,0h0c.35-1,.75-2.11,1.17-3.26.87-2.34,1.72-4.44,2.38-5.93l.33-.75-.5-.91L49.19,50.5l-5.82.63C43.32,52.73,42.66,56.23,38.16,58.49Z" transform="translate(-1.25 -0.87)"/><path class="cls-5" d="M37.39,57l.75,1.46Z" transform="translate(-1.25 -0.87)"/><path class="cls-5" d="M43.34,50.28a4.89,4.89,0,0,1,0,.85l5.82-.63,3.92-1.17-.66-1.18A131.8,131.8,0,0,0,36,51.93l6.84-.74C43,50.9,43.19,50.6,43.34,50.28Z" transform="translate(-1.25 -0.87)"/><path class="cls-5" d="M47.9,65.54l.07,0v0Z" transform="translate(-1.25 -0.87)"/><path class="cls-5" d="M49.72,60.22c-.36,1-.67,2-.93,2.73l-.6,1.84a4.93,4.93,0,0,0-.18.67l2-5.25Z" transform="translate(-1.25 -0.87)"/><path class="cls-5" d="M52.74,52.7h0l.9-2.41,0,0-.33.75c-.66,1.49-1.51,3.59-2.38,5.93-.42,1.15-.82,2.25-1.17,3.26l.25,0Z" transform="translate(-1.25 -0.87)"/><path class="cls-5" d="M49.7,60.18a.51.51,0,0,0-.2,0,.92.92,0,0,0,.22,0v0Z" transform="translate(-1.25 -0.87)"/><path class="cls-5" d="M50,60.14l-.25,0v0H50Z" transform="translate(-1.25 -0.87)"/><path class="cls-5" d="M52.74,52.7h0Z" transform="translate(-1.25 -0.87)"/><path class="cls-5" d="M43.09,63h0Z" transform="translate(-1.25 -0.87)"/><path class="cls-5" d="M38.93,59s-.07,0-.19.06l-.22.11,0,.05A2.87,2.87,0,0,0,38.93,59Z" transform="translate(-1.25 -0.87)"/><path class="cls-5" d="M29.5,55.74a2.57,2.57,0,0,0,0,.27v0C29.51,55.84,29.5,55.74,29.5,55.74Z" transform="translate(-1.25 -0.87)"/><path class="cls-5" d="M29.54,56v0h0Z" transform="translate(-1.25 -0.87)"/><path class="cls-5" d="M47.93,65.66l0-.07-.08,0Z" transform="translate(-1.25 -0.87)"/><path class="cls-5" d="M44.73,36.11a1.25,1.25,0,0,1-.12.08c.55,1,1,1.91,1,2a2.48,2.48,0,0,0,1-.35l-2.81-5C43.94,33,45.24,35.63,44.73,36.11Z" transform="translate(-1.25 -0.87)"/><path class="cls-5" d="M21.44,40.61c.51.61-.11,1.34-.11,1.34a1.09,1.09,0,0,1,.73.11l.3-2.3a1.89,1.89,0,0,1-.55.25c-.38.09-.63,0-.67-.11-.07-.29.55-.7,1.08-1.36a5.15,5.15,0,0,0,.37-.48l.78-6A2.62,2.62,0,0,1,20.21,32a1.66,1.66,0,0,1-.25-.34v.07c-.23-.26-.24-.49-.48-.51a.26.26,0,0,0-.16.07,12.29,12.29,0,0,0,.86,9.68l.12.22C20.43,40.91,21,40.08,21.44,40.61Z" transform="translate(-1.25 -0.87)"/><path class="cls-5" d="M20.9,42.23a7.74,7.74,0,0,0,1,.88l.13-1a1.09,1.09,0,0,0-.73-.11s.62-.73.11-1.34-1,.3-1.14.53c.15.29.31.58.47.87l.11.19Z" transform="translate(-1.25 -0.87)"/><path class="cls-6" d="M38.16,58.49h0l0,0Z" transform="translate(-1.25 -0.87)"/><path class="cls-6" d="M38.16,58.49c4.5-2.26,5.16-5.76,5.21-7.36l-.51.06A15.65,15.65,0,0,1,37.39,57l.75,1.46Z" transform="translate(-1.25 -0.87)"/><path class="cls-6" d="M43.34,50.28c-.15.32-.31.62-.48.91l.51-.06A4.89,4.89,0,0,0,43.34,50.28Z" transform="translate(-1.25 -0.87)"/><path class="cls-8" d="M25.16,42.29a.92.92,0,0,0-.39,1.25,1,1,0,0,0,1.3.34.92.92,0,0,0,.38-1.25A1,1,0,0,0,25.16,42.29Z" transform="translate(-1.25 -0.87)"/><path class="cls-8" d="M26,40.09c0-.07-.2-.2-.61-.23a2.62,2.62,0,0,0-1.53.4,2.53,2.53,0,0,0-1,1.19c-.14.37-.11.62,0,.64s.49-.79,1.37-1.33S26,40.26,26,40.09Z" transform="translate(-1.25 -0.87)"/><path class="cls-8" d="M34.6,38.51A.91.91,0,0,0,35,37.26a1,1,0,0,0-1.29-.33.92.92,0,0,0-.39,1.25A1,1,0,0,0,34.6,38.51Z" transform="translate(-1.25 -0.87)"/><path class="cls-8" d="M34.68,34.93c0-.08-.21-.2-.61-.23a2.66,2.66,0,0,0-1.54.4,2.53,2.53,0,0,0-1,1.19c-.14.37-.11.62,0,.64s.5-.79,1.37-1.33S34.65,35.1,34.68,34.93Z" transform="translate(-1.25 -0.87)"/><path class="cls-8" d="M30.15,46.07a1.35,1.35,0,0,1-.26-.76c-.12-.67-.26-1.37-.39-2.1a34.37,34.37,0,0,0-1.28-5.36,35.15,35.15,0,0,0,.84,5.45c.15.73.29,1.43.43,2.1a1.5,1.5,0,0,0,.43.94.66.66,0,0,0,.57.1,1.74,1.74,0,0,0,.41-.18,7.16,7.16,0,0,0,1.44-.89,6.9,6.9,0,0,0-1.58.62C30.52,46.11,30.28,46.2,30.15,46.07Z" transform="translate(-1.25 -0.87)"/><path class="cls-8" d="M35.69,44.69A2.76,2.76,0,0,0,34.36,46a2.4,2.4,0,0,0-.08,1.81c.17.44.4.63.47.59s-.34-1.06.17-2.19,1.62-1.55,1.56-1.69S36.15,44.48,35.69,44.69Z" transform="translate(-1.25 -0.87)"/><path class="cls-8" d="M30,34a4.11,4.11,0,0,0,3.26-1.49c.29-.38.36-.68.26-.77s-1,.45-2.15.94-2.12.72-2.13,1S29.55,34,30,34Z" transform="translate(-1.25 -0.87)"/><path class="cls-8" d="M23,39.2a2.36,2.36,0,0,0,.56-1.35c0-.39-.1-.62-.23-.63s-.44.37-.77.84l-.23,1.7A2.3,2.3,0,0,0,23,39.2Z" transform="translate(-1.25 -0.87)"/><path class="cls-8" d="M21.14,39.9c0,.13.29.2.67.11a1.89,1.89,0,0,0,.55-.25l.23-1.7a5.15,5.15,0,0,1-.37.48C21.69,39.2,21.07,39.61,21.14,39.9Z" transform="translate(-1.25 -0.87)"/><path class="cls-8" d="M25.36,24.14a12.32,12.32,0,0,1,16.4,4.92l1.5,2.68.07,0c-.22-.46-.4-.86-.4-.86-1.47-3.09-2.47-4.75-5.25-6.71a11.33,11.33,0,0,0-8.44-1.65,14.25,14.25,0,0,0-4.86,1.86l-.06.41C24.66,24.53,25,24.33,25.36,24.14Z" transform="translate(-1.25 -0.87)"/><path class="cls-8" d="M24.13,24.47l0,0Z" transform="translate(-1.25 -0.87)"/><path class="cls-8" d="M43.84,32.77h0l-.51-1.08-.07,0Z" transform="translate(-1.25 -0.87)"/><path class="cls-8" d="M19.65,29a3.24,3.24,0,0,0-.16,1h0a.46.46,0,0,1,.23.16,12.31,12.31,0,0,1,4.58-5.4l.06-.41-.22.12,0,0a18.08,18.08,0,0,0-2.62,2A6.45,6.45,0,0,0,19.65,29Z" transform="translate(-1.25 -0.87)"/><path class="cls-8" d="M24.92,30.29a28.16,28.16,0,0,1,1.2-3,4.78,4.78,0,0,1,4.56-2,7.51,7.51,0,0,1,4.5,2.49A18.44,18.44,0,0,1,38,32.18c.57,1.15,2.89,3,3.94,3.76a2.6,2.6,0,0,0,2.67.25l-2-3.88a5.73,5.73,0,0,1,.66-.57l-1.5-2.68a12.32,12.32,0,0,0-16.4-4.92c-.36.19-.7.39-1,.6l-.95,7.35A4.18,4.18,0,0,0,24.92,30.29Z" transform="translate(-1.25 -0.87)"/><path class="cls-8" d="M42.6,32.31l2,3.88a1.25,1.25,0,0,0,.12-.08c.51-.48-.79-3.11-.89-3.34l-.58-1A5.73,5.73,0,0,0,42.6,32.31Z" transform="translate(-1.25 -0.87)"/><path class="cls-8" d="M20,30.75a.62.62,0,0,1-.09.46l0,.4a1.66,1.66,0,0,0,.25.34,2.62,2.62,0,0,0,3.16.14l.95-7.35a12.31,12.31,0,0,0-4.58,5.4,1,1,0,0,1,.12.16A1.21,1.21,0,0,1,20,30.75Z" transform="translate(-1.25 -0.87)"/><path class="cls-8" d="M19.49,30a.65.65,0,0,0-.52.29,1.86,1.86,0,0,0-.35.63c-.07.23-.36.49-.26.71a1.47,1.47,0,0,0,.34.32c.07,0,.31.1.33,0a1.49,1.49,0,0,1,.29-.72l.21-.58A3.07,3.07,0,0,1,19.49,30Z" transform="translate(-1.25 -0.87)"/><path class="cls-8" d="M20,31.68v-.07a2.35,2.35,0,0,1-.43-.95l-.21.58a.26.26,0,0,1,.16-.07C19.72,31.19,19.73,31.42,20,31.68Z" transform="translate(-1.25 -0.87)"/><path class="cls-8" d="M19.74,30.14a.46.46,0,0,0-.23-.16h0a3.07,3.07,0,0,0,0,.68Z" transform="translate(-1.25 -0.87)"/><path class="cls-8" d="M20,31.61l0-.4a.62.62,0,0,0,.09-.46,1.21,1.21,0,0,0-.16-.45,1,1,0,0,0-.12-.16l-.21.52A2.35,2.35,0,0,0,20,31.61Z" transform="translate(-1.25 -0.87)"/><path class="cls-6" d="M22,44.23l0,.19c.77,1.44,1.8,3.3,2.94,5.36.63,1.18,1.27,2.3,1.91,3.27l.13-.08C25.62,50.81,23.82,47.59,22,44.23Z" transform="translate(-1.25 -0.87)"/><path class="cls-6" d="M29.45,56.09a6.17,6.17,0,0,1-.81-.74l0,0a10.14,10.14,0,0,0,.81.74Z" transform="translate(-1.25 -0.87)"/><path class="cls-6" d="M27.57,54c-.2-.3-.42-.66-.65-1l-.13.08a15.6,15.6,0,0,0,1.72,2.23l.1.11,0,0A8.37,8.37,0,0,1,27.57,54Z" transform="translate(-1.25 -0.87)"/><path class="cls-6" d="M20.87,42.19l-.24-.25.1.2.05,0s0,0,0,.06l0,.08c.24.47.56,1.06.93,1.76l.22.41,0-.19Z" transform="translate(-1.25 -0.87)"/><path class="cls-6" d="M20.73,42.14l0,0s0-.06,0-.06Z" transform="translate(-1.25 -0.87)"/><path class="cls-6" d="M29.53,56.15l-.08-.06,0,0,.11.09Z" transform="translate(-1.25 -0.87)"/><path class="cls-6" d="M29.56,56.24a4.66,4.66,0,0,0,.48.33,3.24,3.24,0,0,0,.48.25c.12.06.18.08.18.07h0a6.31,6.31,0,0,1-1.14-.71Z" transform="translate(-1.25 -0.87)"/><path class="cls-6" d="M29.56,56.24v-.07l0,0v.07Z" transform="translate(-1.25 -0.87)"/><path class="cls-6" d="M20.77,42c-.17-.28-.27-.43-.29-.42a1.56,1.56,0,0,0,.15.35l.24.25Z" transform="translate(-1.25 -0.87)"/><path class="cls-6" d="M29.45,56.09l.07-.08a7,7,0,0,1-.78-.77.52.52,0,0,1-.1.11A6.17,6.17,0,0,0,29.45,56.09Z" transform="translate(-1.25 -0.87)"/><path class="cls-6" d="M26.92,53l.09-.06c-.62-1-1.25-2.08-1.89-3.26-1.19-2.16-2.29-4.09-3.11-5.53l0,.11C23.82,47.59,25.62,50.81,26.92,53Z" transform="translate(-1.25 -0.87)"/><path class="cls-6" d="M27.57,54a8.37,8.37,0,0,0,1.07,1.35.52.52,0,0,0,.1-.11l-.09-.1A16.58,16.58,0,0,1,27,52.91l-.09.06C27.15,53.34,27.37,53.7,27.57,54Z" transform="translate(-1.25 -0.87)"/><path class="cls-6" d="M20.9,42.23l0,0,1.11,2,0-.11-.12-.2C21.5,43.24,21.16,42.68,20.9,42.23Z" transform="translate(-1.25 -0.87)"/><path class="cls-6" d="M29.53,56.15V56h0l-.07.08Z" transform="translate(-1.25 -0.87)"/><path class="cls-6" d="M29.56,56.17a6.31,6.31,0,0,0,1.14.71A11.4,11.4,0,0,1,29.54,56v0Z" transform="translate(-1.25 -0.87)"/><path class="cls-6" d="M29.54,56.06v0l0,0v.14l0,0Z" transform="translate(-1.25 -0.87)"/><path class="cls-6" d="M20.9,42.23l0,0L20.77,42l.1.18Z" transform="translate(-1.25 -0.87)"/></g><circle class="cls-7" cx="39.2" cy="10.87" r="10" transform="translate(21.05 47) rotate(-80.95)"/><path class="cls-8" d="M35.75,8.35c.38,0,.72.39.77.94s-.23,1-.61,1.05-.72-.39-.77-.94S35.37,8.39,35.75,8.35Z" transform="translate(-1.25 -0.87)"/><path class="cls-8" d="M42.11,8.22c-.38,0-.71.42-.73,1s.26,1,.64,1,.71-.42.73-1S42.49,8.24,42.11,8.22Z" transform="translate(-1.25 -0.87)"/><path class="cls-8" d="M43.2,12.85a6.78,6.78,0,0,1-1.17-.6,6.49,6.49,0,0,0-3-.74,7.41,7.41,0,0,0-3,.78,5.67,5.67,0,0,1-1.19.56A3.32,3.32,0,0,1,35.93,12,6.51,6.51,0,0,1,39,11.1a5.93,5.93,0,0,1,3.13.89A3.28,3.28,0,0,1,43.2,12.85Z" transform="translate(-1.25 -0.87)"/><path class="cls-8" d="M36.51,7.21s0,.16-.19.31a1.71,1.71,0,0,1-.79.36,1.45,1.45,0,0,1-.86-.09c-.21-.1-.3-.2-.28-.25s.52,0,1.07-.06S36.44,7.11,36.51,7.21Z" transform="translate(-1.25 -0.87)"/><path class="cls-8" d="M43.91,7.69s-.09.15-.31.22a1.47,1.47,0,0,1-.9,0,1.81,1.81,0,0,1-.74-.5c-.14-.17-.2-.3-.16-.34s.49.26,1,.45S43.87,7.57,43.91,7.69Z" transform="translate(-1.25 -0.87)"/></g></g></g></svg>