<svg xmlns="http://www.w3.org/2000/svg" viewBox="0 0 26 26"><defs><style>.cls-1{fill:none;}.cls-2{fill:#1a2e35;}.cls-3{fill:#ff4f5b;}.cls-4{fill:#fff;}</style></defs><g id="Layer_2" data-name="Layer 2"><g id="Layer_1-2" data-name="Layer 1"><rect class="cls-1" width="26" height="26"/><path class="cls-2" d="M13.47,21.32A30.17,30.17,0,0,0,19.91,21a7.42,7.42,0,0,0,1.54-.47,2.1,2.1,0,0,0,1.15-1,2.5,2.5,0,0,0,.07-.78V16.24h0a1,1,0,0,0,0-.35h0V13.58h0a1,1,0,0,0,0-.35h0V10.67h0a1,1,0,0,0,0-.24l0-.23v0c.07-.48,0-1,0-1.53V7.07h0a1,1,0,0,0,0-.35h0V4.14a.65.65,0,0,0,0-.24l0-.23h0a.84.84,0,0,0-.34-.46h0a7.14,7.14,0,0,0-3.19-1A27.76,27.76,0,0,0,15.65,2a27.47,27.47,0,0,0-3.4.23,7.39,7.39,0,0,0-3.19,1h0a.82.82,0,0,0-.35.45h0l0,.23a.65.65,0,0,0,0,.24v0L8.6,13.08h0L8.52,4.16h0a.88.88,0,0,1,0-.28l.05-.27h0A1,1,0,0,1,9,3.07H9A7,7,0,0,1,12.22,2a26.26,26.26,0,0,1,6.86,0,7.22,7.22,0,0,1,3.27,1.06h0a1,1,0,0,1,.41.55h0l.06.27a1.29,1.29,0,0,1,0,.28h0V6.7h0a1,1,0,0,1,0,.39h0V8.62c0,.52,0,1,0,1.56v0l.05.26a.82.82,0,0,1,0,.27h0v2.54h0a1.28,1.28,0,0,1,0,.39h0v2.29h0a1.28,1.28,0,0,1,0,.39h0v2.43a2.26,2.26,0,0,1-.08.81,2.15,2.15,0,0,1-1.19,1.07,7.78,7.78,0,0,1-1.56.47,31,31,0,0,1-6.46.32Z"/><path class="cls-2" d="M13.83,19.33c1.51,0,3,0,4.52-.16.75-.08,1.49-.19,2.23-.34a7.59,7.59,0,0,0,2.13-.69v0a6.34,6.34,0,0,1-2.1.86,15.72,15.72,0,0,1-2.26.3,40.27,40.27,0,0,1-4.53,0Z"/><path class="cls-2" d="M12.88,16c1.67,0,3.34.06,5-.09.83-.07,1.65-.17,2.47-.32a8.11,8.11,0,0,0,2.36-.74v0a6.66,6.66,0,0,1-2.34.9,17.45,17.45,0,0,1-2.49.3c-1.67.11-3.34,0-5-.05Z"/><path class="cls-2" d="M8.59,7.49a9,9,0,0,0,3.46,1,28.84,28.84,0,0,0,3.6.18,33.13,33.13,0,0,0,3.6-.23,9.63,9.63,0,0,0,3.46-.9h0a8.66,8.66,0,0,1-3.44,1.08,24.54,24.54,0,0,1-3.63.19A29.2,29.2,0,0,1,12,8.55a9.27,9.27,0,0,1-3.45-1Z"/><path class="cls-2" d="M22.6,3.83A4.25,4.25,0,0,1,21,4.52a14.62,14.62,0,0,1-1.75.34,26.51,26.51,0,0,1-3.56.25,24.92,24.92,0,0,1-3.56-.2,15.25,15.25,0,0,1-1.76-.36,4,4,0,0,1-1.62-.72h0a4.7,4.7,0,0,0,1.64.61,14.85,14.85,0,0,0,1.75.29A29.92,29.92,0,0,0,15.65,5a28.05,28.05,0,0,0,3.55-.19A17.29,17.29,0,0,0,21,4.47a4.4,4.4,0,0,0,1.63-.65Z"/><path class="cls-2" d="M8.59,11.29a10.42,10.42,0,0,0,3.47.87,28.69,28.69,0,0,0,3.59.19,35.85,35.85,0,0,0,3.59-.23,11.21,11.21,0,0,0,3.47-.83v0a9.9,9.9,0,0,1-3.46,1,27.22,27.22,0,0,1-3.61.21,33.32,33.32,0,0,1-3.6-.25,10.66,10.66,0,0,1-3.47-.95Z"/><path class="cls-2" d="M13.92,19.05a6.06,6.06,0,0,1-10.34,4.3,6.1,6.1,0,0,1,4.3-10.42,6.08,6.08,0,0,1,6,6.12Zm0,0a6,6,0,1,0-1.77,4.25A6,6,0,0,0,13.9,19.05Z"/><path class="cls-3" d="M3.23,19.05a4.66,4.66,0,1,0,4.65-4.66A4.66,4.66,0,0,0,3.23,19.05Z"/><path class="cls-4" d="M7.91,16.83v-.42h.15v.37a.31.31,0,0,0,.27.3,1.77,1.77,0,0,1,.58.15l-.07.2-.21-.08a1.81,1.81,0,0,0-.58-.09.92.92,0,0,0-.65.23.69.69,0,0,0-.14.77.8.8,0,0,0,.18.24,2.66,2.66,0,0,0,.68.37h0a2.13,2.13,0,0,1,.61.34,1,1,0,0,1,.31.41,1.38,1.38,0,0,1,.05.37,1,1,0,0,1-.24.65h0a1.1,1.1,0,0,1-.6.35.29.29,0,0,0-.23.29v.44H7.86v-.4a.3.3,0,0,0-.27-.3A2,2,0,0,1,7.18,21a2,2,0,0,1-.33-.14l.07-.21a1.91,1.91,0,0,0,.9.23,1,1,0,0,0,.68-.22A.76.76,0,0,0,8.77,20a.75.75,0,0,0-.06-.31.72.72,0,0,0-.18-.25,1.64,1.64,0,0,0-.61-.37,3.29,3.29,0,0,1-.63-.32A.94.94,0,0,1,7,18.4a.81.81,0,0,1-.07-.35,1,1,0,0,1,.24-.63,1.13,1.13,0,0,1,.56-.3A.32.32,0,0,0,7.91,16.83Z"/></g></g></svg>