<svg xmlns="http://www.w3.org/2000/svg" viewBox="0 0 26 26"><defs><style>.cls-1{fill:none;}.cls-2{fill:#1a2e35;}.cls-3{fill:#ff4f5b;}</style></defs><g id="Layer_2" data-name="Layer 2"><g id="Layer_1-2" data-name="Layer 1"><rect class="cls-1" width="26" height="26"/><path class="cls-2" d="M23.44,20.38A2.34,2.34,0,0,0,25.33,19a2.73,2.73,0,0,0,.19-1.2V16.61l0-4.91,0-4.9A2.27,2.27,0,0,0,24.14,5,2.62,2.62,0,0,0,23,4.77H21.73l-9.81,0L7,4.75c-.81,0-1.64,0-2.45,0A2.31,2.31,0,0,0,2.8,6.28H2.66v0h.13A2.33,2.33,0,0,1,4.55,4.71c.83-.08,1.64,0,2.46-.06l4.91,0H23a2.64,2.64,0,0,1,1.23.2,2.38,2.38,0,0,1,1.4,2V11.7l0,4.91v1.22a2.62,2.62,0,0,1-.2,1.21,2.34,2.34,0,0,1-1.92,1.36Z"/><path class="cls-2" d="M21,22,3,22a2.22,2.22,0,0,1-2-.82,2.12,2.12,0,0,1-.43-1.05c0-.38,0-.74,0-1.12V9A2.29,2.29,0,0,1,.78,7.83,2.16,2.16,0,0,1,2.66,6.69l17.93,0a2.29,2.29,0,0,1,2.05.85,2.14,2.14,0,0,1,.42,1.06c0,.39,0,.75,0,1.13l0,4.48,0,4.48v1.12a2.16,2.16,0,0,1-.25,1.09A2.05,2.05,0,0,1,21,22Zm0,0a2.05,2.05,0,0,0,1.8-1.1,5.07,5.07,0,0,0,.23-2.2l0-4.48,0-4.48c0-.37,0-.75,0-1.11a2,2,0,0,0-.4-1,2.13,2.13,0,0,0-1.93-.77H2.66A2,2,0,0,0,.9,7.89a5,5,0,0,0-.23,2.18v9c0,.37,0,.75,0,1.11a2,2,0,0,0,.4,1,2.16,2.16,0,0,0,2,.79Z"/><path class="cls-3" d="M8.05,11.16a1.65,1.65,0,0,1-.49,1.16,1.63,1.63,0,0,1-1.16.48h0a1.64,1.64,0,0,1-1.64-1.64A1.67,1.67,0,0,1,5.24,10,1.63,1.63,0,0,1,6.4,9.51,1.65,1.65,0,0,1,8.05,11.16Z"/><path class="cls-3" d="M5,13.18a2.64,2.64,0,0,0,2.84,0,3.74,3.74,0,0,1,.77,2.15H4.17A3.63,3.63,0,0,1,5,13.18Z"/><path class="cls-2" d="M12.83,10.6l2.78-.06a21.51,21.51,0,0,1,2.78.06v0a21.51,21.51,0,0,1-2.78.06l-2.78-.06Z"/><path class="cls-2" d="M12.83,13.71l2.78-.06a25.8,25.8,0,0,1,2.78.06v0a21.51,21.51,0,0,1-2.78.06l-2.78-.06Z"/><path class="cls-2" d="M12.83,16.83l2.78-.06a21.51,21.51,0,0,1,2.78.06v0a21.51,21.51,0,0,1-2.78.06l-2.78-.06Z"/><path class="cls-2" d="M4.76,19.82l6.81-.06q3.42-.06,6.82.06v0q-3.4.12-6.82.06l-6.81-.06Z"/></g></g></svg>