<svg xmlns="http://www.w3.org/2000/svg" viewBox="0 0 26.03 26"><defs><style>.cls-1{fill:none;}.cls-2{fill:#ff4f5b;}.cls-3{fill:#fff;}.cls-4{fill:#1a2e35;}</style></defs><g id="Layer_2" data-name="Layer 2"><g id="Layer_1-2" data-name="Layer 1"><rect class="cls-1" width="26" height="26"/><path class="cls-2" d="M9.94,15.74A1.77,1.77,0,0,1,8.2,14.65a1.17,1.17,0,0,0-1-.73,1,1,0,0,0-.77.35,1.38,1.38,0,0,0-.36,1,1.41,1.41,0,0,0,.3.88l.13.14.09.08,3.26,3.46L12,17.47A2.47,2.47,0,0,1,9.94,15.74Z"/><path class="cls-2" d="M10.91,15.6v0Z"/><path class="cls-2" d="M10.8,15a1.19,1.19,0,0,0,0,.33A1.66,1.66,0,0,1,10.8,15Z"/><path class="cls-2" d="M12.28,16.44A1.67,1.67,0,0,1,11,15.86a1.5,1.5,0,0,0,1.24.66h1.9a2.37,2.37,0,0,1-.23.3l0,0-4.1,4.34-4-4.2,0,0a2.83,2.83,0,0,1-.24-.25A2.44,2.44,0,0,1,5.21,16a2.4,2.4,0,0,1,.5-2.36A2,2,0,0,1,7.18,13a2.11,2.11,0,0,1,1.9,1.32.82.82,0,0,0,.75.5.83.83,0,0,0,.75-.5A2.1,2.1,0,0,1,12.48,13a2,2,0,0,1,1.4.59h-1.6a1.46,1.46,0,0,0-1.4,1,1.61,1.61,0,0,1,1.4-.94h2.56a1,1,0,0,0-.28-.77A3,3,0,0,0,12.48,12a3,3,0,0,0-2.65,1.63A3,3,0,0,0,7.18,12,3,3,0,0,0,5,13a3.29,3.29,0,0,0-.88,2.27,3.35,3.35,0,0,0,.17,1,3.13,3.13,0,0,0,.56,1,2.62,2.62,0,0,0,.31.34l4,4.2a1,1,0,0,0,1.39,0l4.1-4.35,0,0a3.39,3.39,0,0,0,.33-.42.94.94,0,0,0,.15-.54ZM9.7,13.9Z"/><path class="cls-2" d="M10.84,14.68a2.09,2.09,0,0,0,0,.36A1.88,1.88,0,0,1,10.84,14.68Z"/><path class="cls-2" d="M10.91,15.6a1.25,1.25,0,0,1-.07-.23,1.19,1.19,0,0,1,0-.33,2.09,2.09,0,0,1,0-.36.3.3,0,0,1,0-.1,1.46,1.46,0,0,1,1.4-1h1.6a2,2,0,0,0-1.4-.59,2.1,2.1,0,0,0-1.9,1.32.83.83,0,0,1-.75.5.82.82,0,0,1-.75-.5A2.11,2.11,0,0,0,7.18,13a2,2,0,0,0-1.47.65A2.4,2.4,0,0,0,5.21,16a2.44,2.44,0,0,0,.39.73,2.83,2.83,0,0,0,.24.25l0,0,4,4.2,4.1-4.34,0,0a2.37,2.37,0,0,0,.23-.3h-1.9A1.5,1.5,0,0,1,11,15.86l-.12-.23ZM9.83,19.78,6.57,16.32l-.09-.08-.13-.14a1.44,1.44,0,0,1,.06-1.83,1,1,0,0,1,.77-.35,1.17,1.17,0,0,1,1,.73,1.77,1.77,0,0,0,1.74,1.09A2.47,2.47,0,0,0,12,17.47Z"/><path class="cls-3" d="M10.88,14.58a.3.3,0,0,0,0,.1A.42.42,0,0,1,10.88,14.58Z"/><path class="cls-3" d="M10.84,15.37a1.25,1.25,0,0,0,.07.23A1.55,1.55,0,0,1,10.84,15.37Z"/><path class="cls-3" d="M11,15.86l-.12-.23Z"/><path class="cls-4" d="M26,8.49c0-.26,0-.58-.22-.74s-.53-.06-.8-.13a14.78,14.78,0,0,1-1.61-.32h0c-1.08-.31-2.19-.56-3.28-.84l-3.29-.82L13.5,4.81,11.86,4.4a2.37,2.37,0,0,0-1.64,0h0C9.48,4.93,8.73,5.51,8,6L5.77,7.66,1.31,10.89h0c-.16.12-.33.23-.47.35h0a2,2,0,0,0,1.23,3.41h0a1.73,1.73,0,0,0,.68,0,2.06,2.06,0,0,0,.64-.24c.38-.26.76-.56,1.15-.82l.25-.16-.15.26a3.28,3.28,0,0,0-.34,2,3.2,3.2,0,0,0,.34,1,3,3,0,0,0,.64.83h0l2.51,2.65L9,21.53a7.43,7.43,0,0,0,.62.63.34.34,0,0,0,.35,0,2,2,0,0,0,.31-.29l2.5-2.65,1.24-1.33a4.43,4.43,0,0,0,1.08-1.41l0,0h.06c1,0,2,0,3,0a6.13,6.13,0,0,0,2.8-.93c.85-.51,1.6-1.19,2.47-1.69a4,4,0,0,1,1.41-.53c.25-.05.52,0,.74-.06a.52.52,0,0,0,.35-.56h0C26,11.28,26,9.89,26,8.49Zm0,0c0,1.4,0,2.79,0,4.19h0a.55.55,0,0,1-.38.62c-.26.05-.5,0-.75.08a4.08,4.08,0,0,0-1.38.53c-.85.51-1.6,1.18-2.46,1.71a6.23,6.23,0,0,1-2.83,1c-1,.05-2,0-3,0l.08-.05A4.72,4.72,0,0,1,14.18,18l-1.25,1.32L10.43,22a1.57,1.57,0,0,1-.35.32.53.53,0,0,1-.52,0c-.27-.23-.43-.45-.65-.67L7.66,20.32l-2.5-2.65h0a3.32,3.32,0,0,1-.67-.87,3.55,3.55,0,0,1-.35-1,3.38,3.38,0,0,1,.37-2.14l.1.09c-.39.26-.76.55-1.16.82a2.08,2.08,0,0,1-.68.26,1.8,1.8,0,0,1-.73,0H2a2.14,2.14,0,0,1-1.8-1.41,2.1,2.1,0,0,1,.51-2.22h0c.17-.14.34-.25.51-.38h0L5.7,7.57,7.93,6c.76-.53,1.46-1.09,2.26-1.6h0a2.51,2.51,0,0,1,1.69,0l1.64.42,3.28.84,3.28.83c1.09.29,2.2.54,3.28.86h0A14.35,14.35,0,0,0,25,7.6l.41,0a.55.55,0,0,1,.39.1C26,7.9,26,8.23,26,8.49Z"/><path class="cls-4" d="M15.76,16.53c-1.24,0-2.48,0-3.72-.09a1.62,1.62,0,0,1-.86-.37,1.34,1.34,0,0,1-.41-.84,1.49,1.49,0,0,1,.18-.92,1.54,1.54,0,0,1,.74-.59,2.24,2.24,0,0,1,.92-.13H15.4a5.82,5.82,0,0,0,.92-.08,1.62,1.62,0,0,0,.84-.24,1,1,0,0,0,.2-.81,1.93,1.93,0,0,0-.3-.84,2,2,0,0,0-.65-.6,6.38,6.38,0,0,0-.87-.26l-1.8-.47-3.59-.93a2.13,2.13,0,0,0-.43,0,.81.81,0,0,0-.42.08c-.26.14-.52.33-.78.49L7,10.93l-3.15,2h0l0,0h0s0,0,0,0h0s0,0,0,0H3.79l3.1-2.07,1.55-1c.26-.17.5-.35.78-.51a1.05,1.05,0,0,1,.48-.11,3.85,3.85,0,0,1,.49,0l3.6.95,1.79.48a7.21,7.21,0,0,1,.91.28,2.15,2.15,0,0,1,.69.65,2.07,2.07,0,0,1,.32.9,1.1,1.1,0,0,1-.25.93,1.74,1.74,0,0,1-.92.26,5.74,5.74,0,0,1-.93.08H12.61a1.91,1.91,0,0,0-.89.12,1.45,1.45,0,0,0-.7.54,1.39,1.39,0,0,0-.18.87,1.26,1.26,0,0,0,.38.8,1.65,1.65,0,0,0,.83.37c1.22.06,2.47.08,3.71.12Z"/></g></g></svg>