<svg xmlns="http://www.w3.org/2000/svg" viewBox="0 0 26 26"><defs><style>.cls-1{fill:none;}.cls-2{fill:#1a2e35;}.cls-3{fill:#ff4f5b;}</style></defs><g id="Layer_2" data-name="Layer 2"><g id="Layer_1-2" data-name="Layer 1"><rect class="cls-1" width="26" height="26"/><path class="cls-2" d="M21.67,5.53H16a2.28,2.28,0,0,0-1.74.53l0,0V5l0,0L1.81,5l.05,0V16h0a1.58,1.58,0,0,0-1,1.33c0,.59,0,1.23,0,1.79A1.6,1.6,0,0,0,2,20.28a15.14,15.14,0,0,0,1.79,0H3.9v.07a2.85,2.85,0,0,0,.82,2,2.88,2.88,0,0,0,2,.85A2.87,2.87,0,0,0,9.61,20.4v-.09h7.83v.09a2.86,2.86,0,0,0,3,2.87,2.94,2.94,0,0,0,2-1,2.88,2.88,0,0,0,.64-2.18V20l.05,0a3.54,3.54,0,0,0,2-3.46V10A5.7,5.7,0,0,0,25,7.87,3.54,3.54,0,0,0,21.67,5.53Zm0,0A3.59,3.59,0,0,1,25,7.85,5.84,5.84,0,0,1,25.25,10v2.17l0,4.34a3.67,3.67,0,0,1-2.07,3.61l.05-.08a3,3,0,1,1-6,.34l.08.1H9.69l.08-.09a3,3,0,1,1-6,0l.07.07A14,14,0,0,1,2,20.41,1.71,1.71,0,0,1,.75,19.12c-.07-.63,0-1.21,0-1.83a1.72,1.72,0,0,1,1.07-1.44l0,.06v-11h.05L14.27,5h0v1.1h0A2.34,2.34,0,0,1,16,5.5h5.65Z"/><path class="cls-2" d="M2.53,5.7l11,0h.05v0l0,10.09v.07h-.07l-11,0H2.45V15.8Zm0,0L2.63,15.8l-.09-.1,11,0-.08.08,0-10.09,0,0Z"/><path class="cls-2" d="M6.76,22.65a2.24,2.24,0,1,1,2.3-2.22A2.28,2.28,0,0,1,6.76,22.65Zm0,0a2.17,2.17,0,1,0-2.16-2.2,2.15,2.15,0,0,0,2.16,2.2Z"/><path class="cls-2" d="M20.27,22.65a2.25,2.25,0,1,1,0-4.5,2.25,2.25,0,0,1,1.62.66,2.24,2.24,0,0,1-1.62,3.84Zm0,0A2.15,2.15,0,1,0,18.72,22,2.17,2.17,0,0,0,20.27,22.63Z"/><path class="cls-3" d="M8.93,8H6.68V9.87H4.81v2.25H6.68V14H8.93V12.12H10.8V9.87H8.93Z"/><path class="cls-2" d="M22.48,11.82A1.19,1.19,0,0,1,21.42,13l-1.74,0-3.46,0h-.06V13l0-3.73V9.19H19v.12l-.1-.09h1.41a6.2,6.2,0,0,1,1.42.09,1.23,1.23,0,0,1,.82,1.11Zm0,0,0-1.41a1.14,1.14,0,0,0-.79-1,6.42,6.42,0,0,0-1.39,0h-1.5V9.27l.09.09H16.22l.08-.09,0,3.73-.06-.06,3.46,0c.58,0,1.16,0,1.73,0A1.18,1.18,0,0,0,22.46,11.82Z"/></g></g></svg>