<svg xmlns="http://www.w3.org/2000/svg" viewBox="0 0 26 26"><defs><style>.cls-1{fill:none;}.cls-2{fill:#1a2e35;}.cls-3{font-size:5.17px;fill:#ff4f5b;font-family:Lato-Bold, Lato;font-weight:700;letter-spacing:0.02em;}</style></defs><g id="Layer_2" data-name="Layer 2"><g id="Layer_1-2" data-name="Layer 1"><rect class="cls-1" width="26" height="26"/><path class="cls-2" d="M20.65,23.55a1.19,1.19,0,0,1-.55,1,1.82,1.82,0,0,1-1.15.2H7.17A2.49,2.49,0,0,1,6,24.64a1.22,1.22,0,0,1-.66-1V21.31l0-18.86a1.26,1.26,0,0,1,.57-1.06,2,2,0,0,1,1.19-.2H18.83a2.63,2.63,0,0,1,1.2.14,1.31,1.31,0,0,1,.69,1V4.69Zm0,0L20.54,4.69V2.34A1.1,1.1,0,0,0,20,1.48a2.55,2.55,0,0,0-1.12-.13H7.05A1.89,1.89,0,0,0,6,1.52a1.1,1.1,0,0,0-.51.93l0,18.86v2.36a1.17,1.17,0,0,0,.62.9,2.51,2.51,0,0,0,1.14.13H19a1.85,1.85,0,0,0,1.14-.19A1.18,1.18,0,0,0,20.63,23.55Z"/><path class="cls-2" d="M13,1.8a.24.24,0,1,0-.24-.24A.24.24,0,0,0,13,1.8Z"/><path class="cls-2" d="M12.11,2.76h1.78a.24.24,0,0,0,0-.48H12.11a.24.24,0,0,0,0,.48Z"/><path class="cls-2" d="M11.32,2.7a.18.18,0,0,0,.18-.18.19.19,0,1,0-.37,0A.18.18,0,0,0,11.32,2.7Z"/><path class="cls-2" d="M13,24.14a1,1,0,1,1,0-1.95,1,1,0,0,1,1,1A1,1,0,0,1,13,24.14Zm0,0a.89.89,0,0,0,.84-.93.86.86,0,0,0-1.72,0A.89.89,0,0,0,13,24.12Z"/><path class="cls-2" d="M18.8,21.21l-11.6,0h0v0l0-17.42V3.7H18.89v.09C18.9,9.61,18.82,15.42,18.8,21.21Zm0,0c0-5.83-.09-11.63-.08-17.41l.09.09H7.2l.08-.08,0,17.42,0,0Z"/><text class="cls-3" transform="translate(9.55 12.21)">HR<tspan x="0.35" y="4.31">BP</tspan></text></g></g></svg>