<svg xmlns="http://www.w3.org/2000/svg" viewBox="0 0 26 26"><defs><style>.cls-1{fill:none;}.cls-2{fill:#1a2e35;}.cls-3{fill:#ff4f5b;}</style></defs><g id="Layer_2" data-name="Layer 2"><g id="Layer_1-2" data-name="Layer 1"><rect class="cls-1" width="26" height="26"/><path class="cls-2" d="M2.84,3.06V7.49a21,21,0,0,0,.28,4.41,7.78,7.78,0,0,0,2,3.83,5.67,5.67,0,0,0,7.93,0,7.64,7.64,0,0,0,2-3.83,22.25,22.25,0,0,0,.28-4.4l0-4.43h0l0,4.43a18.82,18.82,0,0,1-.25,4.43,7.89,7.89,0,0,1-2.07,3.89,5.8,5.8,0,0,1-8.07,0,7.86,7.86,0,0,1-2.05-3.89,19.82,19.82,0,0,1-.25-4.42V3.06Z"/><path class="cls-2" d="M4.61,4a1,1,0,0,1-.35.76,1,1,0,0,1-.39.2,1.09,1.09,0,0,1-.44,0h0v0l0-.92a8.53,8.53,0,0,0,0-.89V3H3.4a1.19,1.19,0,0,1,.46,0,1.07,1.07,0,0,1,.41.21A1,1,0,0,1,4.61,4Zm0,0a.94.94,0,0,0-.39-.7,1,1,0,0,0-.76-.12l.06-.1a5.68,5.68,0,0,1,0,.92v.92l0,0a1.07,1.07,0,0,0,.4,0,1.1,1.1,0,0,0,.37-.16A.94.94,0,0,0,4.59,4Z"/><path class="cls-2" d="M13.63,4a1,1,0,0,1,1.45-.85l0,0v0a7.12,7.12,0,0,0,0,.8v.86l0,0a1,1,0,0,1-1,0A1,1,0,0,1,13.63,4Zm0,0a.91.91,0,0,0,.49.76.93.93,0,0,0,.86,0l0,.07L15,4a7.4,7.4,0,0,1,0-.81l0,.05A.91.91,0,0,0,13.64,4Z"/><path class="cls-2" d="M9.33,18.11A6.1,6.1,0,0,0,21,19.6a7.47,7.47,0,0,0,.44-3.15L21.53,10h0l.05,6.44a7.71,7.71,0,0,1-.46,3.19,6.28,6.28,0,0,1-1.95,2.55,6.15,6.15,0,0,1-9.88-4.08Z"/><circle class="cls-3" cx="21.54" cy="10.39" r="1.63"/></g></g></svg>