<svg xmlns="http://www.w3.org/2000/svg" viewBox="0 0 260.09 117.79"><defs><style>.cls-1{fill:#fff;}.cls-2{fill:#ff395a;}</style></defs><g id="Layer_2" data-name="Layer 2"><g id="Layer_1-2" data-name="Layer 1"><rect class="cls-1" width="260.09" height="117.79" rx="12"/><path class="cls-2" d="M248.35,117.66H11.74A11.74,11.74,0,0,1,0,105.92V67.14a3.11,3.11,0,0,1,1.38-2.6C16.6,54.67,37,53,55.12,56.8c22,4.61,42,15.88,62.53,25.11s43.09,16.66,65.28,12.85c20.94-3.59,38.79-16.63,57.72-26.29l15.18-7.72a2.93,2.93,0,0,1,4.26,2.61v42.56A11.74,11.74,0,0,1,248.35,117.66Z"/></g></g></svg>