<svg xmlns="http://www.w3.org/2000/svg" viewBox="0 0 31.66 31.66"><defs><style>.cls-1{fill:#ff395a;}.cls-2{fill:#fff;}</style></defs><g id="Layer_2" data-name="Layer 2"><g id="Layer_1-2" data-name="Layer 1"><circle class="cls-1" cx="15.83" cy="15.83" r="15.83"/><path class="cls-2" d="M5.13,21.89a.29.29,0,0,1-.29-.29A4.29,4.29,0,0,1,5.9,18.32c.94-1,2.48-1.43,4.82-1.43a.29.29,0,0,1,0,.58c-2.17,0-3.57.4-4.4,1.26a3.73,3.73,0,0,0-.89,2.86.31.31,0,0,1-.29.3Z"/><path class="cls-2" d="M11.78,16.24a3.66,3.66,0,1,1,0-7.31,3.71,3.71,0,0,1,1.53.34.3.3,0,0,1,.14.4.29.29,0,0,1-.39.14,3,3,0,0,0-1.28-.29,3.07,3.07,0,0,0,0,6.14,3,3,0,0,0,1.27-.29.31.31,0,0,1,.4.14.3.3,0,0,1-.15.39A3.51,3.51,0,0,1,11.78,16.24Z"/><path class="cls-2" d="M23.46,21.89a.29.29,0,0,1-.29-.3v-.7a3.42,3.42,0,0,0-3.42-3.42H13.88a3.42,3.42,0,0,0-3.42,3.42v.7a.29.29,0,1,1-.58,0v-.7a4,4,0,0,1,4-4h5.87a4,4,0,0,1,4,4v.7A.29.29,0,0,1,23.46,21.89Z"/><path class="cls-2" d="M16.82,16.24a3.66,3.66,0,1,1,3.65-3.65A3.66,3.66,0,0,1,16.82,16.24Zm0-6.72a3.07,3.07,0,1,0,3.06,3.07A3.07,3.07,0,0,0,16.82,9.52Z"/><path class="cls-2" d="M26.53,15.07H21.07a.3.3,0,1,1,0-.59h5.46a.3.3,0,1,1,0,.59Z"/><path class="cls-2" d="M23.8,17.8a.3.3,0,0,1-.3-.29V12a.3.3,0,0,1,.3-.29.29.29,0,0,1,.29.29v5.47A.29.29,0,0,1,23.8,17.8Z"/></g></g></svg>