<svg xmlns="http://www.w3.org/2000/svg" viewBox="0 0 47.51 47.8"><defs><style>.cls-1{fill:#ff395a;}.cls-2{fill:#fff;}</style></defs><g id="Layer_2" data-name="Layer 2"><g id="Layer_1-2" data-name="Layer 1"><path class="cls-1" d="M2.56,34.44h0a6.5,6.5,0,0,1,.65,4.18L1.68,46.78a.82.82,0,0,0,.27.79.79.79,0,0,0,.82.18l7.52-2.3a6.22,6.22,0,0,1,1.82-.27,7,7,0,0,1,2.65.54A23.81,23.81,0,1,0,2.56,34.44Z"/><path class="cls-2" d="M21.72,19.25H11.91v8.62H10.5V11.59h1.41v6.22h9.81V11.59h1.41V27.87H21.72Z"/><path class="cls-2" d="M28.22,21.67v6.2h-1.4V11.59h4.65a4.57,4.57,0,0,1,2,.42A5.05,5.05,0,0,1,35,13.13a5.59,5.59,0,0,1,1,1.61,4.8,4.8,0,0,1,.38,1.86,5.15,5.15,0,0,1-.2,1.46,4.81,4.81,0,0,1-1.54,2.4,5.13,5.13,0,0,1-1.25.77l1,1.29,1,1.3,3.11,4.05h-1.8L32,21.67Zm0-8.65v7.22h3.25a3.62,3.62,0,0,0,2.53-1A3.58,3.58,0,0,0,34.75,18,3.76,3.76,0,0,0,35,16.63a3.64,3.64,0,0,0-.27-1.4A3.69,3.69,0,0,0,34,14.08a3.36,3.36,0,0,0-1.13-.78,3.43,3.43,0,0,0-1.4-.28Z"/><path class="cls-2" d="M16.44,37.18a5.35,5.35,0,0,1-1.32.8,3.88,3.88,0,0,1-1.47.28,3.82,3.82,0,0,1-1.58-.33,4.15,4.15,0,0,1-1.28-.87,4.06,4.06,0,0,1-.86-1.28,3.91,3.91,0,0,1-.31-1.56,4,4,0,0,1,.31-1.58,4.22,4.22,0,0,1,.86-1.29,4.15,4.15,0,0,1,1.28-.87,4,4,0,0,1,1.58-.32,3.73,3.73,0,0,1,1.3.24,5.85,5.85,0,0,1,1.29.7l-.55.43a3.48,3.48,0,0,0-2-.67,3.37,3.37,0,0,0-1.31.26,3.68,3.68,0,0,0-1.06.72,3.45,3.45,0,0,0-.71,1.07,3.23,3.23,0,0,0-.27,1.31,3.11,3.11,0,0,0,.27,1.29,3.57,3.57,0,0,0,.71,1.07,3.68,3.68,0,0,0,1.06.72,3.37,3.37,0,0,0,1.31.26,3.22,3.22,0,0,0,1.21-.24A4.32,4.32,0,0,0,16,36.61Z"/><path class="cls-2" d="M23.31,34H18.53v4.2h-.68V30.26h.68v3h4.78v-3H24v7.93h-.69Z"/><path class="cls-2" d="M28.44,30l3.31,8.16-.27.07-.15,0a.27.27,0,0,1-.12,0l-.12,0-1.34-3.15H27.1l-.62,1.52c-.12.27-.23.55-.35.83l-.33.82-.21,0-.45-.1Zm1,4.54c-.09-.28-.22-.65-.41-1.12s-.39-1-.62-1.7l-1.09,2.82Z"/><path class="cls-2" d="M38.79,30.26V31H35.73v7.23H35V31H32v-.7Z"/></g></g></svg>