<svg xmlns="http://www.w3.org/2000/svg" viewBox="0 0 22.05 22.93"><defs><style>.cls-1{fill:#ff395a;}.cls-2,.cls-3{fill:none;stroke:#282827;stroke-linecap:round;stroke-miterlimit:10;}.cls-3{stroke-width:1.08px;}</style></defs><g id="Layer_2" data-name="Layer 2"><g id="Layer_1-2" data-name="Layer 1"><path class="cls-1" d="M12.6,18.13V21a1.45,1.45,0,0,1-1.39,1.48H7.3A1.45,1.45,0,0,1,5.91,21v-5.6A1.45,1.45,0,0,1,7.3,13.88H13"/><ellipse class="cls-1" cx="14.94" cy="9.77" rx="6.65" ry="4.89" transform="translate(-2.44 5.7) rotate(-20)"/><path class="cls-2" d="M13,14.87v5a2.6,2.6,0,0,1-2.59,2.6H3.1a2.61,2.61,0,0,1-2.6-2.6V10.05a2.61,2.61,0,0,1,2.6-2.6H6.6"/><path class="cls-2" d="M3.35,11.31H7.7"/><path class="cls-2" d="M3.35,14.94H9.86"/><path class="cls-2" d="M3.35,18.56H9.86"/><line class="cls-2" x1="18.5" y1="13.34" x2="21.55" y2="17.12"/><path class="cls-3" d="M7.18,5.31h6A2.81,2.81,0,0,1,16,8.12v6.53"/><path class="cls-3" d="M7.18,9.49H12.6"/><path class="cls-3" d="M9.86,13.4H12.6"/><circle class="cls-2" cx="13.96" cy="7.72" r="7.22"/></g></g></svg>