<svg xmlns="http://www.w3.org/2000/svg" viewBox="0 0 20.25 22.67"><defs><style>.cls-1{fill:#ff395a;}.cls-2{fill:none;stroke:#282827;stroke-linecap:round;stroke-miterlimit:10;}</style></defs><g id="Layer_2" data-name="Layer 2"><g id="Layer_1-2" data-name="Layer 1"><path class="cls-1" d="M15.91,20.21a2,2,0,0,1-1.94,2H8.52a2,2,0,0,1-1.93-2V12.82a2,2,0,0,1,1.93-2H14a2,2,0,0,1,1.94,2Z"/><path class="cls-1" d="M19.48,17.32c0,.8-.34,1.45-.75,1.45H16.64c-.41,0-.75-.65-.75-1.45V11.87c0-.8.34-1.45.75-1.45h3.11c.41,0-.27.65-.27,1.45Z"/><rect class="cls-2" x="0.5" y="3.69" width="15.41" height="18.48" rx="3.2"/><path class="cls-2" d="M4,8.46h8"/><path class="cls-2" d="M4,12.93h8"/><path class="cls-2" d="M4,17.41h8"/><path class="cls-2" d="M4.35,3.7A3.21,3.21,0,0,1,7.55.5h9a3.21,3.21,0,0,1,3.2,3.2V15.78a3.21,3.21,0,0,1-3.2,3.2"/><path class="cls-2" d="M15.59,5.26h.3"/></g></g></svg>