<svg xmlns="http://www.w3.org/2000/svg" viewBox="0 0 23.89 20.64"><defs><style>.cls-1{fill:#ff395a;}.cls-2,.cls-3,.cls-4{fill:none;stroke:#282827;stroke-linecap:round;}.cls-2,.cls-3{stroke-miterlimit:10;}.cls-3{stroke-width:2px;}.cls-4{stroke-linejoin:round;}</style></defs><g id="Layer_2" data-name="Layer 2"><g id="Layer_1-2" data-name="Layer 1"><rect class="cls-1" x="4.93" y="5.31" width="18.46" height="10.81" rx="2.56"/><rect class="cls-2" x="0.5" y="0.5" width="22.89" height="15.62" rx="3.43"/><line class="cls-2" x1="10.35" y1="18.18" x2="13.54" y2="18.18"/><line class="cls-2" x1="7.86" y1="20.14" x2="16.03" y2="20.14"/><path class="cls-3" d="M4.91,13.49a9.5,9.5,0,0,0,0-1.22"/><path class="cls-3" d="M9.6,13.49c0-.34,0-4.22,0-4.22"/><path class="cls-3" d="M14.28,13.49c0-.34,0-3.22,0-3.22"/><path class="cls-3" d="M19,13.49c0-.34,0-7.22,0-7.22"/><path class="cls-4" d="M4.76,8.38C5,8.16,9.62,4,9.62,4l4.66,2.9,4.41-4.64"/><polyline class="cls-4" points="16.73 2.44 18.8 2.25 18.69 4.12"/></g></g></svg>