<svg xmlns="http://www.w3.org/2000/svg" viewBox="0 0 26.11 25.14"><defs><style>.cls-1{fill:#ff395a;}.cls-2{fill:none;stroke:#282827;stroke-linecap:round;stroke-miterlimit:10;}.cls-3{fill:#282827;}</style></defs><g id="Layer_2" data-name="Layer 2"><g id="Layer_1-2" data-name="Layer 1"><path class="cls-1" d="M24.11,10.65c1.88,3.16.39,8.19-4.6,12.16C15,26.4,8,24.5,6.14,21.34s.61-8.13,5.57-11.08S22.23,7.48,24.11,10.65Z"/><circle class="cls-2" cx="13.41" cy="13.55" r="11.09" transform="translate(-2.88 23.45) rotate(-76.59)"/><path class="cls-2" d="M19.53,1.34h0a3.59,3.59,0,0,1,5,.42l.2.24a3.58,3.58,0,0,1-.43,5h0a.06.06,0,0,1-.1,0L19.53,1.44A.07.07,0,0,1,19.53,1.34Z"/><line class="cls-2" x1="20.63" y1="5" x2="21.73" y2="4.05"/><path class="cls-2" d="M6.57,1.34h0a3.59,3.59,0,0,0-5,.42L1.34,2a3.58,3.58,0,0,0,.42,5h0a.07.07,0,0,0,.11,0L6.58,1.44A.07.07,0,0,0,6.57,1.34Z"/><line class="cls-2" x1="5.77" y1="5.26" x2="4.38" y2="4.05"/><line class="cls-2" x1="3.24" y1="24.64" x2="6.16" y2="21.91"/><line class="cls-2" x1="23.58" y1="24.64" x2="20.65" y2="21.91"/><circle class="cls-3" cx="13.41" cy="13.82" r="1.28"/><line class="cls-2" x1="13.41" y1="12.54" x2="13.41" y2="8.05"/><line class="cls-2" x1="14.69" y1="13.82" x2="17.25" y2="13.82"/></g></g></svg>