<svg id="Layer_1" data-name="Layer 1" xmlns="http://www.w3.org/2000/svg" xmlns:xlink="http://www.w3.org/1999/xlink" viewBox="0 0 64.15 84.1"><defs><style>.cls-1{fill:none;}.cls-2{clip-path:url(#clip-path);}.cls-3{fill:#fafafa;}.cls-4{fill:#ececec;}.cls-5{fill:#e1e1e1;}.cls-6{fill:#1a2e35;}.cls-7{fill:#ffbf9d;}.cls-8{fill:#ff9a6c;}.cls-9{fill:#ff4f5b;}.cls-10{fill:#fff;}.cls-11{opacity:0.3;}.cls-12{fill:#375a64;}.cls-13{clip-path:url(#clip-path-2);}.cls-14{fill:#f5f5f5;}.cls-15{opacity:0.5;}.cls-16{opacity:0.4;}</style><clipPath id="clip-path"><rect class="cls-1" x="0.11" y="0.11" width="63.92" height="83.87"/></clipPath><clipPath id="clip-path-2"><rect class="cls-1" x="0.11" y="-112.78" width="63.92" height="83.87"/></clipPath></defs><g class="cls-2"><rect class="cls-3" x="10.2" y="-19.53" width="73.8" height="45.68"/><path class="cls-4" d="M66.18,13.49c-5.12-1.94-11,3.43-16,1.24-2.92-1.27-4.24-4.57-5.67-7.42s-3.9-5.85-7.07-5.52-5.77,4-8.86,3.14c-1.95-.56-2.92-2.71-3.4-4.68s-.83-4.14-2.31-5.51-4.58-1-4.81,1V20H75.75S68,14.17,66.18,13.49Z"/><path class="cls-5" d="M77.29,20c0,.05-14,.1-31.24.1S14.81,20,14.81,20s14-.09,31.24-.09S77.29,19.9,77.29,20Z"/><path class="cls-5" d="M77.29,9.37c0,.06-14,.1-31.24.1s-31.24,0-31.24-.1,14-.09,31.24-.09S77.29,9.32,77.29,9.37Z"/><path class="cls-6" d="M19,82.49c-.09,0-3,66.82-3,66.82H25l4.34-36.2,2.24-27.67,4.64,25.9,5.61,36.86,9-1.93L44.69,80.44,31.94,73.37Z"/><path class="cls-7" d="M26.62,35.13l8.45-.68c0-1,0-4.8,0-4.8a4.23,4.23,0,0,0,3.56-4.06C38.65,22.08,38,14,38,14h0a12.21,12.21,0,0,0-12.27,1.54l-.52.4Z"/><path class="cls-8" d="M35.06,29.6a8.18,8.18,0,0,1-4.58-1.3,4.31,4.31,0,0,0,4.58,2.21Z"/><path class="cls-7" d="M25.68,19.59c-.06,0-2.41-.71-2.33,1.69A1.8,1.8,0,0,0,25.82,23C25.82,23,25.68,19.59,25.68,19.59Z"/><path class="cls-8" d="M25.06,22.15l-.11.07a.45.45,0,0,1-.31,0,1,1,0,0,1-.51-.92,1.29,1.29,0,0,1,.09-.6.49.49,0,0,1,.31-.33.2.2,0,0,1,.25.11c0,.06,0,.11,0,.11s.05,0,0-.14a.25.25,0,0,0-.1-.14.3.3,0,0,0-.23-.06.6.6,0,0,0-.43.39,1.46,1.46,0,0,0-.12.67,1.08,1.08,0,0,0,.64,1,.44.44,0,0,0,.38-.08C25.06,22.21,25.07,22.16,25.06,22.15Z"/><path class="cls-6" d="M37.33,19.76a.5.5,0,0,1-.48.51.49.49,0,0,1-.52-.45.5.5,0,0,1,.49-.51A.48.48,0,0,1,37.33,19.76Z"/><path class="cls-6" d="M37.38,19c-.07.07-.45-.21-1-.21s-.93.27-1,.2,0-.14.21-.27a1.35,1.35,0,0,1,.79-.24,1.27,1.27,0,0,1,.78.25C37.35,18.8,37.41,18.92,37.38,19Z"/><path class="cls-6" d="M32.08,19.76a.5.5,0,0,1-.48.51.49.49,0,0,1-.52-.45.5.5,0,0,1,.49-.51A.48.48,0,0,1,32.08,19.76Z"/><path class="cls-6" d="M32.07,19.05c-.06.07-.44-.21-1-.21s-.94.27-1,.2,0-.14.21-.27a1.36,1.36,0,0,1,.8-.24,1.29,1.29,0,0,1,.78.25C32,18.91,32.1,19,32.07,19.05Z"/><path class="cls-6" d="M34,23.06a3.58,3.58,0,0,1,.88-.16c.13,0,.26,0,.29-.14a.8.8,0,0,0-.09-.41c-.13-.33-.27-.68-.41-1.05a17.88,17.88,0,0,1-.92-2.74,18.43,18.43,0,0,1,1.14,2.66c.13.37.26.72.39,1.06a.82.82,0,0,1,.07.54.35.35,0,0,1-.23.2,1.11,1.11,0,0,1-.23,0A3.47,3.47,0,0,1,34,23.06Z"/><path class="cls-6" d="M32.44,23.43c.09,0,.09.58.59,1s1.13.35,1.13.43-.14.11-.4.12a1.44,1.44,0,0,1-.95-.33,1.26,1.26,0,0,1-.45-.83C32.33,23.57,32.4,23.43,32.44,23.43Z"/><path class="cls-6" d="M32.21,16.94c-.05.14-.59.07-1.23.15s-1.14.25-1.23.12.05-.2.26-.34a2,2,0,0,1,.91-.32,1.89,1.89,0,0,1,1,.11C32.11,16.75,32.23,16.87,32.21,16.94Z"/><path class="cls-6" d="M37.18,17.39c-.1.12-.47,0-.92,0s-.82.08-.91-.05,0-.18.19-.3a1.28,1.28,0,0,1,.74-.2,1.24,1.24,0,0,1,.73.25C37.17,17.2,37.22,17.33,37.18,17.39Z"/><path class="cls-6" d="M39.75,11.79a1.29,1.29,0,0,0-.48-1.16.92.92,0,0,0-1.19.09,1.07,1.07,0,0,0-.92-1.3c-.57,0-1.06.4-1.62.55a2.59,2.59,0,0,1-1.64-.19c-.52-.21-1-.5-1.53-.69A4.53,4.53,0,0,0,29,9.23a4.47,4.47,0,0,0-2.33,2.5,2,2,0,0,0-2.12.8,3.25,3.25,0,0,0-.5,2.3,7.18,7.18,0,0,0,.4,1.58v.13c0,1.94.25,4.2,1.08,4.22,1.43,0,1.09-2.69,1.09-2.69,1.76-.68,1.11-3.32,1.55-3.72s1.36-1.33,5.05.55a7.15,7.15,0,0,0,4.38.48l.09,0h0l0,0a3,3,0,0,0,.95-.4,1.88,1.88,0,0,0,.78-.87,1,1,0,0,0-.2-1.1A2.18,2.18,0,0,0,39.75,11.79Z"/><path class="cls-7" d="M58.93,63l.08.1a1.74,1.74,0,0,1,.15,1.62A30.24,30.24,0,0,1,58,67.61s.28,1.2,0,1.48-4.87,0-4.87,0-.78-.44-.18-.82h3.22"/><path class="cls-9" d="M17.74,36.79s-4,1.26-5.81,9.08c-1.35,5.74-5.2,17.17-4.22,19,1.2,2.26,15.21,5.87,15.21,5.87l1.19-5.35-7-4.75,3.75-12.7S21.28,37.38,17.74,36.79Z"/><path class="cls-9" d="M18.85,51.38c0,.6,1.79,12.52,1.79,12.52L17.09,83.28,30.83,84l1.53-8.36L34.25,84l12.36-3L43.44,67.78l1.2-17L43.32,36.66l-5.08-1.73-2.62-3.07L31.38,34.5l-5.24-3.13-1.65,2.26-6.75,3.16C17.07,38,18.85,51.38,18.85,51.38Z"/><polygon class="cls-10" points="26.14 31.37 25.97 35.13 33.2 54.35 36.12 35.46 35.17 31.84 35.16 31.84 31.38 34.51 26.14 31.37"/><path class="cls-9" d="M43.32,36.66s3.46,2.8,4.63,6.11,3.11,7.67,3.11,7.67H44.61Z"/><path class="cls-6" d="M33,55.08l-.17-.21-.47-.62L30.71,52c-1.41-2-3.34-4.67-5.47-7.64L24.33,43l0-.06,0-.06,1.44-2.08,0,.14L22.6,38.6l-.05,0,0-.05c.56-1.48,1-2.7,1.37-3.57l.38-1a2.17,2.17,0,0,1,.16-.34s0,.12-.11.35L24,35c-.32.87-.76,2.1-1.3,3.58l0-.09,3.21,2.35.08.06-.06.08L24.51,43v-.12l.91,1.28,5.42,7.67,1.63,2.34.43.64C33,55,33,55.07,33,55.08Z"/><path class="cls-6" d="M32.41,75.12a.85.85,0,0,1,0-.21v-.6c0-.55,0-1.29.06-2.2.07-1.88.15-4.43.25-7.25s.16-5.36.22-7.25l.06-2.2,0-.59c0-.14,0-.21,0-.21s0,.07,0,.21l0,.59c0,.52,0,1.28,0,2.2,0,1.86-.07,4.43-.16,7.26s-.21,5.39-.31,7.25c0,.9-.09,1.64-.13,2.19l0,.6Z"/><path class="cls-6" d="M33.33,54.51l.07-.22.24-.61c.23-.55.54-1.31.91-2.24.81-1.91,1.89-4.49,3.09-7.36l.74-1.73,0,.1-1.68-2-.06-.06.06-.07,2.44-2.52,0,.08c-.32-.94-.59-1.7-.78-2.27l-.2-.61a1.45,1.45,0,0,1-.06-.22s0,.06.1.2l.24.61.84,2.24v0l0,0-2.4,2.55v-.13l1.7,2,0,0,0,.06c-.24.56-.48,1.14-.73,1.74C36.61,47,35.51,49.6,34.69,51.5l-1,2.21-.28.6C33.38,54.45,33.34,54.52,33.33,54.51Z"/><g class="cls-11"><polygon points="22.65 38.53 24.78 40.91 23.31 43.55 32.41 54.35 24.42 42.98 25.85 40.9 22.65 38.53"/></g><g class="cls-11"><polygon points="33.55 54.01 38.61 44.07 38.48 42.39 33.55 54.01"/></g><path class="cls-6" d="M9.27,66.09s.33.18,1,.43,1.56.62,2.75,1c2.37.82,5.75,1.9,9.69,3.09l-.12.07,1.51-5.63,0,.12-.22-.15L17,60.71l-.06,0,0-.07c1-3.43,1.85-6.35,2.46-8.43l.71-2.4.2-.63a1,1,0,0,1,.08-.22,1.93,1.93,0,0,1-.05.23l-.17.64-.66,2.41-2.38,8.45,0-.11L24,64.87l.23.15.06,0,0,.07c-.53,2-1.05,3.88-1.52,5.63l0,.1-.09,0c-3.95-1.2-7.32-2.31-9.68-3.16-1.19-.43-2.12-.8-2.74-1.09A5.56,5.56,0,0,1,9.27,66.09Z"/><path class="cls-6" d="M17.61,38.76s.11.05.28.17a8.29,8.29,0,0,1,.67.59A8.2,8.2,0,0,1,20.21,42a7.86,7.86,0,0,1,.68,2.87,4.82,4.82,0,0,1,0,.89,1.35,1.35,0,0,1-.05.33s0-.47-.07-1.21a9.21,9.21,0,0,0-.73-2.8,9,9,0,0,0-1.57-2.42C18,39.07,17.59,38.78,17.61,38.76Z"/><path class="cls-6" d="M44.15,48.45c-.06,0-.25-2.18-.44-4.89s-.28-4.9-.22-4.91.25,2.19.43,4.9S44.21,48.45,44.15,48.45Z"/><path class="cls-6" d="M36.09,35.53s-.07.09-.21.24l-.65.64a18.07,18.07,0,0,1-2.52,2.05l-.14.09v-.16a6.57,6.57,0,0,0-.33-2.14,5.54,5.54,0,0,0-.52-1.07c-.11-.17-.22-.34-.35-.51l0-.06,0,0h0l.13,0h0a.45.45,0,0,0-.09.1,1.53,1.53,0,0,0-.16.25,7.5,7.5,0,0,0-.5,1.84c-.12.61-.21,1.2-.29,1.76l0,.16-.13-.1-3.06-2.44-.87-.71a2.1,2.1,0,0,1-.29-.27,1.82,1.82,0,0,1,.33.22l.9.67,3.11,2.38-.15.06c.07-.56.17-1.15.28-1.77A7.49,7.49,0,0,1,31,34.86a1.75,1.75,0,0,1,.18-.29.8.8,0,0,1,.13-.13l0,0h0l.13,0h0l0,0,.05.07c.13.17.25.35.36.52a5.63,5.63,0,0,1,.53,1.11,6.78,6.78,0,0,1,.32,2.2l-.14-.07a21.5,21.5,0,0,0,2.55-2l.68-.6A1.47,1.47,0,0,1,36.09,35.53Z"/><path class="cls-6" d="M33,54.17c-.06,0-.47-4.37-.93-9.76s-.77-9.77-.72-9.78.48,4.37.93,9.76S33.08,54.17,33,54.17Z"/><g class="cls-11"><path d="M20.31,49.87S20,59.33,20,59.36s-.83-5.6-.83-5.6Z"/></g><path class="cls-12" d="M27.29,64.26l3.61,4H56.17l8.39-16.12a1.17,1.17,0,0,0-1-1.71H38.78a1.17,1.17,0,0,0-1.08.73L32.61,63.45l-4.89-.13A.56.56,0,0,0,27.29,64.26Z"/><path class="cls-6" d="M27.31,63.49a1.7,1.7,0,0,1,.28.25l.73.73,2.6,2.68-.14,0c.74-1.62,1.62-3.57,2.54-5.68,1.26-2.87,2.35-5.49,3.14-7.39l.94-2.25.26-.61c.06-.14.1-.21.11-.2l-.07.22-.22.62c-.2.54-.5,1.32-.88,2.27-.75,1.92-1.83,4.55-3.09,7.42-.92,2.11-1.82,4.06-2.57,5.67l-.06.12-.08-.09-2.55-2.73-.7-.77Z"/><path class="cls-10" d="M48.92,60.55a1.42,1.42,0,1,1,.83-2A1.52,1.52,0,0,1,48.92,60.55Z"/><path class="cls-7" d="M24.17,65.38l2.29-.22s4.12-1.37,4.8-1.25A1,1,0,0,1,30.74,65c-.73.44-1.82,1-1.82,1l1.64,1.88a1.14,1.14,0,0,0,.85.38h5.38a1.34,1.34,0,0,1-.77.85l-4.49,1.33L23,69.55Z"/></g><g class="cls-13"><rect class="cls-14" x="44.47" y="-52.47" width="20.93" height="67.75"/><rect class="cls-5" x="46.11" y="-0.98" width="16.79" height="14.6"/><path class="cls-3" d="M54.51,2.29a.59.59,0,1,1-.59-.59A.58.58,0,0,1,54.51,2.29Z"/><rect class="cls-5" x="44.47" y="15.29" width="2.42" height="13.59"/><rect class="cls-5" x="62.9" y="15.29" width="2.42" height="13.59"/><path class="cls-9" d="M33,17.67l.08-3.75-7-.18-.17,5.49.44,0c1.94.16,9.86.66,11.17.3S33,17.67,33,17.67Z"/><g class="cls-15"><path class="cls-10" d="M28.47,19.24a2.38,2.38,0,0,0-.86-1.52A2.31,2.31,0,0,0,26,17.17l-.05,2Z"/></g><g class="cls-16"><path class="cls-10" d="M35.94,18.51s2.08.66,1.81,1-8.29.13-11.83-.27l0-.15,9.36.32S35.53,18.52,35.94,18.51Z"/></g><path class="cls-6" d="M25.83,19.07H26l.35,0,1.27.09c1.08.07,2.57.14,4.22.19s3.14.05,4.22,0l1.28,0h.47s0,0-.12,0H36c-1.08,0-2.57,0-4.22-.07s-3.14-.11-4.22-.16l-1.27-.06H26A.36.36,0,0,0,25.83,19.07Z"/><path class="cls-6" d="M35.29,19.51a3.55,3.55,0,0,1,.26-.61,2.44,2.44,0,0,1,.45-.47.87.87,0,0,0-.52.43A.94.94,0,0,0,35.29,19.51Z"/><path class="cls-6" d="M33.25,18.4s.12-.1.23-.26.17-.3.15-.31-.12.1-.22.26S33.23,18.39,33.25,18.4Z"/><path class="cls-6" d="M32.69,18.09a.89.89,0,0,0,.25-.16c.12-.11.21-.21.2-.23s-.13.06-.26.16S32.67,18.07,32.69,18.09Z"/><path class="cls-6" d="M32.34,17.41s.17.05.37.06a.85.85,0,0,0,.37,0,.91.91,0,0,0-.37-.06A1.08,1.08,0,0,0,32.34,17.41Z"/><path class="cls-6" d="M32.23,16.94a.7.7,0,0,0,.41.13.68.68,0,0,0,.42,0s-.19,0-.41,0A2.13,2.13,0,0,0,32.23,16.94Z"/><path class="cls-6" d="M33.5,17.79a1.16,1.16,0,0,0,.45,0,2.57,2.57,0,0,0,.49-.09,1.24,1.24,0,0,0,.28-.11.28.28,0,0,0,.11-.13.19.19,0,0,0-.06-.19.83.83,0,0,0-1,.22.8.8,0,0,0-.16.3c0,.07,0,.12,0,.12a1,1,0,0,1,.21-.38.77.77,0,0,1,.39-.24.68.68,0,0,1,.54.05c.07,0,0,.14,0,.18a1,1,0,0,1-.26.1,2.51,2.51,0,0,1-.46.11Z"/><path class="cls-6" d="M33.62,17.82a.56.56,0,0,0,.06-.31.74.74,0,0,0-.12-.34.45.45,0,0,0-.37-.24.18.18,0,0,0-.14.21.52.52,0,0,0,.07.2,1.08,1.08,0,0,0,.21.28.64.64,0,0,0,.25.19s-.09-.08-.21-.23a1.58,1.58,0,0,1-.18-.27c-.06-.1-.1-.27,0-.29s.22.11.29.2a.78.78,0,0,1,.12.29A2.53,2.53,0,0,1,33.62,17.82Z"/><path class="cls-6" d="M26,17.15a3.31,3.31,0,0,1,.52,0,2.21,2.21,0,0,1,1.8,1.52,4,4,0,0,1,.12.5s0-.05,0-.14a2.9,2.9,0,0,0-.07-.38,2.12,2.12,0,0,0-1.85-1.56,1.66,1.66,0,0,0-.39,0Z"/><path class="cls-6" d="M26.83,14.24a10.58,10.58,0,0,0-.1,1.44c0,.8,0,1.45,0,1.45a10.58,10.58,0,0,0,.1-1.44C26.84,14.89,26.85,14.24,26.83,14.24Z"/><path class="cls-6" d="M29.38,18.58a4,4,0,0,0,1,.13,4.05,4.05,0,0,0,1-.06s-.46,0-1,0S29.38,18.55,29.38,18.58Z"/><path class="cls-6" d="M28,18.54s0,.1.08.21.06.2.09.2,0-.11,0-.24S28,18.52,28,18.54Z"/><path class="cls-6" d="M27.5,17.88s0,.09.09.17.15.12.16.11,0-.1-.09-.17S27.51,17.87,27.5,17.88Z"/><path class="cls-6" d="M26.76,17.57s.1,0,.2.06.18.1.19.08,0-.11-.16-.16S26.75,17.54,26.76,17.57Z"/><path class="cls-6" d="M26.24,17.41s0,.06.08.09.12,0,.12,0,0-.06-.08-.08S26.24,17.39,26.24,17.41Z"/><path class="cls-6" d="M17.73-35.74c.46.15,18.13,5.93,19.35,8.22S36,15.59,36,15.59L25.15,16.72l.67-40L6.47-23.79Z"/></g></svg>