<svg id="Layer_1" data-name="Layer 1" xmlns="http://www.w3.org/2000/svg" xmlns:xlink="http://www.w3.org/1999/xlink" viewBox="0 0 64.15 84.1"><defs><style>.cls-1{fill:none;}.cls-2{fill:#1a2e35;}.cls-3{clip-path:url(#clip-path);}.cls-4{fill:#e1e1e1;}.cls-5{fill:#fafafa;}.cls-6{fill:#ececec;}.cls-7{fill:#f5f5f5;}.cls-15,.cls-8{fill:#fff;}.cls-9{fill:#b78876;}.cls-10{fill:#aa6550;}.cls-11{fill:#ff4f5b;}.cls-12,.cls-15{opacity:0.3;}.cls-13{fill:#375a64;}.cls-14{opacity:0.2;}.cls-16{opacity:0.4;}</style><clipPath id="clip-path"><rect class="cls-1" x="0.11" y="0.11" width="63.92" height="83.87"/></clipPath></defs><path class="cls-2" d="M77.11,83.94s-18.77,0-41.92,0-41.92,0-41.92,0,18.76,0,41.92,0S77.11,83.91,77.11,83.94Z"/><g class="cls-3"><rect class="cls-4" x="40.49" y="7.26" width="11.4" height="11.88"/><rect class="cls-5" x="39.72" y="7.26" width="11.4" height="11.88"/><path class="cls-4" d="M51.12,19.15H39.71V7.26H51.12Zm-11.4,0H51.11V7.27H39.72Z"/><rect class="cls-5" x="41.25" y="8.86" width="8.34" height="8.69"/><path class="cls-4" d="M41.25,17.61s-.07.1-.21.24-.32.33-.53.53l-.54.53a2.51,2.51,0,0,1-.24.2s.07-.1.2-.24l.53-.54c.21-.21.41-.39.55-.52S41.24,17.6,41.25,17.61Z"/><path class="cls-4" d="M49.58,17.59s.1.07.24.2l.54.53c.21.21.39.4.52.55s.21.23.2.24a1.38,1.38,0,0,1-.24-.21c-.14-.13-.33-.32-.53-.53l-.53-.54Z"/><path class="cls-4" d="M49.56,8.88a1.5,1.5,0,0,1,.21-.23c.13-.15.32-.34.53-.54l.54-.52c.14-.13.23-.21.24-.2a1.72,1.72,0,0,1-.2.23c-.14.15-.32.34-.53.54s-.41.39-.55.52S49.57,8.89,49.56,8.88Z"/><path class="cls-4" d="M41.23,8.91,41,8.7l-.54-.53-.52-.54c-.13-.15-.21-.24-.2-.25l.24.21.53.53c.21.21.4.4.53.55A1.58,1.58,0,0,1,41.23,8.91Z"/><path class="cls-4" d="M49.56,17.55v-2.4c0-1.53,0-3.69,0-6.29l0,0H41.25l0,0c0,3.19,0,6.17,0,8.69l0,0h0v0c0-2.52,0-5.5,0-8.69v0h8.38v0c0,2.61,0,4.78,0,6.31,0,.75,0,1.35,0,1.76v.62Z"/><rect class="cls-6" x="44.03" y="11.82" width="2.78" height="2.78"/><rect class="cls-4" x="-3.35" y="12.17" width="16.03" height="16.71"/><rect class="cls-5" x="-4.43" y="12.17" width="16.03" height="16.71"/><path class="cls-4" d="M11.6,28.89h-16V12.17h16Zm-16,0h16V12.18h-16Z"/><rect class="cls-5" x="-2.28" y="14.42" width="11.72" height="12.22"/><path class="cls-4" d="M9.44,26.69a2,2,0,0,1,.34.28l.75.75c.29.29.55.57.74.77a1.76,1.76,0,0,1,.28.33,2,2,0,0,1-.34-.28c-.2-.19-.46-.45-.75-.75s-.55-.57-.74-.77A3.12,3.12,0,0,1,9.44,26.69Z"/><path class="cls-4" d="M9.41,14.45a1.63,1.63,0,0,1,.29-.33l.74-.76.77-.73c.2-.19.33-.3.34-.28a2,2,0,0,1-.29.33c-.19.2-.45.47-.75.76s-.56.55-.76.73A2,2,0,0,1,9.41,14.45Z"/><path class="cls-4" d="M9.41,26.63v-.89c0-.57,0-1.42,0-2.48,0-2.14,0-5.19,0-8.84l.05,0H-2.28l0-.05V26.63l0,0,8.46,0H9.41s0,0-.05,0H8.58l-2.37,0-8.49,0h0v-.05c0-3.53,0-7.73,0-12.21v-.05H9.45v.05c0,3.66,0,6.72,0,8.86,0,1.07,0,1.91,0,2.48,0,.29,0,.5,0,.65v.22Z"/><rect class="cls-6" x="1.63" y="18.57" width="3.91" height="3.91"/><rect class="cls-4" x="55.91" y="16.96" width="16.76" height="17.47"/><rect class="cls-5" x="54.77" y="16.96" width="16.76" height="17.47"/><path class="cls-4" d="M71.54,34.44H54.77V17H71.54Zm-16.76,0H71.53V17H54.78Z"/><rect class="cls-5" x="57.03" y="19.31" width="12.25" height="12.77"/><path class="cls-4" d="M57,32.17a2.58,2.58,0,0,1-.3.35l-.78.79-.8.77a1.87,1.87,0,0,1-.36.29,2.58,2.58,0,0,1,.3-.35c.2-.21.47-.49.78-.79s.6-.58.8-.77A1.87,1.87,0,0,1,57,32.17Z"/><path class="cls-4" d="M57,19.38a2.33,2.33,0,0,1-.35-.31l-.79-.77-.76-.81a1.58,1.58,0,0,1-.3-.35,2,2,0,0,1,.35.3c.21.2.49.47.79.78s.58.59.77.8S57,19.37,57,19.38Z"/><path class="cls-4" d="M69.25,32.08a.15.15,0,0,1,0-.06v-.87c0-.6,0-1.48,0-2.6,0-2.24,0-5.42,0-9.24l0,.05H57l0-.06c0,4.69,0,9.07,0,12.77l0,0,8.84,0h2.51l-2.48,0-8.87,0H57v-.05c0-3.7,0-8.08,0-12.77v0H69.29v0c0,3.83,0,7,0,9.27,0,1.11,0,2,0,2.59v.91Z"/><rect class="cls-6" x="61.11" y="23.65" width="4.09" height="4.09"/><polygon class="cls-7" points="-3.58 75.41 -3.58 83.96 8.92 83.96 22.72 83.96 22.72 75.41 -3.58 75.41"/><polygon class="cls-4" points="-4.69 73.02 -4.69 75.41 23.64 75.41 23.64 73.02 8.92 73.02 -4.69 73.02"/><polygon class="cls-4" points="9.48 83.96 22.72 83.96 22.72 75.41 23.64 75.41 23.64 73.02 8.92 73.02 8.92 75.19 9.48 83.96"/><rect class="cls-4" x="0.09" y="76.79" width="5.33" height="1.29"/><rect class="cls-8" x="-0.59" y="79.68" width="6.85" height="2.72"/><path class="cls-9" d="M33.38,59.07a2.25,2.25,0,0,0-2.18-1.78,13.24,13.24,0,0,1-2.91,0c-.76-.09-1.92-1-2.25-.72s-.15.9.47,1.44a5.87,5.87,0,0,0,1.66.92l-2.23.38s-2-1.07-2.47-.88a.74.74,0,0,0-.44.71s-.83-.38-1.07,0-.29.55-.05.74c0,0-.16-.15-.59,0s-.34.79,0,1l.12.06s3.15,1.82,3.25,1.83c.55.08,3.95-.07,5.7-.15a1.78,1.78,0,0,1,1.6.84l2.82,4.46L38,64.16Z"/><path class="cls-10" d="M27.66,60.1l-.52.11c-.32.07-.78.15-1.32.24h0l-.72-.33-1.7-.79-.51-.24a.6.6,0,0,1-.18-.11l.2.07.52.22.78.33.93.43.72.33h0l1.32-.2A3.29,3.29,0,0,1,27.66,60.1Z"/><path class="cls-10" d="M26.88,60.94a4.53,4.53,0,0,0-.71.4,3.54,3.54,0,0,0-.56.61,1.24,1.24,0,0,1,.5-.68A1.26,1.26,0,0,1,26.88,60.94Z"/><path class="cls-10" d="M30.49,58.31s0,.11.08.3a1.6,1.6,0,0,0,.43.66l.06.06H31a4.94,4.94,0,0,0-.87.26,4.59,4.59,0,0,0-1.21.74c-.28.24-.43.42-.44.41a.61.61,0,0,1,.09-.14,4.19,4.19,0,0,1,.31-.32,4.08,4.08,0,0,1,1.22-.78,3.69,3.69,0,0,1,.88-.25l0,.07a1.5,1.5,0,0,1-.42-.71A.62.62,0,0,1,30.49,58.31Z"/><path class="cls-10" d="M28.4,58.84a5.13,5.13,0,0,1-1.21.33l-.88.13a1.51,1.51,0,0,1-.37,0s.55-.11,1.23-.24L28,58.9A1.52,1.52,0,0,1,28.4,58.84Z"/><path class="cls-10" d="M25.44,61.3a2.75,2.75,0,0,1-.53-.21l-1.27-.48c-.51-.18-1-.35-1.29-.49a3.54,3.54,0,0,1-.51-.25,3.88,3.88,0,0,1,.54.18l1.29.47c.5.18.95.36,1.27.51A2.5,2.5,0,0,1,25.44,61.3Z"/><path class="cls-10" d="M26.24,61.23a1.57,1.57,0,0,1-.66.18,1.42,1.42,0,0,1-.7,0s.31,0,.69,0S26.24,61.2,26.24,61.23Z"/><path class="cls-11" d="M43.79,50.44S41,52.06,40.39,57C40.08,59.59,39,64.39,39,64.39l-2.31-2.6-3.5,4s3.78,8.06,5.92,10.26,6.36,2.87,6.36,2.87l.86-13.47Z"/><path class="cls-11" d="M65.15,48.21l-6.51-1.14-8.29.41s-6.91,2.86-6.56,3L42.45,63.77l3.33,6.45L45,83.94H67.85l-1.2-9.54L65.16,62.9,68,71.8l.43,12.14H74.8c.67-5.29.89-12.63.89-12.63l-5.21-17a9.89,9.89,0,0,0-4.4-5.65A5.21,5.21,0,0,0,65.15,48.21Z"/><path class="cls-2" d="M43.72,57.17s0,0,0,.06l0,.2.14.78c.11.67.27,1.64.46,2.84s.39,2.64.59,4.23.39,3.36.49,5.22l0,.5h0c-.09,3.6-.21,6.84-.31,9.17-.05,1.17-.09,2.11-.13,2.76l0,.75,0,.19a.24.24,0,0,1,0,.07v-.26l0-.75.11-2.76c.08-2.34.18-5.57.28-9.17h0l0-.5c-.11-1.85-.29-3.61-.49-5.21s-.39-3-.57-4.23l-.43-2.85-.12-.77,0-.21A.28.28,0,0,1,43.72,57.17Z"/><path class="cls-2" d="M63.68,57.89a.66.66,0,0,1,0-.09l0-.24,0-.18c0-.07,0-.14,0-.22a4.18,4.18,0,0,1,0-.52v-.31c0-.1,0-.21,0-.33a4.85,4.85,0,0,1,.11-.72,7.8,7.8,0,0,1,.53-1.59,7.28,7.28,0,0,1,.88-1.42,5.25,5.25,0,0,1,.48-.55c.08-.08.15-.17.23-.24l.23-.2a4.68,4.68,0,0,1,.41-.32l.18-.13.15-.09.22-.13.08,0-.07.06-.21.14-.14.1-.17.13c-.12.1-.27.2-.4.33l-.23.21-.22.23a5.2,5.2,0,0,0-.47.55,8,8,0,0,0-.86,1.41,7.65,7.65,0,0,0-.53,1.57,7,7,0,0,0-.12.71c0,.11,0,.22,0,.33v.3c0,.19,0,.37,0,.52a1.62,1.62,0,0,1,0,.21l0,.18,0,.25Q63.69,57.89,63.68,57.89Z"/><path class="cls-2" d="M44,70.43a1.8,1.8,0,0,1-.17-.25c-.12-.17-.28-.4-.5-.68-.45-.55-1.09-1.29-1.81-2.11s-1.38-1.55-1.84-2.09l-.53-.65C39,64.49,39,64.4,39,64.4s.08.07.21.22l.56.63,1.86,2.08c.72.81,1.36,1.56,1.79,2.13a6.41,6.41,0,0,1,.48.7c0,.08.08.15.11.2Z"/><g class="cls-12"><path d="M45.26,78.92a87.26,87.26,0,0,0,0-10.85,34.1,34.1,0,0,1-2.54,10.14Z"/></g><path class="cls-2" d="M62.24,75.49a.55.55,0,0,1-.13.09l-.38.21-1.36.82c-.57.35-1.25.77-2,1.21a18.62,18.62,0,0,1-2.61,1.23,9.1,9.1,0,0,1-2.83.58,4.22,4.22,0,0,1-1.26-.18,3.13,3.13,0,0,1-1-.51,2.47,2.47,0,0,1-.87-1.31,1.71,1.71,0,0,1-.06-.43c0-.1,0-.16,0-.16a2.23,2.23,0,0,0,.08.58,2.45,2.45,0,0,0,.89,1.26,2.76,2.76,0,0,0,1,.49,4.48,4.48,0,0,0,1.24.17A8.87,8.87,0,0,0,55.7,79a18,18,0,0,0,2.6-1.22c.78-.43,1.46-.85,2-1.19s1-.61,1.38-.79l.38-.2Z"/><path class="cls-2" d="M62.21,70.09s0,.11-.07.32-.06.23-.11.37-.1.31-.17.48-.15.37-.25.57a5.45,5.45,0,0,1-.32.64,12,12,0,0,1-.92,1.35A10.52,10.52,0,0,1,59.22,75c-.19.16-.37.32-.55.45l-.52.35c-.15.11-.31.18-.44.26s-.24.13-.34.18a1.67,1.67,0,0,1-.3.13,2.07,2.07,0,0,1,.28-.17l.34-.19.43-.27c.15-.1.32-.22.5-.36s.36-.28.55-.44a10.54,10.54,0,0,0,1.12-1.17,10.29,10.29,0,0,0,.92-1.33c.12-.21.24-.42.33-.62s.18-.39.26-.56l.18-.48q.08-.21.12-.36A1.19,1.19,0,0,1,62.21,70.09Z"/><path class="cls-5" d="M44.05,61.57s-1-.17-2.15-.43-2.13-.49-2.13-.52,1,.17,2.15.43S44.05,61.54,44.05,61.57Z"/><path class="cls-5" d="M44.05,60.49l-.61-.07L42,60.16l-1.45-.28-.6-.14a3.54,3.54,0,0,1,.61.07l1.45.26,1.45.28A2.85,2.85,0,0,1,44.05,60.49Z"/><path class="cls-5" d="M63.72,60.62s-4.16,0-9.29,0-9.28-.09-9.28-.11,4.16,0,9.28,0S63.72,60.6,63.72,60.62Z"/><path class="cls-5" d="M64,61.57s-4.28,0-9.56,0-9.55,0-9.55,0,4.27,0,9.55,0S64,61.54,64,61.57Z"/><path class="cls-5" d="M59.31,47.21a.85.85,0,0,1,0,.15,2.73,2.73,0,0,1,0,.43,4.66,4.66,0,0,1-1.69,3.44,4.73,4.73,0,0,1-5.42.33,4.79,4.79,0,0,1-1.59-1.71,4.47,4.47,0,0,1-.51-1.5c0-.18,0-.33,0-.42v-.15s0,0,0,.14,0,.24.06.43a5,5,0,0,0,.54,1.46,4.6,4.6,0,0,0,1.58,1.67,4.5,4.5,0,0,0,2.71.68,4.59,4.59,0,0,0,2.6-1,4.84,4.84,0,0,0,1.72-3.37,3,3,0,0,0,0-.43C59.3,47.26,59.3,47.21,59.31,47.21Z"/><path class="cls-5" d="M36.81,62.17a.9.9,0,0,1-.1.18l-.3.46c-.27.39-.65.91-1.11,1.45a15.69,15.69,0,0,1-1.25,1.33l-.41.38c-.1.08-.15.13-.16.12l.14-.15.38-.4c.33-.33.77-.8,1.22-1.34s.85-1.05,1.13-1.43l.33-.44A.5.5,0,0,1,36.81,62.17Z"/><g class="cls-12"><path d="M57.67,76a7.29,7.29,0,0,1-3.31.64,1.5,1.5,0,0,1-.63-.08.53.53,0,0,1-.33-.49c0-.26.27-.42.51-.52A20.85,20.85,0,0,1,56.78,75a12.08,12.08,0,0,0,4.55-2.67A10,10,0,0,1,57.67,76"/></g><path class="cls-9" d="M54.18,51.58h0a4.18,4.18,0,0,1-3.84-4.19c0-1,0-1.87,0-1.87A4,4,0,0,1,47,41.66c0-3.35.54-11,.54-11h0A11.59,11.59,0,0,1,59.19,32.1l.5.38-1,15.22A4.18,4.18,0,0,1,54.18,51.58Z"/><path class="cls-10" d="M50.36,45.47a7.8,7.8,0,0,0,4.36-1.24,4.12,4.12,0,0,1-4.37,2.11Z"/><path class="cls-9" d="M59.27,36c.06,0,2.3-.68,2.23,1.6a1.73,1.73,0,0,1-2.36,1.68C59.14,39.16,59.27,36,59.27,36Z"/><path class="cls-10" d="M59.87,38.39s0,0,.11.06a.4.4,0,0,0,.29,0,1,1,0,0,0,.49-.87,1.34,1.34,0,0,0-.1-.57.47.47,0,0,0-.29-.32.19.19,0,0,0-.23.11c0,.06,0,.11,0,.11a.14.14,0,0,1,0-.13.3.3,0,0,1,.09-.15.33.33,0,0,1,.22,0,.58.58,0,0,1,.41.37,1.49,1.49,0,0,1,.12.64,1,1,0,0,1-.62,1,.4.4,0,0,1-.36-.07C59.87,38.44,59.86,38.39,59.87,38.39Z"/><path class="cls-2" d="M48.73,36a.48.48,0,0,0,.46.48.46.46,0,0,0,.49-.43.48.48,0,0,0-.46-.49A.46.46,0,0,0,48.73,36Z"/><path class="cls-2" d="M48.15,35.34c.06.06.42-.21.93-.21s.89.26,1,.2,0-.14-.2-.26a1.32,1.32,0,0,0-.76-.23,1.25,1.25,0,0,0-.74.24C48.17,35.2,48.12,35.31,48.15,35.34Z"/><path class="cls-2" d="M53.66,36.11a.48.48,0,0,0,.46.48.45.45,0,0,0,.49-.43.47.47,0,0,0-.46-.48A.45.45,0,0,0,53.66,36.11Z"/><path class="cls-2" d="M53.2,35.43c.06.07.42-.2.93-.2s.89.26.95.2,0-.14-.2-.26a1.28,1.28,0,0,0-.75-.24,1.26,1.26,0,0,0-.75.24C53.22,35.29,53.17,35.41,53.2,35.43Z"/><path class="cls-2" d="M51.33,39.24a4.11,4.11,0,0,0-.83-.15c-.13,0-.26,0-.28-.13a.69.69,0,0,1,.09-.38c.12-.32.25-.65.39-1A16.85,16.85,0,0,0,51.57,35a17.37,17.37,0,0,0-1.08,2.54l-.37,1a.72.72,0,0,0-.07.51.3.3,0,0,0,.22.19.58.58,0,0,0,.22,0A3.09,3.09,0,0,0,51.33,39.24Z"/><path class="cls-2" d="M53.07,33.42c0,.14.56.07,1.16.15s1.09.23,1.17.11,0-.19-.24-.33a2.06,2.06,0,0,0-.87-.3,1.93,1.93,0,0,0-.91.11C53.16,33.24,53,33.35,53.07,33.42Z"/><path class="cls-2" d="M48.34,33.85c.09.12.44,0,.87,0s.78.08.87,0,0-.18-.18-.29a1.22,1.22,0,0,0-.71-.19,1.2,1.2,0,0,0-.69.23C48.35,33.67,48.3,33.79,48.34,33.85Z"/><path class="cls-2" d="M45.89,28.52a1.24,1.24,0,0,1,.45-1.1.88.88,0,0,1,1.14.09,1,1,0,0,1,.88-1.24c.54,0,1,.38,1.53.52a2.47,2.47,0,0,0,1.56-.18c.5-.2,1-.47,1.46-.66a4.28,4.28,0,0,1,5.47,2.51,1.91,1.91,0,0,1,2,.76,3.14,3.14,0,0,1,.48,2.2,7.18,7.18,0,0,1-.38,1.5v.13c0,1.84-.24,4-1,4-1.36,0-1-2.56-1-2.56C56.74,33.85,57.37,31.34,57,31s-1.3-1.27-4.81.53a6.9,6.9,0,0,1-4.17.45l-.08,0h0a3,3,0,0,1-.9-.38,1.8,1.8,0,0,1-.75-.82,1,1,0,0,1,.19-1.05A2.17,2.17,0,0,1,45.89,28.52Z"/><path class="cls-10" d="M50.9,40.82a2.05,2.05,0,0,0,.3.59.77.77,0,0,0,.55.32.71.71,0,0,0,.59-.32,1.13,1.13,0,0,0,.16-.67c0-.21-.11-.46-.32-.49a.46.46,0,0,0-.25.06l-1.1.44"/><path class="cls-2" d="M51.34,41.73a1.39,1.39,0,0,0,.59-.07.89.89,0,0,0,.44-.4.92.92,0,0,0,0-.73.86.86,0,0,0-.1-.16s0,0-.08,0L52,40.4l-.18.08-.63.24a1.67,1.67,0,0,1-.6.18,2.33,2.33,0,0,1,.54-.31l.62-.28.18-.08a.76.76,0,0,1,.2-.08.22.22,0,0,1,.16,0,.2.2,0,0,1,.12.1.74.74,0,0,1,.13.21,1,1,0,0,1,0,.88.93.93,0,0,1-.56.45.85.85,0,0,1-.47,0C51.39,41.78,51.33,41.74,51.34,41.73Z"/><path class="cls-13" d="M57.06,30.65a1.45,1.45,0,0,0,0-.41,1.58,1.58,0,0,0-.52-.94A2.12,2.12,0,0,0,55,28.81a6.37,6.37,0,0,0-2,.43,10.43,10.43,0,0,1-1,.3,5.82,5.82,0,0,1-1,.12,5.73,5.73,0,0,1-1.65-.22,5.33,5.33,0,0,1-1-.44l-.26-.16-.08-.06s.12.07.36.19a5.68,5.68,0,0,0,1,.4,5.31,5.31,0,0,0,1.63.2,4.7,4.7,0,0,0,1-.13c.32-.07.66-.18,1-.29a6.42,6.42,0,0,1,2-.43,2.17,2.17,0,0,1,1.56.53,1.58,1.58,0,0,1,.51,1A1,1,0,0,1,57.06,30.65Z"/><path class="cls-13" d="M59.66,36.3l0-.07a1.47,1.47,0,0,1-.11-.22,3.91,3.91,0,0,1-.26-.83,4.33,4.33,0,0,1-.09-1.29,10.54,10.54,0,0,1,.3-1.55,3.08,3.08,0,0,0,0-1.54,1.48,1.48,0,0,0-.32-.58,1.13,1.13,0,0,0-.48-.32,1.11,1.11,0,0,0-.82,0c-.18.1-.25.19-.26.18a.73.73,0,0,1,.24-.21,1.1,1.1,0,0,1,.86-.05,1.15,1.15,0,0,1,.52.32,1.84,1.84,0,0,1,.35.61,3.06,3.06,0,0,1,0,1.59,14.82,14.82,0,0,0-.3,1.54,5.1,5.1,0,0,0,.06,1.27,5.17,5.17,0,0,0,.24.83A2,2,0,0,1,59.66,36.3Z"/><path class="cls-13" d="M57.38,30.38v-.14l0-.38a4.55,4.55,0,0,0-.16-1.39,2.27,2.27,0,0,0-.44-.84,1.78,1.78,0,0,0-.9-.6,2.35,2.35,0,0,0-1.2,0,5.52,5.52,0,0,0-1.19.55,10.29,10.29,0,0,1-1.19.61,3.83,3.83,0,0,1-1.22.24A3.66,3.66,0,0,1,50,28.34a3.76,3.76,0,0,1-.91-.37A3.89,3.89,0,0,1,48,27.05a2.11,2.11,0,0,1-.21-.32l-.07-.11.08.1A2.65,2.65,0,0,0,48,27a4.2,4.2,0,0,0,1.08.88,4.69,4.69,0,0,0,.9.36,3.91,3.91,0,0,0,1.1.12,3.66,3.66,0,0,0,1.19-.24,12,12,0,0,0,1.17-.61A5.79,5.79,0,0,1,54.68,27a2.28,2.28,0,0,1,1.24,0,1.75,1.75,0,0,1,.94.63,2.42,2.42,0,0,1,.45.87,4.51,4.51,0,0,1,.13,1.41c0,.17,0,.3,0,.38S57.39,30.38,57.38,30.38Z"/><path class="cls-11" d="M25.33,76.35a.91.91,0,0,0,1.36,0,2.54,2.54,0,0,0,.57-1.19,6.26,6.26,0,0,0,.34-3,1.66,1.66,0,0,0-.39-.81.86.86,0,0,0-.82-.27,1.27,1.27,0,0,0-.71.76A7.06,7.06,0,0,0,25,74.94a2.45,2.45,0,0,0,.34,1.41"/><g class="cls-14"><path d="M25.33,76.35a.91.91,0,0,0,1.36,0,2.54,2.54,0,0,0,.57-1.19,6.26,6.26,0,0,0,.34-3,1.66,1.66,0,0,0-.39-.81.86.86,0,0,0-.82-.27,1.27,1.27,0,0,0-.71.76A7.06,7.06,0,0,0,25,74.94a2.45,2.45,0,0,0,.34,1.41"/></g><path class="cls-11" d="M26.67,78.91a3,3,0,0,1,1.9-.25,1.62,1.62,0,0,1,.95.42.68.68,0,0,1,0,.94.92.92,0,0,1-.59.15,2.32,2.32,0,0,0-1.46.22c-.23.17-.38.46-.66.54a.64.64,0,0,1-.71-.31A1.15,1.15,0,0,1,26,79.8,1.24,1.24,0,0,1,26.67,78.91Z"/><path class="cls-11" d="M24.36,77.09a1.81,1.81,0,0,0,.28-1.7,3.24,3.24,0,0,0-1-1.45,5.24,5.24,0,0,0-1.8-1,2,2,0,0,0-.81-.14.83.83,0,0,0-.67.42,1.25,1.25,0,0,0,.19,1.15,15,15,0,0,0,1.19,1.79,3.2,3.2,0,0,0,1.3,1.1,1.19,1.19,0,0,0,1.39-.2"/><path class="cls-2" d="M25.35,84a.72.72,0,0,0,0-.23l.06-.63a7.69,7.69,0,0,1,.46-2,4.17,4.17,0,0,1,.55-1,2.2,2.2,0,0,1,.7-.59,2,2,0,0,1,.59-.18,1,1,0,0,0,.23,0h-.24a1.83,1.83,0,0,0-.61.16,2.19,2.19,0,0,0-.74.59,4.07,4.07,0,0,0-.56,1,6.47,6.47,0,0,0-.33,1.1,7.66,7.66,0,0,0-.12.93c0,.27,0,.49,0,.64A1.4,1.4,0,0,0,25.35,84Z"/><path class="cls-2" d="M25.39,83.49s0,0,0-.1v-.31c0-.26,0-.64,0-1.12,0-.94.09-2.25.24-3.68s.36-2.73.54-3.65c.05-.24.09-.45.13-.63l.11-.47.07-.29c0-.07,0-.11,0-.11s0,0,0,.1l-.09.29c0,.13-.08.29-.12.47s-.1.39-.14.62a32.89,32.89,0,0,0-.57,3.66c-.15,1.44-.21,2.75-.21,3.69,0,.48,0,.86,0,1.12l0,.31A.36.36,0,0,0,25.39,83.49Z"/><path class="cls-2" d="M25.38,81a1.3,1.3,0,0,0,0-.32,7.86,7.86,0,0,0-.1-.86A12,12,0,0,0,25,78.54a12.25,12.25,0,0,0-.53-1.49,8,8,0,0,0-1.56-2.39,3.7,3.7,0,0,0-.37-.34l-.15-.13-.14-.09a1.31,1.31,0,0,0-.27-.17,9.86,9.86,0,0,1,.88.78,8.29,8.29,0,0,1,1.52,2.38,14.12,14.12,0,0,1,.54,1.47c.14.46.23.89.3,1.24s.11.65.13.86S25.38,81,25.38,81Z"/><polygon class="cls-11" points="28.91 55.18 21.07 54.84 21.07 47.01 28.91 47.01 28.91 55.18"/><rect class="cls-11" x="24.18" y="44.77" width="7.84" height="7.84"/><polygon class="cls-11" points="28.91 54.84 32.02 52.6 32.02 44.77 28.91 47.01 28.91 54.84"/><polygon class="cls-11" points="21.07 47.01 24.18 44.77 32.02 44.77 28.91 47.01 21.07 47.01"/><polygon class="cls-11" points="28.91 55.18 32.02 52.6 32.02 44.77 28.91 47.01 28.91 55.18"/><polygon class="cls-15" points="21.07 47.01 24.18 44.77 32.02 44.77 28.91 47.01 21.07 47.01"/><polygon class="cls-16" points="28.91 55.18 32.02 52.6 32.02 44.77 28.91 47.01 28.91 55.18"/><path class="cls-11" d="M33.11,52.9a1.07,1.07,0,0,1,0,.46l0,0h0l0,0-.07,0-.13.08c-.07,0-.12.06-.13,0a.38.38,0,0,1,.09-.11l.11-.09.07-.06,0,0h0l0,0A1.29,1.29,0,0,1,33.11,52.9Z"/><path class="cls-11" d="M33.11,50.92a1.23,1.23,0,0,1,0,.5,1.2,1.2,0,0,1,0,.49,1.44,1.44,0,0,1,0-.49A1.47,1.47,0,0,1,33.11,50.92Z"/><path class="cls-11" d="M33.11,48.94a1.23,1.23,0,0,1,0,.5,1.2,1.2,0,0,1,0,.49,1.44,1.44,0,0,1,0-.49A1.47,1.47,0,0,1,33.11,48.94Z"/><path class="cls-11" d="M33.11,47a1.23,1.23,0,0,1,0,.5,1.2,1.2,0,0,1,0,.49,1.44,1.44,0,0,1,0-.49A1.47,1.47,0,0,1,33.11,47Z"/><path class="cls-11" d="M33.11,45a1.23,1.23,0,0,1,0,.5,1.2,1.2,0,0,1,0,.49,1.44,1.44,0,0,1,0-.49A1.47,1.47,0,0,1,33.11,45Z"/><path class="cls-11" d="M32.65,43.53a1.07,1.07,0,0,1,.46-.05l0,.05h0v.16a.76.76,0,0,0,0,.15c0,.08,0,.13,0,.13s0-.05,0-.13a.76.76,0,0,1,0-.15v-.16h0s0-.05,0,0A1.07,1.07,0,0,1,32.65,43.53Z"/><path class="cls-11" d="M30.88,43.53a1,1,0,0,1,.44-.05c.25,0,.44,0,.44.05s-.19,0-.44,0A1,1,0,0,1,30.88,43.53Z"/><path class="cls-11" d="M29.11,43.53a2,2,0,0,1,.88,0,2,2,0,0,1-.88,0Z"/><path class="cls-11" d="M27.34,43.53s.19-.05.44-.05a1,1,0,0,1,.44.05,1,1,0,0,1-.44,0C27.53,43.58,27.34,43.56,27.34,43.53Z"/><path class="cls-11" d="M25.56,43.53a1,1,0,0,1,.45-.05,1,1,0,0,1,.44.05,1,1,0,0,1-.44,0A1,1,0,0,1,25.56,43.53Z"/><path class="cls-11" d="M23.83,43.63s0-.06.1-.13h.31a1,1,0,0,1,.44.05,1,1,0,0,1-.44,0H24C23.9,43.62,23.84,43.64,23.83,43.63Z"/><path class="cls-11" d="M22.47,44.76s.12-.16.31-.32.35-.26.37-.24-.12.16-.31.32A1.21,1.21,0,0,1,22.47,44.76Z"/><path class="cls-11" d="M21.1,45.9s.13-.17.31-.32.36-.27.38-.25a1.44,1.44,0,0,1-.31.32C21.29,45.81,21.12,45.92,21.1,45.9Z"/><path class="cls-11" d="M20.06,47.22a1.44,1.44,0,0,1,0-.46c0-.08,0,0,0,0h0l0,0,.07,0a.47.47,0,0,1,.12-.09q.11-.08.12-.06s0,0-.08.11a1.13,1.13,0,0,1-.11.11l-.06,0,0,0v0h0l0,0A1.17,1.17,0,0,1,20.06,47.22Z"/><path class="cls-11" d="M20.05,49.05a1.07,1.07,0,0,1-.05-.46,1.29,1.29,0,0,1,.05-.46,1.07,1.07,0,0,1,.05.46A1.29,1.29,0,0,1,20.05,49.05Z"/><path class="cls-11" d="M20,50.88a1,1,0,0,1-.05-.46A1.1,1.1,0,0,1,20,50a1.36,1.36,0,0,1,0,.45A1.24,1.24,0,0,1,20,50.88Z"/><path class="cls-11" d="M20,52.71a1,1,0,0,1,0-.46A1,1,0,0,1,20,51.8a1.39,1.39,0,0,1,0,.46A1,1,0,0,1,20,52.71Z"/><path class="cls-11" d="M20,54.55a1.17,1.17,0,0,1,0-.46,1,1,0,0,1,.05-.46,1,1,0,0,1,0,.46A1.07,1.07,0,0,1,20,54.55Z"/><path class="cls-11" d="M20.44,55.93A1,1,0,0,1,20,56l-.05,0h0v-.16a.61.61,0,0,1,0-.14c0-.09,0-.14,0-.14s0,0,0,.14v.3h0L20,55.87A1.17,1.17,0,0,1,20.44,55.93Z"/><path class="cls-11" d="M22.19,56a1.07,1.07,0,0,1-.44,0,.91.91,0,0,1-.44-.06,1.32,1.32,0,0,1,.44,0A1.07,1.07,0,0,1,22.19,56Z"/><path class="cls-11" d="M23.94,56a1.32,1.32,0,0,1-.44,0,.91.91,0,0,1-.44-.06,1.32,1.32,0,0,1,.44,0A1.07,1.07,0,0,1,23.94,56Z"/><path class="cls-11" d="M25.69,56a1.32,1.32,0,0,1-.44,0,1.07,1.07,0,0,1-.44-.06,1.32,1.32,0,0,1,.44,0A1.07,1.07,0,0,1,25.69,56Z"/><path class="cls-11" d="M27.44,56.05a1.32,1.32,0,0,1-.44,0,1.07,1.07,0,0,1-.44-.06A1.07,1.07,0,0,1,27,56,.91.91,0,0,1,27.44,56.05Z"/><path class="cls-11" d="M29.19,56.07a1,1,0,0,1-.44,0,1.07,1.07,0,0,1-.44-.06,1.07,1.07,0,0,1,.44,0A1.18,1.18,0,0,1,29.19,56.07Z"/><path class="cls-11" d="M30.65,55.23s-.13.15-.32.3-.36.25-.38.22a1.29,1.29,0,0,1,.32-.3C30.47,55.31,30.63,55.21,30.65,55.23Z"/><path class="cls-11" d="M32.05,54.17a1.12,1.12,0,0,1-.32.3,1.16,1.16,0,0,1-.38.23s.13-.16.32-.3S32,54.15,32.05,54.17Z"/><path class="cls-11" d="M31,42.89s0,.11,0,.24-.07.22-.1.21,0-.11,0-.23S31,42.89,31,42.89Z"/><path class="cls-11" d="M31.41,41a1.35,1.35,0,0,1-.06.48,1.42,1.42,0,0,1-.15.46,1.14,1.14,0,0,1,.06-.48A1.09,1.09,0,0,1,31.41,41Z"/><path class="cls-11" d="M31.83,39.14a1.14,1.14,0,0,1-.06.48,1.27,1.27,0,0,1-.15.46,1.13,1.13,0,0,1,.06-.48A1.42,1.42,0,0,1,31.83,39.14Z"/><path class="cls-11" d="M32.26,37.26a1.38,1.38,0,0,1-.06.48,1.19,1.19,0,0,1-.16.46,1.37,1.37,0,0,1,.06-.48C32.16,37.46,32.23,37.25,32.26,37.26Z"/><path class="cls-11" d="M32.68,35.38a1.14,1.14,0,0,1-.06.48,1.42,1.42,0,0,1-.15.46,1.14,1.14,0,0,1,.06-.48A1.27,1.27,0,0,1,32.68,35.38Z"/><path class="cls-11" d="M33.1,33.5A1.14,1.14,0,0,1,33,34c0,.26-.12.47-.15.46A1.38,1.38,0,0,1,33,34,1.55,1.55,0,0,1,33.1,33.5Z"/><path class="cls-11" d="M33.42,32.11s0,.12,0,.24-.07.22-.09.21,0-.11,0-.23S33.39,32.11,33.42,32.11Z"/><path class="cls-11" d="M23.75,43.12s.09.07.14.18.09.22.06.23-.08-.07-.14-.18S23.72,43.13,23.75,43.12Z"/><path class="cls-11" d="M22.94,41.51a1.22,1.22,0,0,1,.24.38c.11.22.19.41.16.42s-.13-.15-.24-.38S22.91,41.52,22.94,41.51Z"/><path class="cls-11" d="M22.13,39.9a1.22,1.22,0,0,1,.24.38c.12.22.19.41.16.43a1.22,1.22,0,0,1-.24-.38C22.18,40.1,22.1,39.91,22.13,39.9Z"/><path class="cls-11" d="M21.32,38.29a1.22,1.22,0,0,1,.24.38c.12.23.19.42.16.43a1.22,1.22,0,0,1-.24-.38C21.37,38.5,21.29,38.31,21.32,38.29Z"/><path class="cls-11" d="M20.51,36.69s.13.15.24.38.19.41.16.42a2.26,2.26,0,0,1-.4-.8Z"/><path class="cls-11" d="M19.7,35.08a1.22,1.22,0,0,1,.24.38c.12.22.19.41.16.42a2.26,2.26,0,0,1-.4-.8Z"/><path class="cls-11" d="M18.89,33.47a1.35,1.35,0,0,1,.25.38c.11.22.18.41.15.42s-.13-.15-.24-.38A1.22,1.22,0,0,1,18.89,33.47Z"/><path class="cls-11" d="M18.08,31.86a1.35,1.35,0,0,1,.25.38c.11.23.18.41.15.43a1.22,1.22,0,0,1-.24-.38A1.3,1.3,0,0,1,18.08,31.86Z"/><path class="cls-11" d="M17.47,30.65s.09.07.14.18.09.22.07.23-.09-.07-.15-.19S17.44,30.66,17.47,30.65Z"/><path class="cls-11" d="M9.28,45.91s-.1,0-.23,0-.23,0-.23-.06.11,0,.24,0S9.29,45.88,9.28,45.91Z"/><path class="cls-11" d="M11.16,46.06a1.35,1.35,0,0,1-.47,0,1.11,1.11,0,0,1-.47-.09,1.43,1.43,0,0,1,.48,0A1.09,1.09,0,0,1,11.16,46.06Z"/><path class="cls-11" d="M13,46.21a1.43,1.43,0,0,1-.48,0,1.09,1.09,0,0,1-.46-.09,1.35,1.35,0,0,1,.47,0A1.11,1.11,0,0,1,13,46.21Z"/><path class="cls-11" d="M14.91,46.35a1.12,1.12,0,0,1-.47,0c-.26,0-.47,0-.46-.08a1.12,1.12,0,0,1,.47,0A1.3,1.3,0,0,1,14.91,46.35Z"/><path class="cls-11" d="M16.79,46.5a1.12,1.12,0,0,1-.47,0,1.47,1.47,0,0,1-.47-.08,1.1,1.1,0,0,1,.48,0A1,1,0,0,1,16.79,46.5Z"/><path class="cls-11" d="M18.67,46.65a1.38,1.38,0,0,1-.47,0,1.11,1.11,0,0,1-.47-.09,1.35,1.35,0,0,1,.47,0A1.11,1.11,0,0,1,18.67,46.65Z"/><path class="cls-11" d="M20.07,46.76s-.11,0-.24,0-.22,0-.22-.07.1,0,.23,0S20.07,46.73,20.07,46.76Z"/><circle class="cls-8" cx="13.64" cy="23.77" r="8.13" transform="translate(-12.59 31.7) rotate(-76.97)"/><path class="cls-11" d="M21.78,23.77a.73.73,0,0,1,0-.13l0-.39,0-.28c0-.11,0-.22,0-.34l-.06-.4a4,4,0,0,0-.11-.44,7.5,7.5,0,0,0-.9-2.16,8.07,8.07,0,0,0-2.06-2.3l-.35-.26-.38-.23a3.07,3.07,0,0,0-.39-.23l-.42-.2-.22-.1-.22-.09-.46-.16-.47-.13a3.88,3.88,0,0,0-.49-.11,6.93,6.93,0,0,0-1-.12l-.53,0-.54,0a1.23,1.23,0,0,0-.27,0l-.27,0-.54.09a8.29,8.29,0,0,0-1.08.31,8.88,8.88,0,0,0-1.05.47c-.18.09-.34.2-.51.3s-.17.09-.25.15l-.24.18a9.61,9.61,0,0,0-.91.78l-.41.45-.11.12-.09.12L7.13,19,7,19.24l-.16.26-.17.27-.08.14-.07.14-.27.57-.22.6a8,8,0,0,0,0,5.1l.22.6.27.57.07.14.08.13.16.27L7,28.3l.18.25.19.24.09.13.1.11.42.45a7.37,7.37,0,0,0,.91.78l.24.18.25.16c.17.1.33.21.5.3a8.09,8.09,0,0,0,1.06.46,8.34,8.34,0,0,0,1.08.32l.54.09.27,0,.27,0,.54,0,.53,0c.35,0,.68-.08,1-.12.17,0,.33-.08.49-.11l.48-.13.45-.17.23-.08.21-.1.42-.2c.14-.07.26-.16.39-.23l.38-.23.35-.27a7.91,7.91,0,0,0,2.06-2.29,7.5,7.5,0,0,0,.9-2.16c0-.16.09-.3.11-.44l.06-.4c0-.12,0-.24,0-.34l0-.28,0-.39a.6.6,0,0,1,0-.13s0,0,0,.13v.67c0,.11,0,.22-.05.34l-.06.4a2.84,2.84,0,0,1-.1.45,7.78,7.78,0,0,1-.89,2.17,8.18,8.18,0,0,1-2.06,2.33l-.36.26-.38.24a3.18,3.18,0,0,1-.4.23L17,31.2l-.22.1-.22.08-.46.17-.48.13a4.54,4.54,0,0,1-.5.12c-.33,0-.68.11-1,.12l-.53,0-.54,0a1.32,1.32,0,0,1-.28,0l-.27,0L12,31.77a9,9,0,0,1-1.09-.32A9.15,9.15,0,0,1,9.79,31c-.17-.09-.34-.2-.51-.3L9,30.52l-.24-.18a10,10,0,0,1-.93-.79l-.42-.46L7.34,29l-.1-.13-.18-.25-.19-.25-.17-.27-.16-.27-.08-.14-.07-.14L6.11,27l-.22-.6a8.94,8.94,0,0,1-.43-2.58,8.88,8.88,0,0,1,.43-2.58l.22-.61L6.39,20l.07-.14.08-.14.16-.27.17-.27.19-.25.19-.25.09-.12.1-.12L7.86,18a8.64,8.64,0,0,1,.93-.79L9,17l.25-.16c.17-.1.34-.21.51-.3a9.15,9.15,0,0,1,1.07-.47A9,9,0,0,1,12,15.77c.18,0,.37-.06.55-.09l.27,0,.28,0,.54,0a4.7,4.7,0,0,1,.53,0,6.9,6.9,0,0,1,1,.12c.17,0,.33.08.5.11l.48.13.46.17.22.09.22.1.42.2c.14.07.27.16.4.24l.38.23.36.27a8.15,8.15,0,0,1,2.06,2.32,8,8,0,0,1,.89,2.18,2.73,2.73,0,0,1,.1.44l.06.4c0,.13,0,.24.05.34v.68A1.16,1.16,0,0,1,21.78,23.77Z"/><path class="cls-2" d="M16.84,20.72H14.66a.86.86,0,0,0-.67.21h0V20.5H9.18l0,0v4.24h0a.59.59,0,0,0-.38.51,5.27,5.27,0,0,0,0,.69.64.64,0,0,0,.44.46,5.27,5.27,0,0,0,.69,0h0v0a1.11,1.11,0,1,0,2.21,0v0h3v0a1.1,1.1,0,1,0,2.19-.12v0h0A1.37,1.37,0,0,0,18.19,25V22.45a2.55,2.55,0,0,0-.08-.83A1.36,1.36,0,0,0,16.84,20.72Zm0,0a1.39,1.39,0,0,1,1.3.9,2.38,2.38,0,0,1,.08.84V25a1.4,1.4,0,0,1-.8,1.39l0,0a1.16,1.16,0,0,1-1.08,1.31,1.17,1.17,0,0,1-1.24-1.18l0,0H12.22l0,0a1.17,1.17,0,0,1-1.16,1.18,1.16,1.16,0,0,1-1.16-1.18l0,0a5.51,5.51,0,0,1-.7,0,.66.66,0,0,1-.48-.5,5.48,5.48,0,0,1,0-.7.66.66,0,0,1,.41-.56l0,0V20.48H14v.42h0a.88.88,0,0,1,.68-.2h2.18Z"/><path class="cls-2" d="M9.46,20.78h4.26v3.93H9.42v0Zm0,0,0,3.89,0,0H13.7l0,0v-3.9l0,0Z"/><path class="cls-2" d="M11.09,27.32a.86.86,0,0,1-.87-.85.88.88,0,1,1,.87.85Zm0,0a.83.83,0,0,0,.81-.84.82.82,0,0,0-.81-.82.83.83,0,0,0-.84.82A.85.85,0,0,0,11.09,27.31Z"/><path class="cls-2" d="M16.3,27.32a.86.86,0,0,1-.87-.85.87.87,0,0,1,.87-.88.87.87,0,1,1,0,1.73Zm0,0a.83.83,0,0,0,.81-.84.81.81,0,0,0-.81-.82.82.82,0,0,0-.83.82A.84.84,0,0,0,16.3,27.31Z"/><path class="cls-11" d="M11.93,21.67h-.87v.72h-.73v.87h.73V24h.87v-.72h.72v-.87h-.72Z"/><path class="cls-2" d="M17.15,23.14a.47.47,0,0,1-.41.47h-2V22.13h1.08v0h0l0,0h.55a2.57,2.57,0,0,1,.55,0,.46.46,0,0,1,.31.43Zm0,0V22.6a.44.44,0,0,0-.31-.39,3.09,3.09,0,0,0-.53,0h-.58v0h0l0,0h-1l0,0V23.6l0,0h2A.46.46,0,0,0,17.15,23.14Z"/><circle class="cls-8" cx="35.87" cy="24.57" r="8.13"/><path class="cls-11" d="M44,24.57a1.11,1.11,0,0,1,0-.13l0-.38,0-.29c0-.1,0-.22-.05-.34L43.84,23a4.2,4.2,0,0,0-.11-.45,7.5,7.5,0,0,0-.9-2.16,7.91,7.91,0,0,0-2.06-2.29l-.35-.26L40,17.64c-.13-.07-.25-.16-.39-.23l-.42-.2-.22-.1L38.79,17l-.46-.17c-.15-.05-.31-.08-.47-.12a4.37,4.37,0,0,0-.49-.12,8.77,8.77,0,0,0-1-.11,4.52,4.52,0,0,0-.52,0l-.54,0-.27,0-.27,0-.54.09a8.34,8.34,0,0,0-1.08.32,7.55,7.55,0,0,0-1.06.46c-.17.09-.33.2-.5.3l-.25.16-.24.18a9.5,9.5,0,0,0-.92.78l-.41.45-.1.11-.09.13-.19.24-.18.25-.17.27-.16.27-.08.13-.07.14-.27.57-.22.6a8,8,0,0,0,0,5.1l.22.6.27.57.07.14.08.14.16.27.17.26.18.25.19.25.09.12.1.12.41.45a11.17,11.17,0,0,0,.92.78l.24.18.25.16.5.3a11,11,0,0,0,1.06.46,8.34,8.34,0,0,0,1.08.32l.54.08.27,0h.27l.54,0,.52,0a7.06,7.06,0,0,0,1-.12,4.31,4.31,0,0,0,.49-.11l.47-.13.46-.16L39,32l.22-.11.42-.2A3.07,3.07,0,0,0,40,31.5l.38-.23.35-.26a7.94,7.94,0,0,0,2.06-2.3,7.5,7.5,0,0,0,.9-2.16,4,4,0,0,0,.11-.44l.06-.4c0-.12,0-.23.05-.33l0-.29,0-.38c0-.09,0-.14,0-.14s0,.05,0,.14v.67c0,.1,0,.22,0,.34l-.06.4a3.93,3.93,0,0,1-.1.44,7.83,7.83,0,0,1-.89,2.18,8,8,0,0,1-2.07,2.32l-.35.27-.38.24c-.13.07-.26.16-.4.23l-.42.2-.22.1-.22.09-.46.17-.48.13c-.17,0-.33.09-.5.11a7.06,7.06,0,0,1-1,.12,4.78,4.78,0,0,1-.53,0l-.55,0-.27,0-.27,0c-.18,0-.37,0-.55-.09a8.48,8.48,0,0,1-1.09-.32A7.66,7.66,0,0,1,32,31.79l-.51-.31-.25-.16L31,31.14a7.77,7.77,0,0,1-.93-.79l-.42-.45-.1-.12-.1-.12-.18-.25-.19-.25-.17-.27-.16-.27-.08-.14-.07-.14-.28-.58-.22-.61a8,8,0,0,1,0-5.16l.22-.6.28-.58.07-.14.08-.14.16-.27L29.1,20l.19-.25.18-.25.1-.13.1-.11.42-.46A8.81,8.81,0,0,1,31,18l.24-.18.25-.16c.17-.1.34-.21.51-.3a9.15,9.15,0,0,1,1.07-.47,8.43,8.43,0,0,1,1.09-.31c.18,0,.37-.06.55-.09l.27,0a2.45,2.45,0,0,1,.27,0l.55,0,.53,0a8.78,8.78,0,0,1,1,.13,3,3,0,0,1,.5.11l.48.13.46.17L39,17l.22.1.42.21c.14.06.27.16.4.23l.38.24.35.26a8.2,8.2,0,0,1,2.07,2.33,7.78,7.78,0,0,1,.89,2.17c0,.16.09.31.1.45l.06.4c0,.12,0,.23,0,.34v.67C44,24.53,44,24.57,44,24.57Z"/><path class="cls-2" d="M35.63,27.83a11.53,11.53,0,0,0,2.49-.13c.38-.1.86-.2,1-.59a10.12,10.12,0,0,0,0-1.24h0a.33.33,0,0,0,0-.14h0v-.88h0a.28.28,0,0,0,0-.13h0v-1h0a.55.55,0,0,0,0-.18h0a3.88,3.88,0,0,0,0-.59v-.6h0a.29.29,0,0,0,0-.13h0v-1h0a.55.55,0,0,0,0-.18h0a.27.27,0,0,0-.13-.17h0a2.87,2.87,0,0,0-1.23-.39,10.22,10.22,0,0,0-2.63,0,2.9,2.9,0,0,0-1.23.38h0a.33.33,0,0,0-.14.17h0a.37.37,0,0,0,0,.18h0l0,3.45h0l0-3.45h0a.75.75,0,0,1,0-.21h0a.33.33,0,0,1,.15-.21h0a2.74,2.74,0,0,1,1.26-.42,11.73,11.73,0,0,1,1.33-.08,9.76,9.76,0,0,1,1.32.09,2.72,2.72,0,0,1,1.26.41h0a.33.33,0,0,1,.15.21h0a.5.5,0,0,1,0,.21h0v1h0v.15h0v.6a4,4,0,0,1,0,.6v0a.5.5,0,0,1,0,.21h0v1h0a.38.38,0,0,1,0,.15h0v.88h0a.38.38,0,0,1,0,.15h0a10.38,10.38,0,0,1,0,1.25c-.19.41-.67.51-1.06.6a11.52,11.52,0,0,1-2.49.12Z"/><path class="cls-2" d="M35.77,27.07A17.07,17.07,0,0,0,37.52,27a5.09,5.09,0,0,0,1.68-.39h0a3.51,3.51,0,0,1-1.68.44,17,17,0,0,1-1.75,0Z"/><path class="cls-2" d="M35.41,25.78c.64,0,1.28,0,1.92,0a7.9,7.9,0,0,0,1-.13,2.67,2.67,0,0,0,.91-.28h0a3.85,3.85,0,0,1-1.86.46c-.65,0-1.29,0-1.93,0Z"/><path class="cls-2" d="M33.75,22.5a3.67,3.67,0,0,0,1.33.37,13.07,13.07,0,0,0,1.39.07,10.7,10.7,0,0,0,1.39-.09,3.46,3.46,0,0,0,1.34-.35h0a3.44,3.44,0,0,1-1.33.41,10.85,10.85,0,0,1-1.4.08,13,13,0,0,1-1.39-.09,3.6,3.6,0,0,1-1.33-.4Z"/><path class="cls-2" d="M39.15,21.09a3.29,3.29,0,0,1-1.3.4,11.16,11.16,0,0,1-2.75,0,3.06,3.06,0,0,1-1.3-.41h0a3.08,3.08,0,0,0,1.31.35,11.69,11.69,0,0,0,2.73,0,3.25,3.25,0,0,0,1.31-.37Z"/><path class="cls-2" d="M33.75,24a4.12,4.12,0,0,0,1.34.33,10.71,10.71,0,0,0,2.77,0A4.15,4.15,0,0,0,39.2,24h0a4.16,4.16,0,0,1-1.33.39,13.13,13.13,0,0,1-1.4.07,10.93,10.93,0,0,1-1.39-.09A4.12,4.12,0,0,1,33.75,24Z"/><path class="cls-2" d="M35.81,27a2.35,2.35,0,1,1-2.33-2.36A2.35,2.35,0,0,1,35.81,27Zm0,0a2.31,2.31,0,1,0-2.32,2.31A2.32,2.32,0,0,0,35.8,27Z"/><path class="cls-11" d="M31.68,27a1.8,1.8,0,1,0,1.8-1.8A1.81,1.81,0,0,0,31.68,27Z"/><path class="cls-8" d="M33.49,26.1v-.16h.06v.14a.12.12,0,0,0,.1.12.51.51,0,0,1,.22.06l0,.08-.08,0a.85.85,0,0,0-.23,0,.35.35,0,0,0-.25.09.23.23,0,0,0-.08.18.24.24,0,0,0,0,.12.28.28,0,0,0,.07.09,1,1,0,0,0,.26.14h0a.7.7,0,0,1,.23.13.36.36,0,0,1,.12.16.32.32,0,0,1,0,.14.34.34,0,0,1-.09.25h0a.49.49,0,0,1-.23.14.12.12,0,0,0-.09.11V28h-.06v-.16a.12.12,0,0,0-.11-.11.4.4,0,0,1-.15,0l-.13-.05,0-.08a.82.82,0,0,0,.34.09.4.4,0,0,0,.27-.09.29.29,0,0,0,.1-.22.5.5,0,0,0,0-.12.61.61,0,0,0-.07-.1.66.66,0,0,0-.24-.14,1.06,1.06,0,0,1-.24-.12.35.35,0,0,1-.13-.15.32.32,0,0,1,0-.14.36.36,0,0,1,.09-.24.52.52,0,0,1,.22-.12A.12.12,0,0,0,33.49,26.1Z"/><path class="cls-11" d="M19.29,56.54s.12-.17.31-.34.36-.3.38-.28-.12.18-.31.35S19.31,56.56,19.29,56.54Z"/><path class="cls-11" d="M17.92,57.78s.12-.18.31-.35a1.23,1.23,0,0,1,.37-.27s-.12.17-.31.34S17.94,57.8,17.92,57.78Z"/><path class="cls-11" d="M16.54,59a1.44,1.44,0,0,1,.32-.34c.19-.17.35-.3.37-.28s-.12.18-.31.35S16.56,59,16.54,59Z"/><path class="cls-11" d="M15.17,60.25s.12-.18.31-.35.36-.29.38-.27-.12.17-.31.34S15.19,60.27,15.17,60.25Z"/><path class="cls-11" d="M13.8,61.48s.12-.17.31-.34.36-.3.38-.28a1.38,1.38,0,0,1-.32.35C14,61.38,13.82,61.5,13.8,61.48Z"/><circle class="cls-8" cx="8.82" cy="68.07" r="8.13" transform="translate(-59.45 60.97) rotate(-76.68)"/><path class="cls-11" d="M17,68.07a1.11,1.11,0,0,1,0-.13l0-.38,0-.29c0-.1,0-.22,0-.34l-.06-.39a4.2,4.2,0,0,0-.11-.45,7.5,7.5,0,0,0-.9-2.16,7.91,7.91,0,0,0-2.06-2.29l-.35-.27L13,61.14c-.13-.07-.25-.16-.39-.23l-.42-.2-.22-.1-.22-.08-.46-.17-.47-.13c-.17,0-.32-.09-.49-.11a8.77,8.77,0,0,0-1-.11,4.52,4.52,0,0,0-.52,0l-.54,0L8,60l-.27,0-.54.09a8.34,8.34,0,0,0-1.08.32A7.55,7.55,0,0,0,5,60.94c-.17.09-.33.2-.5.3l-.25.16L4,61.58a8.27,8.27,0,0,0-.92.78l-.41.45-.1.11-.09.13-.19.24-.18.25L2,63.81l-.16.27-.08.13-.07.14-.27.57-.22.6a8,8,0,0,0,0,5.1l.22.6.27.57.07.14.08.14.16.27.17.26.18.25.19.25.09.12.1.12.41.45a11.17,11.17,0,0,0,.92.78l.24.18c.08.06.17.1.25.15l.5.31a11,11,0,0,0,1.06.46A8.34,8.34,0,0,0,7.15,76l.54.08.27.05h.27l.54,0,.52,0a7.06,7.06,0,0,0,1-.12,3.88,3.88,0,0,0,.49-.11l.47-.13.46-.16.22-.09.22-.1.42-.2A3.07,3.07,0,0,0,13,75l.38-.23.35-.26a8.07,8.07,0,0,0,2.06-2.3,7.5,7.5,0,0,0,.9-2.16,4,4,0,0,0,.11-.44l.06-.4c0-.12,0-.23,0-.34l0-.28,0-.39c0-.08,0-.13,0-.13a1.16,1.16,0,0,1,0,.13v.68c0,.1,0,.21-.05.34l-.06.4a4.5,4.5,0,0,1-.1.44,7.83,7.83,0,0,1-.89,2.18,8,8,0,0,1-2.07,2.32l-.35.27-.38.23c-.13.08-.26.17-.4.24l-.42.2-.22.1-.22.09-.46.17-.48.13c-.17,0-.33.09-.5.11a7.06,7.06,0,0,1-1,.12,4.78,4.78,0,0,1-.53,0l-.54,0L8,76.2l-.27,0c-.18,0-.37,0-.55-.09A8.48,8.48,0,0,1,6,75.75,7.73,7.73,0,0,1,5,75.28L4.46,75l-.25-.16L4,74.64A7.77,7.77,0,0,1,3,73.85l-.42-.45-.1-.12-.1-.12-.18-.25-.19-.25-.17-.27-.16-.27L1.64,72l-.07-.14-.28-.58-.22-.61a8,8,0,0,1,0-5.16l.22-.6.28-.58.07-.14L1.72,64l.16-.27.17-.27.19-.25L2.42,63l.1-.13.1-.11L3,62.29A8.81,8.81,0,0,1,4,61.5l.24-.18.25-.16.51-.3A9.15,9.15,0,0,1,6,60.39a8.43,8.43,0,0,1,1.09-.31c.18,0,.37-.06.55-.09L8,60a1.23,1.23,0,0,1,.27,0l.55,0,.53,0a8.78,8.78,0,0,1,1,.13,3,3,0,0,1,.5.11l.48.13.46.17.22.08.22.1.42.21c.14.06.27.16.4.23l.38.24.35.26a8.07,8.07,0,0,1,2.07,2.33,7.78,7.78,0,0,1,.89,2.17c0,.16.09.31.1.45l.06.4c0,.12,0,.23.05.34v.67C17,68,17,68.07,17,68.07Z"/><path class="cls-2" d="M7.37,72.49c-.11,0-.1-.16-.15-.23L7.12,72l-.22-.51h0l-.54.14-.28.08c-.09,0-.17.1-.28,0a7.34,7.34,0,0,1,.46-1l.49-1,.13-.26L7,69.32s.09-.12.14-.09a.65.65,0,0,1,.54.18c.14.15.18.33.37.37a.68.68,0,0,0,.51-.11.4.4,0,0,1,.15,0c.05,0,.16,0,.13.12s-.08.17-.12.26l-.25.5C8.07,71.18,7.77,71.88,7.37,72.49Zm0,0c.36-.61.65-1.33,1-2L8.6,70l.12-.24s-.09,0-.17,0a.72.72,0,0,1-.56.1c-.21,0-.3-.27-.41-.39a.59.59,0,0,0-.49-.16c-.07,0-.08.1-.13.17l-.13.25-.5,1c-.16.33-.37.69-.48,1a6.63,6.63,0,0,0,1.06-.24h0l.21.52.1.25C7.28,72.33,7.28,72.46,7.37,72.48Z"/><path class="cls-2" d="M10.1,72.49c-.35-.53-.6-1.14-.91-1.71l-.43-.87c0-.06-.14-.15,0-.25a.37.37,0,0,1,.26,0,.61.61,0,0,0,.44.11.49.49,0,0,0,.33-.3.66.66,0,0,1,.42-.27h.26c.11.08.09.15.15.22l.22.44.86,1.74h0a.1.1,0,0,1-.09.17h0l-.51-.14-.51-.15h0l-.22.51-.11.26C10.2,72.33,10.21,72.46,10.1,72.49Zm0,0c.09,0,.09-.15.13-.23l.1-.26.21-.51v0h0l1,.25h0s0,0,0,0h0l-.86-1.74-.22-.43c0-.06-.07-.18-.1-.19h-.23a.54.54,0,0,0-.37.23.58.58,0,0,1-.37.33A.72.72,0,0,1,9,69.75a.33.33,0,0,0-.21,0c-.05,0,0,.11.05.18l.43.87C9.52,71.33,9.77,72,10.1,72.48Z"/><path class="cls-11" d="M9.33,70a.67.67,0,0,1-.34-.1.49.49,0,0,0-.51,0,.63.63,0,0,1-.33.09.6.6,0,0,1-.54-.32.45.45,0,0,0-.44-.25h0a.61.61,0,0,1-.6-.63.46.46,0,0,0-.25-.45A.6.6,0,0,1,6,68a.64.64,0,0,1,.09-.5.52.52,0,0,0,0-.51.63.63,0,0,1-.07-.5.6.6,0,0,1,.29-.37.44.44,0,0,0,.25-.44A.62.62,0,0,1,7.17,65h0a.47.47,0,0,0,.41-.25.62.62,0,0,1,.54-.33.64.64,0,0,1,.33.1.49.49,0,0,0,.51,0,.63.63,0,0,1,.33-.09.6.6,0,0,1,.54.32.47.47,0,0,0,.44.25h0a.56.56,0,0,1,.43.19.59.59,0,0,1,.16.44.46.46,0,0,0,.26.44.65.65,0,0,1,.31.38.64.64,0,0,1-.09.5.5.5,0,0,0,0,.5.65.65,0,0,1,.07.51.59.59,0,0,1-.29.36.49.49,0,0,0-.26.45.55.55,0,0,1-.16.44.59.59,0,0,1-.47.19h0a.47.47,0,0,0-.41.25A.59.59,0,0,1,9.33,70Z"/><path class="cls-8" d="M8.73,69.17a2,2,0,1,1,2-2A2,2,0,0,1,8.73,69.17Z"/><path class="cls-2" d="M8.73,69.17a2,2,0,1,1,0-4,2,2,0,1,1,0,4Zm0,0a1.95,1.95,0,1,0-1.94-2A2,2,0,0,0,8.73,69.16Z"/><path class="cls-8" d="M9.4,68.35H9.3L8.73,68l-.55.3a.12.12,0,0,1-.16,0,.1.1,0,0,1,0-.13l.1-.67-.45-.45a.11.11,0,0,1,0-.11.11.11,0,0,1,.06-.09h0l0,0,.64-.11.29-.6s0,0,0,0a.19.19,0,0,1,.1,0s.11,0,.12.08l.29.59.63.11a.12.12,0,0,1,.12.12.17.17,0,0,1,0,.12l-.47.46.11.67a.17.17,0,0,1,0,.13Z"/><path class="cls-2" d="M9.4,68.35c-.13,0-.23-.09-.34-.14L8.73,68h0l-.56.3h0A.15.15,0,0,1,8,68.17H8l.1-.66v0l-.46-.45h0a.15.15,0,0,1,0-.25c.08-.07.16,0,.24-.07l.46-.08,0,0,.21-.44c0-.07,0-.14.12-.22a.17.17,0,0,1,.26.07h0l.29.6,0,0,.63.11h0a.16.16,0,0,1,.14.22c0,.11-.11.13-.16.2l-.35.33h0l.09.67h0C9.5,68.26,9.48,68.35,9.4,68.35Zm0,0c.07,0,.08-.09.08-.15h0l-.12-.67h0l.33-.35c.05-.06.14-.12.15-.17s0-.13-.08-.13h0l-.64-.1h0v0l-.28-.59h0s-.09-.08-.13,0-.07.13-.11.2l-.21.43v0h0l-.46.07c-.08,0-.17,0-.21,0a.09.09,0,0,0,0,.15h0l.45.45h0v0L8,68.18H8c0,.09.09.19.17.13h0l.56-.3h0l.33.19C9.18,68.25,9.27,68.36,9.4,68.35Z"/><circle class="cls-8" cx="0.69" cy="45.3" r="8.13" transform="translate(-43.45 35.11) rotate(-76.13)"/><path class="cls-11" d="M8.82,45.3a1.16,1.16,0,0,0,0-.13l0-.39,0-.28c0-.11,0-.22,0-.34l-.06-.4a4,4,0,0,0-.11-.44,7.79,7.79,0,0,0-.9-2.16,8.09,8.09,0,0,0-2.06-2.3l-.35-.26-.38-.23a3.07,3.07,0,0,0-.39-.23L4,37.94l-.21-.11-.22-.08-.46-.16-.48-.13a3.88,3.88,0,0,0-.49-.11,6.77,6.77,0,0,0-1-.12l-.53,0-.53,0H-.17l-.27,0-.55.08a8.69,8.69,0,0,0-1.07.32,10,10,0,0,0-1.06.46l-.5.31c-.08.05-.17.09-.25.15l-.24.18a9.73,9.73,0,0,0-.92.78l-.41.45-.1.12-.09.12-.19.25-.19.25-.16.26-.16.27-.08.14-.07.14-.28.57-.22.6a8.67,8.67,0,0,0-.41,2.55A8.72,8.72,0,0,0-7,47.85l.22.6.28.57.07.14.08.13.16.27.16.27.19.25.18.24.1.13.1.11L-5,51a8.44,8.44,0,0,0,.92.78l.24.18.25.16c.17.1.33.21.5.3a7.08,7.08,0,0,0,1.06.46A8.69,8.69,0,0,0-1,53.21l.55.09.27,0,.27,0,.53,0a4.61,4.61,0,0,0,.53,0,8.77,8.77,0,0,0,1-.11,4.21,4.21,0,0,0,.48-.12c.17,0,.33-.07.48-.12l.46-.17.22-.08.22-.1.42-.2c.14-.07.26-.16.39-.23s.26-.15.38-.24l.35-.26a8.06,8.06,0,0,0,2.06-2.29,7.79,7.79,0,0,0,.9-2.16,4.2,4.2,0,0,0,.11-.45l.06-.39c0-.12,0-.24,0-.34l0-.29,0-.38c0-.09,0-.13,0-.13v.52l0,.28c0,.11,0,.22,0,.34l-.06.4c0,.14-.07.29-.1.45a7.78,7.78,0,0,1-.89,2.17,8.2,8.2,0,0,1-2.07,2.33l-.35.26-.38.24c-.13.07-.26.17-.4.23l-.42.21-.22.1-.23.08-.45.17-.49.13a2.68,2.68,0,0,1-.49.11,8.78,8.78,0,0,1-1,.13l-.54,0-.54,0a1.23,1.23,0,0,1-.27,0l-.27,0c-.18,0-.37-.05-.55-.09A8.43,8.43,0,0,1-2.09,53a8.47,8.47,0,0,1-1.07-.47c-.17-.09-.34-.2-.51-.3l-.25-.16-.24-.18a8.81,8.81,0,0,1-.93-.79l-.42-.46-.1-.11-.1-.13-.19-.25-.18-.25-.17-.27-.16-.27-.09-.14-.07-.14-.27-.58-.23-.6a8.93,8.93,0,0,1-.42-2.58,8.88,8.88,0,0,1,.42-2.58l.23-.61.27-.58.07-.14.09-.14.16-.27.17-.27.18-.25.19-.25.1-.12.1-.12.42-.45a7.77,7.77,0,0,1,.93-.79l.24-.18.25-.16c.17-.1.34-.21.51-.3a7.24,7.24,0,0,1,1.07-.47A8.48,8.48,0,0,1-1,37.3c.18,0,.36-.06.55-.09l.27,0,.27,0,.54,0a4.87,4.87,0,0,1,.54,0,7.06,7.06,0,0,1,1,.12c.17,0,.33.08.49.11l.48.13.46.17.23.09.22.1.42.2c.14.07.27.16.4.24l.38.23.35.27A8,8,0,0,1,7.7,41.13a7.83,7.83,0,0,1,.89,2.18c0,.16.08.3.1.44l.06.4c0,.12,0,.24,0,.34l0,.29v.52Z"/><path class="cls-5" d="M.9,41.76l.88,1.79a.26.26,0,0,0,.18.12l2,.29a.23.23,0,0,1,.12.39L2.63,45.74a.22.22,0,0,0-.07.2l.34,2a.23.23,0,0,1-.33.24L.8,47.22a.2.2,0,0,0-.21,0l-1.76.92a.22.22,0,0,1-.33-.24l.33-2a.24.24,0,0,0-.06-.2l-1.43-1.39A.23.23,0,0,1-2.53,44l2-.29a.24.24,0,0,0,.17-.12l.88-1.79A.23.23,0,0,1,.9,41.76Z"/><path class="cls-2" d="M.9,41.76l0,0a.26.26,0,0,0-.15-.07.23.23,0,0,0-.21.15l-.18.35-.47,1-.14.3-.08.15a.22.22,0,0,1-.15.12c-.25.05-.49.08-.76.12l-.83.12-.43.07a.19.19,0,0,0-.11.3l1.43,1.39a.28.28,0,0,1,.09.28l0,.27-.1.54-.18,1.11a.19.19,0,0,0,.08.21.12.12,0,0,0,.1,0,.28.28,0,0,0,.12,0l.52-.28,1.07-.56.14-.07a.28.28,0,0,1,.18,0,.46.46,0,0,1,.14.07l.14.07.53.28,1,.54a.19.19,0,0,0,.21,0,.18.18,0,0,0,0-.1.31.31,0,0,0,0-.13l-.1-.55-.18-1.07,0-.25a.29.29,0,0,1,.1-.27L3,45.33l.7-.67L4,44.33A.19.19,0,0,0,4,44a1,1,0,0,0-.2-.05l-.21,0-.4-.06-.76-.11-.34-.05-.17,0a.26.26,0,0,1-.14-.11l-.48-1L1,42l-.08-.16,0-.06,0,.05L1,42l.31.61.49,1a.2.2,0,0,0,.11.09l.16,0,.34.05.76.11.4,0,.21,0A1,1,0,0,1,4,44a.26.26,0,0,1,.14.21.28.28,0,0,1-.09.23l-.33.32-.7.68-.36.36a.18.18,0,0,0-.07.19l0,.26.19,1.07.09.55A.61.61,0,0,1,3,48a.26.26,0,0,1-.07.15.28.28,0,0,1-.32.07l-1-.54L1,47.37.86,47.3l-.13-.06a.22.22,0,0,0-.11,0l-.14.07-1.06.56-.52.27a.59.59,0,0,1-.16.06.33.33,0,0,1-.17,0,.3.3,0,0,1-.12-.3l.19-1.12.1-.54,0-.26a.19.19,0,0,0-.06-.2l-1.43-1.41a.25.25,0,0,1,0-.25.27.27,0,0,1,.19-.18l.44-.06.83-.12.75-.1a.23.23,0,0,0,.12-.1l.08-.15.14-.29.49-1,.18-.36a.25.25,0,0,1,.24-.15.22.22,0,0,1,.16.09S.9,41.76.9,41.76Z"/><circle class="cls-8" cx="0.69" cy="45.3" r="8.13" transform="translate(-43.45 35.11) rotate(-76.13)"/><path class="cls-11" d="M8.82,45.3a1.16,1.16,0,0,0,0-.13l0-.39,0-.28c0-.11,0-.22,0-.34l-.06-.4a4,4,0,0,0-.11-.44,7.79,7.79,0,0,0-.9-2.16,8.09,8.09,0,0,0-2.06-2.3l-.35-.26-.38-.23a3.07,3.07,0,0,0-.39-.23L4,37.94l-.21-.11-.22-.08-.46-.16-.48-.13a3.88,3.88,0,0,0-.49-.11,6.77,6.77,0,0,0-1-.12l-.53,0-.53,0H-.17l-.27,0-.55.08a8.69,8.69,0,0,0-1.07.32,10,10,0,0,0-1.06.46l-.5.31c-.08.05-.17.09-.25.15l-.24.18a9.73,9.73,0,0,0-.92.78l-.41.45-.1.12-.09.12-.19.25-.19.25-.16.26-.16.27-.08.14-.07.14-.28.57-.22.6a8.67,8.67,0,0,0-.41,2.55A8.72,8.72,0,0,0-7,47.85l.22.6.28.57.07.14.08.13.16.27.16.27.19.25.18.24.1.13.1.11L-5,51a8.44,8.44,0,0,0,.92.78l.24.18.25.16c.17.1.33.21.5.3a7.08,7.08,0,0,0,1.06.46A8.69,8.69,0,0,0-1,53.21l.55.09.27,0,.27,0,.53,0a4.61,4.61,0,0,0,.53,0,8.77,8.77,0,0,0,1-.11,4.21,4.21,0,0,0,.48-.12c.17,0,.33-.07.48-.12l.46-.17.22-.08.22-.1.42-.2c.14-.07.26-.16.39-.23s.26-.15.38-.24l.35-.26a8.06,8.06,0,0,0,2.06-2.29,7.79,7.79,0,0,0,.9-2.16,4.2,4.2,0,0,0,.11-.45l.06-.39c0-.12,0-.24,0-.34l0-.29,0-.38c0-.09,0-.13,0-.13v.52l0,.28c0,.11,0,.22,0,.34l-.06.4c0,.14-.07.29-.1.45a7.78,7.78,0,0,1-.89,2.17,8.2,8.2,0,0,1-2.07,2.33l-.35.26-.38.24c-.13.07-.26.17-.4.23l-.42.21-.22.1-.23.08-.45.17-.49.13a2.68,2.68,0,0,1-.49.11,8.78,8.78,0,0,1-1,.13l-.54,0-.54,0a1.23,1.23,0,0,1-.27,0l-.27,0c-.18,0-.37-.05-.55-.09A8.43,8.43,0,0,1-2.09,53a8.47,8.47,0,0,1-1.07-.47c-.17-.09-.34-.2-.51-.3l-.25-.16-.24-.18a8.81,8.81,0,0,1-.93-.79l-.42-.46-.1-.11-.1-.13-.19-.25-.18-.25-.17-.27-.16-.27-.09-.14-.07-.14-.27-.58-.23-.6a8.93,8.93,0,0,1-.42-2.58,8.88,8.88,0,0,1,.42-2.58l.23-.61.27-.58.07-.14.09-.14.16-.27.17-.27.18-.25.19-.25.1-.12.1-.12.42-.45a7.77,7.77,0,0,1,.93-.79l.24-.18.25-.16c.17-.1.34-.21.51-.3a7.24,7.24,0,0,1,1.07-.47A8.48,8.48,0,0,1-1,37.3c.18,0,.36-.06.55-.09l.27,0,.27,0,.54,0a4.87,4.87,0,0,1,.54,0,7.06,7.06,0,0,1,1,.12c.17,0,.33.08.49.11l.48.13.46.17.23.09.22.1.42.2c.14.07.27.16.4.24l.38.23.35.27A8,8,0,0,1,7.7,41.13a7.83,7.83,0,0,1,.89,2.18c0,.16.08.3.1.44l.06.4c0,.12,0,.24,0,.34l0,.29v.52Z"/><path class="cls-5" d="M.9,41.76l.88,1.79a.26.26,0,0,0,.18.12l2,.29a.23.23,0,0,1,.12.39L2.63,45.74a.22.22,0,0,0-.07.2l.34,2a.23.23,0,0,1-.33.24L.8,47.22a.2.2,0,0,0-.21,0l-1.76.92a.22.22,0,0,1-.33-.24l.33-2a.24.24,0,0,0-.06-.2l-1.43-1.39A.23.23,0,0,1-2.53,44l2-.29a.24.24,0,0,0,.17-.12l.88-1.79A.23.23,0,0,1,.9,41.76Z"/><path class="cls-2" d="M.9,41.76l0,0a.26.26,0,0,0-.15-.07.23.23,0,0,0-.21.15l-.18.35-.47,1-.14.3-.08.15a.22.22,0,0,1-.15.12c-.25.05-.49.08-.76.12l-.83.12-.43.07a.19.19,0,0,0-.11.3l1.43,1.39a.28.28,0,0,1,.09.28l0,.27-.1.54-.18,1.11a.19.19,0,0,0,.08.21.12.12,0,0,0,.1,0,.28.28,0,0,0,.12,0l.52-.28,1.07-.56.14-.07a.28.28,0,0,1,.18,0,.46.46,0,0,1,.14.07l.14.07.53.28,1,.54a.19.19,0,0,0,.21,0,.18.18,0,0,0,0-.1.31.31,0,0,0,0-.13l-.1-.55-.18-1.07,0-.25a.29.29,0,0,1,.1-.27L3,45.33l.7-.67L4,44.33A.19.19,0,0,0,4,44a1,1,0,0,0-.2-.05l-.21,0-.4-.06-.76-.11-.34-.05-.17,0a.26.26,0,0,1-.14-.11l-.48-1L1,42l-.08-.16,0-.06,0,.05L1,42l.31.61.49,1a.2.2,0,0,0,.11.09l.16,0,.34.05.76.11.4,0,.21,0A1,1,0,0,1,4,44a.26.26,0,0,1,.14.21.28.28,0,0,1-.09.23l-.33.32-.7.68-.36.36a.18.18,0,0,0-.07.19l0,.26.19,1.07.09.55A.61.61,0,0,1,3,48a.26.26,0,0,1-.07.15.28.28,0,0,1-.32.07l-1-.54L1,47.37.86,47.3l-.13-.06a.22.22,0,0,0-.11,0l-.14.07-1.06.56-.52.27a.59.59,0,0,1-.16.06.33.33,0,0,1-.17,0,.3.3,0,0,1-.12-.3l.19-1.12.1-.54,0-.26a.19.19,0,0,0-.06-.2l-1.43-1.41a.25.25,0,0,1,0-.25.27.27,0,0,1,.19-.18l.44-.06.83-.12.75-.1a.23.23,0,0,0,.12-.1l.08-.15.14-.29.49-1,.18-.36a.25.25,0,0,1,.24-.15.22.22,0,0,1,.16.09S.9,41.76.9,41.76Z"/></g></svg>