<svg id="Layer_1" data-name="Layer 1" xmlns="http://www.w3.org/2000/svg" xmlns:xlink="http://www.w3.org/1999/xlink" viewBox="0 0 64.15 84.1"><defs><style>.cls-1,.cls-2{fill:none;}.cls-2{stroke:#7c7c7c;stroke-miterlimit:10;stroke-width:0.23px;}.cls-3{clip-path:url(#clip-path);}.cls-4{fill:#f5f5f5;}.cls-5{fill:#e1e1e1;}.cls-6{fill:#ececec;}.cls-7{fill:#fff;}.cls-8{fill:#fafafa;}.cls-9{fill:#ff4f5b;}.cls-10{opacity:0.3;}.cls-11{fill:#1a2e35;}.cls-12{fill:#ffbf9d;}.cls-13{fill:#375a64;}.cls-14{fill:#ff9a6c;}.cls-15{fill:#b78876;}.cls-16{fill:#aa6550;}</style><clipPath id="clip-path"><rect class="cls-1" x="0.11" y="0.11" width="63.92" height="83.87"/></clipPath></defs><path class="cls-2" d="M116.36,1.87h54.82a0,0,0,0,1,0,0V85.75a0,0,0,0,1,0,0H116.36a9.1,9.1,0,0,1-9.1-9.1V11A9.1,9.1,0,0,1,116.36,1.87Z"/><g class="cls-3"><path class="cls-4" d="M60.78,16.48,57.8,24a1,1,0,0,0,.54,1.24l6.11,2.43a1,1,0,0,0,1.24-.53l3-7.44a2.12,2.12,0,0,0-1.18-2.76h0l.43-1.09-4-1.59-.41,1h0A2.13,2.13,0,0,0,60.78,16.48Z"/><polygon class="cls-5" points="63.85 14.38 63.65 14.88 67.59 16.62 67.85 15.98 63.85 14.38"/><path class="cls-6" d="M64.12,13.44h4a.65.65,0,0,1,.65.65v1.07a.42.42,0,0,1-.42.42H63.89a.42.42,0,0,1-.42-.42V14.09a.65.65,0,0,1,.65-.65Z" transform="translate(10.06 -23.44) rotate(21.72)"/><path class="cls-5" d="M63.89,14.78a4.86,4.86,0,0,1,.34-1,5.4,5.4,0,0,1,.45-1,5.18,5.18,0,0,1-.34,1A5,5,0,0,1,63.89,14.78Z"/><rect class="cls-6" x="60.5" y="19" width="6.17" height="4.08" rx="0.32" transform="translate(12.3 -22.03) rotate(21.72)"/><path class="cls-5" d="M65.41,23.66l0-.06.07-.18.25-.67c.23-.58.55-1.4.93-2.39l0,.06-5-2s.14-.06.07,0h0v0l0,.05,0,.11-.09.22-.17.43-.34.84-.63,1.58,0-.06L64,23.07l1,.43.28.12.09,0s0,0-.09,0l-.27-.1-1-.39-3.65-1.43,0,0,0-.05L61,20.06l.33-.84.17-.43.09-.22,0-.11,0-.05v-.05h0l.07,0,5,2,0,0v0l-1,2.4-.27.65-.07.17S65.41,23.67,65.41,23.66Z"/><path class="cls-5" d="M65.52,21.13a14.69,14.69,0,0,1-1.73-.63,13.92,13.92,0,0,1-1.68-.73,14.69,14.69,0,0,1,1.73.63A13.92,13.92,0,0,1,65.52,21.13Z"/><path class="cls-5" d="M65.29,21.71a14.69,14.69,0,0,1-1.73-.63,13.92,13.92,0,0,1-1.68-.73,14.69,14.69,0,0,1,1.73.63A13.92,13.92,0,0,1,65.29,21.71Z"/><path class="cls-5" d="M65.07,22.27a16.3,16.3,0,0,1-1.73-.63,15,15,0,0,1-1.68-.73,15.16,15.16,0,0,1,1.72.62A14.6,14.6,0,0,1,65.07,22.27Z"/><path class="cls-5" d="M67.25,16.81a18,18,0,0,1-1.88-.69,15.82,15.82,0,0,1-1.84-.8,18,18,0,0,1,1.88.69A16.83,16.83,0,0,1,67.25,16.81Z"/><path class="cls-7" d="M58.31,23.69a1.65,1.65,0,0,1,.12-.36l.37-1c.31-.82.76-1.94,1.25-3.17l.71-1.74a3.51,3.51,0,0,1,.79-1.32,1.7,1.7,0,0,1,.92-.48h.29l.09,0a2.06,2.06,0,0,0-.37,0,1.72,1.72,0,0,0-.88.48,4,4,0,0,0-.75,1.31c-.21.53-.45,1.12-.69,1.74L58.87,22.4l-.4,1Z"/><path class="cls-7" d="M65.17,27.62a1.41,1.41,0,0,1-.24-.19,2.59,2.59,0,0,0-.28-.24l-.37-.29a9.37,9.37,0,0,0-1-.69,10.78,10.78,0,0,0-1.36-.66,10.91,10.91,0,0,0-1.45-.46c-.46-.1-.87-.17-1.22-.21a4.64,4.64,0,0,0-.48,0l-.36,0a1.09,1.09,0,0,1-.31,0l.31,0h.36l.48,0a9.67,9.67,0,0,1,1.24.19,9.58,9.58,0,0,1,2.85,1.13,10,10,0,0,1,1,.72,4,4,0,0,1,.37.31l.26.24A1.5,1.5,0,0,1,65.17,27.62Z"/><rect class="cls-5" x="-11.96" y="27.79" width="19.7" height="27.06" rx="0.52" transform="translate(-18.13 3.17) rotate(-25.7)"/><rect class="cls-8" x="-11.02" y="28.4" width="17.5" height="25.19" transform="translate(-18.01 3.07) rotate(-25.7)"/><path class="cls-5" d="M.92,32.81S-1.72,34.14-5,35.72s-6,2.84-6,2.82S-8.34,37.2-5,35.62.91,32.78.92,32.81Z"/><path class="cls-5" d="M1.47,33.94s-2.64,1.34-5.93,2.92-6,2.84-6,2.81,2.63-1.33,5.92-2.91S1.45,33.92,1.47,33.94Z"/><path class="cls-5" d="M2,35.08S-.63,36.41-3.91,38s-6,2.84-6,2.82S-7.25,39.47-4,37.89,2,35.05,2,35.08Z"/><path class="cls-5" d="M2.56,36.21s-2.64,1.34-5.93,2.92-6,2.84-6,2.81S-6.7,40.61-3.42,39,2.55,36.18,2.56,36.21Z"/><path class="cls-5" d="M3.1,37.35S.47,38.68-2.82,40.26s-6,2.84-6,2.82,2.64-1.34,5.93-2.92S3.09,37.32,3.1,37.35Z"/><path class="cls-5" d="M3.65,38.48S1,39.82-2.27,41.4s-6,2.84-6,2.81,2.64-1.33,5.93-2.91S3.64,38.45,3.65,38.48Z"/><path class="cls-5" d="M.07,29.73a5.38,5.38,0,0,1-.93.51,4.74,4.74,0,0,1-1,.4,5.42,5.42,0,0,1,.92-.5A4.66,4.66,0,0,1,.07,29.73Z"/><path class="cls-5" d="M5.57,41.68a3.71,3.71,0,0,1-.72.41,3.17,3.17,0,0,1-.78.3A3.62,3.62,0,0,1,4.8,42,3,3,0,0,1,5.57,41.68Z"/><path class="cls-5" d="M6.07,42.58a3.13,3.13,0,0,1-.73.41,2.85,2.85,0,0,1-.77.31,3.19,3.19,0,0,1,.72-.41A3,3,0,0,1,6.07,42.58Z"/><path class="cls-5" d="M6.64,43.63a1.74,1.74,0,0,1-.52.32,2.08,2.08,0,0,1-.56.21s.21-.17.51-.32A2.08,2.08,0,0,1,6.64,43.63Z"/><path class="cls-5" d="M7.27,46.61s0,.07,0,.21a.84.84,0,0,1-.1.23.44.44,0,0,1-.27.2.37.37,0,0,1-.21,0,.49.49,0,0,1-.18-.14,4.23,4.23,0,0,1-.25-.42l-.54-1,.1,0,0,1.61,0,.41v.22l-.1-.2L4.79,46h.09a5.77,5.77,0,0,0-.21,1.52c0,.37,0,.58,0,.58s0-.05,0-.15a3.73,3.73,0,0,1,0-.43A4.9,4.9,0,0,1,4.79,46l0-.13.06.12c.24.49.52,1.06.83,1.67l-.11,0v-.4l.07-1.61v-.2l.09.18.52,1a3.76,3.76,0,0,0,.23.41.29.29,0,0,0,.31.13.58.58,0,0,0,.36-.38A.8.8,0,0,1,7.27,46.61Z"/><path class="cls-5" d="M7.24,45.8s-.88.66-2,1.43-2,1.36-2.06,1.33.88-.66,2-1.43S7.23,45.77,7.24,45.8Z"/><path class="cls-5" d="M8.34,46a17.28,17.28,0,0,1-1.46,1.33,15.11,15.11,0,0,1-1.54,1.25A17.28,17.28,0,0,1,6.8,47.24,19.35,19.35,0,0,1,8.34,46Z"/><path class="cls-9" d="M56.23,8.83a4.11,4.11,0,0,0-3.75-3.68,4.21,4.21,0,0,0-3,1.42,8.06,8.06,0,0,0-.75.9,6.61,6.61,0,0,0-.57-1,4.18,4.18,0,0,0-2.64-2,4.12,4.12,0,0,0-4.41,2.87,6.72,6.72,0,0,0,.9,5.49,10.74,10.74,0,0,0,5.86,4.84A13,13,0,0,0,54.28,14,6.73,6.73,0,0,0,56.23,8.83Z"/><path class="cls-8" d="M55.54,12.24H55.3l-.71-.06L52,11.93l.05,0c-.32.82-.68,1.78-1.09,2.83l-.06.17-.05-.17-1.09-4.54-.35-1.47.11,0-2,2.73,0,0h0L42.88,11l-1.29-.15-.35,0-.11,0h.12l.34,0,1.3.11,4.58.43,0,0,2-2.75.08-.1,0,.13c.12.48.23,1,.35,1.47L51,14.7h-.11l1.1-2.82,0,0h0l2.6.28.71.08.18,0Z"/><rect class="cls-9" x="14.57" y="13.29" width="1.43" height="6.42"/><rect class="cls-9" x="14.57" y="13.29" width="1.43" height="6.42" transform="translate(-1.21 31.79) rotate(-90)"/><path class="cls-9" d="M20.62,16.51a.45.45,0,0,0,0-.08l0-.26V16c0-.06,0-.14,0-.22a3.45,3.45,0,0,0-.12-.55,5.18,5.18,0,0,0-.59-1.42,5.4,5.4,0,0,0-3.59-2.49,5.39,5.39,0,0,0-2.79.23,6.07,6.07,0,0,0-.69.31,5.47,5.47,0,0,0-.65.41,7.2,7.2,0,0,0-.6.52,6.18,6.18,0,0,0-.52.61,5.33,5.33,0,0,0-.76,1.46,5.3,5.3,0,0,0,0,3.34,5.65,5.65,0,0,0,1.28,2.08,7.05,7.05,0,0,0,.6.51,5.54,5.54,0,0,0,.65.42,4.65,4.65,0,0,0,.69.3,5.32,5.32,0,0,0,6.38-2.26,5.06,5.06,0,0,0,.59-1.42,3.45,3.45,0,0,0,.12-.55l0-.22v-.19l0-.25a.62.62,0,0,0,0-.09.21.21,0,0,1,0,.09V17l0,.23a3.23,3.23,0,0,1-.1.55,4.87,4.87,0,0,1-.59,1.44,5.21,5.21,0,0,1-1.36,1.54,5.28,5.28,0,0,1-2.26,1,5.47,5.47,0,0,1-2.84-.23,6.36,6.36,0,0,1-.71-.31,5.67,5.67,0,0,1-.66-.42,6.1,6.1,0,0,1-.62-.52,8,8,0,0,1-.53-.63,5.27,5.27,0,0,1-.77-1.49,5.36,5.36,0,0,1,0-3.42,5.4,5.4,0,0,1,.77-1.49,7.87,7.87,0,0,1,.53-.62,6.1,6.1,0,0,1,.62-.52,5.74,5.74,0,0,1,.66-.43,6.36,6.36,0,0,1,.71-.31,5.46,5.46,0,0,1,2.84-.22,5.27,5.27,0,0,1,2.26,1,5.33,5.33,0,0,1,1.36,1.54,5,5,0,0,1,.59,1.44,3.33,3.33,0,0,1,.1.56l0,.22v.45A.17.17,0,0,1,20.62,16.51Z"/><path class="cls-9" d="M63.11,68.05s5.48-1.3,5.66-1.53l-4.5-11.6a8.67,8.67,0,0,0-3.12-4A8.9,8.9,0,0,0,59,49.8,15,15,0,0,0,53.7,49l-7.6-.4a15.08,15.08,0,0,0-6,1.66,12.09,12.09,0,0,0-5.63,6.2L31.06,65l8.6,1.8L40,75.9l-1.3,12.63H62.43l-.16-20h0Z"/><g class="cls-10"><path class="cls-7" d="M67.83,65s-1.41.49-3.17,1-3.19,1-3.2.94,1.41-.49,3.17-1S67.82,65,67.83,65Z"/></g><path class="cls-11" d="M43,56.85l-.14-.2c-.09-.13-.22-.32-.39-.54a7.84,7.84,0,0,0-.65-.76,10.29,10.29,0,0,0-.89-.82c-.34-.27-.68-.5-1-.7a9.87,9.87,0,0,0-.88-.47l-.61-.27-.23-.1a.9.9,0,0,1,.24.07,4.17,4.17,0,0,1,.63.24,7.45,7.45,0,0,1,.89.45,9.71,9.71,0,0,1,1,.7,10.68,10.68,0,0,1,.9.84,7.44,7.44,0,0,1,.63.78,5.78,5.78,0,0,1,.37.56A.85.85,0,0,1,43,56.85Z"/><path class="cls-11" d="M41.87,59.62s-.24,2.79-.59,6.24-.66,6.23-.69,6.22.24-2.79.59-6.23S41.85,59.61,41.87,59.62Z"/><path class="cls-11" d="M60.56,54.44s-.05-.22-.12-.57a9.64,9.64,0,0,0-.38-1.34,9.44,9.44,0,0,0-.56-1.27,4,4,0,0,1-.26-.52.93.93,0,0,1,.1.13c0,.08.13.2.22.36a7.27,7.27,0,0,1,.6,1.27,8.82,8.82,0,0,1,.35,1.36,2.87,2.87,0,0,1,.05.42C60.57,54.38,60.57,54.44,60.56,54.44Z"/><path class="cls-11" d="M61,64.21a1.75,1.75,0,0,1,0-.28c0-.17-.05-.43-.08-.75-.06-.64-.13-1.52-.16-2.49s0-1.86,0-2.5c0-.32,0-.58,0-.76a2.21,2.21,0,0,1,0-.28,1.23,1.23,0,0,1,0,.28v.76c0,.64,0,1.52.05,2.49s.08,1.86.13,2.49l.05.76A1.48,1.48,0,0,1,61,64.21Z"/><path class="cls-7" d="M49.55,62.57a38.64,38.64,0,0,1-6-.11v.78h6Z"/><g class="cls-10"><path class="cls-7" d="M55.5,49.64a1.13,1.13,0,0,1,0,.12l.06.34c0,.3.09.75.13,1.31.09,1.12.17,2.72.19,4.61v.07l-.07,0c-1.19-.58-2.53-1.21-3.92-1.91l-6.81-3.4-2.06-1-.55-.28-.15-.08,0,0,0,0,.15.07.56.27,2.07,1L52,54.06c1.39.7,2.73,1.33,3.92,1.92l-.06,0c0-1.88-.09-3.48-.16-4.61,0-.56-.08-1-.11-1.31l0-.34A1.09,1.09,0,0,1,55.5,49.64Z"/></g><g class="cls-10"><path class="cls-7" d="M41.21,65.8l-.1,0-.28-.06-1-.26c-.87-.22-2.06-.53-3.38-.85S33.9,64,33,63.82l-1-.24-.28-.07c-.07,0-.1,0-.1,0l.1,0,.28,0,1,.2c.87.18,2.08.45,3.4.77s2.51.63,3.37.87l1,.29.27.08Z"/></g><path class="cls-11" d="M54.46,48.22a2.76,2.76,0,0,1,1,1,9.38,9.38,0,0,1,1.2,3.17,13.14,13.14,0,0,1,.22,1.87c0,.28,0,.56,0,.81s0,.5,0,.71l-.06.59c0,.17,0,.32-.07.43a2.09,2.09,0,0,1-.09.37s0-.13,0-.38l0-.43,0-.58c0-.22,0-.46,0-.71s0-.52,0-.81a16.62,16.62,0,0,0-.23-1.83,10.13,10.13,0,0,0-1.13-3.14,4.72,4.72,0,0,0-.62-.79C54.56,48.31,54.45,48.24,54.46,48.22Z"/><path class="cls-11" d="M46,48.28a5.49,5.49,0,0,1-.4.57,8.67,8.67,0,0,0-.88,1.64A11.66,11.66,0,0,0,44,53.18c-.14,1-.19,2.2-.27,3.41S43.68,59,43.68,60v2.81c0,.8,0,1.44,0,1.89a3.47,3.47,0,0,1-.07.69,2.88,2.88,0,0,1,0-.69l-.05-1.89c0-.8,0-1.75-.06-2.8s0-2.22.05-3.45.14-2.37.29-3.43a10.89,10.89,0,0,1,.73-2.73,6.91,6.91,0,0,1,1-1.63A2.42,2.42,0,0,1,46,48.28Z"/><path class="cls-11" d="M58.53,63.92a2.78,2.78,0,0,1,0-.62c0-.4,0-1,0-1.69V60.45c0-.42,0-.87,0-1.33A2.29,2.29,0,0,0,58,57.81a1.84,1.84,0,0,0-1.32-.62,2,2,0,0,0-1.38.54,2.32,2.32,0,0,0-.69,1.21c-.12.44-.17.89-.24,1.3l-.18,1.15c-.11.71-.21,1.27-.28,1.67a2.88,2.88,0,0,1-.13.6,4.67,4.67,0,0,1,.06-.62c0-.39.12-1,.21-1.67l.16-1.15c.06-.41.11-.86.22-1.33a2.57,2.57,0,0,1,.75-1.31,2.23,2.23,0,0,1,1.5-.58,1.92,1.92,0,0,1,1.46.69,2.37,2.37,0,0,1,.52,1.42c0,.48,0,.92,0,1.34v1.16c0,.71,0,1.29,0,1.69S58.54,63.92,58.53,63.92Z"/><path class="cls-11" d="M56.72,55.36A3.2,3.2,0,0,1,56,57.23a2.56,2.56,0,0,1,1.2,0,4.17,4.17,0,0,1-.32-1.89"/><path class="cls-11" d="M58.53,59.62a4,4,0,0,0-.29-.74,2.33,2.33,0,0,0-.55-.66,2,2,0,0,0-.92-.43,2,2,0,0,0-1,.1,2.1,2.1,0,0,0-.72.44,3.87,3.87,0,0,0-.52.61,1.32,1.32,0,0,1,.42-.71,2.16,2.16,0,0,1,1.87-.64,2.15,2.15,0,0,1,1,.5,2.31,2.31,0,0,1,.55.72A1.34,1.34,0,0,1,58.53,59.62Z"/><path class="cls-12" d="M63.54,80.81A3.16,3.16,0,0,0,66.17,79a7.51,7.51,0,0,0,.71-3.24,26.1,26.1,0,0,0-1.07-8.74l-4.88.85,1.33,13.15Z"/><polygon class="cls-11" points="43.79 82.45 59.69 81.87 63.55 63.24 46.8 64.17 43.79 82.45"/><path class="cls-13" d="M52,63.85l.23-.47,1.27-.1s.33-.83,2.14-.91c1.62-.08,1.69.74,1.69.74h.88v.4Z"/><path class="cls-12" d="M60.84,76.45l1.2-.36a1.66,1.66,0,0,1,.7,0h0a1.57,1.57,0,0,1,.75.4,9.76,9.76,0,0,1,1.13,1.23,1.14,1.14,0,0,1,0,1c-.13.18.3,1.1.25,1.41a2,2,0,0,1-.25.75c-.1.13,0,.57-.27.9a4,4,0,0,1-.51.54,27.36,27.36,0,0,1-3.63,0,4.78,4.78,0,0,1-.89-.74s-.29-.54.16-.6l-1.88-.72a.43.43,0,0,1-.27-.56.29.29,0,0,1,.16-.18s-.84-.27-1-.36c-.39-.17-.54-1.08.27-1,.43.06,1,.18,1,.18a.6.6,0,0,1,.12-.8c.26-.18,1.44,0,1.44,0l1.55-1.1Z"/><path class="cls-14" d="M61.26,81.41a2.64,2.64,0,0,1-1-.14,2.48,2.48,0,0,1-.9-.41s.4.17.93.31S61.26,81.39,61.26,81.41Z"/><path class="cls-14" d="M60.54,80.24A13.83,13.83,0,0,1,59,79.89a13.59,13.59,0,0,1-1.51-.43A12.9,12.9,0,0,1,59,79.8,12.35,12.35,0,0,1,60.54,80.24Z"/><path class="cls-14" d="M60.93,79.07s-.75-.13-1.65-.34-1.64-.41-1.64-.43a13.25,13.25,0,0,1,1.66.33A14,14,0,0,1,60.93,79.07Z"/><path class="cls-14" d="M62.16,77.56a2.57,2.57,0,0,1-.43.13l-.47.12-.27.07a.85.85,0,0,1-.32,0,1.06,1.06,0,0,1-.31,0l-.28-.06-.47-.11a2.57,2.57,0,0,1-.43-.13,1.62,1.62,0,0,1,.45.06l.47.09c.18,0,.37.09.57.11a2.61,2.61,0,0,0,.57-.09l.47-.1A1.43,1.43,0,0,1,62.16,77.56Z"/><path class="cls-14" d="M62.37,78.19s.05,0,.09.12a.57.57,0,0,1-.21.67c-.08,0-.14.06-.14,0s.19-.13.27-.38S62.34,78.2,62.37,78.19Z"/><path class="cls-14" d="M62.3,79.47s.1.12.09.3-.1.31-.12.3,0-.14,0-.3S62.27,79.48,62.3,79.47Z"/><path class="cls-14" d="M62.32,80.86s.07.08,0,.2-.1.18-.12.16,0-.09,0-.18S62.29,80.87,62.32,80.86Z"/><path class="cls-14" d="M62.68,77.48a1.14,1.14,0,0,1-.32,0l-.34,0a1.33,1.33,0,0,0-.4,0,1.07,1.07,0,0,0-.36.16c-.11.07-.2.15-.29.2a.5.5,0,0,1-.3.11s.11-.05.27-.17a1.74,1.74,0,0,1,.66-.4h.23l.2,0,.34.07A1.49,1.49,0,0,1,62.68,77.48Z"/><path class="cls-14" d="M64.59,80.87a1.45,1.45,0,0,1,.09-.23,2.07,2.07,0,0,0,.13-.66,1.9,1.9,0,0,0-.07-.46c0-.17-.12-.33-.16-.53a1.8,1.8,0,0,1,0-.61,1,1,0,0,0-.11-.6,2.73,2.73,0,0,0-.34-.54c-.13-.16-.25-.32-.38-.46a2.22,2.22,0,0,0-.78-.61,1.32,1.32,0,0,0-.66-.1c-.16,0-.24.06-.24.05l0,0,.18-.06a1.36,1.36,0,0,1,.69.07,2.31,2.31,0,0,1,.83.62l.39.47a2.35,2.35,0,0,1,.35.55,1.13,1.13,0,0,1,.12.65,1.71,1.71,0,0,0,0,.58c0,.18.11.36.15.53a2,2,0,0,1,.06.48,1.66,1.66,0,0,1-.17.67C64.64,80.8,64.6,80.88,64.59,80.87Z"/><path class="cls-12" d="M53.46,71.66,40.41,73.73,41,66.92l-7.26-1.4L32.85,75.6l-.15,2.31a4.51,4.51,0,0,0,1.89,4h0a4.5,4.5,0,0,0,4,.6l2.8-.91,13.68-4.87"/><path class="cls-12" d="M61.36,70.25a.37.37,0,0,0-.37-.43,19.57,19.57,0,0,0-3.43.2c-.86.25-4.1,1.64-4.1,1.64l1.37,5.06,5,0s1.81-.83,1.83-1.19c0-.19,0-.68,0-.68l.54-.29c.82-.52.3-1.51.3-1.51a1.22,1.22,0,0,0,.59-.88.9.9,0,0,0-.44-.84s.23-.8-.19-1a1.76,1.76,0,0,0-1.13.06A.29.29,0,0,0,61.36,70.25Z"/><path class="cls-14" d="M61.65,70.34l-.16,0-.43.09c-.36.07-.87.12-1.43.18a11.12,11.12,0,0,0-1.41.22,4.84,4.84,0,0,0-.57.18s.05,0,.14-.09a1.94,1.94,0,0,1,.41-.16,9.42,9.42,0,0,1,1.42-.24l1.43-.16A5.41,5.41,0,0,1,61.65,70.34Z"/><path class="cls-14" d="M62.58,71.35a1.21,1.21,0,0,1-.35.18,5,5,0,0,1-.9.26c-.36.08-.69.13-.93.16A1.87,1.87,0,0,1,60,72a11.14,11.14,0,0,1,1.3-.28,9.28,9.28,0,0,0,.9-.24A2.82,2.82,0,0,1,62.58,71.35Z"/><path class="cls-14" d="M62.44,73.11a4.22,4.22,0,0,1-1.06.36,3.58,3.58,0,0,1-1.12.13s.49-.09,1.09-.23S62.43,73.08,62.44,73.11Z"/><path class="cls-14" d="M62.13,74.61a2.52,2.52,0,0,1-.81.3,3,3,0,0,1-.86.11,6.14,6.14,0,0,1,.84-.2A5.78,5.78,0,0,1,62.13,74.61Z"/><path class="cls-14" d="M59.55,73.71s0,.05-.16.06a.59.59,0,0,1-.37-.11.53.53,0,0,1-.22-.32c0-.1,0-.16,0-.16s.05.24.28.4A.89.89,0,0,0,59.55,73.71Z"/><path class="cls-14" d="M59.44,75.28s-.19,0-.36-.11a.4.4,0,0,1-.16-.35s.08.15.22.27S59.45,75.25,59.44,75.28Z"/><path class="cls-14" d="M58.87,72.09s-.13.07-.26,0-.12-.24-.09-.24.06.09.15.16S58.86,72.07,58.87,72.09Z"/><path class="cls-14" d="M53.46,71.66l0,0,.12-.06.46-.2c.4-.18,1-.43,1.73-.73L57,70.16a6,6,0,0,1,.71-.22c.25,0,.52-.07.79-.09.54,0,1.12-.07,1.72-.07h.68a.53.53,0,0,1,.25,0,.4.4,0,0,1,.21.45.68.68,0,0,1,0,.07l-.06,0-.11.06-.24.08a.06.06,0,0,1-.06,0s0,0,0,0a4,4,0,0,1,.62-.14,2,2,0,0,1,.65,0,.56.56,0,0,1,.32.13.61.61,0,0,1,.16.32,1.73,1.73,0,0,1,0,.68l0,0a.92.92,0,0,1,.28.24,1,1,0,0,1,.14.88,1.28,1.28,0,0,1-.57.68l0-.06a1.53,1.53,0,0,1,.16.86,1,1,0,0,1-.47.71h0l-.55.29,0,0c0,.13,0,.26,0,.39s0,.13,0,.19v.1a.36.36,0,0,1,0,.11,1.23,1.23,0,0,1-.29.27l-.3.2a12.4,12.4,0,0,1-1.24.65h0l-3.62,0-1,0h1l3.62,0h0A13.2,13.2,0,0,0,61,76.09l.3-.2a.89.89,0,0,0,.26-.25s0,0,0-.06v-.1c0-.06,0-.12,0-.19s0-.25,0-.38a.05.05,0,0,1,0,0l.54-.29h0a.89.89,0,0,0,.42-.64,1.44,1.44,0,0,0-.15-.81,0,0,0,0,1,0-.06,1.22,1.22,0,0,0,.53-.63.89.89,0,0,0-.13-.79,1,1,0,0,0-.24-.22.05.05,0,0,1,0,0,1.4,1.4,0,0,0,0-.64.53.53,0,0,0-.13-.27.52.52,0,0,0-.26-.11,2.22,2.22,0,0,0-.63,0,4.15,4.15,0,0,0-.61.14l0-.09.22-.08.1,0s.07-.05.08-.05a.32.32,0,0,0,0-.19.4.4,0,0,0-.14-.15.49.49,0,0,0-.21,0h-.68q-.9,0-1.71.06a6.18,6.18,0,0,0-.78.09,5.31,5.31,0,0,0-.71.21l-1.23.47-1.74.71-.46.19-.12,0Z"/><path class="cls-14" d="M40.46,73.72a5.21,5.21,0,0,0-1,.83,5,5,0,0,0-.65,1.1,1.32,1.32,0,0,1,.1-.37,3.13,3.13,0,0,1,.47-.79,3,3,0,0,1,.7-.61A1.14,1.14,0,0,1,40.46,73.72Z"/><path class="cls-12" d="M57.51,33.36A6.6,6.6,0,0,0,51,27.28h-.34c-3.69.21-5.57,3.45-5.26,7.13L46,49.14a.64.64,0,0,0,.38.57l8.26,3.88-.25-7.73A4.24,4.24,0,0,0,58,41.78C58,40.07,57.76,36.54,57.51,33.36Z"/><path class="cls-14" d="M54.41,45.85a8.65,8.65,0,0,1-4.64-1.36s1.09,2.55,4.62,2.23Z"/><path class="cls-11" d="M56.25,35.56a.5.5,0,0,1-.49.5.48.48,0,0,1-.52-.45.51.51,0,0,1,.49-.51A.48.48,0,0,1,56.25,35.56Z"/><path class="cls-11" d="M56.74,35.09c-.06.06-.44-.22-1-.22s-.94.27-1,.21,0-.15.21-.28a1.41,1.41,0,0,1,1.59,0C56.72,34.94,56.77,35.06,56.74,35.09Z"/><path class="cls-11" d="M50.91,35.72a.5.5,0,0,1-.49.51.49.49,0,0,1-.52-.46.51.51,0,0,1,.49-.51A.49.49,0,0,1,50.91,35.72Z"/><path class="cls-11" d="M51.4,35.18c-.07.06-.45-.22-1-.22s-.94.27-1,.21,0-.15.21-.28a1.36,1.36,0,0,1,.8-.24,1.32,1.32,0,0,1,.79.25C51.37,35,51.43,35.15,51.4,35.18Z"/><path class="cls-11" d="M53.36,39.22a3.21,3.21,0,0,1,.89-.16c.14,0,.27,0,.29-.14a.69.69,0,0,0-.09-.41L54,37.45a17.6,17.6,0,0,1-.92-2.77,19.19,19.19,0,0,1,1.14,2.69c.14.37.27.73.39,1.07a.8.8,0,0,1,.07.54.31.31,0,0,1-.23.2,1.11,1.11,0,0,1-.23,0A4.28,4.28,0,0,1,53.36,39.22Z"/><path class="cls-11" d="M51.76,39.59c.09,0,.09.58.59,1s1.14.36,1.14.44-.14.12-.4.12a1.43,1.43,0,0,1-1-.33,1.28,1.28,0,0,1-.46-.84C51.66,39.73,51.72,39.58,51.76,39.59Z"/><path class="cls-11" d="M51.54,33.05c0,.15-.59.07-1.23.15s-1.16.25-1.24.12,0-.21.26-.35a2.07,2.07,0,0,1,.92-.32,2,2,0,0,1,1,.12C51.45,32.86,51.57,33,51.54,33.05Z"/><path class="cls-11" d="M56.55,33.51c-.1.13-.47,0-.92,0s-.84.08-.92,0,0-.18.18-.3a1.26,1.26,0,0,1,.75-.2,1.28,1.28,0,0,1,.74.25C56.54,33.33,56.59,33.45,56.55,33.51Z"/><path class="cls-12" d="M45.88,37c-.06,0-2.43-.73-2.36,1.69A1.82,1.82,0,0,0,46,40.5C46,40.43,45.88,37,45.88,37Z"/><path class="cls-14" d="M45.46,39.61s0,0-.11.06a.42.42,0,0,1-.32,0,1.06,1.06,0,0,1-.51-.92,1.51,1.51,0,0,1,.1-.61c.07-.18.18-.31.31-.33a.21.21,0,0,1,.25.1c0,.07,0,.12,0,.12s.06,0,0-.14a.26.26,0,0,0-.1-.15.34.34,0,0,0-.23,0,.58.58,0,0,0-.43.39,1.48,1.48,0,0,0-.13.68,1.1,1.1,0,0,0,.65,1,.44.44,0,0,0,.38-.07C45.46,39.66,45.47,39.61,45.46,39.61Z"/><path class="cls-11" d="M47.47,29.84l10.09.22a4.66,4.66,0,0,0-1.49-1.72,7.9,7.9,0,0,0-4.56-1.64c-1.65,0-5,2-6.19,3.11a2.62,2.62,0,0,0-1,1.69c-.15,1.31.58,2.8.87,4.08.15.66.44,2.67.44,2.67h0c.56,0,.77-.45.68-1l-.1-2.15a3.25,3.25,0,0,0,1-3.8C47.11,31.1,46.8,30.2,47.47,29.84Z"/><path class="cls-14" d="M49.59,37.49a.08.08,0,0,1-.08-.06s0-.07.05-.07.06,0,.07,0A.06.06,0,0,1,49.59,37.49Z"/><path class="cls-14" d="M50.63,37.25s-.07,0-.08-.06,0-.08.05-.08.06,0,.07.06S50.66,37.25,50.63,37.25Z"/><path class="cls-14" d="M51.32,37.24s-.06,0-.07-.09,0-.1,0-.11a.09.09,0,0,1,.07.09C51.38,37.19,51.36,37.23,51.32,37.24Z"/><path class="cls-14" d="M50.1,38.14s-.06,0-.06,0,0,0,.06,0,.06,0,.06,0S50.13,38.14,50.1,38.14Z"/><path class="cls-14" d="M51.05,37.92a.07.07,0,0,1-.07-.06s0-.07.06-.07.06,0,.06.06A.05.05,0,0,1,51.05,37.92Z"/><path class="cls-14" d="M56,37.34a.06.06,0,0,1-.07-.06s0-.07,0-.07a.05.05,0,0,1,.07,0A.06.06,0,0,1,56,37.34Z"/><path class="cls-14" d="M56.72,37.28a.07.07,0,0,1-.07-.07c0-.05,0-.08.05-.08a.06.06,0,0,1,.07.06C56.77,37.24,56.75,37.27,56.72,37.28Z"/><path class="cls-14" d="M55.38,37.36a.08.08,0,0,1-.07,0,.08.08,0,0,1,0-.07s.07,0,.07,0S55.42,37.35,55.38,37.36Z"/><path class="cls-14" d="M55.91,38.06a.07.07,0,0,1-.09,0s0-.08,0-.09a.05.05,0,0,1,.08,0A.05.05,0,0,1,55.91,38.06Z"/><path class="cls-14" d="M56.51,38a.06.06,0,0,1,0-.07s0,0,.07,0,.05,0,0,.06S56.54,38,56.51,38Z"/><path class="cls-11" d="M45.25,30a3,3,0,0,1,3-3.71,9.55,9.55,0,0,0,1.41.1c.87-.09,1.55-.79,2.36-1.13a3.07,3.07,0,0,1,3.62,1.08c.31.46.51,1,1,1.32A5.29,5.29,0,0,0,58,28a2.27,2.27,0,0,1,1.51,2.23,2.67,2.67,0,0,1-1.61,2.22,3.22,3.22,0,0,1-2.79-.2c-.76-.42-1.45-1.14-2.32-1.12s-1.69.88-2.57.7A2.5,2.5,0,0,1,49,31a2,2,0,0,0-1.2-.69c-.48,0-.72.62-.55,1.06l-2-1.44"/><path class="cls-13" d="M57.36,28.78l0,0-.05.1a2.32,2.32,0,0,1-.29.33,2.11,2.11,0,0,1-.6.35,1.86,1.86,0,0,1-.92.05,1.82,1.82,0,0,1-1-.55,12.16,12.16,0,0,1-.7-1.06,1.38,1.38,0,0,0-.49-.44,1.27,1.27,0,0,0-.67-.15,1.5,1.5,0,0,0-.68.18,1.28,1.28,0,0,0-.51.52,6.47,6.47,0,0,1-.36.69.85.85,0,0,1-.64.39,1.26,1.26,0,0,1-.71-.21,2.53,2.53,0,0,1-.53-.44,2.24,2.24,0,0,0-1-.71,1.28,1.28,0,0,0-1,.24,1.69,1.69,0,0,0-.55.69,3.15,3.15,0,0,0-.21.64,4.07,4.07,0,0,0-.07.43c0,.1,0,.15,0,.15v-.15c0-.1,0-.24,0-.43a2.73,2.73,0,0,1,.2-.67,1.84,1.84,0,0,1,.56-.72,1.37,1.37,0,0,1,1.08-.26,2.31,2.31,0,0,1,1,.73,2.34,2.34,0,0,0,.52.42,1.1,1.1,0,0,0,.65.19.74.74,0,0,0,.57-.35,6,6,0,0,0,.35-.67,1.35,1.35,0,0,1,.55-.56,1.74,1.74,0,0,1,.73-.2,1.54,1.54,0,0,1,.71.16,1.5,1.5,0,0,1,.52.48A12.21,12.21,0,0,0,54.58,29a1.67,1.67,0,0,0,.92.53,1.52,1.52,0,0,0,.88,0,1.72,1.72,0,0,0,.59-.32A2.2,2.2,0,0,0,57.36,28.78Z"/><path class="cls-13" d="M59.19,28.81a.69.69,0,0,1,0,.2,1.62,1.62,0,0,1,0,.54,1.83,1.83,0,0,1-.38.71,2.18,2.18,0,0,1-.8.58,3.25,3.25,0,0,1-1.76.2,3.43,3.43,0,0,1-.53-.11l-.18-.06s.27.05.72.1A3.39,3.39,0,0,0,58,30.75a2.11,2.11,0,0,0,.77-.55,1.71,1.71,0,0,0,.38-.67A2.26,2.26,0,0,0,59.19,28.81Z"/><path class="cls-5" d="M42,67.79a2,2,0,0,0,.43,1,1.37,1.37,0,0,0,1,.54,1.55,1.55,0,0,0,1.36-.69,3.88,3.88,0,0,0,.19-3,1.72,1.72,0,0,0-1.4-1.14A1.56,1.56,0,0,0,42,65.78"/><path class="cls-11" d="M42,65.78a1.18,1.18,0,0,1,.16-.4,1.47,1.47,0,0,1,.3-.41,1.41,1.41,0,0,1,.59-.34,1.23,1.23,0,0,1,.39-.06,1.3,1.3,0,0,1,.43.05,1.75,1.75,0,0,1,.76.55,2.29,2.29,0,0,1,.45.94,4,4,0,0,1,.08,1.11,3,3,0,0,1-.47,1.61,1.47,1.47,0,0,1-.62.47,1.8,1.8,0,0,1-.71.12h0a1.2,1.2,0,0,1-.51-.13,1.7,1.7,0,0,1-.38-.26,2.07,2.07,0,0,1-.41-.62A2,2,0,0,1,42,68a.72.72,0,0,1,0-.13v0a3.37,3.37,0,0,0,.18.6,1.91,1.91,0,0,0,.42.59,1.71,1.71,0,0,0,.37.25,1,1,0,0,0,.46.11h0a1.5,1.5,0,0,0,1.24-.57,3,3,0,0,0,.46-1.56,2.83,2.83,0,0,0-.51-2,1.59,1.59,0,0,0-.72-.53,1.26,1.26,0,0,0-.77,0,1.3,1.3,0,0,0-.57.31,1.7,1.7,0,0,0-.31.39A3.52,3.52,0,0,0,42,65.78Z"/><path class="cls-5" d="M41.53,67.83a2.06,2.06,0,0,0,.43,1,1.36,1.36,0,0,0,1,.53,1.53,1.53,0,0,0,1.36-.68,3.91,3.91,0,0,0,.19-3,1.7,1.7,0,0,0-1.4-1.13,1.54,1.54,0,0,0-1.51,1.18"/><path class="cls-11" d="M41.61,65.82a1.08,1.08,0,0,1,.15-.41,1.44,1.44,0,0,1,.31-.4,1.37,1.37,0,0,1,.58-.34A1.59,1.59,0,0,1,43,64.6a1.28,1.28,0,0,1,.43.06,1.62,1.62,0,0,1,.76.55,2.13,2.13,0,0,1,.45.93,4.1,4.1,0,0,1,.09,1.11,3.14,3.14,0,0,1-.48,1.62,1.55,1.55,0,0,1-.62.47,1.79,1.79,0,0,1-.71.11h0a1,1,0,0,1-.5-.12,1.61,1.61,0,0,1-.38-.27,1.81,1.81,0,0,1-.42-.61,2.08,2.08,0,0,1-.13-.46s0-.09,0-.12v0a3.28,3.28,0,0,0,.19.6,1.86,1.86,0,0,0,.41.59,1.69,1.69,0,0,0,.37.24.93.93,0,0,0,.47.11h0a1.45,1.45,0,0,0,1.24-.56,3,3,0,0,0,.46-1.56,2.87,2.87,0,0,0-.51-2,1.65,1.65,0,0,0-.72-.52.93.93,0,0,0-.4-.06,1.44,1.44,0,0,0-.37,0,1.57,1.57,0,0,0-.57.32,1.92,1.92,0,0,0-.31.38A2.73,2.73,0,0,0,41.61,65.82Z"/><path class="cls-5" d="M42.33,65.61a1,1,0,0,0-1,.58,1.71,1.71,0,0,0,0,1.22,1.53,1.53,0,0,0,.32.55.83.83,0,0,0,.55.27,1,1,0,0,0,.78-.46,1.73,1.73,0,0,0,.26-1.43.8.8,0,0,0-.66-.67"/><path class="cls-11" d="M42.57,65.67a.17.17,0,0,1,.08,0,.43.43,0,0,1,.2.07,1,1,0,0,1,.43.64,1.76,1.76,0,0,1-.12,1.15,1.45,1.45,0,0,1-.42.55.8.8,0,0,1-.72.17,1,1,0,0,1-.58-.47,2.33,2.33,0,0,1-.24-.65A1.45,1.45,0,0,1,41.39,66a1,1,0,0,1,.65-.41.53.53,0,0,1,.22,0s.07,0,.07,0a1.49,1.49,0,0,0-.28,0,1,1,0,0,0-.6.42,1.35,1.35,0,0,0-.16,1.07,2.45,2.45,0,0,0,.23.62,1,1,0,0,0,.53.43.72.72,0,0,0,.63-.16,1.4,1.4,0,0,0,.4-.51,1.71,1.71,0,0,0,.13-1.09.94.94,0,0,0-.38-.63A.68.68,0,0,0,42.57,65.67Z"/><path class="cls-11" d="M43.27,68.68s0-.06-.1-.13a.66.66,0,0,0-.32-.21,2.19,2.19,0,0,0-.39-.06c-.11,0-.17,0-.17,0s.06,0,.17,0a1.09,1.09,0,0,1,.42,0,.61.61,0,0,1,.35.26C43.29,68.61,43.28,68.68,43.27,68.68Z"/><path class="cls-11" d="M43.42,65.35s0,.07-.12.14a.83.83,0,0,1-.39.17,1,1,0,0,1-.43,0c-.11,0-.16-.08-.16-.09a2.6,2.6,0,0,0,.57,0A2.21,2.21,0,0,0,43.42,65.35Z"/><path class="cls-11" d="M16.34,30.79a2,2,0,0,0-1.49-1.74,11,11,0,0,1-2.28-.87,10.56,10.56,0,0,1-1.51-1.55,5.11,5.11,0,0,0-4.89-1.31,5.11,5.11,0,0,0-3.55,3.62,3.3,3.3,0,0,0,.82,3.3c1.06.9,2.64.7,4,.42s2.9-.55,4,.24a6,6,0,0,1,1.49,2,3.57,3.57,0,0,0,1.74,1.73c.79.28,1.87-.19,1.9-1"/><path class="cls-11" d="M16.28,31.24a2.27,2.27,0,0,0,.9,1.77,3.14,3.14,0,0,1,1.13,1.68c.1.8-.48,1.59-.31,2.37a6,6,0,0,0,.73,1.34,2.85,2.85,0,0,1,.15,2.09,9.39,9.39,0,0,1-1,2.76,11,11,0,0,1-5.36,3.2,20.6,20.6,0,0,1-5.92.33c-1.62-.1-3.48,0-4.83-2.26a16.62,16.62,0,0,1-1.42-4A6.2,6.2,0,0,1,.07,37.1c.2-.64.59-1.22.78-1.87a15.05,15.05,0,0,0,.25-2.52,5.78,5.78,0,0,1,8.22-4.57"/><path class="cls-12" d="M1.87,34c.15-2.33,1.7-5.18,4-4.93L13.12,31a1.35,1.35,0,0,1,1.22,1.38l-.81,17.45h.05s-1.65,4.93-6.44,3.42a2.8,2.8,0,0,1-1.57-2.4h0c0-.13,0-.25,0-.37a11.35,11.35,0,0,1,0-2.4h0c0-1.41,0-2,0-2s-3-.5-3.58-4.38A41.42,41.42,0,0,1,1.87,34Z"/><path class="cls-11" d="M3,36.37a.5.5,0,0,0,.48.51A.48.48,0,0,0,4,36.43a.5.5,0,0,0-.48-.5A.47.47,0,0,0,3,36.37Z"/><path class="cls-11" d="M2.55,35.68c.07.07.44-.21,1-.21s.93.27,1,.21,0-.15-.2-.27a1.35,1.35,0,0,0-.79-.25,1.33,1.33,0,0,0-.77.25C2.58,35.54,2.52,35.65,2.55,35.68Z"/><path class="cls-11" d="M8.3,36.37a.5.5,0,0,0,.48.51.48.48,0,0,0,.51-.45.5.5,0,0,0-.48-.5A.47.47,0,0,0,8.3,36.37Z"/><path class="cls-11" d="M7.81,35.8c.07.06.44-.22,1-.22s.92.28,1,.21,0-.15-.2-.27a1.42,1.42,0,0,0-.79-.25,1.47,1.47,0,0,0-.78.25C7.84,35.65,7.78,35.77,7.81,35.8Z"/><path class="cls-11" d="M5.86,39.76A3.42,3.42,0,0,0,5,39.6c-.13,0-.26,0-.28-.13a.63.63,0,0,1,.09-.41l.4-1a17.69,17.69,0,0,0,.92-2.72A17.52,17.52,0,0,0,5,37.94c-.14.37-.27.71-.39,1.05a.78.78,0,0,0-.07.53.3.3,0,0,0,.22.2,1.11,1.11,0,0,0,.23,0A3.41,3.41,0,0,0,5.86,39.76Z"/><path class="cls-14" d="M5.48,46.09a9.94,9.94,0,0,0,5.2-1.37S9.36,47.4,5.48,47Z"/><path class="cls-14" d="M6.09,41.05A1,1,0,0,1,7,40.69a.91.91,0,0,1,.61.33.56.56,0,0,1,0,.64.64.64,0,0,1-.7.17,1.82,1.82,0,0,1-.68-.41.57.57,0,0,1-.16-.15.2.2,0,0,1,0-.2"/><path class="cls-11" d="M7.44,40.13c-.09,0-.09.58-.59,1s-1.12.35-1.12.43.14.11.4.12a1.4,1.4,0,0,0,.93-.33,1.24,1.24,0,0,0,.46-.82C7.54,40.27,7.48,40.13,7.44,40.13Z"/><path class="cls-11" d="M7.58,34.86c0,.14.58.08,1.21.15s1.13.25,1.22.12,0-.2-.26-.34a2.11,2.11,0,0,0-1.85-.21C7.67,34.67,7.55,34.79,7.58,34.86Z"/><path class="cls-11" d="M2.75,34.14c.1.12.47,0,.91,0s.82.08.91-.05,0-.18-.19-.3a1.35,1.35,0,0,0-.73-.2,1.24,1.24,0,0,0-.73.25C2.76,34,2.71,34.08,2.75,34.14Z"/><path class="cls-11" d="M15.83,43.71a3.5,3.5,0,0,1-3-.85,3.54,3.54,0,0,1-1.07-3c.12-1,.64-1.93.31-2.83-.44-1.19-2.11-1.55-2.55-2.74-.26-.7,0-1.5-.32-2.18a2.62,2.62,0,0,0-1.6-1.24,7,7,0,0,1-1.9-.82,1.48,1.48,0,0,1-.53-1.83,36.9,36.9,0,0,1,8.47,2.06,3.23,3.23,0,0,1,1.67,1.08,3.35,3.35,0,0,1,.34,2.08l-.48,10.44"/><path class="cls-13" d="M15.59,45.05l.06,0,.17-.14c.15-.11.37-.29.64-.53a6.62,6.62,0,0,0,.92-1,3.65,3.65,0,0,0,.72-1.59,2.41,2.41,0,0,0-.5-2,7.32,7.32,0,0,0-.9-.77A2.13,2.13,0,0,1,16,38a12.85,12.85,0,0,1-.27-2.65,5.18,5.18,0,0,0-1.1-2.67,3.61,3.61,0,0,0-1.15-.94,7.13,7.13,0,0,0-1.35-.45,3.17,3.17,0,0,1-1.19-.59,4.86,4.86,0,0,1-.87-.95c-.49-.7-.85-1.43-1.31-2.05A4.89,4.89,0,0,0,8,26.91a3.11,3.11,0,0,0-.91-.49,1.89,1.89,0,0,0-1.72.17,1.58,1.58,0,0,0-.61,1.16,1.14,1.14,0,0,0,.23.8,1,1,0,0,0,.16.15l.06,0,0,0A.79.79,0,0,1,5,28.53a1.16,1.16,0,0,1-.2-.78,1.52,1.52,0,0,1,.6-1.08A1.83,1.83,0,0,1,7,26.53,2.82,2.82,0,0,1,7.9,27a4.39,4.39,0,0,1,.74.8c.45.6.8,1.34,1.29,2.05a5.18,5.18,0,0,0,.89,1,3.57,3.57,0,0,0,1.25.62,6.91,6.91,0,0,1,1.33.44,3.48,3.48,0,0,1,1.09.9,5.1,5.1,0,0,1,1.07,2.59,12.34,12.34,0,0,0,.28,2.67,2.31,2.31,0,0,0,.76,1,7.63,7.63,0,0,1,.89.75A2.29,2.29,0,0,1,18,41.77a3.49,3.49,0,0,1-.68,1.56,6.59,6.59,0,0,1-.88,1c-.26.25-.48.43-.62.56S15.58,45,15.59,45.05Z"/><path class="cls-11" d="M16.29,45.53c.8-.77,2.16-.1,2.83.78s1.14,2,2.16,2.47,2.34.06,3.19.77c1.17,1,.51,3.24,1.78,4.09.51.33,1.17.32,1.71.6,1.27.65,1.26,2.45,1.06,3.86a13.75,13.75,0,0,1-1.67,5.73c-1.1,1.68-3.23,2.86-5.13,2.21s-2.76-2.59-3.5-4.37Q17.18,58,15.64,54.29a16.93,16.93,0,0,1-1.39-4.4,5.82,5.82,0,0,1,1-4.38"/><path class="cls-9" d="M16.8,43.83c.58-.07,1,.64.87,1.2a1.81,1.81,0,0,1-1.24,1.13,1.76,1.76,0,0,1-1,.11.93.93,0,0,1-.73-.58A.55.55,0,0,1,15,45c.38-.24.6-.42.9-.59.46-.25.44-.29.89-.54"/><polygon class="cls-9" points="3.48 50.07 5.73 48.36 14.2 47.82 14.54 48.96 11.79 66.16 13.96 86.69 2.14 86.69 3.48 50.07"/><g class="cls-10"><path d="M12.55,79.41a1.94,1.94,0,0,0-1.1-.7c-2.84-.06-5.73-.34-8.56-.4l-.23,8.38a10.6,10.6,0,0,0,1.5-3.79c.08-.6.18-1.31.72-1.56a1.62,1.62,0,0,1,1,0A23.09,23.09,0,0,0,9,81.85a5,5,0,0,0,3-.66,1.86,1.86,0,0,0,.72-.78A.93.93,0,0,0,12.55,79.41Z"/></g><path class="cls-9" d="M5.31,50.42,5.05,48a.77.77,0,0,1,.71-.86l7.8-.71a.37.37,0,0,1,.4.36l.09,2.92-2.26,3.84-2.32.74H6.63L5,52.5Z"/><path class="cls-11" d="M12.9,48.74l-.32,0a5.65,5.65,0,0,0-.85,0,8.34,8.34,0,0,0-1.25.18L9,49.23a10.14,10.14,0,0,1-1.53.28,4,4,0,0,1-1.28-.09,2.75,2.75,0,0,1-.79-.33A.84.84,0,0,1,5.18,49l-.06-.05s.09.06.27.16a2.58,2.58,0,0,0,.79.29,4.13,4.13,0,0,0,1.25.07A10.26,10.26,0,0,0,9,49.14c.54-.13,1.05-.27,1.52-.36a7.11,7.11,0,0,1,1.26-.16,4.11,4.11,0,0,1,.86.05l.23,0S12.9,48.73,12.9,48.74Z"/><g class="cls-10"><path d="M5.5,49.12a1.67,1.67,0,0,0,.21,1.73,1.51,1.51,0,0,0,1.39.35,4.68,4.68,0,0,0,1.35-.61A11.86,11.86,0,0,1,11.84,49a.54.54,0,0,0,.22-.09.13.13,0,0,0-.1-.24,10.07,10.07,0,0,0-3.21.43,5.71,5.71,0,0,1-3.2,0"/></g><path class="cls-11" d="M7,47a.71.71,0,0,0-.27.25,1.86,1.86,0,0,0-.1.9c0,.73.14,1.31.11,1.32a1.1,1.1,0,0,1-.11-.38,5.52,5.52,0,0,1-.1-.94,3,3,0,0,1,0-.52.94.94,0,0,1,.13-.41.56.56,0,0,1,.22-.2C7,47,7,47,7,47Z"/><path class="cls-11" d="M9.05,49.16A10.51,10.51,0,0,0,9,48a9.75,9.75,0,0,0-.27-1.16.94.94,0,0,1,.16.31,4.15,4.15,0,0,1,.21.83,3.71,3.71,0,0,1,0,.86A1,1,0,0,1,9.05,49.16Z"/><path class="cls-11" d="M11.56,46.6a.73.73,0,0,1,.15.29,2,2,0,0,1,.1.78,2,2,0,0,1-.2.76.78.78,0,0,1-.19.27,3.53,3.53,0,0,0,.3-1A3.29,3.29,0,0,0,11.56,46.6Z"/><path class="cls-6" d="M.62,51.18a8.81,8.81,0,0,0-3.36,5c-.55,2.53-2,15.89-2,15.89L-7.43,77.2l1.72,4.09h0a6.31,6.31,0,0,0,4.14-1.18l1.16-.84,2.12-3.15Z"/><polygon class="cls-6" points="5.13 48.82 0.62 51.17 -0.44 54.67 -1.39 64.81 0.4 76.69 -2.74 86.65 2.66 86.69 2.79 80.86 3.33 61.96 3.86 49.92 5.13 48.82"/><path class="cls-11" d="M3,64.57l-.09-.14L2.64,64c-.09-.18-.18-.41-.3-.68s-.1-.28-.16-.44-.11-.32-.16-.49a18.88,18.88,0,0,1-.64-5.66c0-.17,0-.34,0-.51v0h0l.79-.33v.08l-.79-.63,0,0v0A7.08,7.08,0,0,1,1.76,53c.2-.66.42-1.23.61-1.7s.35-.83.47-1.08L3,50c0-.06,0-.1.06-.1A.49.49,0,0,1,3,50l-.13.28-.45,1.09c-.18.47-.39,1-.58,1.7a6.78,6.78,0,0,0-.34,2.23l0,0,.79.63.06,0-.07,0-.79.33,0,0c0,.16,0,.34,0,.51a19.45,19.45,0,0,0,.62,5.63c0,.17.1.34.15.49s.1.31.15.44l.28.69.21.42A.66.66,0,0,1,3,64.57Z"/><path class="cls-11" d="M.63,80.79a2.46,2.46,0,0,1-.22.46,7.31,7.31,0,0,1-.69,1,7.1,7.1,0,0,1-.85.87,1.85,1.85,0,0,1-.4.3s.14-.13.36-.35a8.55,8.55,0,0,0,.81-.89,10.42,10.42,0,0,0,.71-1A4,4,0,0,1,.63,80.79Z"/><path class="cls-6" d="M21.35,50.89a6.21,6.21,0,0,1,3.82,4.41c1.47,6.51,4,15.16,4,18,.05,3.55-1.51,6-3.54,6.43-1.6.36-16.15-.44-16.15-.44l-.68-5.42,11.78-1.73-1.61-9L20.6,50.6Z"/><path class="cls-6" d="M20.6,50.6l-3.25-1.33-3.43-2,0,.59h0a3.44,3.44,0,0,1,.41,2.39l-2.85,14.9L12.09,76l1.33,10.67H23.75L19,75.53l1.67-15Z"/><path class="cls-11" d="M23.62,79.77s0,0-.07,0l-.21,0c-.18,0-.45,0-.8,0-.7,0-1.72,0-3,0-2.53-.09-6.05-.26-10-.49h0v0l-.26-2c-.14-1.17-.29-2.31-.42-3.4v0h.05l9-1.31,2.64-.38.71-.09.18,0h0l-.19,0-.7.12-2.64.4-9,1.34,0-.05c.14,1.09.28,2.23.43,3.4l.25,2,0,0c4,.24,7.5.42,10,.52,1.26.05,2.28.08,3,.09h1.08Z"/><path class="cls-11" d="M18.91,62.17s0,0,0,.1l.06.29.19,1.06.61,3.52c.23,1.37.44,2.61.59,3.52l.17,1.07,0,.29a.82.82,0,0,1,0,.1s0,0,0-.1l-.06-.28-.2-1.07c-.16-.9-.38-2.14-.61-3.52s-.44-2.62-.59-3.52L19,62.56l0-.29A.82.82,0,0,1,18.91,62.17Z"/><path class="cls-11" d="M15.41,48.3l0,0,0,.11c0,.09.06.24.1.42a14.7,14.7,0,0,1,.25,1.61,17,17,0,0,1,.06,2.44c0,.93-.13,2-.27,3v0h0l-1.06.2,0-.06a5.24,5.24,0,0,1,.18.52,6.64,6.64,0,0,1-.13,3.61A11.25,11.25,0,0,1,13.33,63c-.44.72-.84,1.28-1.12,1.66l-.32.44-.09.11,0,0,0,0,.08-.12.31-.45c.27-.39.66-1,1.09-1.67a11.86,11.86,0,0,0,1.23-2.69,6.57,6.57,0,0,0,.11-3.56c0-.18-.11-.35-.17-.51l0,0h.06l1.06-.2,0,0c.14-1.09.24-2.11.28-3a19,19,0,0,0,0-2.44c-.06-.68-.15-1.23-.22-1.6l-.09-.43,0-.11A.1.1,0,0,1,15.41,48.3Z"/><path class="cls-9" d="M15.41,63.59V61.21s0-.58-.46-.46-.4,1-.4,1-.09,3.61.12,3.58.3-.31.3-.31V63.68Z"/><path class="cls-11" d="M17.47,63.74a7.87,7.87,0,0,1-1.28,0,7.79,7.79,0,0,1-1.27,0,7.79,7.79,0,0,1,1.27-.05A7.87,7.87,0,0,1,17.47,63.74Z"/><path class="cls-11" d="M22.17,52.3l-.26.1a5.37,5.37,0,0,0-.71.3,5.44,5.44,0,0,0-1.91,1.63,5.07,5.07,0,0,0-.38.61,3.94,3.94,0,0,0-.22.63,5.82,5.82,0,0,0-.19,1.12c0,.33,0,.59,0,.78v.28a.82.82,0,0,1,0-.28,7.07,7.07,0,0,1,0-.78,5.84,5.84,0,0,1,.17-1.14,3.62,3.62,0,0,1,.23-.65,3.77,3.77,0,0,1,.38-.63,5.24,5.24,0,0,1,2-1.63,5.3,5.3,0,0,1,.72-.28A1,1,0,0,1,22.17,52.3Z"/><polygon class="cls-11" points="-19.75 72.06 -2.74 78.37 11.61 80.56 -5.45 72.25 -19.75 72.06"/><path class="cls-12" d="M8.79,74l-1.94-.44L5,71.83a1.31,1.31,0,0,0-.83-.36l-3.4-.2a1.34,1.34,0,0,0-.94.31l-2.43,2.06L8,78.8l1.45.13Z"/><path class="cls-14" d="M3,73.12,2.37,73a2.74,2.74,0,0,0-1.53.16,3.86,3.86,0,0,0-.74.46c-.21.16-.41.31-.58.42a2.66,2.66,0,0,1-.42.25l-.17.06s.23-.12.55-.37.35-.27.57-.44a3.76,3.76,0,0,1,.74-.47,2.19,2.19,0,0,1,.87-.2,4.74,4.74,0,0,1,.72.06,3.84,3.84,0,0,1,.48.1C3,73.09,3,73.11,3,73.12Z"/><path class="cls-14" d="M3.73,75s-.14,0-.37-.07a2,2,0,0,0-.87.12,4.65,4.65,0,0,0-.81.41,1.24,1.24,0,0,1-.33.19,1.6,1.6,0,0,1,.3-.24,3.39,3.39,0,0,1,.8-.45,2,2,0,0,1,.92-.1A.8.8,0,0,1,3.73,75Z"/><path class="cls-14" d="M8.1,75.33s-.3-.4-.66-.88a10.28,10.28,0,0,1-.65-.88,3.93,3.93,0,0,1,.73.82A4,4,0,0,1,8.1,75.33Z"/><path class="cls-9" d="M2.75,71.47l4.31-4a.42.42,0,0,0,0-.63H7a.42.42,0,0,0-.53,0l-5,4.53"/><g class="cls-10"><path d="M2.75,71.47l4.31-4a.42.42,0,0,0,0-.63H7a.42.42,0,0,0-.53,0l-5,4.53"/></g><path class="cls-15" d="M25,28.11c-.08,0-3.11-.83-2.92,2.24s3.21,2.24,3.21,2.16S25,28.11,25,28.11Z"/><path class="cls-16" d="M24.25,31.4s-.05,0-.14.09a.56.56,0,0,1-.4,0A1.33,1.33,0,0,1,23,30.37a1.76,1.76,0,0,1,.11-.77.61.61,0,0,1,.37-.43.28.28,0,0,1,.33.12,1.1,1.1,0,0,1,0,.15s.06-.05,0-.18a.27.27,0,0,0-.13-.18.39.39,0,0,0-.3-.06.77.77,0,0,0-.53.51,1.86,1.86,0,0,0-.13.86,1.38,1.38,0,0,0,.86,1.28.62.62,0,0,0,.48-.11C24.25,31.48,24.26,31.41,24.25,31.4Z"/><path class="cls-11" d="M32.6,17.17a9.83,9.83,0,0,1,5.09,1,6.31,6.31,0,0,1,2.64,2.88,6.65,6.65,0,0,1,.72,3.24,7.19,7.19,0,0,1-.48,2.77"/><path class="cls-15" d="M32,17.41a8.25,8.25,0,0,1,8.82,7.8c.21,3.84.38,8,.34,10.08-.09,4.48-4.58,5.14-4.58,5.14s.1,1.33.21,3a5.91,5.91,0,0,1-5.67,6.3h0A5.9,5.9,0,0,1,25,44L24.3,26A8.27,8.27,0,0,1,32,17.41Z"/><path class="cls-16" d="M36.56,40.43a10.63,10.63,0,0,1-5.76-1.77s1.36,3.26,5.84,2.89Z"/><path class="cls-11" d="M39.09,27.71a.64.64,0,0,1-.63.64.62.62,0,0,1-.65-.58.65.65,0,0,1,.62-.65A.63.63,0,0,1,39.09,27.71Z"/><path class="cls-11" d="M39.71,26.8c-.08.08-.56-.28-1.25-.28s-1.2.33-1.27.25,0-.19.26-.35a1.72,1.72,0,0,1,1-.3,1.63,1.63,0,0,1,1,.33C39.68,26.61,39.75,26.76,39.71,26.8Z"/><path class="cls-11" d="M32.33,27.71a.64.64,0,0,1-.62.64.62.62,0,0,1-.66-.58.65.65,0,0,1,.62-.65A.62.62,0,0,1,32.33,27.71Z"/><path class="cls-11" d="M32.93,26.88c-.08.08-.56-.28-1.25-.29s-1.2.34-1.27.25.05-.18.27-.34a1.79,1.79,0,0,1,1-.31,1.73,1.73,0,0,1,1,.33C32.9,26.69,33,26.84,32.93,26.88Z"/><path class="cls-11" d="M35.39,32a4.78,4.78,0,0,1,1.12-.2c.18,0,.35,0,.38-.17a.89.89,0,0,0-.12-.52c-.16-.43-.33-.87-.5-1.34a24.58,24.58,0,0,1-1.15-3.52,22.26,22.26,0,0,1,1.43,3.42L37,31a1,1,0,0,1,.09.69.42.42,0,0,1-.29.25.86.86,0,0,1-.3,0A4.32,4.32,0,0,1,35.39,32Z"/><path class="cls-11" d="M33.36,32.47c.11,0,.11.74.75,1.28s1.43.46,1.43.56-.18.14-.51.15a1.85,1.85,0,0,1-1.2-.43A1.6,1.6,0,0,1,33.25,33C33.23,32.65,33.31,32.46,33.36,32.47Z"/><path class="cls-11" d="M33.13,24.18c-.07.18-.75.09-1.56.18s-1.47.31-1.57.14.06-.26.33-.44a2.59,2.59,0,0,1,1.17-.4,2.5,2.5,0,0,1,1.22.16C33,23.94,33.16,24.09,33.13,24.18Z"/><path class="cls-11" d="M39.61,24.35c-.12.15-.59,0-1.16,0s-1.06.1-1.17-.06,0-.24.24-.39a1.63,1.63,0,0,1,.95-.24,1.61,1.61,0,0,1,.93.32C39.6,24.11,39.67,24.27,39.61,24.35Z"/><path class="cls-11" d="M24.36,27.35s.19,1,.24,1.51c0,.17,0,2.07.46,2.16A1.66,1.66,0,0,0,26.6,30a10.59,10.59,0,0,0,.95-3.53,12.14,12.14,0,0,1,.08-3.51,5,5,0,0,1,1.71-3,3.16,3.16,0,0,1,3.3-.45,17.88,17.88,0,0,1,1.74,1.3,2.72,2.72,0,0,0,1.85.48,1.77,1.77,0,0,0,1.43-1.17A1.89,1.89,0,0,0,37,18.2a4.42,4.42,0,0,0-2-.8,10.52,10.52,0,0,0-5.83.41,7.59,7.59,0,0,0-4.25,3.89c-.91,2.09-.8,3.37-.56,5.65"/><path class="cls-11" d="M34.61,27.74a5.83,5.83,0,0,0-.12-.74,3,3,0,0,0-1.11-1.65,3,3,0,0,0-1.27-.56,3,3,0,0,0-1.57.13,3.29,3.29,0,0,0-.76.41,3,3,0,0,0-.63.64,3,3,0,0,0-.58,1.77,3,3,0,0,0,.58,1.76,3,3,0,0,0,.63.64,2.68,2.68,0,0,0,.76.41,3,3,0,0,0,2.84-.42,3.06,3.06,0,0,0,1.11-1.65,6.15,6.15,0,0,0,.12-.74v.19a1.1,1.1,0,0,1,0,.24,1.47,1.47,0,0,1-.06.32,3,3,0,0,1-1.1,1.7,3,3,0,0,1-2.92.46,3,3,0,0,1-.79-.42,3,3,0,0,1-.66-.66,3.11,3.11,0,0,1,0-3.67,2.9,2.9,0,0,1,.66-.65,2.51,2.51,0,0,1,.79-.42,3,3,0,0,1,1.62-.13,3.1,3.1,0,0,1,1.3.58A3,3,0,0,1,34.53,27a1.28,1.28,0,0,1,.06.32,1,1,0,0,1,0,.23v.2Z"/><path class="cls-11" d="M42.5,27.74a6.81,6.81,0,0,0-.11-.74,3.05,3.05,0,0,0-1.12-1.65A3,3,0,0,0,40,24.79a3.09,3.09,0,0,0-1.58.13,3.23,3.23,0,0,0-.75.41,2.56,2.56,0,0,0-.63.64,3,3,0,0,0-.59,1.77A3.06,3.06,0,0,0,37,29.5a2.78,2.78,0,0,0,.64.64,2.63,2.63,0,0,0,.75.41,3,3,0,0,0,2.84-.42,3.09,3.09,0,0,0,1.12-1.65,7.22,7.22,0,0,0,.11-.74s0,0,0,.05v.14a2.18,2.18,0,0,1,0,.24c0,.09,0,.2-.06.32a3.08,3.08,0,0,1-1.11,1.7,3,3,0,0,1-1.29.59,3.12,3.12,0,0,1-2.42-.55,2.91,2.91,0,0,1-.65-.66,3.07,3.07,0,0,1,0-3.67,2.86,2.86,0,0,1,.65-.65,2.62,2.62,0,0,1,.79-.42A3.07,3.07,0,0,1,40,24.7a3,3,0,0,1,1.29.58A3.1,3.1,0,0,1,42.43,27c0,.11,0,.22.06.32a2,2,0,0,1,0,.23v.15A.12.12,0,0,1,42.5,27.74Z"/><path class="cls-11" d="M36.48,27.41s-.11,0-.28-.1a2,2,0,0,0-.69-.08,2.17,2.17,0,0,0-.68.17,2.87,2.87,0,0,1-.26.14s.06-.1.23-.21a1.56,1.56,0,0,1,.7-.22,1.54,1.54,0,0,1,.73.13C36.4,27.32,36.49,27.4,36.48,27.41Z"/><path class="cls-11" d="M37.7,19.85c0-.24,0-.37.1-.46s.43.17.54.29.13-.11.18-.14a.69.69,0,0,0,.07-.29c0-.16-.27-.21-.39-.32a1.35,1.35,0,0,0-.42-.24.4.4,0,0,0-.41,0,.39.39,0,0,0-.09.3,1,1,0,0,0,.06.31.51.51,0,0,0,.22.24"/><path class="cls-6" d="M24.19,25s2.2.81,3.34,1.29l-.06-1.12-3.2-1.27S24.19,24.71,24.19,25Z"/><path class="cls-6" d="M24.4,23.22a12.6,12.6,0,0,1,1.55.6,11.47,11.47,0,0,1,1.51.7,12.6,12.6,0,0,1-1.55-.6A10.12,10.12,0,0,1,24.4,23.22Z"/><path class="cls-9" d="M25.06,46.91l-.17-5.32a6.43,6.43,0,0,0,6.59,4.81c5.3-.06,5.2-4.29,5.2-4.29l.19,2.14v8.67L33.42,67.05,29,67.61,24.14,48.29Z"/><path class="cls-11" d="M36.19,45.21l-.07.11a2.12,2.12,0,0,1-.21.31,4.45,4.45,0,0,1-1,.95,5.73,5.73,0,0,1-1.84.87,6.56,6.56,0,0,1-2.49.17,8.09,8.09,0,0,1-2.38-.72,10.22,10.22,0,0,1-1.75-1,11.19,11.19,0,0,1-1-.87l-.27-.26c-.06-.06-.09-.09-.09-.1l.11.08.28.25c.24.21.6.5,1.07.84a11.28,11.28,0,0,0,1.74,1,8.35,8.35,0,0,0,2.36.7,6.52,6.52,0,0,0,2.44-.16,5.91,5.91,0,0,0,1.82-.83,4.89,4.89,0,0,0,1-.92A4.86,4.86,0,0,1,36.19,45.21Z"/><path class="cls-6" d="M32.34,90.64l-.08-25.12L25.13,47.19l-.24-5.52L20.54,45s-6.32,21.78-6.42,21,0,24.66,0,24.66Z"/><path class="cls-11" d="M32.17,90.57s-.05-5.66-.05-12.64,0-12.65.05-12.65.06,5.66.06,12.65S32.2,90.57,32.17,90.57Z"/><polygon class="cls-5" points="20.61 48.54 21.49 49.21 20.87 53.28 31.28 64.18 21.83 51.76 22.63 48.54 20.61 48.54"/><path class="cls-6" d="M32.73,77.77l-16-4.69L16.23,61l4.38-16S10.16,50.17,9.45,53.48,7,64.86,6.84,70.69c-.16,5.21-.18,8.7,1,10.36,3.4,4.76,25.86,5.61,34.83,0"/><path class="cls-11" d="M31.48,64.45l-.05-.06-.14-.18-.54-.7-2-2.57c-1.67-2.18-4-5.18-6.5-8.5l-.49-.64,0,0v0l.81-3.22.05.07H20.56v-.06c0-1.31,0-2.52,0-3.58v0l3.14-2.38.86-.65.23-.17.08,0-.07.06-.22.18-.85.66L20.63,45l0,0c0,1.06,0,2.27,0,3.58l-.05,0H22.7l0,.07c-.25,1-.52,2.1-.8,3.22v-.05l.49.64,6.47,8.52,2,2.6.53.7.13.19S31.48,64.44,31.48,64.45Z"/><path class="cls-6" d="M38.61,44c-1.28-2.23-1.94-2-1.94-2l.07.8v1.67l-.61,7.16L32.26,67.2l.08,23.44H47L48.8,62l-.17-12.32Z"/><path class="cls-6" d="M48.63,49.71s3.79,2.8,4.12,7.29c.27,3.66.88,13.66,1,15.84.17,3.39-2.47,11.34-9.35,9.09C40.27,80.58,25,75.4,25,75.4l1-6.47L44.13,70l.36-15.08Z"/><path class="cls-15" d="M25.84,69.67s-5.12-.55-6.3-.26a9.22,9.22,0,0,0-2.77,1.66l0,2L25,75.4Z"/><path class="cls-11" d="M32.26,64.86l0-.07.07-.2.31-.76L33.81,61l1.72-4.15c.16-.39.32-.79.52-1.19s.42-.79.66-1.19a26,26,0,0,1,1.62-2.35c.3-.38.59-.75.9-1.1v.05l-.64-1.62,0,0,.06,0,2.67-.91,0,.08-3-5a3.84,3.84,0,0,0-1-1.31,1.17,1.17,0,0,0-.4-.16c-.1,0-.15,0-.15,0l.15,0a1.33,1.33,0,0,1,.42.16,1.78,1.78,0,0,1,.51.49c.17.23.35.5.54.8.75,1.24,1.8,3,3.06,5l0,.06-.06,0-2.67.91,0-.07.64,1.62v0l0,0c-.31.35-.61.72-.9,1.1a26.53,26.53,0,0,0-1.62,2.34c-.23.39-.46.78-.65,1.18s-.36.79-.53,1.18c-.65,1.56-1.24,3-1.73,4.15s-.9,2.12-1.18,2.79l-.33.75-.08.2S32.27,64.86,32.26,64.86Z"/><path class="cls-11" d="M50.71,80.67l-.06.06-.2.19a5,5,0,0,1-.83.63,5.42,5.42,0,0,1-1.52.64,6.11,6.11,0,0,1-2.18.14,7.53,7.53,0,0,1-1.25-.26l-1.3-.46c-.89-.33-1.85-.67-2.86-1-2-.71-4.24-1.46-6.58-2.23-4.69-1.54-9-2.84-12.07-3.77l-3.67-1.08-1-.3-.26-.08-.09,0,.09,0,.27.07,1,.28,3.68,1c3.11.9,7.39,2.19,12.08,3.73,2.35.77,4.57,1.53,6.59,2.24l2.86,1c.44.16.87.33,1.29.46a7.17,7.17,0,0,0,1.23.27,6.28,6.28,0,0,0,2.16-.12,5.84,5.84,0,0,0,1.51-.61,7.85,7.85,0,0,0,.84-.61l.2-.18Z"/><path class="cls-11" d="M16.8,73.13s-.29,0-.75,0a3.6,3.6,0,0,0-.79.13,3.7,3.7,0,0,0-.89.41,4.2,4.2,0,0,0-1.24,1.27c-.24.39-.34.66-.36.65s0-.07.06-.19a3.29,3.29,0,0,1,.23-.5,3.93,3.93,0,0,1,1.25-1.33,3.72,3.72,0,0,1,.92-.41,3.2,3.2,0,0,1,.82-.11,2.57,2.57,0,0,1,.55,0Z"/><path class="cls-11" d="M11.76,71.55s0,0,0-.06a.53.53,0,0,1,.1-.14,1.05,1.05,0,0,1,.57-.28,2.69,2.69,0,0,1,.94,0,5.23,5.23,0,0,1,2.88,1.35,4.27,4.27,0,0,1,.41.48,1.23,1.23,0,0,1,.12.2s-.2-.27-.59-.62a5.13,5.13,0,0,0-1.74-1,6.18,6.18,0,0,0-1.09-.27,3.18,3.18,0,0,0-.91,0,1,1,0,0,0-.55.24C11.81,71.48,11.77,71.55,11.76,71.55Z"/><path class="cls-11" d="M17.73,57.61a2.08,2.08,0,0,1-.07-.33c0-.1-.08-.23-.13-.37s-.14-.3-.24-.47a6.73,6.73,0,0,0-.81-1.08,9.09,9.09,0,0,0-1.25-1.1A7.54,7.54,0,0,0,12.5,53a5.69,5.69,0,0,0-.91-.12l-.34,0h.34a4.38,4.38,0,0,1,.93.08,7.16,7.16,0,0,1,2.77,1.24,8.22,8.22,0,0,1,1.26,1.12,6.29,6.29,0,0,1,.81,1.11c.1.17.16.34.23.48l.11.39A1.45,1.45,0,0,1,17.73,57.61Z"/><path class="cls-11" d="M48.07,76.17s0,0,0-.08v-.23c0-.2,0-.49-.05-.87a12.14,12.14,0,0,0-.64-3.13,4.07,4.07,0,0,0-.44-1,1.8,1.8,0,0,0-.84-.72,7.65,7.65,0,0,0-2.5-.32l-5.82-.25c-4.82-.21-9.1-.39-11.79-.53l0,0-.38,2.32-.1.61,0,.16,0,0a.18.18,0,0,1,0,0l0-.16.09-.62c.08-.55.2-1.33.34-2.32v0h0l11.79.49,5.83.25,1.31.07a4,4,0,0,1,1.21.27,2,2,0,0,1,.89.76,4.7,4.7,0,0,1,.44,1A12,12,0,0,1,48.06,75c0,.38,0,.67,0,.87v.31Z"/><path class="cls-11" d="M44.62,62s.05,1.75.05,3.91,0,3.91-.05,3.91-.06-1.75-.06-3.91S44.59,62,44.62,62Z"/><path class="cls-11" d="M9.58,53.09l-.05.15c0,.09-.08.23-.13.42-.1.38-.24.94-.39,1.67-.3,1.46-.67,3.6-1.09,6.28C7.71,63,7.49,64.43,7.27,66c-.11.8-.17,1.63-.23,2.49s-.1,1.74-.14,2.65c-.06,1.83-.1,3.76-.05,5.76,0,.51,0,1,.08,1.52,0,.26.05.51.08.77A6.87,6.87,0,0,0,7.2,80a4.1,4.1,0,0,0,.72,1.37,3,3,0,0,0,1.23,1h0a18.78,18.78,0,0,0,3.22,1.22c1.12.34,2.28.61,3.46.85a47.21,47.21,0,0,0,7.77,1,35,35,0,0,0,3.71-.1c1.21-.08,2.39-.21,3.53-.38a35.84,35.84,0,0,0,6.33-1.47,32.68,32.68,0,0,0,5.12-2.19v.07l-7-2.49-1.89-.67-.49-.18-.17-.06.17,0,.5.17,1.89.65,7,2.45.08,0-.08,0a33.2,33.2,0,0,1-5.12,2.21,37.92,37.92,0,0,1-6.35,1.49c-1.14.17-2.32.3-3.53.38a35.18,35.18,0,0,1-3.72.1,48.37,48.37,0,0,1-7.79-.94c-1.19-.25-2.35-.52-3.47-.86a18.25,18.25,0,0,1-3.24-1.24h0a3.24,3.24,0,0,1-1.29-1A4.34,4.34,0,0,1,7.09,80a7,7,0,0,1-.18-.76,6.9,6.9,0,0,1-.09-.78c0-.51-.06-1-.08-1.52,0-2,0-3.94.07-5.77,0-.91.08-1.8.14-2.66s.13-1.69.24-2.49c.22-1.6.45-3.07.66-4.41.43-2.68.81-4.82,1.12-6.28.16-.73.3-1.29.41-1.66,0-.19.11-.33.14-.43Z"/><path class="cls-5" d="M16.77,71.63c2.68-3,2.56-8.22,1-11.95-.15,4-.62,7.63-1,11.56"/><path class="cls-11" d="M17.8,60.44s0,0,0,.13l0,.37-.11,1.35c-.1,1.16-.23,2.74-.37,4.48S17,70.08,17,71.24l-.1,1.36,0,.37c0,.08,0,.13,0,.13s0,0,0-.13V72.6c0-.32,0-.79.07-1.36.07-1.15.18-2.73.32-4.48s.29-3.33.4-4.47l.14-1.36.05-.36A1.11,1.11,0,0,1,17.8,60.44Z"/><path class="cls-11" d="M24.39,55.09s.05,1,.05,2.3,0,2.29-.05,2.29-.06-1-.06-2.29S24.36,55.09,24.39,55.09Z"/><path class="cls-5" d="M22.65,62.71a2.38,2.38,0,0,0,.49,1.22,1.56,1.56,0,0,0,1.17.62,1.78,1.78,0,0,0,1.58-.79,4.49,4.49,0,0,0,.22-3.43A2,2,0,0,0,24.49,59a1.8,1.8,0,0,0-1.76,1.37"/><path class="cls-11" d="M22.73,60.38a1.42,1.42,0,0,1,.18-.47,2,2,0,0,1,.36-.47,1.68,1.68,0,0,1,.67-.4A1.7,1.7,0,0,1,24.4,59a1.19,1.19,0,0,1,.49.07,1.88,1.88,0,0,1,.89.63,2.57,2.57,0,0,1,.52,1.09,5,5,0,0,1,.1,1.29,3.57,3.57,0,0,1-.56,1.87,1.64,1.64,0,0,1-.72.54,2,2,0,0,1-.81.14h0a1.14,1.14,0,0,1-.58-.15,1.79,1.79,0,0,1-.44-.3,2.2,2.2,0,0,1-.48-.72,2.27,2.27,0,0,1-.15-.52.92.92,0,0,1,0-.15.07.07,0,0,1,0,0,2.28,2.28,0,0,0,.21.7,2,2,0,0,0,.48.68,1.71,1.71,0,0,0,.43.29,1.11,1.11,0,0,0,.54.13h0a1.74,1.74,0,0,0,1.44-.66A3.56,3.56,0,0,0,26.29,62a3.33,3.33,0,0,0-.59-2.3,1.83,1.83,0,0,0-.84-.61,1.06,1.06,0,0,0-.46-.07,1.61,1.61,0,0,0-.44.06,1.63,1.63,0,0,0-.65.37,1.88,1.88,0,0,0-.36.44A3.1,3.1,0,0,0,22.73,60.38Z"/><path class="cls-5" d="M22.14,62.76A2.31,2.31,0,0,0,22.63,64a1.6,1.6,0,0,0,1.17.63,1.8,1.8,0,0,0,1.58-.8,4.49,4.49,0,0,0,.22-3.43A2,2,0,0,0,24,59.06a1.79,1.79,0,0,0-1.76,1.36"/><path class="cls-11" d="M22.22,60.42A1.42,1.42,0,0,1,22.4,60a2.18,2.18,0,0,1,.36-.47,1.57,1.57,0,0,1,.67-.39,1.7,1.7,0,0,1,.46-.07,1.46,1.46,0,0,1,.5.06,2,2,0,0,1,.88.64,2.48,2.48,0,0,1,.52,1.08,4.6,4.6,0,0,1,.1,1.29A3.57,3.57,0,0,1,25.34,64a1.66,1.66,0,0,1-.72.55,2.16,2.16,0,0,1-.82.13h0a1.25,1.25,0,0,1-.59-.14,2,2,0,0,1-.44-.31,2.34,2.34,0,0,1-.48-.71,2.47,2.47,0,0,1-.15-.53.82.82,0,0,1,0-.14v-.05a3.76,3.76,0,0,0,.21.7,2.25,2.25,0,0,0,.48.68,2.28,2.28,0,0,0,.43.28,1.11,1.11,0,0,0,.54.13h0a1.73,1.73,0,0,0,1.44-.65,3.5,3.5,0,0,0,.53-1.82,3.33,3.33,0,0,0-.59-2.3,1.8,1.8,0,0,0-.83-.61,1.58,1.58,0,0,0-.47-.07,1.94,1.94,0,0,0-.43.06,1.75,1.75,0,0,0-.66.37,2,2,0,0,0-.36.45C22.27,60.25,22.24,60.43,22.22,60.42Z"/><path class="cls-5" d="M23.06,60.18a1.11,1.11,0,0,0-1.16.67,1.89,1.89,0,0,0,0,1.42,1.65,1.65,0,0,0,.36.63,1,1,0,0,0,.65.32,1.13,1.13,0,0,0,.89-.53A2,2,0,0,0,24.11,61c-.1-.38-.38-.77-.77-.78"/><path class="cls-11" d="M23.34,60.25h.09a.83.83,0,0,1,.24.08,1.18,1.18,0,0,1,.49.75A2.1,2.1,0,0,1,24,62.41a1.64,1.64,0,0,1-.49.63,1,1,0,0,1-.84.21A1.23,1.23,0,0,1,22,62.7a2.42,2.42,0,0,1-.27-.75A1.66,1.66,0,0,1,22,60.64a1.15,1.15,0,0,1,.76-.48,1.14,1.14,0,0,1,.25,0l.08,0a1.53,1.53,0,0,0-.32,0,1.17,1.17,0,0,0-.7.48,1.61,1.61,0,0,0-.18,1.25,2.12,2.12,0,0,0,.27.71,1.06,1.06,0,0,0,.6.5.85.85,0,0,0,.74-.18,1.56,1.56,0,0,0,.46-.6,2,2,0,0,0,.15-1.27,1.12,1.12,0,0,0-.44-.72A.94.94,0,0,0,23.34,60.25Z"/><path class="cls-11" d="M24.16,63.75s-.05-.07-.12-.16a.82.82,0,0,0-.37-.24,2.24,2.24,0,0,0-.46-.07l-.19,0s.07,0,.19,0a1.27,1.27,0,0,1,.49,0,.74.74,0,0,1,.41.3C24.17,63.66,24.17,63.75,24.16,63.75Z"/><path class="cls-11" d="M24.33,59.88s0,.08-.14.16a1.1,1.1,0,0,1-.46.2,1,1,0,0,1-.49,0c-.13,0-.19-.08-.19-.1a2.48,2.48,0,0,0,.66,0A2.61,2.61,0,0,0,24.33,59.88Z"/><path class="cls-11" d="M39.24,44.33l.07,0a1.22,1.22,0,0,1,.2.1,4.29,4.29,0,0,1,.65.46,4.64,4.64,0,0,1,1.39,2.22,14.14,14.14,0,0,1,.54,2.57c0,.33.06.6.07.79a1.07,1.07,0,0,1,0,.29s0-.1,0-.28l-.1-.79a17.48,17.48,0,0,0-.56-2.55A4.87,4.87,0,0,0,40.1,45,7.38,7.38,0,0,0,39.24,44.33Z"/><path class="cls-11" d="M36.54,68.23c.63,0,1.13-.65,1.76-.62a.91.91,0,0,1,.82,1,.89.89,0,0,1-1,.79c-.66-.07-1-.85-1.69-1"/><path class="cls-11" d="M41.87,68.76a4.18,4.18,0,0,1-.59,0l0-.22a2.45,2.45,0,0,0,1.94-.38,3.6,3.6,0,0,0,1.23-2.51v0c.07-.48.17-9.76.17-11.52a3,3,0,0,0-2.52-3.15c-.1,0-2.3-.38-3.46,2.62s-3.17,9.22-3.3,9.93c0,.09,0,.2-.07.32-.2.91-.63,2.81.64,3.9a2.49,2.49,0,0,0,2.56.73l.09.19a2.66,2.66,0,0,1-2.79-.75c-1.37-1.18-.92-3.16-.71-4.11,0-.12,0-.23.06-.31.13-.72,2.09-6.82,3.32-10s3.67-2.77,3.69-2.76a3.25,3.25,0,0,1,2.7,3.36c0,1.45-.09,11-.17,11.55v0a3.86,3.86,0,0,1-1.32,2.66A2.49,2.49,0,0,1,41.87,68.76Z"/><path class="cls-11" d="M44.78,55.82a4.32,4.32,0,0,0-.46-1.08,3.46,3.46,0,0,0-.85-.93,3.78,3.78,0,0,0-1.4-.66,4.08,4.08,0,0,0-2.75.36,6,6,0,0,0-1,.68l.05-.06a1.9,1.9,0,0,1,.16-.18,3.45,3.45,0,0,1,.71-.51A4,4,0,0,1,40.51,53a3.89,3.89,0,0,1,1.59,0,3.81,3.81,0,0,1,1.43.69,3.45,3.45,0,0,1,.86,1,2.94,2.94,0,0,1,.34.81,1.39,1.39,0,0,1,0,.23A.45.45,0,0,1,44.78,55.82Z"/><path class="cls-11" d="M50.3,73.18a6.86,6.86,0,0,0-.29-.93,4.15,4.15,0,0,0-1.48-1.77,3.3,3.3,0,0,0-1.19-.43c-.39-.06-.75-.09-1.05-.11l-.72,0a.9.9,0,0,1-.26,0,1.11,1.11,0,0,1,.26,0h.72a9.23,9.23,0,0,1,1.07.09,3.05,3.05,0,0,1,1.23.44,3.88,3.88,0,0,1,1.69,2.52A.7.7,0,0,1,50.3,73.18Z"/><path class="cls-15" d="M39.35,69.55A36.21,36.21,0,0,1,42,65.9c.55-.43,5.21-2.53,5.75-2.19s.21,1.07.21,1.07,2-.69,2.19-.42a1,1,0,0,1,0,1.11s1.09-.17,1.09.17a1.37,1.37,0,0,1-.63,1.13c-.5.38-3.78,2.56-4,3.16l-1.06-.06Z"/><path class="cls-16" d="M45.5,68.63s0-.08.09-.21a4.72,4.72,0,0,1,.36-.5,5.63,5.63,0,0,1,1.54-1.3,11,11,0,0,1,1.84-.86,5.55,5.55,0,0,1,.57-.21.63.63,0,0,1,.22-.06l-.2.1-.56.24a13.84,13.84,0,0,0-1.81.88A6.33,6.33,0,0,0,46,68C45.67,68.36,45.52,68.64,45.5,68.63Z"/><path class="cls-16" d="M42.79,68.58a.89.89,0,0,1,.1-.24c.08-.15.18-.37.33-.63a6.71,6.71,0,0,1,.59-.87,2.36,2.36,0,0,1,.45-.44l.56-.35a14.84,14.84,0,0,1,2.09-1c.27-.11.51-.18.67-.23l.25,0s-.35.1-.89.34a21.76,21.76,0,0,0-2.06,1.06l-.56.35a3.42,3.42,0,0,0-.43.42,7.09,7.09,0,0,0-.6.84l-.36.61A1.13,1.13,0,0,1,42.79,68.58Z"/></g></svg>