<svg id="Layer_1" data-name="Layer 1" xmlns="http://www.w3.org/2000/svg" xmlns:xlink="http://www.w3.org/1999/xlink" viewBox="0 0 64.15 84.1"><defs><style>.cls-1{fill:none;}.cls-2{clip-path:url(#clip-path);}.cls-3{fill:#ececec;}.cls-4{fill:#fafafa;}.cls-5{fill:#ff4f5b;}.cls-6{opacity:0.8;}.cls-7{fill:#fff;}.cls-8{fill:#ffbf9d;}.cls-9{fill:#ff9a6c;}.cls-10{fill:#1a2e35;}.cls-11{fill:#375a64;}.cls-12{opacity:0.3;}.cls-13{opacity:0.2;}</style><clipPath id="clip-path"><rect class="cls-1" x="0.11" y="0.11" width="63.92" height="83.87"/></clipPath></defs><g class="cls-2"><rect class="cls-3" x="2.58" y="-1.6" width="43.75" height="18.68"/><rect class="cls-4" x="7.11" y="38.4" width="74.38" height="46.56"/><path class="cls-5" d="M81.48,85v-.84c0-.56,0-1.37,0-2.45,0-2.14,0-5.29,0-9.33,0-8.08,0-19.71,0-33.94l.07.07-74.37,0h0l.09-.09c0,16.51,0,32.24,0,46.56l-.08-.08,53.54,0,15.34,0h0L60.71,85,7.11,85H7V38.31h.09l74.37,0h.07v.07c0,14.25,0,25.89,0,34,0,4,0,7.18,0,9.32,0,1.07,0,1.88,0,2.43S81.48,85,81.48,85Z"/><rect class="cls-5" x="51.72" y="44.3" width="21.31" height="21.31"/><path class="cls-5" d="M70.11,68.61s-3.47.09-7.74.09-7.74,0-7.74-.09,3.46-.09,7.74-.09S70.11,68.56,70.11,68.61Z"/><path class="cls-5" d="M74.74,70.37s-5.54.09-12.37.09S50,70.42,50,70.37s5.54-.09,12.38-.09S74.74,70.32,74.74,70.37Z"/><path class="cls-5" d="M74.74,72.53s-5.54.09-12.37.09S50,72.58,50,72.53s5.54-.09,12.38-.09S74.74,72.48,74.74,72.53Z"/><path class="cls-5" d="M74.74,74.69s-5.54.09-12.37.09S50,74.74,50,74.69s5.54-.09,12.38-.09S74.74,74.64,74.74,74.69Z"/><path class="cls-5" d="M74.74,76.86S69.2,77,62.37,77,50,76.91,50,76.86s5.54-.09,12.38-.09S74.74,76.81,74.74,76.86Z"/><path class="cls-5" d="M74.74,79s-5.54.09-12.37.09S50,79.07,50,79s5.54-.09,12.38-.09S74.74,79,74.74,79Z"/><rect class="cls-5" x="18.09" y="44.3" width="21.31" height="21.31"/><g class="cls-6"><rect class="cls-7" x="18.09" y="44.3" width="21.31" height="21.31"/></g><path class="cls-5" d="M36.48,68.61s-3.46.09-7.74.09-7.74,0-7.74-.09,3.47-.09,7.74-.09S36.48,68.56,36.48,68.61Z"/><path class="cls-5" d="M41.12,70.37s-5.54.09-12.38.09-12.37,0-12.37-.09,5.54-.09,12.37-.09S41.12,70.32,41.12,70.37Z"/><path class="cls-5" d="M41.12,72.53s-5.54.09-12.38.09-12.37,0-12.37-.09,5.54-.09,12.37-.09S41.12,72.48,41.12,72.53Z"/><path class="cls-5" d="M41.12,74.69s-5.54.09-12.38.09-12.37,0-12.37-.09,5.54-.09,12.37-.09S41.12,74.64,41.12,74.69Z"/><path class="cls-5" d="M41.12,76.86S35.58,77,28.74,77s-12.37,0-12.37-.09,5.54-.09,12.37-.09S41.12,76.81,41.12,76.86Z"/><path class="cls-5" d="M41.12,79s-5.54.09-12.38.09-12.37,0-12.37-.09,5.54-.09,12.37-.09S41.12,79,41.12,79Z"/><g class="cls-6"><rect class="cls-7" x="51.72" y="44.3" width="21.31" height="21.31"/></g><path class="cls-5" d="M72.53,58.21l-.11-.09-.3-.28L71,56.76l-4-3.84h.12L63,57.56l-.16.19-.06.06-.07-.05-2.52-2.09h.12L54.81,60.6,53.19,62l-.44.38-.16.12a.6.6,0,0,1,.14-.15l.42-.39,1.58-1.46,5.48-5,0,0,.06,0,2.53,2.08h-.13l.17-.19L67,52.81l.06-.07.06.06,3.94,3.89,1.1,1.11.29.3Z"/><path class="cls-5" d="M59.07,51.14S59,51,58.7,50.72a2.22,2.22,0,0,0-3.28.15,2.14,2.14,0,0,0-.5,1.17,2.25,2.25,0,0,0,.28,1.33,2.19,2.19,0,0,0,1,.91,2.2,2.2,0,0,0,2.92-1.15,2.28,2.28,0,0,0,.11-1.47c-.09-.34-.2-.51-.18-.52s0,0,.08.12a1.91,1.91,0,0,1,.17.39,2.27,2.27,0,0,1-.07,1.53,2.33,2.33,0,0,1-3.1,1.26,2.37,2.37,0,0,1-1.1-1,2.32,2.32,0,0,1-.3-1.44,2.33,2.33,0,0,1,4-1.35A1.79,1.79,0,0,1,59,51C59.05,51.09,59.08,51.13,59.07,51.14Z"/><path class="cls-8" d="M41.11,34l-1,2.48v1.8l3.2.67,1.31-1.31,1.93-3.07a.46.46,0,0,0-.09-.61l-.55-.46,0-.13a.78.78,0,0,0-.48-.87L45,32.33l1-2.08a.74.74,0,0,0-.18-.85h0l-2.88,3.47-1.51.33Z"/><path class="cls-9" d="M46,33.43a2.34,2.34,0,0,1-.38.52,4.91,4.91,0,0,1-.51.49.8.8,0,0,1-.43.15.48.48,0,0,1-.44-.27.64.64,0,0,1,0-.49,2.25,2.25,0,0,1,.18-.38l.35-.61a2.49,2.49,0,0,1,.35-.53,2.25,2.25,0,0,1-.24.59l-.31.62a.9.9,0,0,0-.16.73.31.31,0,0,0,.28.16A.51.51,0,0,0,45,34.3a6.26,6.26,0,0,0,.52-.44C45.78,33.59,46,33.41,46,33.43Z"/><path class="cls-9" d="M46.6,34.37a2.17,2.17,0,0,1-.34.56,2.62,2.62,0,0,1-.45.56.64.64,0,0,1-.89,0,.53.53,0,0,1-.06-.51,2,2,0,0,1,.17-.39,3.28,3.28,0,0,1,.39-.6c.26-.31.46-.46.48-.44a5.74,5.74,0,0,1-.38.52,4.41,4.41,0,0,0-.34.59,2.43,2.43,0,0,0-.16.37.39.39,0,0,0,0,.34.37.37,0,0,0,.32.12.62.62,0,0,0,.33-.15,3.36,3.36,0,0,0,.45-.51A2.43,2.43,0,0,1,46.6,34.37Z"/><path class="cls-9" d="M42.78,36.61a2.82,2.82,0,0,0,.31-.72,1.93,1.93,0,0,0,0-.85,1.74,1.74,0,0,0-.51-.91L42.37,34h.22a2.07,2.07,0,0,0,.58-.15,1.7,1.7,0,0,0,.68-.49.88.88,0,0,0,.22-.67l.1.06c-.52.11-1,.19-1.26.24a1.43,1.43,0,0,1-.48.06,2.59,2.59,0,0,1,.47-.15l1.23-.3.09,0v.09a1.06,1.06,0,0,1-.24.8,1.9,1.9,0,0,1-.75.55,2,2,0,0,1-.64.16l0-.16a1.82,1.82,0,0,1,.55,1,2,2,0,0,1,0,.92,1.69,1.69,0,0,1-.26.54C42.85,36.57,42.79,36.62,42.78,36.61Z"/><path class="cls-10" d="M34.85,68.19c-.27-6.09-4.94-12.73-4.94-12.73l-7.2-.61v0h-.15l-8.27.67A37.35,37.35,0,0,0,11.6,72.92c1,9.46,4.14,44.28,4.14,44.28h7.59l.16-50.38,7.68,52.08h7.59S35.12,74.27,34.85,68.19Z"/><path class="cls-11" d="M23.8,66.77s0,0-.11,0a1,1,0,0,1-.3-.13,1.74,1.74,0,0,1-.57-1c-.18-1-.34-2.33-.51-3.83S22,58.92,22,57.93c0-.49-.06-.89-.07-1.16a2.35,2.35,0,0,1,0-.43,1.91,1.91,0,0,1,.07.42l.13,1.16c.1,1,.24,2.36.39,3.84s.31,2.85.45,3.82a1.8,1.8,0,0,0,.49,1A1.36,1.36,0,0,0,23.8,66.77Z"/><path class="cls-11" d="M23.16,56s.06,0,.18-.06a.79.79,0,0,1,.52.11,1,1,0,0,1,.44.65.69.69,0,0,1-.08.48.76.76,0,0,1-.4.33.83.83,0,0,1-.94-.2.84.84,0,0,1-.16-.77.87.87,0,0,1,.27-.45c.1-.08.17-.1.17-.09a1.13,1.13,0,0,0-.32.57.79.79,0,0,0,.16.63.69.69,0,0,0,.75.15.58.58,0,0,0,.39-.63.9.9,0,0,0-.35-.56A1.16,1.16,0,0,0,23.16,56Z"/><path class="cls-5" d="M13,29.34.21,28.06l-10.34-8.71L-14.64,24l8,8.18A12.06,12.06,0,0,0,.26,35.7c4.57.66,11.36,1.61,11.43,1.4S13,29.34,13,29.34Z"/><path class="cls-5" d="M11.69,37.1l1,11L12.61,54s.74,1.58,1.62,1.56H29.54a1.46,1.46,0,0,0,.9-.44,3,3,0,0,0,.71-3.41l-2-4.78.65-11.23L28.5,31.31l-.43-1.25-7.76-.51L13,29.34Z"/><path class="cls-5" d="M27.27,30s4.92-.08,6.07,2.69c.67,1.62,6.09,11.68,7.44,15.68,0,0-1.62,3.6-2.85,4h0c-3.33.86-5.56-1.84-6.43-4.13l-2.37-6.33Z"/><path class="cls-5" d="M40.12,37.44l-1.24,2.43L35.06,48l1.68,4.57h0c1.92.34,4-2.33,4.56-4.21l3-10Z"/><path class="cls-10" d="M40.12,37.44c.05,0-1.24,2.69-2.88,6s-3,5.89-3.05,5.87,1.25-2.69,2.89-5.95S40.08,37.42,40.12,37.44Z"/><path class="cls-10" d="M29.66,38.59c.05,0,0,1.86-.14,4.15s-.28,4.14-.33,4.14,0-1.86.15-4.15S29.61,38.59,29.66,38.59Z"/><path class="cls-10" d="M16.75,54.56a1.39,1.39,0,0,1-.91-.62,1.43,1.43,0,0,1-.36-1.06,7.75,7.75,0,0,0,.5.95C16.33,54.3,16.78,54.51,16.75,54.56Z"/><path class="cls-10" d="M19.11,54.41a1.59,1.59,0,0,1-.57-.77,1.55,1.55,0,0,1-.18-.93c.05,0,.14.4.35.86A6.79,6.79,0,0,1,19.11,54.41Z"/><path class="cls-10" d="M23.14,52.38a1.61,1.61,0,0,1,.12,1.18,1.6,1.6,0,0,1-.56,1,7,7,0,0,0,.39-1.07A8.53,8.53,0,0,0,23.14,52.38Z"/><path class="cls-10" d="M26.73,52.71a1.73,1.73,0,0,1,0,1.13,1.76,1.76,0,0,1-.53,1s.22-.46.36-1S26.68,52.72,26.73,52.71Z"/><path class="cls-10" d="M27,30s0,.06,0,.18a4.25,4.25,0,0,1,0,.51,7.32,7.32,0,0,1-.28,1.86,4.92,4.92,0,0,1-1.5,2.35A4.86,4.86,0,0,1,22,36.07a4.26,4.26,0,0,1-1.75-.38,3.54,3.54,0,0,1-1.31-1,5.75,5.75,0,0,1-1-2.61,9.57,9.57,0,0,1-.1-1.88c0-.22,0-.4.05-.51s0-.18,0-.18,0,.25,0,.69A11.15,11.15,0,0,0,18.08,32a5.84,5.84,0,0,0,1,2.53,3.27,3.27,0,0,0,1.25,1,4.29,4.29,0,0,0,1.68.36,4.69,4.69,0,0,0,4.56-3.36,7.61,7.61,0,0,0,.34-1.82A6.8,6.8,0,0,1,27,30Z"/><path class="cls-10" d="M22.28,35.91a4.55,4.55,0,0,1-.44,1.21l-.07.16-.09-.15-.05-.1a5,5,0,0,1-.6-1.26,6,6,0,0,1,.76,1.17l.05.1h-.16A5.28,5.28,0,0,1,22.28,35.91Z"/><path class="cls-4" d="M25.19,41.37a1.21,1.21,0,0,0-.33-.42,1,1,0,0,1-.3-.4.32.32,0,0,1,.55-.31,1.41,1.41,0,0,1,.23.33.76.76,0,0,1,.27-.38.36.36,0,0,1,.49,0,.35.35,0,0,1,0,.33.8.8,0,0,1-.2.28,2.76,2.76,0,0,1-.74.57"/><path class="cls-10" d="M19.75,34s-.13.18-.35.3-.42.18-.44.14.13-.18.35-.3S19.73,33.91,19.75,34Z"/><path class="cls-10" d="M19.07,32.18s-.2.13-.47.19-.49.05-.5,0,.2-.13.47-.18S19.06,32.13,19.07,32.18Z"/><path class="cls-10" d="M19.05,30.61s-.28-.05-.58-.13-.57-.14-.57-.19.28-.08.61,0S19.07,30.56,19.05,30.61Z"/><path class="cls-10" d="M21.61,36c-.05,0-.07-.2-.05-.44s.08-.42.13-.42.07.2,0,.44S21.66,36,21.61,36Z"/><path class="cls-10" d="M23.73,35.55c-.05,0-.15-.14-.24-.35s-.11-.4-.07-.42.15.14.24.35S23.77,35.53,23.73,35.55Z"/><path class="cls-10" d="M25.64,34.28s-.21-.11-.4-.28-.35-.34-.32-.38.23.05.44.24S25.67,34.25,25.64,34.28Z"/><path class="cls-10" d="M26.72,32.32s-.25,0-.52-.1-.5-.15-.49-.2.25-.06.54,0S26.74,32.27,26.72,32.32Z"/><path class="cls-10" d="M26.78,30.59c0,.05-.24.13-.55.18s-.58,0-.59,0a1.23,1.23,0,0,1,.56-.17C26.52,30.54,26.78,30.54,26.78,30.59Z"/><path class="cls-10" d="M9,32.34a2.87,2.87,0,0,1,.68.54A7.83,7.83,0,0,1,11,34.53a7.69,7.69,0,0,1,.83,1.94,2.94,2.94,0,0,1,.15.86,13.81,13.81,0,0,0-1.13-2.71A14.07,14.07,0,0,0,9,32.34Z"/><g class="cls-12"><path d="M37.86,41.91l-.2-.41c-.81,1.25-2.22,3.29-3,4.53A4.26,4.26,0,0,0,34,47.4a1.43,1.43,0,0,0,.39,1.4Z"/></g><g class="cls-12"><path d="M11.79,36.59a7.38,7.38,0,0,0-1.51-3.15,5.88,5.88,0,0,0-2.9-1.9,1.81,1.81,0,0,0-.8-.07A.73.73,0,0,0,6,32c-.11.43.29.8.64,1.06q2.49,1.86,5.09,3.6"/></g><path class="cls-10" d="M27,43.72a1.76,1.76,0,0,1-.66.16,4.11,4.11,0,0,1-3.08-1,1.78,1.78,0,0,1-.45-.51,5.45,5.45,0,0,1,.53.41,4.63,4.63,0,0,0,3,.94A5.43,5.43,0,0,1,27,43.72Z"/><path class="cls-10" d="M27.12,50.36l-.14,0-.4,0a10.14,10.14,0,0,1-1.5,0,10.34,10.34,0,0,1-4.6-1.69A10.16,10.16,0,0,1,17.23,45a9.34,9.34,0,0,1-.59-1.38,2.75,2.75,0,0,1-.11-.39l0-.14a3.3,3.3,0,0,1,.21.51A11.91,11.91,0,0,0,17.34,45a10.3,10.3,0,0,0,7.76,5.29,11.55,11.55,0,0,0,1.47.1A3,3,0,0,1,27.12,50.36Z"/><g class="cls-13"><path d="M25.52,50.52c.65.06-.19-1.3-.77-1.6a6,6,0,0,0-1.9-.42,8.29,8.29,0,0,1-5.7-3.67A10.83,10.83,0,0,0,25.52,50.52Z"/></g><path class="cls-10" d="M28.37,18.31a1.54,1.54,0,0,1,2.92,1c-.07.28-.2.64,0,.8s.48,0,.73-.09a1.08,1.08,0,0,1,1.07.42,2.24,2.24,0,0,1,.41,1.12,3.25,3.25,0,0,1-.67,2.69,1.89,1.89,0,0,1-2.57.26,1.36,1.36,0,0,1-1.14,1.41,1.83,1.83,0,0,1-1.74-.76,2.92,2.92,0,0,1-.49-1.89,6.83,6.83,0,0,1,.48-1.93"/><path class="cls-10" d="M15.18,22.2c-.68.18-1.31-.54-1.4-1.25a9.48,9.48,0,0,1,.25-2.1,22.47,22.47,0,0,0-.25-3.26A3.06,3.06,0,0,1,15,12.72c.92-.53,2.11-.21,3.13-.54a18.27,18.27,0,0,0,2-1.09,3.54,3.54,0,0,1,3.83.66c.48.46.85,1.08,1.47,1.33a10.61,10.61,0,0,0,2,.18A2.44,2.44,0,0,1,29,14.66a3.75,3.75,0,0,1,.21,2.2,10.2,10.2,0,0,0-.39,2.37c.09,1.2,1,2.35.62,3.5-.44,1.35-2.31,1.66-3.06,2.87-.19.31-.3.67-.47,1a1.32,1.32,0,0,1-.78.74.67.67,0,0,1-.84-.49"/><path class="cls-8" d="M25.38,14.47v1.07l.3,16.09a3.23,3.23,0,0,1-3.47,3.21h0A2.94,2.94,0,0,1,19,31.71c-.06-2-.16-4.06-.16-4.06S16.32,27.3,15.7,24a35.24,35.24,0,0,1-.22-6.58A3.5,3.5,0,0,1,19.26,14Z"/><path class="cls-10" d="M17,19.34a.43.43,0,0,0,.43.42.41.41,0,0,0,.43-.4.44.44,0,0,0-.43-.42A.43.43,0,0,0,17,19.34Z"/><path class="cls-10" d="M16.1,18.81c.06.05.37-.2.83-.21s.8.21.85.15,0-.12-.18-.22a1.17,1.17,0,0,0-1.34,0C16.12,18.68,16.08,18.78,16.1,18.81Z"/><path class="cls-10" d="M21.55,19.34a.42.42,0,0,0,.42.42.41.41,0,0,0,.43-.4.44.44,0,0,0-.43-.42A.41.41,0,0,0,21.55,19.34Z"/><path class="cls-10" d="M20.61,18.77c.06.05.38-.19.83-.21s.81.21.85.16,0-.13-.18-.23a1.19,1.19,0,0,0-.68-.19,1.14,1.14,0,0,0-.66.23C20.63,18.64,20.59,18.75,20.61,18.77Z"/><path class="cls-10" d="M19,22.22a2.68,2.68,0,0,0-.75-.12c-.11,0-.22,0-.25-.11a.59.59,0,0,1,.07-.34l.32-.91a15.37,15.37,0,0,0,.72-2.35,14.91,14.91,0,0,0-.9,2.29l-.31.91a.7.7,0,0,0-.05.46.27.27,0,0,0,.2.16.75.75,0,0,0,.2,0A3.52,3.52,0,0,0,19,22.22Z"/><path class="cls-9" d="M18.88,27.65a8.34,8.34,0,0,0,4.41-1.31s-1,2.32-4.35,2.1Z"/><path class="cls-9" d="M19.27,23.32a.82.82,0,0,1,1.26-.07.49.49,0,0,1,0,.55A.57.57,0,0,1,20,24a1.9,1.9,0,0,1-.59-.33.62.62,0,0,1-.14-.14.15.15,0,0,1,0-.17"/><path class="cls-10" d="M20.4,22.5c-.07,0-.06.49-.48.86s-.94.32-1,.39.12.1.35.1a1.21,1.21,0,0,0,.79-.31,1,1,0,0,0,.37-.72C20.5,22.61,20.44,22.49,20.4,22.5Z"/><path class="cls-10" d="M20.47,17.44c.05.12.5,0,1,.1s1,.18,1,.07,0-.17-.23-.29a1.79,1.79,0,0,0-.78-.25,1.9,1.9,0,0,0-.81.12C20.54,17.28,20.45,17.38,20.47,17.44Z"/><path class="cls-10" d="M16.09,17.88c.1.1.48,0,.94,0s.86,0,.94-.07,0-.16-.2-.25a1.51,1.51,0,0,0-.77-.15,1.55,1.55,0,0,0-.75.23C16.09,17.72,16,17.83,16.09,17.88Z"/><path class="cls-10" d="M22.57,13.4A2.44,2.44,0,0,0,23,16.3c.32.3.74.53.89.94a2.13,2.13,0,0,1-.3,1.55,2.48,2.48,0,0,0-.11,2,10.74,10.74,0,0,1,.56.92c.22.61-.09,1.28-.15,1.93-.08.86.48,1.85,1.34,1.85a1.52,1.52,0,0,0,1.25-.81,3.85,3.85,0,0,0,.41-1.5,44,44,0,0,0,.14-7,4.43,4.43,0,0,0-.34-1.88A3,3,0,0,0,25,13a9,9,0,0,0-2.19-.36"/><path class="cls-10" d="M19.48,12.7A6.39,6.39,0,0,0,25.79,17a4.93,4.93,0,0,0-6.44-4.5"/><path class="cls-10" d="M19.35,12.53c-.08-.23.08-.55.54-.86a3.91,3.91,0,0,1,2.21-.53,5.28,5.28,0,0,1,1.61.32,5.42,5.42,0,0,1,1.69,1,6.11,6.11,0,0,1,2.13,3.9,4.48,4.48,0,0,1,.06.62l.09,1.8-1.82.06a7.23,7.23,0,0,1-3.9-1,6.32,6.32,0,0,1-2.26-2.26,4.21,4.21,0,0,1-.6-2c0-.5.16-.8.38-.87.47-.16,1.1.56,2.12,1.26a7.17,7.17,0,0,0,1.81.94,6.17,6.17,0,0,0,2.3.33L24,17.09c0-.09,0-.18,0-.28a4.23,4.23,0,0,0-.86-2,4.47,4.47,0,0,0-1.51-1.19C20.51,13.08,19.51,13,19.35,12.53Z"/><path class="cls-10" d="M14.76,18.3a19.48,19.48,0,0,0,4.52-4.54,3.87,3.87,0,0,0-4.61,4.49"/><path class="cls-11" d="M33,24s.06-.05.14-.16a.8.8,0,0,0,.13-.53.83.83,0,0,0-.44-.64,1.42,1.42,0,0,0-1-.17,4.18,4.18,0,0,0-.41.09l-.1,0,0-.11a1.41,1.41,0,0,0-.31-.8.75.75,0,0,0-.59-.28.63.63,0,0,0-.4.19c-.07.08-.09.15-.1.14s0-.07,0-.18a.63.63,0,0,1,.44-.26.84.84,0,0,1,.72.28,1.66,1.66,0,0,1,.37.89l-.11-.07a2.7,2.7,0,0,1,.43-.11,1.55,1.55,0,0,1,1.09.21,1,1,0,0,1,.48.77.74.74,0,0,1-.21.58C33.1,23.94,33,24,33,24Z"/><path class="cls-11" d="M30.91,25s0-.2-.12-.46a1.06,1.06,0,0,0-.85-.63h-.3l.09-.14a1.08,1.08,0,0,0,.09-1c-.1-.24-.23-.35-.21-.37s.18.06.32.32a1.13,1.13,0,0,1-.05,1.12l-.08-.14H30a1.15,1.15,0,0,1,.64.29,1,1,0,0,1,.3.47C31,24.84,30.93,25,30.91,25Z"/><path class="cls-11" d="M29.28,15.68s.1.13.09.4a5.28,5.28,0,0,1-.24,1.1,2.48,2.48,0,0,0-.13.73.82.82,0,0,0,.14.36,4.11,4.11,0,0,0,.24.39,2.81,2.81,0,0,1,.41.91,1.71,1.71,0,0,1-.18,1.08c-.18.34-.49.55-.65.82a1.72,1.72,0,0,0-.19.9,3,3,0,0,1-.57,1.57,3.1,3.1,0,0,1-.82.77,1.12,1.12,0,0,1-.38.18,3.76,3.76,0,0,0,1.09-1,3,3,0,0,0,.51-1.51,1.91,1.91,0,0,1,.21-1c.19-.3.49-.51.65-.81a1.47,1.47,0,0,0,.15-1,2.39,2.39,0,0,0-.37-.85c-.08-.14-.17-.27-.24-.4l-.1-.2a.59.59,0,0,1,0-.23,2.57,2.57,0,0,1,.16-.78,6.75,6.75,0,0,0,.29-1.06A1.79,1.79,0,0,0,29.28,15.68Z"/><path class="cls-10" d="M15.3,13.92a2.3,2.3,0,0,1-.1-.79,2.14,2.14,0,0,1,.16-.88,1.3,1.3,0,0,1,.8-.75,1.83,1.83,0,0,1,1.09,0,4.32,4.32,0,0,1,.8.36,3.83,3.83,0,0,1,.68.42A3.72,3.72,0,0,1,18,12a5,5,0,0,0-.79-.31,1.66,1.66,0,0,0-1,0,1.16,1.16,0,0,0-.7.65,2.37,2.37,0,0,0-.19.81A7.46,7.46,0,0,1,15.3,13.92Z"/><path class="cls-10" d="M32.2,21s.15,0,.38-.1a1.5,1.5,0,0,0,.77-.68,1.22,1.22,0,0,0,.13-.69,1.27,1.27,0,0,0-.34-.72,1.19,1.19,0,0,0-.76-.43.79.79,0,0,0-.81.3.53.53,0,0,0-.06.42.4.4,0,0,0,.3.25.29.29,0,0,0,.32-.14.61.61,0,0,0,0-.4,1.65,1.65,0,0,0-1-1.1,1.74,1.74,0,0,0-1-.06c-.24.06-.37.13-.37.12s.1-.1.35-.19a1.78,1.78,0,0,1,1.1,0,1.74,1.74,0,0,1,1.1,1.19.71.71,0,0,1-.06.51.46.46,0,0,1-.5.23.56.56,0,0,1-.44-.36.73.73,0,0,1,.08-.58,1,1,0,0,1,1-.38,1.45,1.45,0,0,1,.86.5,1.48,1.48,0,0,1,.36.82,1.36,1.36,0,0,1-.17.76,1.49,1.49,0,0,1-.85.69,1.37,1.37,0,0,1-.3,0Z"/><path class="cls-11" d="M28.84,14.6s0,.05,0,.16a.94.94,0,0,1-.1.47,1,1,0,0,1-.54.53,1.13,1.13,0,0,1-1-.08l.09,0a1.8,1.8,0,0,1-1.41.8,1.88,1.88,0,0,1-1.67-.89l.13,0-.29.19a3.49,3.49,0,0,1-2.39.39A3.26,3.26,0,0,1,20,15.23a3.2,3.2,0,0,1-.72-1.13,1.92,1.92,0,0,1-.1-.34.69.69,0,0,1,0-.13s.06.16.19.45a3.54,3.54,0,0,0,.74,1.06,3.3,3.3,0,0,0,1.68.88A3.38,3.38,0,0,0,24,15.63a2.68,2.68,0,0,0,.28-.18l.08,0,.05.08a1.69,1.69,0,0,0,1.5.81,1.71,1.71,0,0,0,1.31-.71l0-.05,0,0a1,1,0,0,0,.88.09,1,1,0,0,0,.51-.46A1.17,1.17,0,0,0,28.84,14.6Z"/><path class="cls-11" d="M28.82,17.51s0,.07,0,.2a1,1,0,0,1-.33.46,1.51,1.51,0,0,1-.78.33,2.31,2.31,0,0,1-1-.14,7,7,0,0,1-.78-.33L26,18a1.13,1.13,0,0,1-.37.63,1.3,1.3,0,0,1-.49.28.89.89,0,0,1-.49.06s.18,0,.45-.16a1.19,1.19,0,0,0,.73-.84l0-.11.1.05c.24.1.5.22.77.31a2.29,2.29,0,0,0,.94.14,1.5,1.5,0,0,0,.72-.26A1.45,1.45,0,0,0,28.82,17.51Z"/><path class="cls-11" d="M24.1,11.38a2.51,2.51,0,0,0-.89-.16,1.72,1.72,0,0,0-.91.33,1.67,1.67,0,0,0-.64,1l0,.1-.1,0-.14,0a1.88,1.88,0,0,0-2,.73,3.45,3.45,0,0,0-.39.88.57.57,0,0,1,0-.27,1.88,1.88,0,0,1,.28-.68,2,2,0,0,1,.83-.72,2.06,2.06,0,0,1,1.33-.12l.16.05-.12.06a1.86,1.86,0,0,1,.72-1.06,1.71,1.71,0,0,1,1-.32,1.66,1.66,0,0,1,.69.14A.62.62,0,0,1,24.1,11.38Z"/><path class="cls-11" d="M18.89,13.94a4.11,4.11,0,0,1-.62.6,9.33,9.33,0,0,1-1.69,1.19,4.69,4.69,0,0,1-2,.56,1.76,1.76,0,0,1-.85-.11s.33,0,.84,0a5.22,5.22,0,0,0,1.93-.59,12.92,12.92,0,0,0,1.69-1.13A4.44,4.44,0,0,1,18.89,13.94Z"/><path class="cls-5" d="M69.3,33v-.44c0-.3,0-.72,0-1.28,0-1.12,0-2.76,0-4.86,0-4.19,0-10.2,0-17.52L69.3,9,34.73,9h0l.09-.09c0,8.61,0,16.79,0,24.1l-.08-.08,24.92,0,7.11,0h0l-7.09,0-25,0h-.08V33c0-7.31,0-15.49,0-24.1V8.82h.09l34.57,0h.08v.07c0,7.34,0,13.37,0,17.57,0,2.09,0,3.72,0,4.84v1.26C69.31,32.87,69.3,33,69.3,33Z"/><circle class="cls-5" cx="52.02" cy="20.96" r="5.02" transform="translate(19.6 66.72) rotate(-76.63)"/><path class="cls-5" d="M47.2,29.33a2.82,2.82,0,0,1-.08-.33,1.37,1.37,0,0,0-.52-.73,1.32,1.32,0,1,0,0,2.12,1.37,1.37,0,0,0,.52-.73,2.82,2.82,0,0,1,.08-.33,1,1,0,0,1,0,.35,1.44,1.44,0,0,1-1.9,1.05,1.48,1.48,0,0,1,0-2.8A1.44,1.44,0,0,1,47.19,29,1,1,0,0,1,47.2,29.33Z"/><polygon class="cls-7" points="50.78 20.96 50.78 18.7 52.74 19.83 54.7 20.96 52.74 22.09 50.78 23.22 50.78 20.96"/></g></svg>