<svg id="Layer_1" data-name="Layer 1" xmlns="http://www.w3.org/2000/svg" xmlns:xlink="http://www.w3.org/1999/xlink" viewBox="0 0 64.15 84.1"><defs><style>.cls-1{fill:none;}.cls-2{clip-path:url(#clip-path);}.cls-3{fill:#e1e1e1;}.cls-4{fill:#fafafa;}.cls-5{fill:#ececec;}.cls-6{fill:#f5f5f5;}.cls-7{fill:#1a2e35;}.cls-8{fill:#ffbf9d;}.cls-9{fill:#ff4f5b;}.cls-10{fill:#375a64;}.cls-11{opacity:0.2;}.cls-12{fill:#ff9a6c;}</style><clipPath id="clip-path"><rect class="cls-1" x="0.11" y="0.11" width="63.92" height="83.87"/></clipPath></defs><g class="cls-2"><rect class="cls-3" x="55.55" y="40.42" width="2.06" height="15.45" transform="translate(8.44 104.73) rotate(-90)"/><path class="cls-4" d="M51,47.2a2.33,2.33,0,0,1,.1,1,2.3,2.3,0,0,1-.1,1,2.63,2.63,0,0,1-.09-1A2.67,2.67,0,0,1,51,47.2Z"/><path class="cls-4" d="M50.63,47.16a2.63,2.63,0,0,1,.09,1,2.67,2.67,0,0,1-.09,1,2.33,2.33,0,0,1-.1-1A2.3,2.3,0,0,1,50.63,47.16Z"/><path class="cls-4" d="M63.11,47.2a2.33,2.33,0,0,1,.1,1,2.3,2.3,0,0,1-.1,1,2.63,2.63,0,0,1-.09-1A2.67,2.67,0,0,1,63.11,47.2Z"/><path class="cls-4" d="M62.78,47.16a2.51,2.51,0,0,1,.1,1,2.54,2.54,0,0,1-.1,1,2.33,2.33,0,0,1-.1-1A2.3,2.3,0,0,1,62.78,47.16Z"/><path class="cls-4" d="M60.76,48.21s-1.77.1-3.95.1-4-.05-4-.1a37.35,37.35,0,0,1,4-.1A37.5,37.5,0,0,1,60.76,48.21Z"/><rect class="cls-3" x="54.45" y="50.75" width="4.13" height="15.45" transform="translate(-1.95 114.99) rotate(-90)"/><path class="cls-4" d="M64.44,59.37s0,0-.08.05l-.26.12a4.57,4.57,0,0,1-1,.3,2.75,2.75,0,0,1-1.7-.24,2.33,2.33,0,0,1-.81-.73,1.73,1.73,0,0,1-.28-1.19,1.27,1.27,0,0,1,.29-.62.78.78,0,0,1,.65-.29.92.92,0,0,1,.65.35,1.2,1.2,0,0,1,.3.7,1.9,1.9,0,0,1-.53,1.47,2.34,2.34,0,0,1-1.48.72,3.93,3.93,0,0,1-1.73-.21,3.16,3.16,0,0,1-1.5-1,1.67,1.67,0,0,1-.36-.89,1.19,1.19,0,0,1,.33-.93.75.75,0,0,1,.49-.21.86.86,0,0,1,.5.14,1.32,1.32,0,0,1,.57.83,1.93,1.93,0,0,1-.61,1.82,3.11,3.11,0,0,1-1.74.71,4.36,4.36,0,0,1-1.8-.18A2.45,2.45,0,0,1,52.92,59a1.81,1.81,0,0,1-.17-1.64.83.83,0,0,1,.63-.53,1,1,0,0,1,.77.19,1.28,1.28,0,0,1,.37,1.39,2.39,2.39,0,0,1-.78,1.1,3.52,3.52,0,0,1-2.12.82A3.38,3.38,0,0,1,50,60a3.2,3.2,0,0,1-.88-.65,1.52,1.52,0,0,1-.19-.22.59.59,0,0,1-.05-.08,3.68,3.68,0,0,0,1.15.88,3.44,3.44,0,0,0,1.64.34,3.38,3.38,0,0,0,2-.82,2.32,2.32,0,0,0,.73-1,1.16,1.16,0,0,0-.32-1.22.84.84,0,0,0-.65-.16.72.72,0,0,0-.51.44,1.67,1.67,0,0,0,.17,1.48,2.27,2.27,0,0,0,1.28,1,4,4,0,0,0,1.72.17,2.91,2.91,0,0,0,1.63-.66,1.75,1.75,0,0,0,.55-1.63,1.17,1.17,0,0,0-.48-.72.59.59,0,0,0-.75,0,1,1,0,0,0-.27.77,1.37,1.37,0,0,0,.31.79,3,3,0,0,0,1.41.95,3.75,3.75,0,0,0,1.64.22,2.21,2.21,0,0,0,1.39-.67A1.75,1.75,0,0,0,62,57.84a1,1,0,0,0-.8-.92.62.62,0,0,0-.53.24,1,1,0,0,0-.26.54,1.55,1.55,0,0,0,.25,1.1,2.07,2.07,0,0,0,.75.7,2.64,2.64,0,0,0,1.64.26,4.68,4.68,0,0,0,1.05-.26Z"/><rect class="cls-5" x="53.63" y="45.78" width="7.16" height="14.07" transform="translate(4.39 110.03) rotate(-90)"/><path class="cls-3" d="M52.51,49.48a31.79,31.79,0,0,1,.1,3.47,31.79,31.79,0,0,1-.1,3.47,31.79,31.79,0,0,1-.1-3.47A31.79,31.79,0,0,1,52.51,49.48Z"/><path class="cls-3" d="M53.58,49.39a32.73,32.73,0,0,1,.09,3.43,32.45,32.45,0,0,1-.09,3.42,28.1,28.1,0,0,1-.1-3.42A28.34,28.34,0,0,1,53.58,49.39Z"/><path class="cls-3" d="M62.65,49.16a31.37,31.37,0,0,1,.1,3.61,31.12,31.12,0,0,1-.1,3.6,34.07,34.07,0,0,1-.1-3.6A34.35,34.35,0,0,1,62.65,49.16Z"/><path class="cls-3" d="M61.4,49.26a32.4,32.4,0,0,1,.1,3.51,32.4,32.4,0,0,1-.1,3.51,29.59,29.59,0,0,1-.1-3.51A29.59,29.59,0,0,1,61.4,49.26Z"/><rect class="cls-6" x="44.47" y="60.43" width="20.93" height="67.75"/><rect class="cls-3" x="46.11" y="63.17" width="16.79" height="14.6"/><rect class="cls-3" x="46.11" y="79.42" width="16.79" height="14.6"/><path class="cls-4" d="M54.51,65.87a.59.59,0,1,1-.59-.59A.58.58,0,0,1,54.51,65.87Z"/><path class="cls-4" d="M54.51,82.31a.59.59,0,1,1-.59-.59A.58.58,0,0,1,54.51,82.31Z"/><circle class="cls-3" cx="28.47" cy="4.73" r="12.32" transform="translate(0.37 11.32) rotate(-22.62)"/><path class="cls-4" d="M34.07,5.11l-.44,0-1.2,0c-1,0-2.43,0-4,0h-.1v-.9c0-1.79,0-3.4,0-4.57l0-1.39a2.55,2.55,0,0,1,0-.5,1.84,1.84,0,0,1,0,.5l0,1.39c0,1.17,0,2.78,0,4.57v.8L28.4,5l4,0,1.2,0A1.44,1.44,0,0,1,34.07,5.11Z"/><path class="cls-4" d="M37.34-.32a3.27,3.27,0,0,1-.84.59,3,3,0,0,1-.91.47c0-.05.31-.36.8-.65A2.18,2.18,0,0,1,37.34-.32Z"/><path class="cls-4" d="M39.26,5a4.64,4.64,0,0,1-1.41.11A4.64,4.64,0,0,1,36.44,5a4.64,4.64,0,0,1,1.41-.11A4.64,4.64,0,0,1,39.26,5Z"/><path class="cls-4" d="M19.69,4.81a4.16,4.16,0,0,1-1.33.11A4.2,4.2,0,0,1,17,4.81a4.39,4.39,0,0,1,1.34-.1A4.35,4.35,0,0,1,19.69,4.81Z"/><path class="cls-4" d="M21.07,8.77a4,4,0,0,1-1,.94,4.4,4.4,0,0,1-1.12.77,4.27,4.27,0,0,1,1-.94A4.53,4.53,0,0,1,21.07,8.77Z"/><path class="cls-4" d="M24.49,11.84a6.07,6.07,0,0,1-.67,1.2,5.1,5.1,0,0,1-.75,1.15,3.89,3.89,0,0,1,.57-1.26A3.6,3.6,0,0,1,24.49,11.84Z"/><path class="cls-4" d="M28.44,15.79a4.64,4.64,0,0,1-.11-1.41A4.64,4.64,0,0,1,28.44,13a4.64,4.64,0,0,1,.11,1.41A4.64,4.64,0,0,1,28.44,15.79Z"/><path class="cls-4" d="M34.52,13.91a3.36,3.36,0,0,1-1.18-.78,3.42,3.42,0,0,1-.93-1.06,7.58,7.58,0,0,1,1.07.9A7.33,7.33,0,0,1,34.52,13.91Z"/><path class="cls-4" d="M37.38,10.84a3.71,3.71,0,0,1-1-.81,3.71,3.71,0,0,1-.81-.95,3.93,3.93,0,0,1,1,.8A3.73,3.73,0,0,1,37.38,10.84Z"/><path class="cls-4" d="M20.94,1a2.85,2.85,0,0,1-.84-.7c-.43-.42-.74-.8-.69-.84a2.91,2.91,0,0,1,.84.69A3,3,0,0,1,20.94,1Z"/><path class="cls-7" d="M18.67,22.18a7.88,7.88,0,0,0-8.43,4.7,20,20,0,0,0-1.47,7.4,35.75,35.75,0,0,1-.84,7.53,28.22,28.22,0,0,0-1,3.81A4.21,4.21,0,0,0,8,49.26"/><path class="cls-7" d="M23.36,24.7c1.27,2.59.34,5.72,1,8.52a31.28,31.28,0,0,0,1.23,3.35,32.58,32.58,0,0,1,1.5,7,6,6,0,0,1-.24,3.54,3.65,3.65,0,0,1-3.26,1.77,4.68,4.68,0,0,1-4.15-2.71,9.23,9.23,0,0,1-.51-3.92,106.13,106.13,0,0,1,1.18-17.19"/><path class="cls-8" d="M45.43,37.73l-3-1.15a.71.71,0,0,0-1,.58c-.09.72-.56,2.65-1.06,2l0,0a3.27,3.27,0,0,0-1.94-1.53.42.42,0,0,0-.24.72.38.38,0,0,0,.13.12l.07.05a6,6,0,0,1,.84.95,3.37,3.37,0,0,1,.51,1c.12.41.21.76.28,1.06l-.18,2-3.68,10L29.7,46.75s-3.45,7.63-3.53,7.89,3.24,3.59,5.4,5.82A6.11,6.11,0,0,0,41.9,57.6l2.81-14.08h-.08l.3-1,.94-3.91A.72.72,0,0,0,45.43,37.73Z"/><path class="cls-9" d="M1.11,56.63l1.45-7c1.18-6.6,10.71-7.26,10.71-7.26l7.26-.13s5.38-.73,8.7,3S34.48,51,34.48,51l-5,8-3.42-3.54a7.88,7.88,0,0,1,1,3.66c0,2.15-2.24,3.14-2.24,3.14l-.56,5.46,2.78,5.32L4.26,78.12c.45-3.82.17-6.75,2-9.61L8,57.84Z"/><path class="cls-7" d="M4.13,78.11s32.23-9.4,35.14-8,15,35.09,15,35.09L45,109.67,33.22,80.91S10.33,89.83,6.66,89.07,4.13,78.11,4.13,78.11Z"/><path class="cls-7" d="M17.73,77.15c.46.16,18.13,5.94,19.35,8.23S36,128.49,36,128.49l-10.81,1.13.67-40L6.47,89.11Z"/><path class="cls-10" d="M6.37,89.11l.29,0,.8-.14c.7-.13,1.72-.33,3-.6,2.49-.53,5.92-1.33,9.66-2.4,1.87-.55,3.63-1.11,5.23-1.66s3-1.1,4.18-1.6c.59-.24,1.12-.48,1.58-.69l1.17-.55.73-.37c.17-.09.26-.14.25-.15L33,81l-.75.33c-.32.15-.72.32-1.18.51s-1,.43-1.59.66c-1.18.48-2.6,1-4.19,1.55s-3.36,1.1-5.22,1.64c-3.73,1.07-7.15,1.9-9.63,2.46l-2.94.67-.8.19A.92.92,0,0,0,6.37,89.11Z"/><path class="cls-10" d="M37.35,94.44a2.26,2.26,0,0,0,.09-.57c0-.41.1-.93.16-1.56s.14-1.45.22-2.31a10.59,10.59,0,0,0,0-2.87,4.49,4.49,0,0,0-1.45-2.48,7.31,7.31,0,0,0-2-1.26,14.32,14.32,0,0,0-1.46-.58,3,3,0,0,0-.56-.16s.76.31,2,.88a7.71,7.71,0,0,1,1.91,1.27,4.3,4.3,0,0,1,1.36,2.37,10.6,10.6,0,0,1,0,2.81c-.06.86-.12,1.64-.17,2.32s-.06,1.15-.09,1.57A4.14,4.14,0,0,0,37.35,94.44Z"/><path class="cls-10" d="M38.52,26.55s2.71-.52,6.6-4.06,5.81-8.32,6.27-8.28,2.52-.85,6.13,7.64,2,10.38,1.28,10.35-5.93-1.64-9.19-1.36a35.19,35.19,0,0,0-7.49,1.85Z"/><path class="cls-7" d="M32.68,31l.86,1.77.39.79a2.3,2.3,0,0,0,3,1.1l5.82-1.85L39.56,25l-5.85,2.9A2.27,2.27,0,0,0,32.68,31Z"/><path class="cls-7" d="M35.92,33.84l1.74,3.65.93-.23,5.86,5.06,1.77-3.24s-3.5-1.63-4.12-2.91.14-1.55.14-1.55l-1.61-1.95Z"/><path class="cls-7" d="M57.2,22c1.92,4.6,2.66,8.66,1.65,9.08s-3.38-3-5.3-7.55-2.66-8.66-1.65-9.09S55.28,17.4,57.2,22Z"/><polygon class="cls-10" points="32.11 33.46 33.69 33.01 32.77 31.14 31.58 31.84 32.11 33.46"/><polygon class="cls-10" points="41.18 33.34 36.9 35.9 36.41 34.86 41.18 33.34"/><polygon class="cls-10" points="32.77 31.14 33.69 33.01 33.36 33.1 32.63 31.23 32.77 31.14"/><g class="cls-11"><path d="M42.47,32.18l1.07-.36"/></g><path class="cls-10" d="M33.84,31.6A8.8,8.8,0,0,0,35.6,31a9.11,9.11,0,0,0,1.68-.81,8.8,8.8,0,0,0-1.76.63A8.41,8.41,0,0,0,33.84,31.6Z"/><path class="cls-10" d="M33.39,30.49A7.7,7.7,0,0,0,35,29.87a7.54,7.54,0,0,0,1.52-.8,6.86,6.86,0,0,0-1.6.62A7,7,0,0,0,33.39,30.49Z"/><path class="cls-10" d="M34.41,32.77a1.66,1.66,0,0,0,.49-.1l.53-.15c.19-.07.39-.16.61-.26a6.26,6.26,0,0,0,1.51-.79,8.82,8.82,0,0,0-1.59.61c-.21.09-.41.19-.6.26l-.5.2C34.58,32.65,34.4,32.74,34.41,32.77Z"/><path class="cls-10" d="M53.06,20.86s2.38-1.38,3.57,1.82-1.29,3.64-1.29,3.64A20.94,20.94,0,0,1,53.06,20.86Z"/><path class="cls-7" d="M50.67,17a5.2,5.2,0,0,0,.08.6c.06.39.15.95.28,1.65.09.34.19.71.29,1.11.06.2.11.41.17.62l.08.33.12.32c.15.44.32.9.49,1.38l.12.36c.05.13.11.24.16.36l.33.73.32.73c.06.11.11.24.17.35l.19.33c.24.45.48.88.71,1.28a2.14,2.14,0,0,0,.17.3l.18.29.36.53.65,1c.43.55.79,1,1,1.29A2.38,2.38,0,0,0,57,31a3.94,3.94,0,0,0-.35-.5l-1-1.34-.62-1c-.11-.18-.23-.36-.35-.54l-.18-.28a2.85,2.85,0,0,1-.16-.3c-.23-.41-.46-.83-.7-1.28l-.18-.33c-.06-.11-.11-.23-.17-.35L53,24.41q-.16-.37-.33-.72c0-.12-.11-.24-.15-.36L52.36,23l-.5-1.36c0-.11-.08-.22-.11-.33L51.66,21l-.18-.61c-.11-.4-.21-.77-.31-1.11l-.34-1.62A2.54,2.54,0,0,0,50.67,17Z"/><path class="cls-8" d="M42.51,36.78a4,4,0,0,0,.06,1.61c0,.18.16.4.35.37a.33.33,0,0,0,.22-.18,1.88,1.88,0,0,0,.31-.94,3.06,3.06,0,0,0,.1,1.44c.06.21.19.45.42.47s.42-.25.45-.5a3,3,0,0,1,.08-.74,6.31,6.31,0,0,0,0,1.44,1,1,0,0,0,.1.43.44.44,0,0,0,.34.25.44.44,0,0,0,.39-.24,1.25,1.25,0,0,0,.12-.46c.06-.54.1-1.07.12-1.6"/><path class="cls-7" d="M25.36,42.75c0-.08.27-.13.68-.34a3.07,3.07,0,0,0,1.3-1.33,3.26,3.26,0,0,0,.4-1.21,4.39,4.39,0,0,0-.09-1.47,9.58,9.58,0,0,0-1.58-3.19A25.74,25.74,0,0,1,24,32a7.84,7.84,0,0,1-.79-3.14,6.66,6.66,0,0,1,.26-2.15c.16-.49.31-.73.38-.71s.06.3,0,.78a10.52,10.52,0,0,0,.08,2,7.93,7.93,0,0,0,.92,2.76A31.83,31.83,0,0,0,27,34.6a9.41,9.41,0,0,1,1.66,3.6,4.84,4.84,0,0,1,0,1.82A4.13,4.13,0,0,1,28,41.48a3.12,3.12,0,0,1-1.81,1.32C25.65,42.92,25.36,42.81,25.36,42.75Z"/><path class="cls-8" d="M20.21,42.15c0-1.52.11-2.92.11-2.92a3.7,3.7,0,0,0,3.19-3.52c.12-3.12-.2-10.32-.2-10.32l-5.64-2.7L12.76,28.3,12.7,42a3.75,3.75,0,0,0,3.73,3.77h0A3.76,3.76,0,0,0,20.21,42.15Z"/><path class="cls-7" d="M22.64,30.69a.4.4,0,0,1-.38.41.39.39,0,0,1-.4-.39.39.39,0,1,1,.78,0Z"/><path class="cls-7" d="M23.17,30.2c-.05.06-.34-.19-.76-.2s-.73.19-.78.14,0-.12.16-.22A1,1,0,0,1,23,30C23.15,30.08,23.19,30.18,23.17,30.2Z"/><path class="cls-7" d="M18.14,30.69a.39.39,0,1,1-.4-.39A.39.39,0,0,1,18.14,30.69Z"/><path class="cls-7" d="M18.52,30.29c-.05.05-.34-.19-.76-.21s-.73.2-.78.15,0-.13.17-.23a1.06,1.06,0,0,1,.62-.18,1,1,0,0,1,.6.24C18.5,30.17,18.54,30.27,18.52,30.29Z"/><path class="cls-7" d="M20.1,33.9a2.66,2.66,0,0,1,.68-.11c.11,0,.21,0,.23-.1a.57.57,0,0,0-.06-.34l-.31-.89A16.37,16.37,0,0,1,20,30.15a15.07,15.07,0,0,1,.85,2.25l.29.89a.68.68,0,0,1,0,.45.27.27,0,0,1-.18.17l-.18,0A3.31,3.31,0,0,1,20.1,33.9Z"/><path class="cls-12" d="M20.32,39.23a7.49,7.49,0,0,1-4.06-1.32,3.91,3.91,0,0,0,4,2.09Z"/><path class="cls-12" d="M20,35a.83.83,0,0,0-.49-.6.68.68,0,0,0-.54,0,.49.49,0,0,0-.25.46.56.56,0,0,0,.44.41,1.45,1.45,0,0,0,.62-.05.28.28,0,0,0,.16-.06A.15.15,0,0,0,20,35"/><path class="cls-7" d="M18.91,33.88s-.08.12-.06.32a1.11,1.11,0,0,0,.34.71,1.12,1.12,0,0,0,.73.3c.2,0,.32-.05.31-.08s-.49,0-.88-.39S19,33.88,18.91,33.88Z"/><path class="cls-7" d="M23.57,25a3.76,3.76,0,0,1-3.71,3.29c.28-.62.56-1.25.85-1.87a8.93,8.93,0,0,1-2.57,2.3,3,3,0,0,1-3.27-.16c-.29.76-.28,1.61-.54,2.39s-.88,4-1.69,3.84-1.27-3.33-1.46-4A6.63,6.63,0,0,1,12.64,25a8,8,0,0,1,6.55-2.77,5.54,5.54,0,0,1,3,1.07,4.25,4.25,0,0,1,1.5,2.39"/><path class="cls-7" d="M23.68,28.78a2.6,2.6,0,0,1-.88-1.4,7.2,7.2,0,0,1-.2-1.67c0-.16,0-.37.17-.41s.28.11.35.25a5.39,5.39,0,0,1,.56,3.39l-.1-.09"/><path class="cls-7" d="M11.4,27.12A50.1,50.1,0,0,0,10,46.89a11.35,11.35,0,0,0,.11,1.85,1.66,1.66,0,0,0,1.32,1.19c.58,0,1.22-.31,1.72,0s.47.74.76,1.08a1.45,1.45,0,0,0,1.51.37,2.57,2.57,0,0,0,1.27-1,6.43,6.43,0,0,0,.53-5.51c-.53-1.84-1.47-3.54-2-5.36-1.06-3.41-.75-7.08-.43-10.64L15,25.74"/><path class="cls-8" d="M28.7,55.63C30.16,54.14,30,54,29.83,53.86c-.53-.39-2.66,2.52-2.56,1.62s3-3.25,2.44-3.63c-.75-.51-2.93,2.59-3.13,2.83s-.56,0-.37-.26,3.15-3.6,2.42-4.1c-.41-.28-.82.51-.82.51s-2.46,3.29-2.8,3,1-2.23,1.55-2.86.42-1.13,0-1.13a13,13,0,0,0-2.41,2.54c-.49.64-1.81,2.41-1.86,1v-.06a3.81,3.81,0,0,0-.83-2.7.49.49,0,0,0-.7.52.39.39,0,0,0,.05.2l0,.1A7.18,7.18,0,0,1,21,52.9a3.7,3.7,0,0,1-.17,1.28c-.15.47-.3.87-.43,1.2l-.21.26L8.24,62.37V56.71s-6.57-.28-6.81-.1a32.73,32.73,0,0,0,0,9,7,7,0,0,0,11.59,4l9.89-9,0,0,1.41-1.16.27-.43.33-.3A41.94,41.94,0,0,0,28.7,55.63Z"/></g></svg>