<svg id="Layer_1" data-name="Layer 1" xmlns="http://www.w3.org/2000/svg" xmlns:xlink="http://www.w3.org/1999/xlink" viewBox="0 0 64.15 84.1"><defs><style>.cls-1{fill:none;}.cls-2{clip-path:url(#clip-path);}.cls-3{fill:#ff4f5b;}.cls-4{fill:#ececec;}.cls-5{fill:#1a2e35;}.cls-6{clip-path:url(#clip-path-2);}.cls-7{fill:#f5f5f5;}.cls-8{fill:#fafafa;}.cls-9{fill:#375a64;}.cls-10{opacity:0.8;}.cls-11{fill:#fff;}.cls-12{opacity:0.6;}.cls-13{opacity:0.3;}</style><clipPath id="clip-path"><rect class="cls-1" x="0.11" y="-112.66" width="63.92" height="83.87"/></clipPath><clipPath id="clip-path-2"><rect class="cls-1" x="0.11" y="0.11" width="63.92" height="83.87"/></clipPath></defs><g class="cls-2"><path class="cls-3" d="M49.51,30.23l.42,7.13s7.31,1.38,7.52,2.69L43.73,42,42.62,30.87Z"/><path class="cls-4" d="M45.61,37.17a.57.57,0,0,0-.33.68.53.53,0,0,0,.67.33.59.59,0,0,0,.34-.72.56.56,0,0,0-.73-.27"/><path class="cls-4" d="M43.73,42l-.11-1.11,13-1.55s.8.35.84.78Z"/><path class="cls-5" d="M50.15,37.27c0,.07-.33.13-.64.38s-.46.55-.53.53,0-.42.38-.71S50.16,37.21,50.15,37.27Z"/><path class="cls-5" d="M51.65,37.73c0,.07-.26.21-.46.52s-.24.61-.3.62-.15-.38.11-.76S51.65,37.67,51.65,37.73Z"/><path class="cls-5" d="M52.64,39.39c-.06,0-.18-.31,0-.69s.44-.57.48-.51-.15.27-.25.58S52.71,39.38,52.64,39.39Z"/><path class="cls-5" d="M49.87,35.66c0,.06-.34,0-.72.06s-.66.21-.7.16.22-.33.67-.39S49.9,35.6,49.87,35.66Z"/><path class="cls-5" d="M49.76,34.22a1.3,1.3,0,0,1-.69.06,2.78,2.78,0,0,1-.74-.15,3.69,3.69,0,0,1-.42-.17.9.9,0,0,1-.23-.15.28.28,0,0,1-.06-.35.34.34,0,0,1,.28-.18.73.73,0,0,1,.26,0,3,3,0,0,1,.45.1,2.61,2.61,0,0,1,.67.36c.35.27.49.51.46.52s-.2-.17-.55-.38a2.63,2.63,0,0,0-.65-.29,1.75,1.75,0,0,0-.41-.08c-.15,0-.27,0-.3,0s0,0,0,.08a.74.74,0,0,0,.16.1,2.2,2.2,0,0,0,.39.17,3.93,3.93,0,0,0,.69.2A4,4,0,0,1,49.76,34.22Z"/><path class="cls-5" d="M49.68,34.32s-.18-.21-.24-.65a2.19,2.19,0,0,1,0-.76,2,2,0,0,1,.14-.44.58.58,0,0,1,.4-.39.32.32,0,0,1,.31.17,1,1,0,0,1,.1.24,1.52,1.52,0,0,1,0,.47,1.58,1.58,0,0,1-.23.74c-.23.38-.51.49-.51.47s.19-.18.37-.55a1.66,1.66,0,0,0,.15-.67,1.41,1.41,0,0,0,0-.4c0-.14-.1-.25-.15-.23s-.18.12-.22.25a2,2,0,0,0-.14.39,2.55,2.55,0,0,0-.07.7C49.62,34.07,49.72,34.31,49.68,34.32Z"/><path class="cls-3" d="M18.48,29.31l-1.6,8.83-3.27,6.61A.92.92,0,0,0,14.09,46h0a.91.91,0,0,0,.83-.07c1.61-1,7.49-4.77,7.57-5.42s2.29-9.2,2.29-9.2Z"/><path class="cls-4" d="M14.09,46l8.52-6.08-.08.37a1.34,1.34,0,0,1-.5.81c-.69.55-2.63,2-7.08,4.83a.91.91,0,0,1-.86.07Z"/><path class="cls-4" d="M21.38,37.36a.55.55,0,0,0-.29.68.53.53,0,0,0,.67.29.59.59,0,0,0,.31-.72.55.55,0,0,0-.73-.23"/><path class="cls-5" d="M16.88,42.58a2.83,2.83,0,0,0-.63-.84,2.84,2.84,0,0,0-1-.4s.13-.07.34-.06a1.51,1.51,0,0,1,.76.3,1.54,1.54,0,0,1,.48.66C16.91,42.44,16.9,42.58,16.88,42.58Z"/><path class="cls-5" d="M16,43.63c-.05,0-.27-.32-.7-.54a6,6,0,0,0-.83-.28,1,1,0,0,1,.92.11C15.89,43.18,16.06,43.61,16,43.63Z"/><path class="cls-5" d="M18.35,41.31a8.16,8.16,0,0,0-1-.9,8.19,8.19,0,0,0-1.24-.57,2,2,0,0,1,1.35.4A2,2,0,0,1,18.35,41.31Z"/><path class="cls-5" d="M19.06,38.67s-.48-.26-1.11-.41-1.15-.1-1.16-.16a1.75,1.75,0,0,1,1.21,0A1.83,1.83,0,0,1,19.06,38.67Z"/><path class="cls-5" d="M19.59,36.09a4.06,4.06,0,0,0-1.14-.45,4.86,4.86,0,0,0-1.22,0s.11-.11.33-.19a2.09,2.09,0,0,1,.93-.06,2,2,0,0,1,.85.36C19.53,36,19.61,36.07,19.59,36.09Z"/><path class="cls-5" d="M18.57,35.15a.8.8,0,0,1,.05-.34,2.41,2.41,0,0,1,.45-.81,1,1,0,0,1,.54-.4.37.37,0,0,1,.39.16.59.59,0,0,1,.05.43,1.31,1.31,0,0,1-1.35,1,1.5,1.5,0,0,1-1.29-1.07.51.51,0,0,1,.06-.43.35.35,0,0,1,.41-.11,1.24,1.24,0,0,1,.52.42,2.74,2.74,0,0,1,.46.8.84.84,0,0,1,.07.33,4.12,4.12,0,0,0-.64-1,1.16,1.16,0,0,0-.46-.36.18.18,0,0,0-.22.06.4.4,0,0,0,0,.29,1.35,1.35,0,0,0,1.13.91,1.13,1.13,0,0,0,1.17-.79.49.49,0,0,0,0-.3.21.21,0,0,0-.22-.09.92.92,0,0,0-.46.33A3.6,3.6,0,0,0,18.57,35.15Z"/><path class="cls-5" d="M19-30.29c-.09,0-3,66.82-3,66.82H25L29.29.33l2.24-27.66L36.17-1.44l5.61,36.86,9-1.93L44.69-32.34,31.94-39.4Z"/></g><g class="cls-6"><path class="cls-7" d="M76.16,52c-3.54-5.14-11.77-6.14-16.43-2A10.75,10.75,0,0,0,41.4,42.59c.67-2.34-1.78-4.61-4.21-4.74S32.52,39,30.44,40.28s-4.34,2.54-6.76,2.38c-2.63-.18-4.81-2-7.26-3-6-2.32-13.6,1.8-14.93,8.1-6.65-2.68-15.17,1.71-16.84,8.67l97.28,1.14A7.75,7.75,0,0,0,76.16,52Z"/><path class="cls-8" d="M72.24,20.64c.17-1.22-1.55-2.23-2.85-2.33a7.59,7.59,0,0,1-1.85-.16c-1.26-.44-1.77-2.08-3-2.61a3.55,3.55,0,0,0-2.89.41A7.51,7.51,0,0,1,58.86,17c-.88.05-1.82-.27-2.59.16-.57.31-.86,1-1.39,1.36a3.41,3.41,0,0,1-1.81.49,5.15,5.15,0,0,0-1.88.3,1.49,1.49,0,0,0-.94,1.51Z"/><path class="cls-4" d="M87.83,33.11c.2-1.41-1.79-2.56-3.28-2.68a8.29,8.29,0,0,1-2.12-.19c-1.46-.5-2-2.39-3.46-3a4.06,4.06,0,0,0-3.32.47A8.74,8.74,0,0,1,72.44,29c-1,.06-2.09-.31-3,.18-.66.36-1,1.12-1.6,1.56a3.78,3.78,0,0,1-2.09.57,6,6,0,0,0-2.16.35,1.71,1.71,0,0,0-1.07,1.73Z"/><path class="cls-7" d="M19,21.33c.22-1.56-2-2.84-3.63-3a9.22,9.22,0,0,1-2.35-.2c-1.61-.57-2.26-2.65-3.83-3.31a4.46,4.46,0,0,0-3.67.52A9.67,9.67,0,0,1,2,16.74c-1.11.08-2.31-.34-3.28.21-.73.4-1.11,1.23-1.77,1.72a4.15,4.15,0,0,1-2.31.63,6.63,6.63,0,0,0-2.39.39A1.88,1.88,0,0,0-8.94,21.6Z"/><rect class="cls-9" x="-18.2" y="55.1" width="101.94" height="67.41" rx="3.89"/><rect class="cls-5" x="-15.46" y="57.78" width="96.18" height="56.93"/><rect class="cls-4" x="-13.48" y="59.7" width="92.41" height="54.82" rx="0.87"/><polygon class="cls-8" points="78.83 114.6 -13.58 114.6 -13.48 63.8 78.83 63.8 78.83 114.6"/><path class="cls-3" d="M69.1,85.67a9.24,9.24,0,0,0-2.95,9.18,7.49,7.49,0,0,0-8.82,8.76,6.51,6.51,0,0,0-8.6,1.46,9.74,9.74,0,0,0-1-5c-.9-1.46-2.94-2.35-4.38-1.43a3.85,3.85,0,0,0-3.89-6.27c0-2.06-1.34-16.58-2.41-28.83H28c-1.05,12-2.29,25.86-2.33,27.86a3.86,3.86,0,0,0-3.89,6.28c-1.43-.92-3.47,0-4.37,1.43a9.71,9.71,0,0,0-1,5,6.51,6.51,0,0,0-8.59-1.45,7.64,7.64,0,0,0-2.08-6.73,7.64,7.64,0,0,0-6.75-2A9.23,9.23,0,0,0-4,84.71a9.24,9.24,0,0,0-9.56-1.27v31.13H78.65V84.4A9.25,9.25,0,0,0,69.1,85.67Z"/><g class="cls-10"><path class="cls-11" d="M69.1,85.67a9.24,9.24,0,0,0-2.95,9.18,7.49,7.49,0,0,0-8.82,8.76,6.51,6.51,0,0,0-8.6,1.46,9.74,9.74,0,0,0-1-5c-.9-1.46-2.94-2.35-4.38-1.43a3.85,3.85,0,0,0-3.89-6.27c0-2.06-1.34-16.58-2.41-28.83H28c-1.05,12-2.29,25.86-2.33,27.86a3.86,3.86,0,0,0-3.89,6.28c-1.43-.92-3.47,0-4.37,1.43a9.71,9.71,0,0,0-1,5,6.51,6.51,0,0,0-8.59-1.45,7.64,7.64,0,0,0-2.08-6.73,7.64,7.64,0,0,0-6.75-2A9.23,9.23,0,0,0-4,84.71a9.24,9.24,0,0,0-9.56-1.27v31.13H78.65V84.4A9.25,9.25,0,0,0,69.1,85.67Z"/></g><path class="cls-3" d="M68.55,108.36a14.58,14.58,0,0,0-20.73,4.78,8.73,8.73,0,0,0-3.09-2.6,5.64,5.64,0,0,0,.21-.7,6.17,6.17,0,0,0-7.44-7.39L34.77,63.57H31.19V99.31a4,4,0,0,0-3,5.07,4.8,4.8,0,0,0-3.61,2.67,5.21,5.21,0,0,0-.06,2.54,8.86,8.86,0,0,0-6.95,3.55,14.76,14.76,0,0,0-9.33-6.88,14.76,14.76,0,0,0-11.4,2.1,9,9,0,0,0-10.52-6.69v13l41.6,0a3.17,3.17,0,0,0,.88.12L39,114.58l40.08,0v-13A9,9,0,0,0,68.55,108.36Z"/><g class="cls-12"><path class="cls-11" d="M68.55,108.36a14.58,14.58,0,0,0-20.73,4.78,8.73,8.73,0,0,0-3.09-2.6,5.64,5.64,0,0,0,.21-.7,6.17,6.17,0,0,0-7.44-7.39L34.77,63.57H31.19V99.31a4,4,0,0,0-3,5.07,4.8,4.8,0,0,0-3.61,2.67,5.21,5.21,0,0,0-.06,2.54,8.86,8.86,0,0,0-6.95,3.55,14.76,14.76,0,0,0-9.33-6.88,14.76,14.76,0,0,0-11.4,2.1,9,9,0,0,0-10.52-6.69v13l41.6,0a3.17,3.17,0,0,0,.88.12L39,114.58l40.08,0v-13A9,9,0,0,0,68.55,108.36Z"/></g><path class="cls-3" d="M29.08,51.4a4.38,4.38,0,0,0-1.91,5.79,7,7,0,0,1,1.2,2.37c.14,1.37-1.15,2.44-1.55,3.76a3.11,3.11,0,0,0,2.11,3.77c.7.19,1.54.16,2,.71.6.7.17,1.88.68,2.65a1.67,1.67,0,0,0,2.25.26,3.87,3.87,0,0,0,1.35-2,9.39,9.39,0,0,1,1-2.31,16.33,16.33,0,0,1,2-1.94,7.41,7.41,0,0,0,1.65-6.2,16.1,16.1,0,0,0-2.61-6.06"/><g class="cls-13"><path class="cls-11" d="M29.08,51.4a4.38,4.38,0,0,0-1.91,5.79,7,7,0,0,1,1.2,2.37c.14,1.37-1.15,2.44-1.55,3.76a3.11,3.11,0,0,0,2.11,3.77c.7.19,1.54.16,2,.71.6.7.17,1.88.68,2.65a1.67,1.67,0,0,0,2.25.26,3.87,3.87,0,0,0,1.35-2,9.39,9.39,0,0,1,1-2.31,16.33,16.33,0,0,1,2-1.94,7.41,7.41,0,0,0,1.65-6.2,16.1,16.1,0,0,0-2.61-6.06"/></g><path class="cls-3" d="M30.88,52.55a3.5,3.5,0,0,0-1.51,4.8c.6,1,1.76,1.89,1.48,3-.19.76-1,1.23-1.25,2a1.87,1.87,0,0,0,1.68,2.18,3.77,3.77,0,0,0,2.83-1.12C36.84,61,37.5,56.31,35.8,53.1"/><path class="cls-3" d="M39.85,37.26s8.93,5.91,7.95,16.13L39.59,49.7Z"/><polygon class="cls-5" points="25.01 49.5 27.04 52.86 37.56 52.86 39.59 49.69 25.01 49.5"/><path class="cls-3" d="M31.75,15.58a7.81,7.81,0,0,0-7.28,7.94L25,49.69H39.59l.49-26.18A7.8,7.8,0,0,0,31.75,15.58Z"/><g class="cls-10"><path class="cls-11" d="M31.75,15.58a7.81,7.81,0,0,0-7.28,7.94L25,49.69H39.59l.49-26.18A7.8,7.8,0,0,0,31.75,15.58Z"/></g><path class="cls-3" d="M24.75,37.26s-8.93,5.91-7.95,16.13L25,49.7Z"/><path class="cls-3" d="M24.56,22.66C27.64,20,37.32,20,39.92,22.21A16.2,16.2,0,0,0,31.83,8.87,17.12,17.12,0,0,0,24.56,22.66Z"/><path class="cls-5" d="M31.83,8.87l.09.07.25.24.4.38.26.25.28.3.64.7.71.89.37.52c.12.18.26.35.38.55.24.4.5.81.73,1.27a14.9,14.9,0,0,1,1.2,3.13A13.31,13.31,0,0,1,37.49,19c0,.32.07.65.11,1a8.44,8.44,0,0,1,0,1c0,2.71,0,5.69-.07,8.82-.07,6.26-.16,11.92-.23,16,0,2.05-.06,3.71-.08,4.86l0,1.32v.34a.55.55,0,0,1,0,.12V50.69l.06-4.86c.06-4.1.13-9.76.21-16,0-3.13.08-6.11.08-8.82,0-.34,0-.67,0-1s-.06-.65-.11-1a14.48,14.48,0,0,0-.34-1.83,14.8,14.8,0,0,0-1.19-3.12c-.23-.46-.49-.87-.73-1.27-.11-.2-.25-.38-.37-.56s-.24-.35-.36-.51l-.71-.89c-.23-.26-.44-.5-.64-.71l-.27-.3-.25-.25-.4-.39L31.91,9Z"/><ellipse class="cls-8" cx="31.75" cy="28.5" rx="3.85" ry="3.58" transform="matrix(0.22, -0.98, 0.98, 0.22, -2.93, 53.36)"/><path class="cls-5" d="M32.58,24.74h-.06l-.18,0-.13,0h-.54a3.11,3.11,0,0,0-.49.06,4.85,4.85,0,0,0-.55.17,3.67,3.67,0,0,0-1.19.76,3.81,3.81,0,0,0-1,1.41c0,.14-.11.29-.15.44l-.06.23,0,.24,0,.13v.12l0,.25V29A3.81,3.81,0,0,0,29,31a3.41,3.41,0,0,0,1.92,1.22,3.36,3.36,0,0,0,2.26-.3,3.76,3.76,0,0,0,1.56-1.47l.06-.11.06-.11L35,30l.09-.24,0-.11,0-.12.06-.24a2.23,2.23,0,0,0,0-.23,2.63,2.63,0,0,0,.06-.47A3.79,3.79,0,0,0,35,26.91a3.52,3.52,0,0,0-.75-1.18,3,3,0,0,0-.43-.39,2.83,2.83,0,0,0-.42-.26l-.18-.1-.17-.07-.14-.06-.13,0-.17,0-.05,0,.06,0,.17,0,.12,0,.15.06.17.07.19.09a3.46,3.46,0,0,1,.42.26,3.08,3.08,0,0,1,.44.39,3.78,3.78,0,0,1,.78,1.19,4,4,0,0,1,.28,1.7,3.91,3.91,0,0,1,0,.48,2,2,0,0,1,0,.24l-.07.24,0,.12,0,.12L35,30l-.12.23-.05.12-.07.11A3.76,3.76,0,0,1,33.22,32a3.41,3.41,0,0,1-4.28-.94,3.9,3.9,0,0,1-.8-2V28.5l0-.26v-.12l0-.13,0-.24c0-.08.05-.16.07-.24a2.64,2.64,0,0,1,.15-.45,4,4,0,0,1,1-1.42,3.85,3.85,0,0,1,1.21-.76,3.74,3.74,0,0,1,.56-.16,3.25,3.25,0,0,1,.49-.06h.55l.13,0,.18,0Z"/><path class="cls-5" d="M28.06,27.93s-.83,0-1.81.2-1.76.48-1.78.43a2.42,2.42,0,0,1,.49-.23A7.09,7.09,0,0,1,26.22,28a7.47,7.47,0,0,1,1.3-.11A1.7,1.7,0,0,1,28.06,27.93Z"/><path class="cls-5" d="M39.85,27.92a3.42,3.42,0,0,1-.66-.06c-.4-.05-.95-.11-1.57-.16s-1.17-.05-1.58-.06a3.92,3.92,0,0,1-.65,0,2.17,2.17,0,0,1,.65-.08,14.56,14.56,0,0,1,1.59,0,14.29,14.29,0,0,1,1.58.21A2.39,2.39,0,0,1,39.85,27.92Z"/><path class="cls-5" d="M39.93,42.9h-.16l-.44,0-1.62-.12c-1.37-.1-3.26-.19-5.35-.19s-4,.1-5.35.2l-1.62.13-.44,0c-.1,0-.16,0-.16,0l.15,0,.44-.06c.38,0,.93-.11,1.62-.17,1.37-.13,3.26-.24,5.36-.25s4,.11,5.36.23l1.62.18.44.06Z"/><path class="cls-5" d="M28.45,31.68s-.1,0-.16.13a.23.23,0,0,0,0,.18.19.19,0,0,0,.17.12.17.17,0,0,0,.18-.09.23.23,0,0,0,0-.18c0-.12-.13-.14-.13-.16s.12,0,.22.11a.31.31,0,0,1,0,.29.33.33,0,0,1-.61,0,.32.32,0,0,1,.08-.28C28.33,31.62,28.45,31.66,28.45,31.68Z"/><path class="cls-5" d="M31.62,33.39s-.09,0-.15.14a.23.23,0,0,0,0,.18.18.18,0,0,0,.17.11.19.19,0,0,0,.18-.08.25.25,0,0,0,0-.19c-.05-.11-.13-.13-.13-.16s.12,0,.22.11a.32.32,0,0,1,0,.29.32.32,0,0,1-.32.18.3.3,0,0,1-.29-.23.29.29,0,0,1,.08-.28C31.51,33.33,31.63,33.37,31.62,33.39Z"/><path class="cls-5" d="M35.13,31.93s-.09,0-.15.13a.25.25,0,0,0,0,.19.18.18,0,0,0,.17.11.17.17,0,0,0,.18-.09.23.23,0,0,0,0-.18c0-.11-.14-.14-.13-.16s.12,0,.22.11a.3.3,0,0,1-.29.47.3.3,0,0,1-.28-.23.32.32,0,0,1,.07-.28C35,31.87,35.14,31.91,35.13,31.93Z"/><path class="cls-5" d="M36.27,29.31s-.09,0-.15.13a.25.25,0,0,0,0,.19c0,.06.08.1.16.11a.18.18,0,0,0,.19-.09.23.23,0,0,0,0-.18c0-.11-.14-.14-.13-.16s.12,0,.22.11a.3.3,0,0,1-.29.47.32.32,0,0,1-.29-.23.35.35,0,0,1,.08-.28C36.15,29.25,36.28,29.29,36.27,29.31Z"/><path class="cls-5" d="M27.29,29.06s-.09,0-.16.13a.23.23,0,0,0,0,.18.2.2,0,0,0,.17.12c.08,0,.16,0,.18-.09a.23.23,0,0,0,0-.18c0-.12-.13-.14-.13-.16s.13,0,.23.1a.37.37,0,0,1,0,.3.32.32,0,0,1-.32.18.34.34,0,0,1-.29-.23.35.35,0,0,1,.08-.28C27.17,29,27.3,29,27.29,29.06Z"/><path class="cls-5" d="M35.12,25.46s.09,0,.16-.13a.24.24,0,0,0,0-.19.2.2,0,0,0-.17-.11.17.17,0,0,0-.18.09.23.23,0,0,0,0,.18c0,.11.13.14.13.16s-.13,0-.22-.11a.31.31,0,0,1,0-.29.33.33,0,0,1,.61.05.32.32,0,0,1-.08.28C35.24,25.52,35.11,25.48,35.12,25.46Z"/><path class="cls-5" d="M31.62,23.91s.09,0,.15-.14a.23.23,0,0,0,0-.18.17.17,0,0,0-.17-.11.19.19,0,0,0-.18.08.25.25,0,0,0,0,.19c.05.11.14.13.13.16s-.12,0-.22-.11a.3.3,0,0,1,.28-.47.3.3,0,0,1,.21.51C31.73,24,31.61,23.92,31.62,23.91Z"/><path class="cls-5" d="M28.15,25.46s.09,0,.15-.13a.24.24,0,0,0,0-.19.2.2,0,0,0-.35,0,.23.23,0,0,0,0,.18c.05.11.14.14.13.16s-.12,0-.22-.11a.3.3,0,0,1,.29-.47.3.3,0,0,1,.28.23.32.32,0,0,1-.07.28C28.27,25.52,28.14,25.48,28.15,25.46Z"/><path class="cls-3" d="M31.18,38.34,31.49,54a.82.82,0,0,0,.83.81h0a.82.82,0,0,0,.81-.81c0-2.82.13-12.3.15-15.64a1,1,0,0,0-1.21-1h0A1,1,0,0,0,31.18,38.34Z"/><g class="cls-13"><path d="M31.18,38.34,31.49,54a.82.82,0,0,0,.83.81h0a.82.82,0,0,0,.81-.81c0-2.82.13-12.3.15-15.64a1,1,0,0,0-1.21-1h0A1,1,0,0,0,31.18,38.34Z"/></g><path class="cls-11" d="M31.66,9.76a16.32,16.32,0,0,1-1.23,1.43c-.38.44-.8,1-1.25,1.61a24.34,24.34,0,0,0-1.31,2.11c-.41.78-.75,1.54-1,2.25s-.49,1.37-.65,1.93a11.89,11.89,0,0,1-.52,1.82,5.84,5.84,0,0,1,.22-1.9,16.2,16.2,0,0,1,.57-2,19,19,0,0,1,1-2.32,17.59,17.59,0,0,1,1.37-2.14A14.58,14.58,0,0,1,30.2,11,5.68,5.68,0,0,1,31.66,9.76Z"/><path class="cls-11" d="M24.41,38.82c0,.06-.69.55-1.72,1.5l-.4.38c-.14.13-.27.28-.41.43s-.57.64-.86,1a15.9,15.9,0,0,0-2.8,5.29c-.13.44-.26.87-.34,1.27,0,.2-.09.39-.12.58l-.09.55c-.21,1.39-.19,2.27-.27,2.27a1.78,1.78,0,0,1-.09-.62l0-.33c0-.12,0-.25,0-.4a8.65,8.65,0,0,1,.06-1l.06-.56c0-.2.07-.4.1-.6.07-.42.19-.86.31-1.32a14.7,14.7,0,0,1,2.87-5.43,11.13,11.13,0,0,1,.91-1c.15-.15.29-.3.44-.43l.43-.37a8.35,8.35,0,0,1,.76-.59c.12-.08.22-.16.33-.22l.28-.18C24.2,38.89,24.4,38.79,24.41,38.82Z"/><path class="cls-3" d="M12.92,89.77A2,2,0,0,1,13.53,86c.74-.14,1.65.07,2.11-.52s.1-1.24.29-2.09a1.63,1.63,0,0,1,1.73-1.25,2.39,2.39,0,0,1,2,1.24A4.68,4.68,0,0,1,20.19,86a4.62,4.62,0,0,1-2.43,3.57,5.36,5.36,0,0,1-4.84.2"/><g class="cls-10"><path class="cls-11" d="M12.92,89.77A2,2,0,0,1,13.53,86c.74-.14,1.65.07,2.11-.52s.1-1.24.29-2.09a1.63,1.63,0,0,1,1.73-1.25,2.39,2.39,0,0,1,2,1.24A4.68,4.68,0,0,1,20.19,86a4.62,4.62,0,0,1-2.43,3.57,5.36,5.36,0,0,1-4.84.2"/></g><path class="cls-3" d="M42.88,75a3.15,3.15,0,0,1,5.86.74c.27,1.13,0,2.57.94,3.26s1.94.08,3.29.32A2.55,2.55,0,0,1,55,81.91a3.75,3.75,0,0,1-1.82,3.14,7.33,7.33,0,0,1-4,1,7.2,7.2,0,0,1-5.73-3.58C42.18,80.65,41.76,77,42.88,75"/><g class="cls-10"><path class="cls-11" d="M42.88,75a3.15,3.15,0,0,1,5.86.74c.27,1.13,0,2.57.94,3.26s1.94.08,3.29.32A2.55,2.55,0,0,1,55,81.91a3.75,3.75,0,0,1-1.82,3.14,7.33,7.33,0,0,1-4,1,7.2,7.2,0,0,1-5.73-3.58C42.18,80.65,41.76,77,42.88,75"/></g><path class="cls-3" d="M21.3,71.19a1.87,1.87,0,1,0,2.59,1.11,2,2,0,0,0-2.59-1.11"/><g class="cls-10"><path class="cls-11" d="M21.3,71.19a1.87,1.87,0,1,0,2.59,1.11,2,2,0,0,0-2.59-1.11"/></g></g></svg>