<svg id="Layer_1" data-name="Layer 1" xmlns="http://www.w3.org/2000/svg" xmlns:xlink="http://www.w3.org/1999/xlink" viewBox="0 0 64.15 84.1"><defs><style>.cls-1{fill:none;}.cls-2{clip-path:url(#clip-path);}.cls-3{fill:#375a64;}.cls-4{fill:#1a2e35;}.cls-5{fill:#ececec;}.cls-6{fill:#fafafa;}.cls-7{fill:#ff4f5b;}.cls-8{opacity:0.8;}.cls-9{fill:#fff;}.cls-10{opacity:0.6;}.cls-11{clip-path:url(#clip-path-2);}.cls-12{fill:#f5f5f5;}.cls-13{opacity:0.4;}.cls-14{opacity:0.3;}.cls-15{fill:#ffbf9d;}.cls-16{fill:#ff9a6c;}</style><clipPath id="clip-path"><rect class="cls-1" x="0.11" y="-111.11" width="63.92" height="83.87"/></clipPath><clipPath id="clip-path-2"><rect class="cls-1" x="0.11" y="0.11" width="63.92" height="83.87"/></clipPath></defs><g class="cls-2"><rect class="cls-3" x="-18.2" y="-56.13" width="101.94" height="67.41" rx="3.89"/><path class="cls-3" d="M-22.18,6.93H88.26a0,0,0,0,1,0,0V8.17a4.65,4.65,0,0,1-4.65,4.65H-17.53a4.65,4.65,0,0,1-4.65-4.65V6.93A0,0,0,0,1-22.18,6.93Z"/><rect class="cls-4" x="-15.46" y="-53.45" width="96.18" height="56.93"/><polygon class="cls-4" points="22.72 6.3 24.09 8.48 43.38 8.48 44.65 6.3 22.72 6.3"/><rect class="cls-5" x="-13.48" y="-51.52" width="92.41" height="54.82" rx="0.87"/><polygon class="cls-6" points="78.83 3.38 -13.58 3.38 -13.48 -47.42 78.83 -47.42 78.83 3.38"/><path class="cls-4" d="M82.86,6.3s-22.62.06-50.53.06-50.53,0-50.53-.06,22.62-.07,50.53-.07S82.86,6.26,82.86,6.3Z"/><path class="cls-7" d="M69.1-25.55a9.21,9.21,0,0,0-2.95,9.17,7.59,7.59,0,0,0-6.74,2,7.61,7.61,0,0,0-2.08,6.73,6.51,6.51,0,0,0-8.6,1.45,9.77,9.77,0,0,0-1-5c-.9-1.45-2.94-2.35-4.38-1.43a4,4,0,0,0,.38-4.57,4,4,0,0,0-4.27-1.7c0-2.05-1.34-16.58-2.41-28.83H28c-1.05,12-2.29,25.87-2.33,27.87a4,4,0,0,0-4.27,1.7,4,4,0,0,0,.38,4.57c-1.43-.92-3.47,0-4.37,1.43a9.77,9.77,0,0,0-1,5A6.5,6.5,0,0,0,7.77-8.57,7.64,7.64,0,0,0,5.69-15.3a7.62,7.62,0,0,0-6.75-2A9.21,9.21,0,0,0-4-26.51a9.22,9.22,0,0,0-9.56-1.27V3.35H78.65V-26.82A9.2,9.2,0,0,0,69.1-25.55Z"/><g class="cls-8"><path class="cls-9" d="M69.1-25.55a9.21,9.21,0,0,0-2.95,9.17,7.59,7.59,0,0,0-6.74,2,7.61,7.61,0,0,0-2.08,6.73,6.51,6.51,0,0,0-8.6,1.45,9.77,9.77,0,0,0-1-5c-.9-1.45-2.94-2.35-4.38-1.43a4,4,0,0,0,.38-4.57,4,4,0,0,0-4.27-1.7c0-2.05-1.34-16.58-2.41-28.83H28c-1.05,12-2.29,25.87-2.33,27.87a4,4,0,0,0-4.27,1.7,4,4,0,0,0,.38,4.57c-1.43-.92-3.47,0-4.37,1.43a9.77,9.77,0,0,0-1,5A6.5,6.5,0,0,0,7.77-8.57,7.64,7.64,0,0,0,5.69-15.3a7.62,7.62,0,0,0-6.75-2A9.21,9.21,0,0,0-4-26.51a9.22,9.22,0,0,0-9.56-1.27V3.35H78.65V-26.82A9.2,9.2,0,0,0,69.1-25.55Z"/></g><path class="cls-7" d="M68.55-2.87A14.58,14.58,0,0,0,47.82,1.91,8.6,8.6,0,0,0,44.73-.68a5.79,5.79,0,0,0,.21-.71,6.34,6.34,0,0,0-2.48-6.45,6.34,6.34,0,0,0-5-.93L34.77-47.66H31.19v35.74a4,4,0,0,0-3,5.07A4.84,4.84,0,0,0,24.6-4.17a5.17,5.17,0,0,0-.06,2.53,8.89,8.89,0,0,0-6.95,3.55A14.76,14.76,0,0,0,8.26-5a14.8,14.8,0,0,0-11.4,2.1A9,9,0,0,0-13.66-9.55v13l41.6-.06a3.17,3.17,0,0,0,.88.13L39,3.36l40.08.05v-13A9,9,0,0,0,68.55-2.87Z"/><g class="cls-10"><path class="cls-9" d="M68.55-2.87A14.58,14.58,0,0,0,47.82,1.91,8.6,8.6,0,0,0,44.73-.68a5.79,5.79,0,0,0,.21-.71,6.34,6.34,0,0,0-2.48-6.45,6.34,6.34,0,0,0-5-.93L34.77-47.66H31.19v35.74a4,4,0,0,0-3,5.07A4.84,4.84,0,0,0,24.6-4.17a5.17,5.17,0,0,0-.06,2.53,8.89,8.89,0,0,0-6.95,3.55A14.76,14.76,0,0,0,8.26-5a14.8,14.8,0,0,0-11.4,2.1A9,9,0,0,0-13.66-9.55v13l41.6-.06a3.17,3.17,0,0,0,.88.13L39,3.36l40.08.05v-13A9,9,0,0,0,68.55-2.87Z"/></g></g><g class="cls-11"><polygon class="cls-12" points="32.79 45.4 32.79 45.4 32.79 45.4 32.79 45.4"/><polygon class="cls-12" points="32.82 45.43 32.81 45.45 32.83 45.45 32.82 45.43"/><polygon class="cls-12" points="32.85 45.44 32.85 45.45 32.85 45.45 32.85 45.44"/><polygon class="cls-12" points="32.83 45.45 32.85 45.45 32.84 45.44 32.83 45.45"/><polygon class="cls-12" points="32.78 45.44 32.78 45.42 32.71 45.4 32.77 45.44 32.78 45.44"/><polygon class="cls-12" points="32.79 45.42 32.78 45.44 32.79 45.43 32.79 45.42"/><polygon class="cls-12" points="32.84 45.43 32.84 45.43 32.85 45.44 32.84 45.43"/><polygon class="cls-12" points="32.83 45.44 32.83 45.44 32.83 45.44 32.83 45.44"/><polygon class="cls-12" points="32.79 45.43 32.8 45.43 32.79 45.43 32.79 45.43"/><polygon class="cls-12" points="32.84 45.42 32.83 45.43 32.84 45.43 32.84 45.42"/><path class="cls-12" d="M30,25.69l2.79,19.53,2.76-19.54h0L39.32-.64A47.43,47.43,0,0,0,33-1.07a46.36,46.36,0,0,0-6.81.5L30,25.7Z"/><path class="cls-12" d="M41.09,27.3,32.86,45.38l30.32-35.2A46,46,0,0,0,52.05,3L41,27.28Z"/><path class="cls-12" d="M13.72,39.84l19,5.55h-.08l.18,0h0v0h0l.08,0-.07,0L51.92,51l0,0,25.27,7.42a46.44,46.44,0,0,0,2-13.1H52.72v0l-19.86,0h0v0l.09,0-.07,0,.17,0H33L77.33,32.25a45.82,45.82,0,0,0-5.49-12.09L33,45.39h-.07l0,0,0,0h0l0-.11,0,.08v0l0,0v0h0v0l0-.07,0,.09h0l0,0,0,0h-.07L-6.06,20.44a46,46,0,0,0-5.38,12l25.16,7.36Zm19.13,5.6h0Zm0,0h0Zm0,0h0Zm0,0h0Zm0,0Zm0,0Zm0,0Zm0,0Zm0,0v0h0l-.06,0Z"/><path class="cls-12" d="M19.77,30.37l13,15L24.52,27.31h0l-11-24.07a45.92,45.92,0,0,0-11,7.21L19.77,30.38Z"/><path class="cls-12" d="M71.57,70.44l-22-14.21h0L32.9,45.52l13,15,0,0,17,19.71A46.29,46.29,0,0,0,71.57,70.44Z"/><polygon class="cls-12" points="32.84 45.49 32.84 45.49 32.84 45.48 32.84 45.49"/><polygon class="cls-12" points="32.8 45.45 32.79 45.45 32.79 45.45 32.79 45.47 32.79 45.46 32.79 45.47 32.8 45.46 32.8 45.46 32.8 45.45 32.8 45.45 32.8 45.45 32.81 45.45 32.78 45.45 32.8 45.45"/><polygon class="cls-12" points="32.7 45.49 32.78 45.47 32.78 45.45 32.78 45.45 32.7 45.49"/><path class="cls-12" d="M32.73,45.53,16.12,56.3l0-.06L-5.68,70.33A46.35,46.35,0,0,0,2.9,80.12L22.31,57.64Z"/><path class="cls-12" d="M13.74,51.08l19-5.63-45.95,0a45.76,45.76,0,0,0,2,13l25-7.36Z"/><path class="cls-12" d="M13.86,87.13a45.85,45.85,0,0,0,12.51,3.66L32.76,45.6Z"/><polygon class="cls-12" points="32.85 45.46 32.85 45.45 32.84 45.46 32.85 45.46"/><path class="cls-12" d="M39.32,90.82a45.67,45.67,0,0,0,12.55-3.59l-19-41.64Z"/><polygon class="cls-12" points="32.8 45.52 32.82 45.67 32.84 45.53 32.82 45.48 32.8 45.52"/><polygon class="cls-12" points="32.84 45.46 32.84 45.46 32.84 45.46 32.84 45.46"/><path class="cls-7" d="M45.06,22s6.69,14.32,1.66,27.68S23.18,82.19,21.13,83.2c0,0,4.75-7.45-3.92-7.39s-13-2-13.94-5.09,4.2-12.85-.52-15.2S-7.74,53.87-11.61,50.6c0,0,9-.75,15.67-1.43,7-.71,28-15.33,29.66-26.09"/><g class="cls-13"><path d="M45.06,22s6.69,14.32,1.66,27.68S23.18,82.19,21.13,83.2c0,0,4.75-7.45-3.92-7.39s-13-2-13.94-5.09,4.2-12.85-.52-15.2S-7.74,53.87-11.61,50.6c0,0,9-.75,15.67-1.43,7-.71,28-15.33,29.66-26.09"/></g><path class="cls-4" d="M20.71,46.69l-.11.09-.35.24c-.31.2-.76.49-1.32.83a48.67,48.67,0,0,1-4.52,2.45,49.62,49.62,0,0,1-4.74,2c-.62.22-1.13.39-1.48.5l-.4.12-.15,0,.14-.06.4-.14,1.46-.53c1.23-.46,2.92-1.15,4.72-2s3.4-1.75,4.53-2.42L20.22,47l.36-.22Z"/><path class="cls-4" d="M26.41,54.64l-.14.11-.42.31c-.37.26-.9.65-1.55,1.14-1.29,1-3.05,2.35-4.91,4s-3.46,3.18-4.6,4.33l-1.33,1.38-.36.37-.13.13s0,0,.11-.14l.35-.39c.3-.34.75-.82,1.31-1.4,1.12-1.17,2.72-2.73,4.58-4.36s3.63-3,4.94-4L25.82,55l.43-.29Z"/><path class="cls-4" d="M25.64,57l-.06.07-.2.22-.75.75c-.63.63-1.54,1.48-2.57,2.37s-2,1.66-2.74,2.19c-.36.27-.65.48-.86.62l-.24.16s-.08.06-.09.05l.08-.06.22-.18.84-.65C20,62,21,61.21,22,60.32s1.95-1.73,2.6-2.34l.77-.73.21-.2C25.61,57,25.64,57,25.64,57Z"/><polygon class="cls-7" points="29.16 52.74 22.46 94.12 28.62 94.49 38.12 52.74 29.16 52.74"/><polygon class="cls-7" points="38.23 50.93 41.32 94.49 47.11 94.49 47.11 48.37 38.23 50.93"/><path class="cls-4" d="M45,91.77S44.52,83.14,44,72.5,43,53.23,43,53.23s.5,8.62,1,19.27S45.05,91.77,45,91.77Z"/><path class="cls-4" d="M32.81,53.71a.82.82,0,0,1,0,.1l0,.28-.16,1.1c-.15.94-.37,2.32-.65,4-.56,3.39-1.37,8.06-2.36,13.2s-2,9.79-2.7,13.14c-.36,1.67-.67,3-.88,4l-.25,1.08-.07.28,0,.09a.32.32,0,0,1,0-.09l.05-.28L26,89.49l.86-4c.71-3.35,1.68-8,2.66-13.14s1.82-9.81,2.4-13.19c.28-1.69.51-3.06.67-4l.19-1.09,0-.28A.65.65,0,0,1,32.81,53.71Z"/><g class="cls-14"><polygon points="28.84 54.75 28.97 53.93 37.96 53.42 37.62 54.92 28.84 54.75"/></g><g class="cls-14"><polygon points="38.48 54.92 38.23 53.41 47.11 52.98 47.11 55.1 38.48 54.92"/></g><polygon class="cls-4" points="29.74 22.14 36.01 20.75 41.28 20.96 45.88 22.43 43.26 35.53 33.26 36.42 29.74 22.14"/><path class="cls-7" d="M35.06,21l-6.6,1.46,3.3,17.68a49.9,49.9,0,0,0-3.3,13.83l9.77-.52s.67-8.78.44-12.16-.38-9.3-.38-9.3Z"/><path class="cls-7" d="M16.19,31.1a22,22,0,0,1,4.58-3.49c1.72-.9,5.09-2,6.43-3.48a8.62,8.62,0,0,0,1.26-1.71L30,30.75,23.39,31.8s1,.54.37.92l4.15,4.86-2.84,5.36S15.81,35,16.19,31.1Z"/><path class="cls-7" d="M41.28,21a14.6,14.6,0,0,1,2.37.5c1.41.46,3.78,1,3.78,1L44.05,40.33s4.58,5.67,3.38,12.6c0,0-6.33.5-9.2.48l0-21.78s2.4-3.06,2.71-6.05S41.28,21,41.28,21Z"/><path class="cls-7" d="M47.43,22.42a62.23,62.23,0,0,0,5.86,5.4c2.08,1.47,4.7,3.69,4.7,4.86a7.29,7.29,0,0,1-.45,2.16,4.14,4.14,0,0,1-.64,1.21,58.41,58.41,0,0,1-5.15,6.13l-4.21-4.44,4-4.42s-5.38-2.22-5.64-2.82S47.43,22.42,47.43,22.42Z"/><path class="cls-4" d="M38.15,34l-.1-.09-.26-.26-1-1-3.28-3.43,0,0v0c.14-.58.28-1.19.43-1.82l.2-.8.05.07H32.05l0-.06c.51-1.55,1-2.87,1.26-3.82l.37-1.1.1-.29a.55.55,0,0,0,0-.1s0,0,0,.11l-.09.29-.34,1.11c-.3,1-.73,2.28-1.22,3.83l-.05-.07h2.16l0,.06-.19.81-.44,1.82v-.05l3.25,3.45,1,1,.25.28Z"/><path class="cls-4" d="M38.23,53.41s-.07-4.91-.09-11,0-11,0-11,.07,4.91.09,11S38.26,53.41,38.23,53.41Z"/><path class="cls-4" d="M42.3,21.12a1.13,1.13,0,0,1,0,.12l.07.35.22,1.29c.17,1.11.42,2.65.71,4.41v.07h-.07l-1.17-.15.06-.08.24.48.47,1v0l0,0-3.07,3.84-.92,1.13-.25.3-.09.1s0,0,.07-.11l.24-.32.89-1.15,3.05-3.86v.06l-.47-1-.24-.48,0-.09h.1l1.16.16-.06.06c-.27-1.77-.5-3.31-.67-4.42l-.19-1.3-.05-.34C42.3,21.17,42.29,21.13,42.3,21.12Z"/><path class="cls-4" d="M37.31,46.29c-.22-.27-.66-.43-.87-.14h0a.66.66,0,0,0-.2.74.65.65,0,0,0,.88.32A.63.63,0,0,0,37.31,46.29Z"/><path class="cls-4" d="M37.43,40.6c-.22-.27-.66-.43-.87-.15h0a.66.66,0,0,0-.2.74.65.65,0,0,0,.88.32A.63.63,0,0,0,37.43,40.6Z"/><path class="cls-4" d="M52.48,40.13c-.22-.27-.66-.43-.87-.14h0a.69.69,0,0,0-.2.74.65.65,0,0,0,.88.32A.62.62,0,0,0,52.48,40.13Z"/><path class="cls-4" d="M25,40.66c-.22-.27-.66-.43-.87-.15h0a.67.67,0,0,0-.2.74.65.65,0,0,0,.88.32A.63.63,0,0,0,25,40.66Z"/><path class="cls-4" d="M23.83,32.8a5.79,5.79,0,0,0-1.67-.47,5.29,5.29,0,0,0-1.72.18,1.14,1.14,0,0,1,.48-.19,3.9,3.9,0,0,1,1.25-.1,3.53,3.53,0,0,1,1.21.32A1.38,1.38,0,0,1,23.83,32.8Z"/><path class="cls-4" d="M20.44,31.8a1.2,1.2,0,0,1,.43-.18,3.71,3.71,0,0,1,2.22,0,1.48,1.48,0,0,1,.42.18A6.86,6.86,0,0,0,22,31.57,6.29,6.29,0,0,0,20.44,31.8Z"/><path class="cls-4" d="M30.22,31.82a1.55,1.55,0,0,1-.09-.35l-.22-1-.76-3.18c-.29-1.24-.53-2.38-.66-3.2-.07-.42-.11-.75-.14-1a2.06,2.06,0,0,1,0-.37s0,.13.07.36.09.56.17,1c.15.83.39,1.95.69,3.19s.56,2.37.72,3.19c.09.41.15.74.19,1S30.22,31.82,30.22,31.82Z"/><path class="cls-4" d="M47.2,22.83s0,.13-.05.37l-.16,1-.54,3.31c-.22,1.3-.42,2.46-.58,3.31-.08.42-.14.76-.19,1a2.11,2.11,0,0,1-.09.36,2,2,0,0,1,0-.37l.16-1,.54-3.3c.21-1.3.41-2.47.57-3.31.08-.42.15-.76.2-1A2.11,2.11,0,0,1,47.2,22.83Z"/><path class="cls-4" d="M54.39,31.14s-.24,0-.61,0a2.09,2.09,0,0,0-1.32.47,2.81,2.81,0,0,0-.75,1.22,3.63,3.63,0,0,1-.21.57,2.72,2.72,0,0,1,.14-.6,2.66,2.66,0,0,1,.74-1.27,1.9,1.9,0,0,1,.74-.39,2.75,2.75,0,0,1,.66-.08,2.64,2.64,0,0,1,.45,0C54.33,31.12,54.39,31.13,54.39,31.14Z"/><path class="cls-4" d="M55.39,32.12a5.13,5.13,0,0,1-.6,0,5.52,5.52,0,0,0-1.42.27,6.07,6.07,0,0,0-1.3.63,3.56,3.56,0,0,1-.5.34l.12-.12A3.17,3.17,0,0,1,52,33a4.54,4.54,0,0,1,1.31-.67,4.84,4.84,0,0,1,1.45-.25l.44,0Z"/><path class="cls-4" d="M33.34,40.6a3.59,3.59,0,0,1-.71-.25,3.78,3.78,0,0,1-.7-.27,1.86,1.86,0,0,1,.74.17A2.28,2.28,0,0,1,33.34,40.6Z"/><path class="cls-4" d="M33.61,38.48s-.48.37-1,.85-1,.91-1,.89a4.62,4.62,0,0,1,.92-1A5,5,0,0,1,33.61,38.48Z"/><path class="cls-4" d="M47.43,52.93s-4.24.28-9.48.55-9.49.48-9.49.45,4.24-.28,9.48-.56S47.43,52.9,47.43,52.93Z"/><g class="cls-14"><path d="M51.34,33.2a2,2,0,0,1,.74-2.26.69.69,0,0,1,.51-.16.33.33,0,0,1,.27.4c0,.11-.16.16-.26.23a1.77,1.77,0,0,0-.69.9,5.23,5.23,0,0,0-.27,1.12"/></g><g class="cls-14"><path d="M32.12,26.55c0,.11.79.2.93.51a1.52,1.52,0,0,1,0,1,2.93,2.93,0,0,0-.16,1,2.5,2.5,0,0,0,1,1.47c1.3,1.12,2.89,2.32,4.2,3.44-1.17-1.39-2.69-2.81-4-4.09a1.78,1.78,0,0,1-.47-.65,1.69,1.69,0,0,1,.06-1l.33-1.3c0-.11.09-.3.11-.36a3.58,3.58,0,0,0-.48,0,12.83,12.83,0,0,0-1.6,0"/></g><path class="cls-4" d="M24.86,41.16s0-.06.07-.17a4.9,4.9,0,0,1,.23-.45,12.47,12.47,0,0,1,.9-1.4,11.84,11.84,0,0,1,1.09-1.25l.37-.35c.09-.08.14-.12.15-.11a5.66,5.66,0,0,1-.46.51,15.63,15.63,0,0,0-1.06,1.27c-.39.52-.71,1-.93,1.37S24.87,41.17,24.86,41.16Z"/><path class="cls-4" d="M26.42,35.94s-.23.25-.59.66a13.15,13.15,0,0,0-1.28,1.68,12.52,12.52,0,0,0-1,1.88c-.22.5-.32.82-.34.81a.82.82,0,0,1,.05-.23c.05-.14.12-.35.22-.61a10.91,10.91,0,0,1,1-1.9,11.21,11.21,0,0,1,1.32-1.69c.19-.19.35-.35.47-.45Z"/><path class="cls-4" d="M53.59,40.2,53.42,40,53,39.55c-.37-.41-.9-1-1.49-1.56s-1.15-1.12-1.56-1.49l-.49-.43c-.12-.1-.18-.16-.17-.17l.2.14c.12.09.3.23.51.41.42.35,1,.87,1.58,1.46S52.69,39.07,53,39.5l.42.5A1.08,1.08,0,0,1,53.59,40.2Z"/><path class="cls-15" d="M27.32,38.69l1.39.74,3.06.87s-.64,4.2-1,4.55-4.88-3.4-4.88-3.4Z"/><path class="cls-15" d="M48.2,38.44l-1,.77-2.88,1.37s1.33,4,1.78,4.32,4.24-4.18,4.24-4.18Z"/><path class="cls-4" d="M34.06,8.2C34,9.28,32.58,9.93,32.6,11c0,.46.3.88.35,1.34a5.57,5.57,0,0,1-.4,1.81,3.26,3.26,0,0,0,1.55,3.26,5.58,5.58,0,0,0,3.72.65"/><path class="cls-4" d="M42.74,7.93a2.23,2.23,0,0,0,.72,1.53,3,3,0,0,1,.9,1.47c.15,1-.85,2-.64,3,.11.54.55,1,.63,1.52a1.87,1.87,0,0,1-.56,1.44c-.35.4-.75.35-1.06.78a4.43,4.43,0,0,1-1.35,1.2c-1.12.61-2.46-.28-3-.44"/><path class="cls-4" d="M33.84,8.82a1.32,1.32,0,0,1,1-1.12,8.11,8.11,0,0,0,1.47-.56,7.66,7.66,0,0,0,1-1,3.23,3.23,0,0,1,5.44,1.49,2.1,2.1,0,0,1-.53,2.12,3,3,0,0,1-2.58.27,3.37,3.37,0,0,0-2.6.16,3.82,3.82,0,0,0-1,1.28,2.26,2.26,0,0,1-1.12,1.12c-.51.18-1.2-.12-1.22-.66"/><path class="cls-15" d="M35.91,8.93a.87.87,0,0,0-.78.89h0l.52,11.86c0,1.41,2.07,2.19,3.57,2.16h0c1.52,0,1.57-.78,1.59-2.11,0-2.23,0-3.07,0-3.05a3.12,3.12,0,0,0,2.3-2.82,27,27,0,0,0,0-4.95c-.1-1.5-1.1-3.33-2.59-3.17Z"/><path class="cls-4" d="M42.37,12.34a.33.33,0,0,1-.31.32.3.3,0,0,1-.33-.28.32.32,0,0,1,.31-.33A.31.31,0,0,1,42.37,12.34Z"/><path class="cls-4" d="M42.72,12s-.28-.13-.63-.13-.59.17-.63.13,0-.09.13-.18a.88.88,0,0,1,.51-.15.87.87,0,0,1,.5.16C42.7,11.88,42.74,12,42.72,12Z"/><path class="cls-4" d="M39,12.34a.32.32,0,0,1-.64,0,.33.33,0,0,1,.31-.33A.3.3,0,0,1,39,12.34Z"/><path class="cls-4" d="M39.33,12c0,.05-.28-.13-.63-.13s-.59.17-.63.13,0-.09.13-.17a.88.88,0,0,1,1,0C39.31,12,39.35,12,39.33,12Z"/><path class="cls-4" d="M40.59,14.6a2,2,0,0,1,.56-.1c.09,0,.17,0,.18-.09a.39.39,0,0,0-.06-.26c-.08-.22-.17-.44-.26-.67a14.25,14.25,0,0,1-.59-1.75,10.21,10.21,0,0,1,.73,1.7c.09.23.17.46.25.67a.51.51,0,0,1,.05.35.21.21,0,0,1-.14.12l-.15,0A2.14,2.14,0,0,1,40.59,14.6Z"/><path class="cls-16" d="M40.84,18.68a6.37,6.37,0,0,1-3.35-.89,3.29,3.29,0,0,0,3.31,1.48Z"/><path class="cls-7" d="M40.44,15.43a.63.63,0,0,0-.55-.23.58.58,0,0,0-.39.21.36.36,0,0,0,0,.41.41.41,0,0,0,.45.11,1.1,1.1,0,0,0,.44-.26.32.32,0,0,0,.1-.1s0-.1,0-.13"/><path class="cls-4" d="M39.57,14.84c.06,0,.06.37.38.63s.72.23.73.28-.09.07-.26.08a1,1,0,0,1-.6-.21.83.83,0,0,1-.3-.53C39.51,14.93,39.55,14.84,39.57,14.84Z"/><path class="cls-4" d="M39.49,11.44c0,.09-.38.05-.79.1s-.73.16-.78.08,0-.13.16-.22a1.36,1.36,0,0,1,.58-.21,1.43,1.43,0,0,1,.62.07C39.43,11.32,39.5,11.4,39.49,11.44Z"/><path class="cls-4" d="M42.59,11c-.06.08-.3,0-.58,0s-.53,0-.59,0,0-.12.12-.19a.76.76,0,0,1,.48-.13.84.84,0,0,1,.46.16C42.58,10.86,42.62,10.94,42.59,11Z"/><path class="cls-4" d="M34.86,17.28c.68.14.74-.21,1.26-.68a2.3,2.3,0,0,0,.69-1.91c-.08-.61-.41-1.24-.2-1.82.28-.76,1.36-1,1.64-1.77.17-.44,0-1,.21-1.4a1.71,1.71,0,0,1,1-.8,4,4,0,0,0,1.22-.53,1,1,0,0,0,.35-1.17A23.78,23.78,0,0,0,35.6,8.52a2.1,2.1,0,0,0-1.08.7,2.25,2.25,0,0,0-.22,1.34c.1,2.24.21,4.48.31,6.73"/><path class="cls-4" d="M33.28,12.19a1.91,1.91,0,0,0-3.62-.67,2.72,2.72,0,0,0,.09,2.28,2.42,2.42,0,0,0,2.11,1.59,2.19,2.19,0,0,0,1.84-1.65,6.6,6.6,0,0,0,0-2.62"/><path class="cls-3" d="M32.79,15.61a.53.53,0,0,1-.13-.15,1.14,1.14,0,0,1-.18-.5,2.37,2.37,0,0,1,0-.79c0-.29.15-.6.22-.92a2.31,2.31,0,0,0,.06-.93c-.05-.28-.19-.51-.24-.73a.92.92,0,0,1,0-.54.39.39,0,0,1,.1-.17s0,.07-.06.18a1.08,1.08,0,0,0,0,.51c.06.2.2.43.27.73a2.47,2.47,0,0,1-.05,1c-.07.33-.18.64-.23.92a2.59,2.59,0,0,0-.05.76A1.83,1.83,0,0,0,32.79,15.61Z"/><path class="cls-3" d="M32.76,12.61a1.13,1.13,0,0,1-.38.37,2.19,2.19,0,0,1-1.23.41A2.23,2.23,0,0,1,29.91,13a1.43,1.43,0,0,1-.4-.36s.16.13.44.29a2.32,2.32,0,0,0,1.2.32,2.35,2.35,0,0,0,1.18-.36C32.61,12.75,32.74,12.6,32.76,12.61Z"/><path class="cls-3" d="M32.63,13s-.05.17-.21.39a2.7,2.7,0,0,1-.79.73,2.61,2.61,0,0,1-1,.36.86.86,0,0,1-.44,0s.17,0,.43-.08a2.88,2.88,0,0,0,1-.38,3.27,3.27,0,0,0,.79-.67C32.53,13.14,32.62,13,32.63,13Z"/><path class="cls-3" d="M33.26,16.45a.11.11,0,0,1,0,0,.29.29,0,0,1-.07-.1,1.19,1.19,0,0,1-.17-.43,1.59,1.59,0,0,1,0-.74,1.44,1.44,0,0,1,.58-.78,3.41,3.41,0,0,0,.93-.69.75.75,0,0,0,.14-.59,3.47,3.47,0,0,0-.22-.64,1.91,1.91,0,0,1,0-1.5,1.61,1.61,0,0,1,.51-.62,2,2,0,0,1,.76-.32c.28-.06.55-.1.8-.18a1.47,1.47,0,0,0,.66-.36,1.11,1.11,0,0,0,.29-.65,5.84,5.84,0,0,1,.11-.73,2.52,2.52,0,0,1,.68-1.18,2,2,0,0,1,1.06-.53,1.57,1.57,0,0,1,1,.15,1.52,1.52,0,0,1,.56.48,1.31,1.31,0,0,1,.2.43.91.91,0,0,1,0,.16A1.41,1.41,0,0,0,40.86,7a1.62,1.62,0,0,0-.55-.46,1.56,1.56,0,0,0-.93-.12,2,2,0,0,0-1,.51,2.45,2.45,0,0,0-.64,1.15,5,5,0,0,0-.11.71,1.21,1.21,0,0,1-.32.72,1.67,1.67,0,0,1-.7.39c-.27.08-.54.11-.8.17a2,2,0,0,0-.73.3,1.51,1.51,0,0,0-.47.59,1.78,1.78,0,0,0,0,1.41,2.77,2.77,0,0,1,.22.67.86.86,0,0,1-.15.65,3.5,3.5,0,0,1-1,.7,1.34,1.34,0,0,0-.57.74,1.65,1.65,0,0,0-.06.71A1.84,1.84,0,0,0,33.26,16.45Z"/><path class="cls-3" d="M33.43,9.47a.28.28,0,0,1,0-.11A.54.54,0,0,1,33.48,9a.93.93,0,0,1,.42-.34,1.25,1.25,0,0,1,.72,0c.26,0,.53.15.83.21a1.11,1.11,0,0,0,.9-.15,2,2,0,0,0,.54-.89,3.6,3.6,0,0,1,.57-1,3.48,3.48,0,0,1,1.89-1.23,2.09,2.09,0,0,1,1,0,1.57,1.57,0,0,1,.73.47,1.12,1.12,0,0,1,.28.66,1,1,0,0,1-.27.83L41,7.63a1.49,1.49,0,0,0,.24-.38,1.14,1.14,0,0,0,.06-.51A1.12,1.12,0,0,0,41,6.12a1.43,1.43,0,0,0-.69-.43,1.9,1.9,0,0,0-.95,0,3.39,3.39,0,0,0-1.83,1.2,3.29,3.29,0,0,0-.56,1,2.13,2.13,0,0,1-.58.94.89.89,0,0,1-.49.18,1.58,1.58,0,0,1-.49,0c-.31-.07-.57-.18-.83-.23a1.29,1.29,0,0,0-.68,0,.76.76,0,0,0-.4.31.55.55,0,0,0-.1.3C33.42,9.43,33.44,9.47,33.43,9.47Z"/><path class="cls-7" d="M65.19,64.24s-2.9-1.52-3-4a.11.11,0,0,1,.17-.1C62.83,60.4,64,61.43,65.19,64.24Z"/><path class="cls-4" d="M62.83,61.06a2.57,2.57,0,0,1,.36.46c.24.32.52.7.82,1.13l.82,1.12a4,4,0,0,1,.33.48,2.63,2.63,0,0,1-.4-.42c-.23-.28-.53-.67-.85-1.11s-.59-.85-.79-1.15A3,3,0,0,1,62.83,61.06Z"/><path class="cls-7" d="M56.76,17.35a2.45,2.45,0,0,0,1,.11,2.49,2.49,0,0,0,1-.11,2.22,2.22,0,0,0-1-.12C57.21,17.23,56.76,17.28,56.76,17.35Z"/><path class="cls-7" d="M55.67,14.57a2.55,2.55,0,0,0-.11,1,2.52,2.52,0,0,0,.11,1,2.42,2.42,0,0,0,.12-1A2.45,2.45,0,0,0,55.67,14.57Z"/><path class="cls-7" d="M54.52,17.28a2.49,2.49,0,0,0-1-.11,2.45,2.45,0,0,0-1,.11,2.45,2.45,0,0,0,1,.11A2.49,2.49,0,0,0,54.52,17.28Z"/><path class="cls-7" d="M55.6,20.06a2.59,2.59,0,0,0,.11-1,2.52,2.52,0,0,0-.11-1,2.52,2.52,0,0,0-.11,1A2.59,2.59,0,0,0,55.6,20.06Z"/><path class="cls-7" d="M54,18.87s.25-.13.45-.37.33-.46.28-.5-.25.12-.45.36S53.9,18.83,54,18.87Z"/><path class="cls-7" d="M54.05,15.72s.09.25.29.46.42.34.46.3-.09-.25-.3-.46S54.09,15.67,54.05,15.72Z"/><path class="cls-7" d="M56.39,16.52c0,.05.23-.05.43-.21s.32-.34.28-.39-.23.05-.43.21S56.35,16.47,56.39,16.52Z"/><path class="cls-7" d="M56.48,17.91s.07.24.26.45.38.34.42.3-.07-.25-.26-.45S56.53,17.87,56.48,17.91Z"/><path class="cls-7" d="M6.31,41.69a1.24,1.24,0,0,0,.58.07,1.24,1.24,0,0,0,.58-.07,1.53,1.53,0,0,0-.58-.06A1.53,1.53,0,0,0,6.31,41.69Z"/><path class="cls-7" d="M5.69,40.12a1.53,1.53,0,0,0-.06.58,1.56,1.56,0,0,0,.06.59,1.27,1.27,0,0,0,.07-.59A1.24,1.24,0,0,0,5.69,40.12Z"/><path class="cls-7" d="M5,41.66a1.24,1.24,0,0,0-.58-.07,1.24,1.24,0,0,0-.58.07,1.53,1.53,0,0,0,.58.06A1.53,1.53,0,0,0,5,41.66Z"/><path class="cls-7" d="M5.65,43.23a1.27,1.27,0,0,0,.07-.59,1.24,1.24,0,0,0-.07-.58,1.53,1.53,0,0,0-.06.58A1.56,1.56,0,0,0,5.65,43.23Z"/><path class="cls-7" d="M4.72,42.56s.14-.07.25-.21.19-.27.16-.29-.14.07-.26.21S4.69,42.53,4.72,42.56Z"/><path class="cls-7" d="M4.77,40.77s.05.14.17.26.23.19.26.17,0-.14-.17-.26S4.8,40.74,4.77,40.77Z"/><path class="cls-7" d="M6.1,41.22s.13,0,.24-.12.19-.19.17-.22-.14,0-.25.12S6.08,41.2,6.1,41.22Z"/><path class="cls-7" d="M6.15,42s0,.14.15.26.21.19.24.17,0-.14-.15-.26S6.18,42,6.15,42Z"/><path class="cls-7" d="M57.81,54.19a2.83,2.83,0,0,0,1.16,0,2.44,2.44,0,0,0-1.16,0Z"/><path class="cls-7" d="M57.19,52.61a1.6,1.6,0,0,0-.06.59,1.56,1.56,0,0,0,.06.59,1.27,1.27,0,0,0,.07-.59A1.3,1.3,0,0,0,57.19,52.61Z"/><path class="cls-7" d="M56.54,54.15a2.83,2.83,0,0,0-1.16,0,2.44,2.44,0,0,0,1.16,0Z"/><path class="cls-7" d="M57.15,55.73a1.3,1.3,0,0,0,.07-.59,1.27,1.27,0,0,0-.07-.59,1.56,1.56,0,0,0-.06.59A1.6,1.6,0,0,0,57.15,55.73Z"/><path class="cls-7" d="M56.22,55.05s.14-.07.25-.2.19-.27.16-.29-.14.07-.26.2S56.19,55,56.22,55.05Z"/><path class="cls-7" d="M56.27,53.26s0,.15.17.26.23.2.26.18-.05-.15-.17-.27S56.3,53.24,56.27,53.26Z"/><path class="cls-7" d="M57.6,53.72s.13,0,.24-.12.19-.19.17-.22-.14,0-.25.12S57.58,53.69,57.6,53.72Z"/><path class="cls-7" d="M57.65,54.51s0,.14.15.25.21.2.24.17,0-.14-.15-.25S57.68,54.48,57.65,54.51Z"/><path class="cls-7" d="M14.33,33.15l-.07.16a1.08,1.08,0,0,1-.61.61l-.18.07.17.07a1.13,1.13,0,0,1,.62.63l.05.11.07-.14a1.12,1.12,0,0,1,.63-.58l.15,0-.19-.1a1.17,1.17,0,0,1-.56-.58Z"/><path class="cls-7" d="M6.89,30.36l0,.08a.59.59,0,0,1-.31.31l-.08,0,.08,0a.56.56,0,0,1,.31.31l0,.06,0-.08a.55.55,0,0,1,.32-.28l.07,0-.1-.05a.55.55,0,0,1-.27-.29Z"/><path class="cls-7" d="M64.57,18.91l0,.08a.54.54,0,0,1-.31.3l-.09,0,.08,0a.57.57,0,0,1,.32.31l0,.06,0-.07a.6.6,0,0,1,.32-.29l.08,0-.1-.05a.61.61,0,0,1-.28-.29Z"/><path class="cls-7" d="M61.4,61.82l0,.08a.59.59,0,0,1-.31.31l-.09,0,.08,0a.57.57,0,0,1,.32.31l0,.06,0-.07a.57.57,0,0,1,.32-.29l.08,0-.1,0a.55.55,0,0,1-.28-.3Z"/><path class="cls-7" d="M17,80.63l0,.08a.54.54,0,0,1-.31.3l-.08,0,.08,0a.56.56,0,0,1,.31.31l0,.06,0-.07a.6.6,0,0,1,.32-.29l.07,0-.1,0a.59.59,0,0,1-.27-.29Z"/><path class="cls-7" d="M50.36,10.59l0,.08A.56.56,0,0,1,50,11l-.08,0,.08,0a.56.56,0,0,1,.31.31l0,.06,0-.08a.55.55,0,0,1,.32-.28l.07,0-.1,0a.55.55,0,0,1-.27-.29Z"/><path class="cls-7" d="M55.39,66.68l-.06.16a1.12,1.12,0,0,1-.62.61l-.18.07.17.07a1.13,1.13,0,0,1,.62.63l0,.11.07-.14a1.15,1.15,0,0,1,.63-.58l.15,0-.19-.1a1.11,1.11,0,0,1-.55-.58Z"/></g></svg>