<svg xmlns="http://www.w3.org/2000/svg" viewBox="0 0 151.16 120"><defs><style>.cls-1{fill:#fff;}.cls-2{fill:#e42027;}.cls-3{fill:none;}.cls-4{fill:#e83f4c;}.cls-5{fill:#f6b705;}.cls-6{fill:#660c16;}</style></defs><title>menu-ham_time</title><g id="Layer_2" data-name="Layer 2"><g id="Layer_1-2" data-name="Layer 1"><rect class="cls-1" width="151.16" height="120"/><rect class="cls-2" x="41.67" y="85.56" width="70.55" height="19.28" rx="9.64"/><path class="cls-1" d="M51.25,99v-7.2h1.08V99Z"/><path class="cls-1" d="M59.24,95.42A4,4,0,0,1,58.41,98,2.92,2.92,0,0,1,56,99.15a3,3,0,0,1-1.85-.61A3,3,0,0,1,53,96.79h1.1A2,2,0,0,0,56,98.14a1.9,1.9,0,0,0,1.64-.84,3.64,3.64,0,0,0,0-3.75,2,2,0,0,0-3.55.51H53a3,3,0,0,1,1.19-1.75A3,3,0,0,1,56,91.7a2.94,2.94,0,0,1,2.41,1.11A4,4,0,0,1,59.24,95.42Z"/><path class="cls-1" d="M65.25,99V96.13a2,2,0,0,0-.87-.83A2.79,2.79,0,0,0,63,95a2.29,2.29,0,0,0-1.58.53,1.65,1.65,0,0,0-.58,1.29,1.32,1.32,0,0,0,.36.93,1.17,1.17,0,0,0,.9.39,2,2,0,0,0,1.08-.33l.63.78a2.56,2.56,0,0,1-1.71.55,2.27,2.27,0,0,1-1.69-.68,2.31,2.31,0,0,1-.65-1.64,2.66,2.66,0,0,1,.86-2A3.36,3.36,0,0,1,63,94a3.27,3.27,0,0,1,2.23.75V93.66a1.44,1.44,0,0,0-.7-.68,2.53,2.53,0,0,0-1.15-.27,2.16,2.16,0,0,0-2.14,1.09H60.1a2.85,2.85,0,0,1,1.22-1.56,3.84,3.84,0,0,1,2.06-.54,3.39,3.39,0,0,1,2,.56,2.15,2.15,0,0,1,1,1.2V99Z"/><path class="cls-1" d="M70.35,99V94.58a2,2,0,0,0-.44-1.37,1.64,1.64,0,0,0-1.31-.5,2.92,2.92,0,0,0-1.64.5V92.08a3.38,3.38,0,0,1,1.69-.38,2.76,2.76,0,0,1,2.11.77,2.49,2.49,0,0,1,.67,1.82V99Z"/><path class="cls-1" d="M77.55,99V94.33a1.52,1.52,0,0,0-.48-1.19,1.85,1.85,0,0,0-1.29-.43,2.71,2.71,0,0,0-1.49.46,1.32,1.32,0,0,0-.7,1.14V99H72.51v-7.2h1.08v.74a3.23,3.23,0,0,1,2.23-.86,3.33,3.33,0,0,1,1.12.18,2.75,2.75,0,0,1,.89.5,2.24,2.24,0,0,1,.59.78,2.51,2.51,0,0,1,.21,1V99Z"/><path class="cls-1" d="M79.11,90a.88.88,0,0,1-.29.66,1.06,1.06,0,0,1-.73.27,1,1,0,0,1-.73-.27.89.89,0,0,1,0-1.33,1,1,0,0,1,.73-.27,1.06,1.06,0,0,1,.73.27A.88.88,0,0,1,79.11,90Zm-.61,0c0-.25-.14-.38-.41-.38s-.42.13-.42.38.14.38.42.38S78.5,90.24,78.5,90Zm4.14,9V94.58a2,2,0,0,0-.44-1.37,1.63,1.63,0,0,0-1.31-.5,2.89,2.89,0,0,0-1.63.5V92.08A3.35,3.35,0,0,1,81,91.7a2.75,2.75,0,0,1,2.1.77,2.45,2.45,0,0,1,.67,1.82V99Z"/><path class="cls-1" d="M90.79,95.35a3.44,3.44,0,0,1-1.09,2.72,4.3,4.3,0,0,1-3,1h-.4l-.39,0-1.66-5.8,1.06-.32,1.48,5.18a2.93,2.93,0,0,0,2.11-.69,2.59,2.59,0,0,0,.8-2c0-1.76-1-2.64-2.89-2.64h-.49v-1h.61a4,4,0,0,1,2.92,1A3.57,3.57,0,0,1,90.79,95.35Z"/><path class="cls-1" d="M94.54,99V94.58a2,2,0,0,0-.44-1.37,1.64,1.64,0,0,0-1.31-.5,3,3,0,0,0-1.64.5V92.08a3.39,3.39,0,0,1,1.7-.38,2.75,2.75,0,0,1,2.1.77,2.45,2.45,0,0,1,.67,1.82V99Z"/><path class="cls-1" d="M101.74,99v-.73a3.22,3.22,0,0,1-2.24.86,3,3,0,0,1-2-.68,2.32,2.32,0,0,1-.78-1.82V91.82h1.08v4.7a1.54,1.54,0,0,0,.47,1.19,1.85,1.85,0,0,0,1.29.43,2.68,2.68,0,0,0,1.5-.47,1.36,1.36,0,0,0,.7-1.13V91.82h1.08V99Z"/><path class="cls-3" d="M39.82,21.46A26.8,26.8,0,0,0,14.24,40.25a19.1,19.1,0,0,1,9.49-5V32a1.39,1.39,0,0,1,1.39-1.39h5.07A1.4,1.4,0,0,1,31.59,32v3.22a19,19,0,0,1,8,3.7L41,37.43l-.85-.85a1.83,1.83,0,0,1,0-2.58,1.81,1.81,0,0,1,2.58,0l5,5a1.82,1.82,0,0,1-2.58,2.58l-.87-.87L42.84,42.2a19.29,19.29,0,0,1-12.77,31,26.81,26.81,0,1,0,9.75-51.78Zm16,34.27H48.4a.27.27,0,0,1,0-.54h7.43a.27.27,0,0,1,0,.54ZM61,51.84H48.4a.27.27,0,0,1,0-.54H61a.27.27,0,1,1,0,.54Zm3.8-3.43H48.4a.28.28,0,0,1,0-.55H64.83a.28.28,0,1,1,0,.55Z"/><path class="cls-4" d="M30.19,31.47H25.12a.52.52,0,0,0-.53.52v3.06a19.69,19.69,0,0,1,6.13,0V32A.52.52,0,0,0,30.19,31.47Z"/><path class="cls-1" d="M41.63,38l-1.41,1.42c.37.32.73.65,1.08,1s.67.7,1,1.07l1.41-1.42Z"/><path class="cls-4" d="M45.79,41a1,1,0,0,0,1.36,0,1,1,0,0,0,0-1.36l-5-5a1,1,0,0,0-.68-.28A1,1,0,0,0,40.78,36Z"/><path class="cls-4" d="M40.68,41.07a18.43,18.43,0,0,0-26,0c-.31.31-.6.62-.88,1a26.68,26.68,0,0,0-.73,6A15.84,15.84,0,1,1,27.66,69.94a16,16,0,0,1-4.44-.63,26.8,26.8,0,0,0,5.16,3.2,18.42,18.42,0,0,0,12.3-31.44Z"/><path class="cls-1" d="M38.25,64.69A15,15,0,1,0,13.11,50.55a26.72,26.72,0,0,0,8.24,17.14,15,15,0,0,0,16.9-3Zm3.28-10.75a.28.28,0,0,1-.27.27H37.55a.27.27,0,0,1,0-.54h3.71A.28.28,0,0,1,41.53,53.94Zm-5.44-5.18,3.21-1.85a.27.27,0,0,1,.37.1.28.28,0,0,1-.1.37l-3.21,1.85a.37.37,0,0,1-.14,0,.27.27,0,0,1-.13-.51Zm-.1,10a.27.27,0,0,1,.37-.1l3.21,1.86a.27.27,0,0,1,.1.37.28.28,0,0,1-.24.13.22.22,0,0,1-.13,0l-3.21-1.85A.27.27,0,0,1,36,58.75ZM32.37,45.24,34.22,42a.28.28,0,0,1,.37-.1.27.27,0,0,1,.1.37l-1.85,3.21a.27.27,0,0,1-.24.14.22.22,0,0,1-.13,0A.27.27,0,0,1,32.37,45.24ZM25.46,54.1A2.2,2.2,0,0,1,27.22,52V44a.44.44,0,0,1,.17-.34v-3.3a.27.27,0,0,1,.54,0v3.3a.43.43,0,0,1,.16.34v8a2.19,2.19,0,0,1,1.38,3.38l8,8.16a.43.43,0,0,1,0,.61.47.47,0,0,1-.31.12.39.39,0,0,1-.3-.13l-8-8.16a2.17,2.17,0,0,1-1.2.36A2.2,2.2,0,0,1,25.46,54.1Z"/><path class="cls-4" d="M27.93,43.64v-3.3a.27.27,0,0,0-.54,0v3.3a.41.41,0,0,1,.27-.1A.45.45,0,0,1,27.93,43.64Z"/><path class="cls-4" d="M36.09,59.12,39.3,61a.22.22,0,0,0,.13,0,.28.28,0,0,0,.24-.13.27.27,0,0,0-.1-.37l-3.21-1.86a.27.27,0,0,0-.37.1A.27.27,0,0,0,36.09,59.12Z"/><path class="cls-4" d="M37.28,53.94a.27.27,0,0,0,.27.27h3.71a.27.27,0,0,0,0-.54H37.55A.27.27,0,0,0,37.28,53.94Z"/><path class="cls-4" d="M36.22,49.27a.37.37,0,0,0,.14,0l3.21-1.85a.28.28,0,0,0,.1-.37.27.27,0,0,0-.37-.1l-3.21,1.85a.27.27,0,0,0,.13.51Z"/><path class="cls-4" d="M32.47,45.61a.22.22,0,0,0,.13,0,.27.27,0,0,0,.24-.14l1.85-3.21a.27.27,0,0,0-.1-.37.28.28,0,0,0-.37.1l-1.85,3.21A.27.27,0,0,0,32.47,45.61Z"/><circle class="cls-4" cx="27.66" cy="54.1" r="1.33"/><path class="cls-5" d="M64.83,47.86H48.4a.28.28,0,0,0,0,.55H64.83a.28.28,0,1,0,0-.55Z"/><path class="cls-5" d="M61,51.3H48.4a.27.27,0,0,0,0,.54H61a.27.27,0,1,0,0-.54Z"/><path class="cls-5" d="M55.83,55.19H48.4a.27.27,0,0,0,0,.54h7.43a.27.27,0,0,0,0-.54Z"/><path class="cls-6" d="M24.59,35.05V32a.52.52,0,0,1,.53-.52h5.07a.52.52,0,0,1,.53.52v3.06l.87.16V32a1.4,1.4,0,0,0-1.4-1.39H25.12A1.39,1.39,0,0,0,23.73,32v3.22Z"/><path class="cls-6" d="M43.7,40.11l-1.41,1.42c.19.22.37.44.55.67l1.47-1.48Z"/><path class="cls-6" d="M40.22,39.46,41.63,38,41,37.43l-1.48,1.48C39.77,39.08,40,39.27,40.22,39.46Z"/><path class="cls-6" d="M41.63,38l2.07,2.07.61.61.87.87A1.82,1.82,0,0,0,47.76,39l-5-5a1.81,1.81,0,0,0-2.58,0,1.83,1.83,0,0,0,0,2.58l.85.85Zm-.85-3.43a1,1,0,0,1,.68-.28,1,1,0,0,1,.68.28l5,5a1,1,0,0,1,0,1.36,1,1,0,0,1-1.36,0l-5-5A1,1,0,0,1,40.78,34.61Z"/><path class="cls-6" d="M42.84,42.2c-.18-.23-.36-.45-.55-.67-.32-.37-.65-.72-1-1.07s-.71-.68-1.08-1c-.22-.19-.45-.38-.68-.55a19,19,0,0,0-7.95-3.7l-.87-.16a19.69,19.69,0,0,0-6.13,0l-.86.16a19.1,19.1,0,0,0-9.49,5c-.19.58-.35,1.17-.49,1.77.28-.33.57-.64.88-1A18.42,18.42,0,1,1,28.38,72.51c.55.26,1.12.5,1.69.73a19.29,19.29,0,0,0,12.77-31Z"/><path class="cls-6" d="M38.86,65.3A15.84,15.84,0,1,0,13,48.05v.21c0,.77,0,1.54.09,2.29a14.95,14.95,0,1,1,8.24,17.14c.6.57,1.22,1.11,1.87,1.62a16,16,0,0,0,4.44.63A15.74,15.74,0,0,0,38.86,65.3Z"/><path class="cls-6" d="M28.09,52V44a.43.43,0,0,0-.16-.34.45.45,0,0,0-.27-.1.41.41,0,0,0-.27.1.44.44,0,0,0-.17.34v8a2.12,2.12,0,0,1,.44,0A2,2,0,0,1,28.09,52Z"/><path class="cls-6" d="M28.86,55.93l8,8.16a.39.39,0,0,0,.3.13.47.47,0,0,0,.31-.12.43.43,0,0,0,0-.61l-8-8.16A2.05,2.05,0,0,1,28.86,55.93Z"/><path class="cls-6" d="M28.86,55.93a2.05,2.05,0,0,0,.61-.6A2.19,2.19,0,0,0,28.09,52a2,2,0,0,0-.43,0,2.12,2.12,0,0,0-.44,0,2.19,2.19,0,0,0,.44,4.34A2.17,2.17,0,0,0,28.86,55.93Zm-1.2-.5A1.33,1.33,0,1,1,29,54.1,1.33,1.33,0,0,1,27.66,55.43Z"/><path class="cls-6" d="M46.86,22.94l-.14,0A27.4,27.4,0,0,0,44,22.33a.54.54,0,1,1,.17-1.06,25.19,25.19,0,0,1,2.84.61.55.55,0,0,1,.38.66A.56.56,0,0,1,46.86,22.94Z"/><path class="cls-6" d="M39.82,75.61a27.35,27.35,0,1,1,0-54.69.54.54,0,0,1,0,1.08,26.26,26.26,0,1,0,22.3,12.39,26.36,26.36,0,0,0-10.32-9.5.54.54,0,1,1,.5-1A27.35,27.35,0,0,1,39.82,75.61Z"/><path class="cls-6" d="M50.18,23.24a.69.69,0,0,1-.69.69.69.69,0,0,1,0-1.38A.69.69,0,0,1,50.18,23.24Z"/><path class="cls-5" d="M84.1,64,83,61.42H78.44L77.33,64H76l4.73-10.57L85.4,64Zm-3.39-7.8L79,60.29h3.5Z"/><path class="cls-5" d="M87.25,58.79V64H86.06V58.79h-.64V57.66h.64V55.25h1.19v2.41H88.4v1.13Z"/><path class="cls-5" d="M90.19,58.79V64H89V58.79h-.64V57.66H89V55.25h1.19v2.41h1.15v1.13Z"/><path class="cls-5" d="M94.32,64.17a2.76,2.76,0,0,1-2.19-.94,3.45,3.45,0,0,1-.83-2.36,3.69,3.69,0,0,1,.78-2.45,2.74,2.74,0,0,1,2.22-.94,2.57,2.57,0,0,1,2.16,1,3.75,3.75,0,0,1,.69,2.37V61H92.5A2.33,2.33,0,0,0,93,62.5a1.6,1.6,0,0,0,1.3.6,2.21,2.21,0,0,0,1.85-1.21l1,.55A3,3,0,0,1,94.32,64.17Zm0-5.65a1.72,1.72,0,0,0-1.75,1.58H96C95.75,59.05,95.19,58.52,94.3,58.52Z"/><path class="cls-5" d="M102,64V60.35a2.83,2.83,0,0,0-.21-1.27,1.17,1.17,0,0,0-1.13-.52,1.28,1.28,0,0,0-1.33.83,4.93,4.93,0,0,0-.19,1.69V64H98v-6.3h1.17v.88A2.14,2.14,0,0,1,101,57.48c1.45,0,2.18.91,2.18,2.73V64Z"/><path class="cls-5" d="M109.16,64v-1a2.59,2.59,0,0,1-4.26.22,3.63,3.63,0,0,1-.77-2.39,3.54,3.54,0,0,1,.81-2.31,2.56,2.56,0,0,1,2.07-1,2.72,2.72,0,0,1,2.15,1.25V52.27h1.18V64Zm.06-3.15a2.43,2.43,0,0,0-.53-1.6,1.77,1.77,0,0,0-1.45-.65,1.72,1.72,0,0,0-.78.18,2.4,2.4,0,0,0-.61.48,2.1,2.1,0,0,0-.4.72,3,3,0,0,0-.13.87,3.17,3.17,0,0,0,.13.88,2.19,2.19,0,0,0,.38.73,1.83,1.83,0,0,0,.6.5,1.92,1.92,0,0,0,2.26-.48A2.46,2.46,0,0,0,109.22,60.81Z"/><path class="cls-5" d="M116.22,64v-1a2.61,2.61,0,0,1-2.1,1.23,2.7,2.7,0,0,1-2.17-1,3.69,3.69,0,0,1-.77-2.39,3.54,3.54,0,0,1,.81-2.31,2.61,2.61,0,0,1,2.1-1,2.64,2.64,0,0,1,2.13,1.27V57.66h1.17V64Zm.06-3.15a2.49,2.49,0,0,0-.53-1.6,1.78,1.78,0,0,0-1.45-.65,1.72,1.72,0,0,0-.78.18,2.45,2.45,0,0,0-.62.48,2.08,2.08,0,0,0-.39.72,2.73,2.73,0,0,0-.13.87,2.84,2.84,0,0,0,.13.88,2,2,0,0,0,.38.73,1.67,1.67,0,0,0,1.41.68,1.76,1.76,0,0,0,1.45-.66A2.51,2.51,0,0,0,116.28,60.81Z"/><path class="cls-5" d="M122.76,64V60.35a2.83,2.83,0,0,0-.21-1.27,1.18,1.18,0,0,0-1.14-.52,1.28,1.28,0,0,0-1.33.83,5.2,5.2,0,0,0-.19,1.69V64h-1.17v-6.3h1.17v.88a2.15,2.15,0,0,1,1.87-1.06c1.45,0,2.17.91,2.17,2.73V64Z"/><path class="cls-5" d="M128.16,64.17a3.17,3.17,0,0,1-2.33-.94,3.21,3.21,0,0,1-1-2.36,3.31,3.31,0,0,1,3.35-3.39,3.33,3.33,0,0,1,1.61.39v1.61a2.26,2.26,0,0,0-1.75-.88,1.89,1.89,0,0,0-1.44.67,2.29,2.29,0,0,0-.58,1.54,2.25,2.25,0,0,0,.6,1.61,2,2,0,0,0,1.52.62,2.24,2.24,0,0,0,1.65-.85v1.58A3.67,3.67,0,0,1,128.16,64.17Z"/><path class="cls-5" d="M133.47,64.17a2.79,2.79,0,0,1-2.2-.94,3.44,3.44,0,0,1-.82-2.36,3.69,3.69,0,0,1,.78-2.45,2.74,2.74,0,0,1,2.22-.94,2.56,2.56,0,0,1,2.15,1,3.75,3.75,0,0,1,.69,2.37V61h-4.65a2.33,2.33,0,0,0,.54,1.48,1.62,1.62,0,0,0,1.31.6,2.21,2.21,0,0,0,1.84-1.21l1,.55A3,3,0,0,1,133.47,64.17Zm0-5.65a1.71,1.71,0,0,0-1.75,1.58h3.42C134.89,59.05,134.33,58.52,133.45,58.52Z"/><path class="cls-2" d="M81.28,33.3H75.36V31H90V33.3H84.09V50H81.28Z"/><path class="cls-2" d="M92.25,33.9a1.61,1.61,0,0,1,1.15-2.75,1.62,1.62,0,0,1,1.18.46,1.61,1.61,0,0,1,0,2.29,1.63,1.63,0,0,1-1.18.47A1.56,1.56,0,0,1,92.25,33.9Zm-.25,3h2.81V50H92Z"/><path class="cls-2" d="M98.61,36.93h2.62v1.88a6.3,6.3,0,0,1,2.1-1.72,5.48,5.48,0,0,1,2.43-.57,5.12,5.12,0,0,1,2.51.53,3.2,3.2,0,0,1,1.36,1.63,5.56,5.56,0,0,1,2.14-1.61,6.34,6.34,0,0,1,2.55-.55,4.4,4.4,0,0,1,3.47,1.22,5.28,5.28,0,0,1,1.06,3.58V50h-2.67V41.68a3.42,3.42,0,0,0-.6-2.28,2.67,2.67,0,0,0-2-.67,4,4,0,0,0-3.38,1.8,11,11,0,0,1,0,1.34V50h-2.67V41.68A3.63,3.63,0,0,0,107,39.4a2.43,2.43,0,0,0-2-.67,4.58,4.58,0,0,0-3.71,2.35v9h-2.7Z"/><path class="cls-2" d="M123.78,48.62a6.42,6.42,0,0,1-2.06-5.11,6.46,6.46,0,0,1,7.09-7,8,8,0,0,1,3.85.86,5.83,5.83,0,0,1,2.39,2.38,7.29,7.29,0,0,1,.8,3.45v1.36H124.34a3.36,3.36,0,0,0,1.57,2.77,7.14,7.14,0,0,0,3.88.92,13.73,13.73,0,0,0,2.54-.24,12.4,12.4,0,0,0,2.27-.61v2.21a11.11,11.11,0,0,1-2.31.59,18.17,18.17,0,0,1-2.82.23A8.31,8.31,0,0,1,123.78,48.62Zm9.48-6a3.8,3.8,0,0,0-1.21-2.87,4.79,4.79,0,0,0-3.29-1,4.53,4.53,0,0,0-3.22,1.07,3.8,3.8,0,0,0-1.2,2.83Z"/></g></g></svg>