<svg xmlns="http://www.w3.org/2000/svg" viewBox="0 0 151.16 120"><defs><style>.cls-1,.cls-3{fill:#fff;}.cls-2,.cls-7{fill:#e42027;}.cls-3{font-size:18px;}.cls-3,.cls-7{font-family:PSLxKittithada-Bold, PSLxKittithada;font-weight:700;}.cls-4{letter-spacing:-0.01em;}.cls-5{fill:#660c16;}.cls-6,.cls-8{fill:#f6b705;}.cls-7{font-size:35.53px;}.cls-8{font-size:17.35px;font-family:PSLxKittithada;}</style></defs><title>menu-ham_Benefits</title><g id="Layer_2" data-name="Layer 2"><g id="Layer_1-2" data-name="Layer 1"><rect class="cls-1" width="151.16" height="120"/><rect class="cls-2" x="23.33" y="85.56" width="107.23" height="19.28" rx="9.64"/><text class="cls-3" transform="translate(28.53 99.14)">สิทธิประ<tspan class="cls-4" x="37.87" y="0">โ</tspan><tspan x="40.39" y="0">ยชน์ของฉัน</tspan></text><path class="cls-2" d="M48.4,56.56a7.26,7.26,0,1,0-11.19-9.24A7.25,7.25,0,1,0,26,56.56L37.14,67.75l.07.07.08-.07Z"/><path class="cls-2" d="M37.21,38.19a.43.43,0,0,1-.43-.43V34.51a.44.44,0,0,1,.43-.44.44.44,0,0,1,.44.44v3.25A.44.44,0,0,1,37.21,38.19Z"/><path class="cls-2" d="M31.75,39.35a.42.42,0,0,1-.37-.21l-1.63-2.82a.43.43,0,0,1,.75-.43l1.63,2.81a.44.44,0,0,1-.16.6A.42.42,0,0,1,31.75,39.35Z"/><path class="cls-2" d="M27.45,42.53a.39.39,0,0,1-.21-.06l-2.82-1.63a.43.43,0,0,1-.16-.59.44.44,0,0,1,.59-.16l2.82,1.63a.43.43,0,0,1,.16.59A.44.44,0,0,1,27.45,42.53Z"/><path class="cls-2" d="M47,42.53a.43.43,0,0,1-.21-.81l2.81-1.63a.43.43,0,0,1,.44.75l-2.82,1.63A.43.43,0,0,1,47,42.53Z"/><path class="cls-2" d="M42.67,39.35a.41.41,0,0,1-.21-.05.44.44,0,0,1-.16-.6l1.63-2.81a.43.43,0,0,1,.59-.16.45.45,0,0,1,.16.59l-1.63,2.82A.43.43,0,0,1,42.67,39.35Z"/><path class="cls-5" d="M44.33,26.47l-.15,0a25.34,25.34,0,0,0-2.72-.59.55.55,0,0,1-.45-.62.56.56,0,0,1,.62-.45c.95.16,1.91.36,2.84.61a.54.54,0,0,1-.14,1.07Z"/><path class="cls-5" d="M37.28,79.14a27.35,27.35,0,1,1,0-54.69.54.54,0,1,1,0,1.08,26.26,26.26,0,1,0,22.3,12.39,26.36,26.36,0,0,0-10.32-9.5.54.54,0,0,1-.23-.73.53.53,0,0,1,.73-.23A27.35,27.35,0,0,1,37.28,79.14Z"/><path class="cls-5" d="M47.64,26.76a.69.69,0,1,1-1.37,0,.69.69,0,0,1,1.37,0Z"/><path class="cls-5" d="M37.21,68.26a.43.43,0,0,1-.3-.13l-.08-.07L25.72,56.86l0,0a7.69,7.69,0,0,1,5.84-12.69,7.61,7.61,0,0,1,5.67,2.5A7.69,7.69,0,0,1,48.72,56.84l0,0L37.52,68.13A.44.44,0,0,1,37.21,68.26Zm-10.86-12L37.21,67.21,48.08,56.27a6.82,6.82,0,1,0-10.53-8.68.44.44,0,0,1-.34.16.46.46,0,0,1-.34-.16,6.82,6.82,0,1,0-10.52,8.68Z"/><path class="cls-6" d="M57.14,43.79H55.5v-3.6a.43.43,0,1,0-.86,0v3.6H53a.43.43,0,0,0-.43.43.44.44,0,0,0,.43.44h1.64v3.59a.43.43,0,1,0,.86,0V44.66h1.64a.44.44,0,0,0,.43-.44A.43.43,0,0,0,57.14,43.79Z"/><path class="cls-6" d="M60.42,52h-1V49.71a.43.43,0,0,0-.86,0V52h-1a.43.43,0,0,0-.43.43.44.44,0,0,0,.43.44h1v2.24a.43.43,0,1,0,.86,0V52.83h1a.44.44,0,0,0,.43-.44A.43.43,0,0,0,60.42,52Z"/><path class="cls-6" d="M21.46,57H19.7V53.13a.43.43,0,0,0-.86,0V57H17.07a.43.43,0,0,0-.43.43.44.44,0,0,0,.43.44h1.77v3.84a.43.43,0,0,0,.86,0V57.84h1.76a.44.44,0,0,0,.44-.44A.44.44,0,0,0,21.46,57Z"/><text class="cls-7" transform="translate(67.88 60.12)">Benefififififififfiits</text><text class="cls-8" transform="translate(80.5 43.78)">My</text></g></g></svg>