<svg xmlns="http://www.w3.org/2000/svg" viewBox="0 0 151.16 120"><defs><style>.cls-1{fill:#fff;}.cls-2{fill:#e42027;}.cls-3{fill:none;}.cls-4{fill:#660c16;}.cls-5{fill:#1e2248;}.cls-6{fill:#4280ef;}</style></defs><title>menu-ham_learning</title><g id="Layer_2" data-name="Layer 2"><g id="Layer_1-2" data-name="Layer 1"><rect class="cls-1" width="151.16" height="120"/><rect class="cls-2" x="39.41" y="85.56" width="75.06" height="19.28" rx="9.64"/><path class="cls-1" d="M50.14,100.54V97.65a2,2,0,0,0-.87-.83,2.82,2.82,0,0,0-1.36-.33,2.29,2.29,0,0,0-1.58.53,1.65,1.65,0,0,0-.58,1.29,1.32,1.32,0,0,0,.36.93,1.17,1.17,0,0,0,.9.39,2,2,0,0,0,1.08-.33l.63.78a2.6,2.6,0,0,1-1.71.55,2.26,2.26,0,0,1-2.34-2.32,2.62,2.62,0,0,1,.86-2,3.34,3.34,0,0,1,2.38-.84,3.29,3.29,0,0,1,2.23.75V95.18a1.39,1.39,0,0,0-.7-.67,2.45,2.45,0,0,0-1.16-.28,2.17,2.17,0,0,0-2.14,1.09H45a2.84,2.84,0,0,1,1.21-1.56,3.87,3.87,0,0,1,2.07-.54,3.72,3.72,0,0,1,1.38.25l.69-.76.88.6-.31.36-.34.36a2.22,2.22,0,0,1,.65,1v5.56Z"/><path class="cls-1" d="M45.64,92.44v-.9H48.7v-.9h.9v.9h.54v-.9h1.08v1.8Z"/><path class="cls-1" d="M50.14,90.1V88.48h1.08V90.1Z"/><path class="cls-1" d="M59.34,96.94a3.77,3.77,0,0,1-1,2.69,3.88,3.88,0,0,1-5.29,0,3.73,3.73,0,0,1-1-2.69,3.69,3.69,0,0,1,.07-.84h2.83v1H53.11a3,3,0,0,0,.23,1,2.64,2.64,0,0,0,.53.81,2.28,2.28,0,0,0,.8.53,2.63,2.63,0,0,0,1,.19,2.55,2.55,0,0,0,1-.2,2.4,2.4,0,0,0,.81-.56,2.94,2.94,0,0,0,.53-.87,3.15,3.15,0,0,0,.19-1.09,3.24,3.24,0,0,0-.19-1.09,3,3,0,0,0-.52-.86,2.52,2.52,0,0,0-.82-.57,2.69,2.69,0,0,0-1-.19,2.44,2.44,0,0,0-2.27,1.36H52.24a3.76,3.76,0,0,1,6.09-1.33A3.75,3.75,0,0,1,59.34,96.94Z"/><path class="cls-1" d="M65.19,100.54V95.79a1.36,1.36,0,0,0-.56-1.16,2.77,2.77,0,0,0-3.4.42v5.49H60.15V94.78a3.88,3.88,0,0,1,5.2-1,2.13,2.13,0,0,1,.92,1.82v4.89Z"/><path class="cls-1" d="M70.28,100.54V96.1a2,2,0,0,0-.44-1.37,1.64,1.64,0,0,0-1.31-.5,3,3,0,0,0-1.64.5V93.6a3.39,3.39,0,0,1,1.7-.38,2.75,2.75,0,0,1,2.1.77,2.45,2.45,0,0,1,.67,1.82v4.73Z"/><path class="cls-1" d="M78.36,98.26a2.12,2.12,0,0,1-.93,1.8,3.63,3.63,0,0,1-2.16.63,3.31,3.31,0,0,1-2.15-.67,2.41,2.41,0,0,1-1-2h1.08a1.51,1.51,0,0,0,.65,1.29,2.41,2.41,0,0,0,1.4.38,3.1,3.1,0,0,0,.76-.09,2,2,0,0,0,.63-.27,1.57,1.57,0,0,0,.43-.42,1,1,0,0,0,.16-.55c0-.61-.66-1-2-1.12a6.7,6.7,0,0,1-2-.43,1.42,1.42,0,0,1-.94-1.35,1.84,1.84,0,0,1,.87-1.55,3.25,3.25,0,0,1,2-.65,3.77,3.77,0,0,1,2.06.55,2.2,2.2,0,0,1,1,1.52H77.16c-.26-.7-.9-1.06-2-1.06a2.39,2.39,0,0,0-.66.09,2.13,2.13,0,0,0-.57.24,1.27,1.27,0,0,0-.39.33.69.69,0,0,0-.14.4q0,.78,2.07.9C77.41,96.36,78.36,97,78.36,98.26Z"/><path class="cls-1" d="M79.4,100.54v-7.2h1.08v7.2Z"/><path class="cls-1" d="M87.31,98.26a2.13,2.13,0,0,1-.94,1.8,3.63,3.63,0,0,1-2.16.63,3.28,3.28,0,0,1-2.14-.67,2.39,2.39,0,0,1-1-2h1.08a1.51,1.51,0,0,0,.65,1.29,2.42,2.42,0,0,0,1.41.38,3.08,3.08,0,0,0,.75-.09,2,2,0,0,0,.63-.27,1.44,1.44,0,0,0,.43-.42,1,1,0,0,0,.17-.55c0-.61-.66-1-2-1.12a6.85,6.85,0,0,1-2-.43,1.42,1.42,0,0,1-.93-1.35,1.83,1.83,0,0,1,.86-1.55,3.3,3.3,0,0,1,2-.65,3.79,3.79,0,0,1,2.06.55,2.15,2.15,0,0,1,1,1.52H86.1c-.25-.7-.9-1.06-1.94-1.06a2.52,2.52,0,0,0-.67.09,2.27,2.27,0,0,0-.57.24,1.12,1.12,0,0,0-.38.33.64.64,0,0,0-.15.4q0,.78,2.07.9C86.36,96.36,87.31,97,87.31,98.26Z"/><path class="cls-1" d="M81.51,92.44v-.9H86v-.9h1.08v1.8Z"/><path class="cls-1" d="M91.25,100.65a3.86,3.86,0,0,1-2.5-.72,2.08,2.08,0,0,1-.85-1.71,1.88,1.88,0,0,1,.43-1.17,2.12,2.12,0,0,1,.85-.68,1.76,1.76,0,0,1-.78-.52,1.25,1.25,0,0,1-.34-.85,1.51,1.51,0,0,1,.17-.7,1.61,1.61,0,0,1,.49-.55,2.62,2.62,0,0,1,.73-.36,2.83,2.83,0,0,1,.9-.14,3.78,3.78,0,0,1,1.17.2v1l-.71-.13a3.63,3.63,0,0,0-.44,0c-.79,0-1.19.25-1.19.74s.47.79,1.4.79h.94v1h-.77a1.9,1.9,0,0,0-.63.11,1.72,1.72,0,0,0-.55.3,1.4,1.4,0,0,0-.4.44,1,1,0,0,0-.15.55,1.2,1.2,0,0,0,.6,1.06,3,3,0,0,0,1.63.38,3.36,3.36,0,0,0,1.94-.59V93.34h1.08v6.12A3.77,3.77,0,0,1,91.25,100.65Z"/><path class="cls-1" d="M100.39,100.54v-.73a3.2,3.2,0,0,1-2.23.86,3,3,0,0,1-2-.68,2.29,2.29,0,0,1-.79-1.82V93.34h1.08V98a1.52,1.52,0,0,0,.48,1.19,1.85,1.85,0,0,0,1.29.43,2.65,2.65,0,0,0,1.49-.47,1.34,1.34,0,0,0,.7-1.13V93.34h1.08v7.2Z"/><path class="cls-1" d="M108.47,98.26a2.12,2.12,0,0,1-.93,1.8,3.63,3.63,0,0,1-2.16.63,3.26,3.26,0,0,1-2.14-.67,2.39,2.39,0,0,1-1-2h1.08A1.51,1.51,0,0,0,104,99.3a2.42,2.42,0,0,0,1.41.38,3.08,3.08,0,0,0,.75-.09,2,2,0,0,0,.63-.27,1.44,1.44,0,0,0,.43-.42,1,1,0,0,0,.16-.55c0-.61-.66-1-2-1.12a6.85,6.85,0,0,1-2-.43,1.43,1.43,0,0,1-.94-1.35,1.84,1.84,0,0,1,.87-1.55,3.29,3.29,0,0,1,2-.65,3.8,3.8,0,0,1,2.07.55,2.15,2.15,0,0,1,1,1.52h-1.13c-.25-.7-.9-1.06-2-1.06a2.5,2.5,0,0,0-.66.09,2.13,2.13,0,0,0-.57.24,1.12,1.12,0,0,0-.38.33.64.64,0,0,0-.15.4q0,.78,2.07.9C107.53,96.36,108.47,97,108.47,98.26Z"/><path class="cls-1" d="M107.8,103.13a2,2,0,0,1-1.11.29,1.9,1.9,0,0,1-1.49-.59v-.72h-.54v-.85h1.62v1.26a.82.82,0,0,0,.41.11c.33,0,.49-.11.49-.34v-1h1.08v1.08A.9.9,0,0,1,107.8,103.13Z"/><path class="cls-1" d="M105.87,92.44v-.7a.34.34,0,0,0-.38-.38h-.16v-.72h.73c.59,0,.89.23.89.69v.21h2.26v.9Z"/><path class="cls-3" d="M42.1,24.74A26.8,26.8,0,0,0,29.68,75.3V36.86a2.6,2.6,0,0,1,2.6-2.59H51.92a2.59,2.59,0,0,1,2.59,2.59V75.3A26.8,26.8,0,0,0,42.1,24.74Z"/><path class="cls-2" d="M51.92,35.13H32.28a1.73,1.73,0,0,0-1.73,1.73V75.74a26.77,26.77,0,0,0,6.73,2.17h9.64a27,27,0,0,0,6.73-2.17V36.86A1.74,1.74,0,0,0,51.92,35.13ZM44,75.36H40.19a.79.79,0,0,1,0-1.57H44a.79.79,0,0,1,0,1.57Zm8.18-3.68a.44.44,0,0,1-.43.44H32.45a.44.44,0,0,1-.43-.44V38.25a.43.43,0,0,1,.43-.43h19.3a.43.43,0,0,1,.43.43Z"/><path class="cls-1" d="M44,73.79H40.19a.79.79,0,0,0,0,1.57H44a.79.79,0,0,0,0-1.57Z"/><path class="cls-4" d="M51.92,34.27H32.28a2.6,2.6,0,0,0-2.6,2.59V75.3l.87.44V36.86a1.73,1.73,0,0,1,1.73-1.73H51.92a1.74,1.74,0,0,1,1.73,1.73V75.74l.86-.44V36.86A2.59,2.59,0,0,0,51.92,34.27Z"/><path class="cls-5" d="M42.1,78.35a26.51,26.51,0,0,0,4.82-.44H37.28A26.35,26.35,0,0,0,42.1,78.35Z"/><path class="cls-4" d="M51.75,37.82H32.45a.43.43,0,0,0-.43.43V71.68a.44.44,0,0,0,.43.44h19.3a.44.44,0,0,0,.43-.44V38.25A.43.43,0,0,0,51.75,37.82Zm-.44,33.43H32.88V38.68H51.31Z"/><path class="cls-4" d="M49.14,26.22l-.14,0c-.89-.24-1.81-.44-2.72-.59a.53.53,0,0,1-.45-.62.54.54,0,0,1,.62-.44,25.19,25.19,0,0,1,2.84.61.55.55,0,0,1,.38.66A.56.56,0,0,1,49.14,26.22Z"/><path class="cls-4" d="M42.1,78.89a27.35,27.35,0,1,1,0-54.69.54.54,0,1,1,0,1.08A26.26,26.26,0,1,0,64.4,37.67a26.36,26.36,0,0,0-10.32-9.5.54.54,0,1,1,.5-1A27.33,27.33,0,0,1,69.44,51.54,27.35,27.35,0,0,1,42.1,78.89Z"/><circle class="cls-4" cx="51.77" cy="26.52" r="0.69"/><polygon class="cls-1" points="28.59 43.57 28.59 63.79 35.31 63.02 41.92 64.15 48.88 62.97 55.57 64.15 55.57 43.57 49.08 42.02 42.08 43.16 35.31 42.02 28.59 43.57"/><path class="cls-4" d="M42.1,64.84a.57.57,0,0,1-.22,0,16.84,16.84,0,0,0-13.13,0,.5.5,0,0,1-.5,0,.52.52,0,0,1-.25-.44V43.44a.52.52,0,0,1,.29-.46,16,16,0,0,1,4.39-1.36A15.26,15.26,0,0,1,42.34,43a.52.52,0,0,1,.22.7.51.51,0,0,1-.7.22,14.34,14.34,0,0,0-9-1.26,16.52,16.52,0,0,0-3.84,1.13V63.54a17.89,17.89,0,0,1,13.26.3.52.52,0,0,1,.26.69A.5.5,0,0,1,42.1,64.84Z"/><path class="cls-4" d="M42.1,64.84a.6.6,0,0,1-.29-.08.52.52,0,0,1-.23-.44V43.44a.51.51,0,0,1,.28-.46,14.6,14.6,0,0,1,6.77-1.62A17.16,17.16,0,0,1,55.91,43a.53.53,0,0,1,.28.46V64.32a.53.53,0,0,1-.75.47h0a17,17,0,0,0-6.69-1.36,15.55,15.55,0,0,0-6.44,1.37A.52.52,0,0,1,42.1,64.84Zm6.65-2.45a18.48,18.48,0,0,1,6.4,1.15V43.77a17,17,0,0,0-6.52-1.36,13.61,13.61,0,0,0-6,1.35V63.53A16.72,16.72,0,0,1,48.75,62.39Z"/><path class="cls-6" d="M37.92,49.18h-.1l-5.22-1a.53.53,0,0,1-.41-.62.51.51,0,0,1,.61-.4l5.22,1a.52.52,0,0,1-.1,1Z"/><path class="cls-6" d="M37.92,52.31h-.1l-5.22-1a.52.52,0,0,1-.41-.61.51.51,0,0,1,.61-.41l5.22,1a.52.52,0,0,1-.1,1Z"/><path class="cls-6" d="M37.92,55.45h-.1l-5.22-1a.52.52,0,1,1,.2-1l5.22,1a.52.52,0,0,1,.41.62A.52.52,0,0,1,37.92,55.45Z"/><path class="cls-6" d="M37.92,58.58h-.1l-5.22-1a.52.52,0,0,1,.2-1l5.22,1a.53.53,0,0,1-.1,1Z"/><path class="cls-6" d="M46.27,49.18a.52.52,0,0,1-.1-1l5.22-1a.51.51,0,0,1,.61.4.52.52,0,0,1-.41.62l-5.22,1Z"/><path class="cls-6" d="M46.27,52.31a.52.52,0,0,1-.1-1l5.22-1a.52.52,0,1,1,.2,1l-5.22,1Z"/><path class="cls-6" d="M46.27,55.45a.53.53,0,0,1-.51-.42.53.53,0,0,1,.41-.62l5.22-1a.52.52,0,0,1,.61.41.51.51,0,0,1-.41.61l-5.22,1Z"/><path class="cls-6" d="M46.27,58.58a.53.53,0,0,1-.1-1l5.22-1a.52.52,0,0,1,.61.41.51.51,0,0,1-.41.61l-5.22,1Z"/><path class="cls-6" d="M73.59,60.77V49.3h6v1.3H75v3.21h4.45v1.31H75v4.34h4.58v1.31Z"/><path class="cls-6" d="M80.89,57.4V56.31h3.32V57.4Z"/><path class="cls-6" d="M85.91,60.77V49.3h1.41V59.46h3.37v1.31Z"/><path class="cls-6" d="M94.1,61a3.14,3.14,0,0,1-2.48-1.07,3.91,3.91,0,0,1-.93-2.67,4.15,4.15,0,0,1,.88-2.77,3.08,3.08,0,0,1,2.51-1.06,2.89,2.89,0,0,1,2.43,1.11,4.25,4.25,0,0,1,.78,2.68v.21H92a2.77,2.77,0,0,0,.61,1.68,1.87,1.87,0,0,0,1.48.67,2.5,2.5,0,0,0,2.09-1.37l1.1.63A3.45,3.45,0,0,1,94.1,61Zm0-6.39a1.93,1.93,0,0,0-2,1.78H96C95.71,55.21,95.08,54.62,94.08,54.62Z"/><path class="cls-6" d="M103.38,60.77V59.62A3,3,0,0,1,101,61a3.06,3.06,0,0,1-2.46-1.16,4.1,4.1,0,0,1-.87-2.69,4,4,0,0,1,.92-2.61A2.9,2.9,0,0,1,101,53.44a3,3,0,0,1,2.42,1.44V53.64h1.32v7.13Zm.06-3.57a2.75,2.75,0,0,0-.6-1.8,2,2,0,0,0-1.64-.74,1.87,1.87,0,0,0-.88.21,2.43,2.43,0,0,0-.69.54,2.21,2.21,0,0,0-.45.81,3.19,3.19,0,0,0-.15,1,3.27,3.27,0,0,0,.15,1,2.42,2.42,0,0,0,.43.83,1.89,1.89,0,0,0,.67.55,2,2,0,0,0,.92.21,2,2,0,0,0,1.64-.74A2.84,2.84,0,0,0,103.44,57.2Z"/><path class="cls-6" d="M110,55a1.12,1.12,0,0,0-.8-.28q-1.59,0-1.59,2.52v3.5h-1.32V53.64h1.32v1a.36.36,0,0,0,0-.09.21.21,0,0,1,0-.11,1.86,1.86,0,0,1,1.82-1,2,2,0,0,1,1.09.33Z"/><path class="cls-6" d="M115.74,60.77V56.68a3.15,3.15,0,0,0-.24-1.43,1.34,1.34,0,0,0-1.28-.59,1.42,1.42,0,0,0-1.5.94,5.46,5.46,0,0,0-.22,1.91v3.26h-1.33V53.64h1.33v1a2.4,2.4,0,0,1,2.11-1.2c1.63,0,2.45,1,2.45,3.09v4.24Z"/><path class="cls-6" d="M120.54,50.4a.9.9,0,0,1-.26.64.88.88,0,0,1-.65.28A.92.92,0,0,1,119,51a.87.87,0,0,1-.27-.64.93.93,0,0,1,.27-.68.91.91,0,0,1,.65-.27.88.88,0,0,1,.65.27A1,1,0,0,1,120.54,50.4ZM119,60.77V53.64h1.33v7.13Z"/><path class="cls-6" d="M126.77,60.77V56.68a3.32,3.32,0,0,0-.23-1.43,1.35,1.35,0,0,0-1.29-.59,1.44,1.44,0,0,0-1.5.94,5.79,5.79,0,0,0-.21,1.91v3.26h-1.33V53.64h1.33v1a2.4,2.4,0,0,1,2.1-1.2q2.46,0,2.46,3.09v4.24Z"/><path class="cls-6" d="M135.49,63.66a3,3,0,0,1-2.7,1.19,3.24,3.24,0,0,1-2.34-.86,3.28,3.28,0,0,1-1-2.38h1.32a2,2,0,0,0,.59,1.5,2.1,2.1,0,0,0,1.48.53c1.32,0,2-.88,2-2.63V59.64a2.93,2.93,0,0,1-4.82.21,4.1,4.1,0,0,1-.87-2.69,4,4,0,0,1,.91-2.61,2.9,2.9,0,0,1,2.35-1.11,3.08,3.08,0,0,1,2.43,1.42V53.64h1.33v7A5.56,5.56,0,0,1,135.49,63.66Zm-.59-6.46a2.75,2.75,0,0,0-.6-1.8,2,2,0,0,0-1.64-.74,1.87,1.87,0,0,0-.88.21,2.3,2.3,0,0,0-.69.54,2.21,2.21,0,0,0-.45.81,3.19,3.19,0,0,0-.15,1,3,3,0,0,0,.56,1.81,2,2,0,0,0,1.61.8,2,2,0,0,0,1.67-.76A2.94,2.94,0,0,0,134.9,57.2Z"/><path class="cls-2" d="M74.63,38.65v5.29h-.91V36.5L79.17,42V36.85h.9v7.31Z"/><path class="cls-2" d="M86.87,43a3.35,3.35,0,0,1-2.47,1,3.66,3.66,0,1,1,.08-7.32,3.74,3.74,0,0,1,3,1.36l-.63.58a2.91,2.91,0,0,0-2.29-1.14,2.82,2.82,0,0,0-2.06.84,2.71,2.71,0,0,0-.84,2,2.84,2.84,0,0,0,.83,2,2.69,2.69,0,0,0,2,.86A2.34,2.34,0,0,0,86,42.6a2.09,2.09,0,0,0,.79-1.48H85v-.8h2.88v.28A3.36,3.36,0,0,1,86.87,43Z"/><path class="cls-2" d="M94.24,43a3.33,3.33,0,0,1-2.47,1,3.66,3.66,0,0,1,.09-7.32,3.7,3.7,0,0,1,3,1.36l-.62.58a2.93,2.93,0,0,0-2.3-1.14,2.84,2.84,0,0,0-2.06.84,2.74,2.74,0,0,0-.83,2,2.83,2.83,0,0,0,.82,2,2.7,2.7,0,0,0,2,.86,2.34,2.34,0,0,0,1.57-.61,2.14,2.14,0,0,0,.8-1.48H92.32v-.8H95.2v.28A3.36,3.36,0,0,1,94.24,43Z"/></g></g></svg>