<svg xmlns="http://www.w3.org/2000/svg" viewBox="0 0 151.16 120"><defs><style>.cls-1{fill:#fff;}.cls-2{fill:#e42027;}.cls-3{fill:none;}.cls-4{fill:#7dea96;}.cls-5{fill:#660c16;}.cls-6{fill:#1e2248;}.cls-7{fill:#34a353;}</style></defs><title>menu-ham_service</title><g id="Layer_2" data-name="Layer 2"><g id="Layer_1-2" data-name="Layer 1"><rect class="cls-1" width="151.16" height="120"/><rect class="cls-2" x="28.43" y="85.56" width="97.02" height="19.28" rx="9.64"/><path class="cls-1" d="M38.9,99.15V92H40v7.2Z"/><path class="cls-1" d="M48.28,95.55a3.71,3.71,0,0,1-1,2.68,3.88,3.88,0,0,1-5.29,0,3.75,3.75,0,0,1-1-2.68,3.69,3.69,0,0,1,.08-.85h2.82v1H42.05a3.31,3.31,0,0,0,.24,1,2.42,2.42,0,0,0,.53.81,2.2,2.2,0,0,0,.8.53,2.59,2.59,0,0,0,1,.19,2.68,2.68,0,0,0,1-.19,2.58,2.58,0,0,0,.81-.57,2.53,2.53,0,0,0,.53-.86,3,3,0,0,0,.19-1.09A2.94,2.94,0,0,0,47,94.46a2.72,2.72,0,0,0-.52-.87,2.22,2.22,0,0,0-.81-.56,2.59,2.59,0,0,0-1-.2,2.43,2.43,0,0,0-2.27,1.37H41.19a3.75,3.75,0,0,1,6.08-1.34A3.73,3.73,0,0,1,48.28,95.55Z"/><path class="cls-1" d="M54.13,99.15V94.39a1.35,1.35,0,0,0-.55-1.16,2.77,2.77,0,0,0-3.41.43v5.49H49.09V93.39a3.87,3.87,0,0,1,5.2-1,2.12,2.12,0,0,1,.92,1.82v4.9Z"/><path class="cls-1" d="M61.49,99.15v-2.9a2.06,2.06,0,0,0-.87-.83,2.76,2.76,0,0,0-1.36-.32,2.26,2.26,0,0,0-1.57.52,1.67,1.67,0,0,0-.59,1.29,1.32,1.32,0,0,0,.36.93,1.17,1.17,0,0,0,.9.39,1.91,1.91,0,0,0,1.08-.33l.63.78a2.57,2.57,0,0,1-1.71.56A2.29,2.29,0,0,1,56,96.91a2.66,2.66,0,0,1,.87-2,3.33,3.33,0,0,1,2.37-.84,3.27,3.27,0,0,1,2.23.75V93.78a1.35,1.35,0,0,0-.7-.67,2.41,2.41,0,0,0-1.15-.28,2.15,2.15,0,0,0-2.14,1.1H56.35a2.78,2.78,0,0,1,1.21-1.57,3.84,3.84,0,0,1,2.06-.54,3.77,3.77,0,0,1,1.39.25l.68-.75.88.59q-.14.18-.3.36l-.34.36a2.2,2.2,0,0,1,.64,1v5.57Z"/><path class="cls-1" d="M66.59,99.15V94.7a2,2,0,0,0-.44-1.37,1.67,1.67,0,0,0-1.31-.5,3,3,0,0,0-1.64.5V92.2a3.5,3.5,0,0,1,1.7-.38,2.75,2.75,0,0,1,2.1.77,2.45,2.45,0,0,1,.67,1.82v4.74Z"/><path class="cls-1" d="M74.67,96.86a2.08,2.08,0,0,1-.94,1.8,3.59,3.59,0,0,1-2.16.63,3.28,3.28,0,0,1-2.14-.67,2.41,2.41,0,0,1-1-2h1.08a1.48,1.48,0,0,0,.65,1.29,2.32,2.32,0,0,0,1.4.38,3.16,3.16,0,0,0,.76-.09,2,2,0,0,0,.63-.27,1.57,1.57,0,0,0,.43-.42,1,1,0,0,0,.16-.55c0-.61-.66-1-2-1.12a6.41,6.41,0,0,1-2-.43,1.42,1.42,0,0,1-.94-1.35,1.85,1.85,0,0,1,.86-1.55,3.29,3.29,0,0,1,2-.64,3.79,3.79,0,0,1,2.06.54,2.2,2.2,0,0,1,1,1.53H73.46c-.25-.71-.9-1.07-1.94-1.07a2.52,2.52,0,0,0-.67.09,2.2,2.2,0,0,0-.56.24,1.29,1.29,0,0,0-.39.33.64.64,0,0,0-.14.41q0,.76,2.07.9C73.72,95,74.67,95.64,74.67,96.86Z"/><path class="cls-1" d="M82.57,95.55a3.71,3.71,0,0,1-1,2.68,3.88,3.88,0,0,1-5.29,0,3.75,3.75,0,0,1-1-2.68,3.69,3.69,0,0,1,.08-.85h2.82v1H76.34a3.31,3.31,0,0,0,.24,1,2.42,2.42,0,0,0,.53.81,2.2,2.2,0,0,0,.8.53,2.59,2.59,0,0,0,1,.19,2.68,2.68,0,0,0,1-.19,2.58,2.58,0,0,0,.81-.57,2.53,2.53,0,0,0,.53-.86,3,3,0,0,0,.19-1.09,2.94,2.94,0,0,0-.19-1.09,2.72,2.72,0,0,0-.52-.87A2.22,2.22,0,0,0,80,93a2.59,2.59,0,0,0-1-.2,2.43,2.43,0,0,0-2.27,1.37H75.48a3.75,3.75,0,0,1,6.08-1.34A3.73,3.73,0,0,1,82.57,95.55Z"/><path class="cls-1" d="M90.42,95.55a3.75,3.75,0,0,1-1,2.68,3.88,3.88,0,0,1-5.29,0,3.75,3.75,0,0,1-1-2.68,4.5,4.5,0,0,1,.07-.85H86v1H84.19a3.05,3.05,0,0,0,.24,1,2.28,2.28,0,0,0,.53.81,2.2,2.2,0,0,0,.8.53,2.59,2.59,0,0,0,1,.19,2.68,2.68,0,0,0,1-.19,2.58,2.58,0,0,0,.81-.57,2.7,2.7,0,0,0,.53-.86,3,3,0,0,0,.19-1.09,2.91,2.91,0,0,0-.71-2,2.22,2.22,0,0,0-.81-.56,2.59,2.59,0,0,0-1-.2A2.43,2.43,0,0,0,84.5,94.2H83.33a3.75,3.75,0,0,1,6.08-1.34A3.77,3.77,0,0,1,90.42,95.55Z"/><path class="cls-1" d="M96.27,99.15v-.74a3.2,3.2,0,0,1-2.23.86,3,3,0,0,1-2-.68,2.3,2.3,0,0,1-.78-1.82V92h1.08v4.69a1.52,1.52,0,0,0,.48,1.19,1.8,1.8,0,0,0,1.28.43,2.72,2.72,0,0,0,1.5-.46,1.35,1.35,0,0,0,.7-1.14V92h1.08v7.2Z"/><path class="cls-1" d="M99.87,91.57v7.58H98.79v-7.4a2.72,2.72,0,0,1,.9-2l-.31-.32-.9.75-1.71-1.42.69-.75,1,.91,1-.82,1.27,1.45A2.55,2.55,0,0,0,99.87,91.57Z"/><path class="cls-1" d="M106.15,99.15v-2.9a2.06,2.06,0,0,0-.87-.83,2.79,2.79,0,0,0-1.36-.32,2.28,2.28,0,0,0-1.58.52,1.66,1.66,0,0,0-.58,1.29,1.32,1.32,0,0,0,.36.93,1.17,1.17,0,0,0,.9.39,2,2,0,0,0,1.08-.33l.63.78a2.59,2.59,0,0,1-1.71.56,2.29,2.29,0,0,1-2.34-2.33,2.69,2.69,0,0,1,.86-2,3.36,3.36,0,0,1,2.38-.84,3.27,3.27,0,0,1,2.23.75V93.78a1.39,1.39,0,0,0-.7-.67,2.44,2.44,0,0,0-1.15-.28,2.15,2.15,0,0,0-2.14,1.1H101a2.84,2.84,0,0,1,1.22-1.57,3.84,3.84,0,0,1,2.06-.54,3.47,3.47,0,0,1,2,.56,2.15,2.15,0,0,1,1,1.2v5.57Z"/><path class="cls-1" d="M113.35,99.15v-.74a3.2,3.2,0,0,1-2.23.86,3,3,0,0,1-2-.68,2.3,2.3,0,0,1-.78-1.82V92h1.08v4.69a1.52,1.52,0,0,0,.48,1.19,1.85,1.85,0,0,0,1.29.43,2.71,2.71,0,0,0,1.49-.46,1.35,1.35,0,0,0,.7-1.14V92h1.08v7.2Z"/><path class="cls-1" d="M114.27,90.4c-.37,0-.56.15-.56.45v.2h-1.08v-.33c0-.69.41-1,1.23-1h.93v.72Z"/><path class="cls-3" d="M23.26,47.41a.44.44,0,0,1,.43-.44h1.84v-2a.43.43,0,0,1,.43-.43h2.19V42.65a.44.44,0,0,1,.44-.44H64.94a.44.44,0,0,1,.43.44V68.09a26.81,26.81,0,1,0-42.11,0Z"/><path class="cls-1" d="M29,43.08v1.41h33.3a.43.43,0,0,1,.43.43V71a25.34,25.34,0,0,0,1.76-1.83v-26Z"/><path class="cls-2" d="M32.84,45.84A1.15,1.15,0,0,0,31.69,47h2.38A1.14,1.14,0,0,0,32.84,45.84Z"/><path class="cls-2" d="M34.1,45.35A2.14,2.14,0,0,1,34.94,47h18.3l.15,0h0l.05,0h0l.06.05,6.81,6.82,0,.06v0l0,0v0a.14.14,0,0,1,0,.07h0a.19.19,0,0,1,0,.08h0V72.89q.72-.56,1.41-1.14V45.35Z"/><path class="cls-2" d="M30.82,47a2.17,2.17,0,0,1,.84-1.62H26.4V47Z"/><path class="cls-4" d="M33.26,56.7A1.49,1.49,0,0,0,34.54,56H32A1.55,1.55,0,0,0,33.26,56.7Z"/><path class="cls-1" d="M44.32,78.31a26.63,26.63,0,0,0,10.08-2H34.23A26.64,26.64,0,0,0,44.32,78.31Z"/><path class="cls-1" d="M53.23,54.66a.44.44,0,0,1-.43-.44V47.84H31.67V55a2.74,2.74,0,0,0,.06.51h3a2.76,2.76,0,0,0,.05-.51V48.85a.44.44,0,0,1,.87,0V55a4.06,4.06,0,0,1,0,.51h19.7a.27.27,0,1,1,0,.54H35.5a2.32,2.32,0,0,1-.57.89,2.36,2.36,0,0,1-1.67.66A2.4,2.4,0,0,1,31,56h-2.6a.27.27,0,1,1,0-.54h2.46a2.78,2.78,0,0,1,0-.51V47.84H24.12V69.13A27.13,27.13,0,0,0,28.24,73a.25.25,0,0,1,.15,0h27a.27.27,0,0,1,0,.54H28.91A27.06,27.06,0,0,0,33,75.8H55.34a.24.24,0,0,1,.17.06,26.37,26.37,0,0,0,4.1-2.35V54.66Zm2.11,15.87H28.39a.27.27,0,0,1,0-.54h27a.27.27,0,1,1,0,.54Zm0-2.9H28.39a.27.27,0,1,1,0-.54h27a.27.27,0,0,1,0,.54Zm0-2.91H28.39a.27.27,0,1,1,0-.54h27a.27.27,0,0,1,0,.54Zm0-2.9H28.39a.27.27,0,0,1,0-.54h27a.27.27,0,1,1,0,.54Zm0-2.91H28.39a.27.27,0,0,1,0-.54h27a.27.27,0,1,1,0,.54Z"/><polygon class="cls-1" points="53.66 53.79 59 53.79 53.66 48.45 53.66 53.79"/><path class="cls-4" d="M34.54,56a1.65,1.65,0,0,0,.22-.54h-3A1.66,1.66,0,0,0,32,56Z"/><path class="cls-4" d="M28.39,55.47a.27.27,0,1,0,0,.54H31a3.05,3.05,0,0,1-.14-.54Z"/><path class="cls-4" d="M55.34,56a.27.27,0,1,0,0-.54H35.64a2.66,2.66,0,0,1-.14.54Z"/><path class="cls-4" d="M55.34,58.37H28.39a.27.27,0,0,0,0,.54h27a.27.27,0,1,0,0-.54Z"/><path class="cls-4" d="M55.34,61.28H28.39a.27.27,0,0,0,0,.54h27a.27.27,0,1,0,0-.54Z"/><path class="cls-4" d="M55.34,64.18H28.39a.27.27,0,1,0,0,.54h27a.27.27,0,0,0,0-.54Z"/><path class="cls-4" d="M55.34,67.09H28.39a.27.27,0,1,0,0,.54h27a.27.27,0,0,0,0-.54Z"/><path class="cls-4" d="M55.34,70H28.39a.27.27,0,0,0,0,.54h27a.27.27,0,1,0,0-.54Z"/><path class="cls-4" d="M55.34,73.44a.27.27,0,0,0,0-.54H28.39a.25.25,0,0,0-.15,0l.67.49Z"/><path class="cls-4" d="M33,75.8c.41.19.82.37,1.24.54H54.4q.57-.23,1.11-.48a.24.24,0,0,0-.17-.06Z"/><path class="cls-5" d="M64.94,42.21H28.59a.44.44,0,0,0-.44.44v1.84H29V43.08H64.51V69.13c.3-.34.59-.69.86-1V42.65A.44.44,0,0,0,64.94,42.21Z"/><path class="cls-5" d="M62.32,44.49H26a.43.43,0,0,0-.43.43v2h.87V45.35h5.26A2,2,0,0,1,32.84,45a2.11,2.11,0,0,1,1.26.37H61.89v26.4c.29-.26.58-.52.86-.79v-26A.43.43,0,0,0,62.32,44.49Z"/><path class="cls-6" d="M60.44,54.05v0Z"/><path class="cls-6" d="M60.4,54v0Z"/><path class="cls-6" d="M53.46,47h0Z"/><path class="cls-5" d="M60.48,54.22a.55.55,0,0,1,0,.17.45.45,0,0,1-.4.27h-.44V73.51c.3-.2.59-.41.87-.62V54.22Z"/><path class="cls-6" d="M53.39,47h0Z"/><path class="cls-6" d="M60.47,54.14Z"/><path class="cls-5" d="M34.52,47.65a.44.44,0,0,1-.44-.43,2.26,2.26,0,0,0,0-.25H31.69a2.11,2.11,0,0,0,0,.25v.62H52.8v-.43a.42.42,0,0,1,.26-.4.29.29,0,0,1,.18,0H34.94a2.18,2.18,0,0,1,0,.25A.43.43,0,0,1,34.52,47.65Z"/><path class="cls-5" d="M30.81,47.84v-.62a2.18,2.18,0,0,1,0-.25H23.69a.44.44,0,0,0-.43.44V68.09c.28.35.57.7.86,1V47.84Z"/><path class="cls-5" d="M52.8,47.41v6.81a.44.44,0,0,0,.43.44h6.82a.45.45,0,0,0,.4-.27.55.55,0,0,0,0-.17.19.19,0,0,0,0-.08h0a.14.14,0,0,0,0-.07v0l0,0v0l0-.06L53.54,47.1l-.06-.05h0l-.05,0h0l-.15,0a.29.29,0,0,0-.18,0A.42.42,0,0,0,52.8,47.41ZM59,53.79H53.66V48.45Z"/><path class="cls-5" d="M30.82,47a2.18,2.18,0,0,0,0,.25V55a2.78,2.78,0,0,0,0,.51A3.05,3.05,0,0,0,31,56a2.4,2.4,0,0,0,2.27,1.55,2.36,2.36,0,0,0,1.67-.66A2.32,2.32,0,0,0,35.5,56a2.66,2.66,0,0,0,.14-.54,4.06,4.06,0,0,0,0-.51V48.85a.44.44,0,0,0-.87,0V55a2.76,2.76,0,0,1-.05.51,1.65,1.65,0,0,1-.22.54,1.49,1.49,0,0,1-1.28.69A1.55,1.55,0,0,1,32,56a1.66,1.66,0,0,1-.23-.54,2.74,2.74,0,0,1-.06-.51V47.22a2.11,2.11,0,0,1,0-.25,1.15,1.15,0,0,1,1.15-1.13A1.14,1.14,0,0,1,34.07,47a2.26,2.26,0,0,1,0,.25.44.44,0,0,0,.44.43.43.43,0,0,0,.43-.43,2.18,2.18,0,0,0,0-.25,2.14,2.14,0,0,0-.84-1.62A2.11,2.11,0,0,0,32.84,45a2,2,0,0,0-1.18.37A2.17,2.17,0,0,0,30.82,47Z"/><path class="cls-5" d="M51.36,26.18l-.14,0c-.89-.24-1.81-.44-2.72-.59a.53.53,0,0,1-.45-.62.54.54,0,0,1,.62-.44,24.56,24.56,0,0,1,2.83.61.54.54,0,0,1-.14,1.06Z"/><path class="cls-5" d="M44.32,78.85a27.35,27.35,0,1,1,0-54.69.54.54,0,1,1,0,1.08,26.26,26.26,0,1,0,22.3,12.39,26.36,26.36,0,0,0-10.32-9.5.54.54,0,0,1,.5-1A27.33,27.33,0,0,1,71.66,51.5,27.35,27.35,0,0,1,44.32,78.85Z"/><path class="cls-5" d="M54.68,26.48a.69.69,0,1,1-.69-.69A.69.69,0,0,1,54.68,26.48Z"/><path class="cls-2" d="M43.73,36.27H39.24a3.06,3.06,0,0,1,0-6.12,1.83,1.83,0,0,1,.33,0,.27.27,0,0,0,.28-.21,2.7,2.7,0,0,1,4.36-1.58.21.21,0,0,0,.2.05.27.27,0,0,0,.18-.11,3.06,3.06,0,0,1,5.65,1.58.25.25,0,0,0,.25.25,3.1,3.1,0,0,1,2.12.92,3,3,0,0,1,.87,2.14,3.07,3.07,0,0,1-3.06,3.06H43.73Z"/><path class="cls-1" d="M44.83,33l-3.17,5.49H44a.26.26,0,0,1,.26.25v7h1.19v-7a.25.25,0,0,1,.25-.25H48Z"/><path class="cls-5" d="M43.73,36.27H39.24a3.06,3.06,0,0,1,0-6.12,1.83,1.83,0,0,1,.33,0,.27.27,0,0,0,.28-.21,2.7,2.7,0,0,1,4.36-1.58.21.21,0,0,0,.2.05.27.27,0,0,0,.18-.11,3.06,3.06,0,0,1,5.65,1.58.25.25,0,0,0,.25.25,3.1,3.1,0,0,1,2.12.92,3,3,0,0,1,.87,2.14,3.07,3.07,0,0,1-3.06,3.06H45.93v.51h4.49A3.57,3.57,0,0,0,53,30.72a3.5,3.5,0,0,0-2.23-1.06,3.57,3.57,0,0,0-6.43-1.84,3.21,3.21,0,0,0-4.91,1.83h-.16a3.57,3.57,0,0,0,0,7.14h4.49Z"/><path class="cls-5" d="M46.21,34.41l-1.16-2a.26.26,0,0,0-.44,0l-1.16,2-.29.5L41,38.64a.3.3,0,0,0,0,.26.27.27,0,0,0,.22.12h2.51v7.06a.25.25,0,0,0,.25.25h1.7a.25.25,0,0,0,.25-.25V39h2.51a.27.27,0,0,0,.22-.12.3.3,0,0,0,0-.26L46.5,34.91Zm-.53,4.11a.25.25,0,0,0-.25.25v7H44.24v-7a.26.26,0,0,0-.26-.25H41.66L44.83,33,48,38.52Z"/><path class="cls-1" d="M45.68,38.52a.25.25,0,0,0-.25.25v7H44.24v-7a.26.26,0,0,0-.26-.25H41.66L44.83,33,48,38.52Z"/><path class="cls-2" d="M79.06,35.59h2.32v6.83h8.31V35.59H92V51.5H89.69V44.38H81.38V51.5H79.06Z"/><path class="cls-2" d="M95,35.59h6.4a5.64,5.64,0,0,1,3.91,1.23,4.59,4.59,0,0,1,1.37,3.59,4.79,4.79,0,0,1-.93,3A4.7,4.7,0,0,1,103.08,45l3.51,6.46h-2.41l-3.4-6.28H97.3V51.5H95Zm6,7.67a3.77,3.77,0,0,0,2.42-.72,2.54,2.54,0,0,0,.9-2.13,2.62,2.62,0,0,0-.87-2.21,4.08,4.08,0,0,0-2.45-.66H97.3v5.72Z"/><path class="cls-7" d="M87.41,66.23a4.06,4.06,0,0,1-1.4,3.1,4.62,4.62,0,0,1-3.19,1.26c-2,0-3.48-1.09-4.28-3.25l.83-.4q1.17,2.79,3.51,2.79a3.41,3.41,0,0,0,2.5-1,3.45,3.45,0,0,0,1.09-2.54,2.45,2.45,0,0,0-1-1.91c-.1-.07-.3-.21-.61-.4l-1.3-.74-2.65-1.48A2.83,2.83,0,0,1,79.4,59a3.76,3.76,0,0,1,1-2.76,3.59,3.59,0,0,1,2.69-1.06,3.91,3.91,0,0,1,3.59,2.08l-.68.57a3.46,3.46,0,0,0-3-1.77,2.64,2.64,0,0,0-1.1.23,2.7,2.7,0,0,0-.87.63,2.87,2.87,0,0,0-.58.93,2.8,2.8,0,0,0-.22,1.12,2.21,2.21,0,0,0,.89,1.77c.13.09.34.23.62.4s.67.38,1.14.62l2.77,1.49A3.44,3.44,0,0,1,87.41,66.23Z"/><path class="cls-7" d="M89.52,65.86a3.94,3.94,0,0,0,1,2.85,3.51,3.51,0,0,0,5.71-1,7.11,7.11,0,0,1,.74.43,4.25,4.25,0,0,1-4,2.48,4,4,0,0,1-3.16-1.4,5.14,5.14,0,0,1-1.2-3.42,5,5,0,0,1,1.23-3.39A4,4,0,0,1,93,61a3.9,3.9,0,0,1,3.14,1.43,5.47,5.47,0,0,1,1.17,3.45Zm5.74-3.14A3.06,3.06,0,0,0,93,61.81a3.43,3.43,0,0,0-1.28.24,3.28,3.28,0,0,0-1.07.69,3.71,3.71,0,0,0-.77,1A3.61,3.61,0,0,0,89.52,65h6.89A4,4,0,0,0,95.26,62.72Z"/><path class="cls-7" d="M102.51,62a3.16,3.16,0,0,0-.65-.14,1.66,1.66,0,0,0-1.66,1.42,10.35,10.35,0,0,0-.2,2.46v4.7h-.85V61.18H100v1.31l.09-.17a2,2,0,0,0,.11-.28A2,2,0,0,1,102,61a3.42,3.42,0,0,1,1,.17Z"/><path class="cls-7" d="M107,70.87l-4.13-9.69h.91l3.25,7.58,3.14-7.58h.91Z"/><path class="cls-7" d="M114.05,58.11c0,.55-.26.82-.79.82a.83.83,0,1,1,0-1.65C113.79,57.28,114.05,57.55,114.05,58.11ZM112.8,70.39V61.18h.86v9.21Z"/><path class="cls-7" d="M120.47,70.59a4.32,4.32,0,0,1-3.28-1.4,4.78,4.78,0,0,1-1.31-3.42,4.61,4.61,0,0,1,1.31-3.39A4.34,4.34,0,0,1,120.5,61a4.61,4.61,0,0,1,3.13,1.14v1.2a4.46,4.46,0,0,0-3.16-1.51,3.42,3.42,0,0,0-2.65,1.2,3.89,3.89,0,0,0-1.06,2.76,4,4,0,0,0,1.06,2.79,3.39,3.39,0,0,0,2.62,1.2,4.29,4.29,0,0,0,3.33-1.71v1.23A4.89,4.89,0,0,1,120.47,70.59Z"/><path class="cls-7" d="M125.77,65.86a3.94,3.94,0,0,0,1,2.85,3.51,3.51,0,0,0,5.71-1,7.11,7.11,0,0,1,.74.43,4.25,4.25,0,0,1-4,2.48,4,4,0,0,1-3.16-1.4,5.14,5.14,0,0,1-1.2-3.42,5,5,0,0,1,1.23-3.39,4,4,0,0,1,3.13-1.4,3.9,3.9,0,0,1,3.14,1.43,5.47,5.47,0,0,1,1.17,3.45Zm5.74-3.14a3.06,3.06,0,0,0-2.24-.91,3.43,3.43,0,0,0-1.28.24,3.39,3.39,0,0,0-1.07.69,3.71,3.71,0,0,0-.77,1,3.61,3.61,0,0,0-.38,1.27h6.89A4,4,0,0,0,131.51,62.72Z"/></g></g></svg>