<svg xmlns="http://www.w3.org/2000/svg" viewBox="0 0 151.16 120"><defs><style>.cls-1{fill:#fff;}.cls-2{fill:#e42027;}.cls-3{fill:none;}.cls-4{fill:#e83f4c;}.cls-5{fill:#660c16;}.cls-6{fill:#a50c22;}</style></defs><title>menu-ham_pms</title><g id="Layer_2" data-name="Layer 2"><g id="Layer_1-2" data-name="Layer 1"><rect class="cls-1" width="151.16" height="120"/><rect class="cls-2" x="39.84" y="85.56" width="74.21" height="19.28" rx="9.64"/><path class="cls-1" d="M51.75,99.73h-.86L49,94.3l-1.88,5.43H46.3l-1.93-7.2h2.38v1h-1l1.08,4,1.73-5h1l1.73,5,1.35-5h1.1Z"/><path class="cls-1" d="M59.42,99.73V96.84a2,2,0,0,0-.87-.83,2.82,2.82,0,0,0-1.36-.33,2.29,2.29,0,0,0-1.58.53A1.65,1.65,0,0,0,55,97.5a1.32,1.32,0,0,0,.36.93,1.17,1.17,0,0,0,.9.39,2,2,0,0,0,1.08-.33l.63.78a2.6,2.6,0,0,1-1.71.55A2.27,2.27,0,0,1,54,97.5a2.66,2.66,0,0,1,.86-2,3.34,3.34,0,0,1,2.38-.84,3.29,3.29,0,0,1,2.23.75V94.37a1.44,1.44,0,0,0-.7-.68,2.56,2.56,0,0,0-1.15-.27,2.19,2.19,0,0,0-2.15,1.09H54.27A2.81,2.81,0,0,1,55.49,93a3.84,3.84,0,0,1,2.06-.54,3.39,3.39,0,0,1,2,.56,2.15,2.15,0,0,1,1,1.2v5.56Z"/><path class="cls-1" d="M66.78,99.16a3.32,3.32,0,0,1-2.14.7,3.43,3.43,0,0,1-2.16-.7,2.16,2.16,0,0,1-.9-1.77V92.53h1.08v4.86a1.21,1.21,0,0,0,.61,1.08,2.39,2.39,0,0,0,1.37.38,2.5,2.5,0,0,0,1.4-.39,1.25,1.25,0,0,0,.58-1.07v-7.2H67.7v7.2A2.16,2.16,0,0,1,66.78,99.16Z"/><path class="cls-1" d="M74,102.61l-.94-.88-1,1-1-1-1,.9H68.24v-1h1.53l1.31-1.16,1,1,1-1,1,.87V95a1.39,1.39,0,0,0-.56-1.17A2.28,2.28,0,0,0,72,93.42a2.42,2.42,0,0,0-2,.84v5.47h-1.8v-1H69V94a3.84,3.84,0,0,1,5.2-.93,2.13,2.13,0,0,1,.92,1.82v7.75Z"/><path class="cls-1" d="M69.5,91.63v-.9h5.58v.9Z"/><path class="cls-1" d="M81.36,99.16a3.32,3.32,0,0,1-2.14.7,3.43,3.43,0,0,1-2.16-.7,2.16,2.16,0,0,1-.9-1.77V92.53h1.08v4.86a1.21,1.21,0,0,0,.61,1.08,2.39,2.39,0,0,0,1.37.38,2.5,2.5,0,0,0,1.4-.39,1.25,1.25,0,0,0,.58-1.07V92.53h1.08v4.86A2.16,2.16,0,0,1,81.36,99.16Z"/><path class="cls-1" d="M79.67,91.63V90h1.08v.72h3.78v.9Z"/><path class="cls-1" d="M88.79,99.73V94.82c0-.72-.25-1.17-.77-1.35L86.8,94.68l-1.28-1.17a2.44,2.44,0,0,0-.86,1,3.85,3.85,0,0,0-.49,1.78A3.23,3.23,0,0,0,84.53,98a1.47,1.47,0,0,0,1.33.8,1.25,1.25,0,0,0,1.06-.54l.8.64a2,2,0,0,1-1.84.9,2.46,2.46,0,0,1-2.08-1,4.12,4.12,0,0,1-.71-2.6,4.31,4.31,0,0,1,.85-2.57,3,3,0,0,1,1.92-1.28l.92.88.83-.81a2.13,2.13,0,0,1,1.65.66,2.35,2.35,0,0,1,.61,1.68v4.91Z"/><path class="cls-1" d="M84.29,91.63v-.9h5.58v.9Z"/><path class="cls-1" d="M97,96.06a3.44,3.44,0,0,1-1.09,2.72,4.35,4.35,0,0,1-3,1h-.39l-.4,0-1.66-5.8,1.07-.32L93,98.78a3,3,0,0,0,2.12-.69,2.62,2.62,0,0,0,.8-2c0-1.76-1-2.64-2.9-2.64h-.48v-1h.61a3.94,3.94,0,0,1,2.91,1A3.54,3.54,0,0,1,97,96.06Z"/><path class="cls-1" d="M100.69,99.73V95.29a2,2,0,0,0-.44-1.37,1.62,1.62,0,0,0-1.3-.5,2.92,2.92,0,0,0-1.64.5V92.79A3.38,3.38,0,0,1,99,92.41a2.76,2.76,0,0,1,2.11.77,2.48,2.48,0,0,1,.66,1.82v4.73Z"/><path class="cls-1" d="M107.89,99.73V99a3.18,3.18,0,0,1-2.23.86,3,3,0,0,1-2-.68,2.29,2.29,0,0,1-.79-1.82V92.53h1.08v4.7a1.52,1.52,0,0,0,.48,1.19,1.85,1.85,0,0,0,1.29.43,2.65,2.65,0,0,0,1.49-.47,1.34,1.34,0,0,0,.7-1.13V92.53H109v7.2Z"/><path class="cls-3" d="M56,68.9c.09,2.84,1,3.69,1.29,3.86H60a26.57,26.57,0,0,0,4.13-3.87Z"/><path class="cls-3" d="M39.19,74.83v-.6a1.66,1.66,0,0,1,1.69-1.47h2.53c.25-.17,1.2-1,1.29-3.86H27.41a1.76,1.76,0,0,1-1.75-1.76V37.51a1.76,1.76,0,0,1,1.75-1.75H65.62a26.79,26.79,0,1,0-9.55,39.5H39.63A.44.44,0,0,1,39.19,74.83Z"/><path class="cls-4" d="M26.53,37.51V64.37H67.32c.28-.52.55-1,.8-1.58H28.73a.43.43,0,0,1-.43-.43V38.43a.44.44,0,0,1,.43-.44H67.07c-.27-.46-.55-.91-.85-1.36H27.41A.88.88,0,0,0,26.53,37.51Z"/><path class="cls-1" d="M26.53,67.14a.88.88,0,0,0,.88.89H64.88a27.33,27.33,0,0,0,1.94-2.8H26.53Zm22.34-1h3a.48.48,0,0,1,0,1h-3a.48.48,0,1,1,0-1Z"/><path class="cls-1" d="M29.16,61.92H68.51a26.83,26.83,0,0,0-1-23.06H29.16Z"/><path class="cls-4" d="M45.57,68.9a7.09,7.09,0,0,1-1,3.86H56.16a7.09,7.09,0,0,1-1-3.86Z"/><path class="cls-4" d="M43.53,73.63H40.88c-.38,0-.82.32-.82.6v.17H57.63c.41-.25.82-.5,1.21-.77H43.53Z"/><path class="cls-4" d="M48.87,67.09h3a.48.48,0,0,0,0-1h-3a.48.48,0,1,0,0,1Z"/><path class="cls-5" d="M25.66,37.51V64.8a.43.43,0,0,1,.43-.43h.44V37.51a.88.88,0,0,1,.88-.88H66.22q-.28-.43-.6-.87H27.41A1.76,1.76,0,0,0,25.66,37.51Z"/><path class="cls-5" d="M26.09,64.37a.43.43,0,0,0-.43.43v2.34a1.76,1.76,0,0,0,1.75,1.76H44.7c0-.14,0-.29,0-.44a.43.43,0,0,1,.43-.43H27.41a.88.88,0,0,1-.88-.89V65.23H66.82c.17-.28.34-.57.5-.86H26.09Z"/><path class="cls-5" d="M64.6,68.9H56c0-.14,0-.29,0-.44a.44.44,0,0,0-.44-.43h9"/><path class="cls-5" d="M28.3,38.43V62.36a.43.43,0,0,0,.43.43H68.12q.21-.43.39-.87H29.16V38.86H67.55L67.07,38H28.73A.44.44,0,0,0,28.3,38.43Z"/><path class="cls-5" d="M55.6,68H45.14a.43.43,0,0,0-.43.43c0,.15,0,.3,0,.44-.09,2.82-1,3.69-1.29,3.86h1.17a7.09,7.09,0,0,0,1-3.86h9.6a7.09,7.09,0,0,0,1,3.86h1.17c-.25-.17-1.2-1-1.29-3.86,0-.14,0-.29,0-.44A.43.43,0,0,0,55.6,68Z"/><path class="cls-5" d="M57.33,72.76H40.88a1.66,1.66,0,0,0-1.69,1.47v.6a.44.44,0,0,0,.44.43H56.07c.53-.27,1-.56,1.56-.86H40.06v-.17c0-.28.44-.6.82-.6h18c.41-.28.8-.56,1.19-.86h-2.7Z"/><path class="cls-5" d="M50.9,26.08l-.14,0c-.89-.24-1.81-.44-2.72-.59a.54.54,0,0,1-.45-.62.56.56,0,0,1,.62-.45c.95.16,1.91.36,2.83.61a.54.54,0,0,1,.38.67A.53.53,0,0,1,50.9,26.08Z"/><path class="cls-5" d="M43.86,78.75a27.35,27.35,0,1,1,0-54.69.54.54,0,0,1,0,1.08,26.26,26.26,0,1,0,22.3,12.39A26.36,26.36,0,0,0,55.84,28a.54.54,0,0,1-.23-.73.53.53,0,0,1,.73-.23A27.33,27.33,0,0,1,71.2,51.4,27.35,27.35,0,0,1,43.86,78.75Z"/><path class="cls-5" d="M54.22,26.38a.69.69,0,1,1-.69-.69A.68.68,0,0,1,54.22,26.38Z"/><path class="cls-6" d="M34.43,60.52a.61.61,0,0,1-.45-.19.64.64,0,0,1,0-.91L47.38,45.79l6.15,6.15L64,41.46a.66.66,0,0,1,.92,0,.65.65,0,0,1,0,.91L53.53,53.76l-6.14-6.14-12.5,12.7A.65.65,0,0,1,34.43,60.52Z"/><path class="cls-6" d="M65.34,46.81a.64.64,0,0,1-.64-.64V41.71H59.92a.65.65,0,1,1,0-1.3H66v5.76A.65.65,0,0,1,65.34,46.81Z"/><path class="cls-4" d="M40.06,60.84a.64.64,0,0,1-.65-.64V57a.65.65,0,0,1,1.3,0V60.2A.64.64,0,0,1,40.06,60.84Z"/><path class="cls-4" d="M43.67,60.84A.64.64,0,0,1,43,60.2V53.57a.65.65,0,0,1,1.3,0V60.2A.64.64,0,0,1,43.67,60.84Z"/><path class="cls-4" d="M47.64,60.84A.64.64,0,0,1,47,60.2V50.89a.65.65,0,0,1,1.3,0V60.2A.64.64,0,0,1,47.64,60.84Z"/><path class="cls-4" d="M51.25,60.84a.64.64,0,0,1-.65-.64v-5a.65.65,0,0,1,1.3,0v5A.64.64,0,0,1,51.25,60.84Z"/><path class="cls-4" d="M55,60.84a.64.64,0,0,1-.65-.64V55.9a.65.65,0,0,1,1.3,0v4.3A.64.64,0,0,1,55,60.84Z"/><path class="cls-4" d="M58.64,60.84A.64.64,0,0,1,58,60.2V51.4a.65.65,0,0,1,1.3,0v8.8A.64.64,0,0,1,58.64,60.84Z"/><path class="cls-4" d="M62.61,60.84A.64.64,0,0,1,62,60.2v-13a.65.65,0,0,1,1.3,0v13A.64.64,0,0,1,62.61,60.84Z"/><path class="cls-2" d="M79.2,44.23h7.92a7.74,7.74,0,0,1,5.25,1.66,5.89,5.89,0,0,1,1.93,4.73,5.82,5.82,0,0,1-1.91,4.72,8,8,0,0,1-5.27,1.6H82.2V64.8h-3Zm7.59,10.21a5.54,5.54,0,0,0,3.27-.85,3.38,3.38,0,0,0,1.21-3,3.42,3.42,0,0,0-1.21-3,5.47,5.47,0,0,0-3.27-.87H82.2v7.68Z"/><path class="cls-2" d="M97,44.23h3l7.33,16,7.33-16h3V64.8H114.7V50.17L108,64.8h-1.48L99.83,50.17V64.8H97Z"/><path class="cls-2" d="M123.66,64.93a10.73,10.73,0,0,1-2.81-.83V61.39a14.19,14.19,0,0,0,6.09,1.32q4.59,0,4.59-3.09a2.71,2.71,0,0,0-.5-1.71,4.14,4.14,0,0,0-1.44-1.13c-.63-.32-1.65-.77-3.06-1.34a11.55,11.55,0,0,1-4.21-2.59A5.08,5.08,0,0,1,121,49.29a4.85,4.85,0,0,1,.88-2.87,5.76,5.76,0,0,1,2.47-1.94,9.1,9.1,0,0,1,3.65-.69,16.38,16.38,0,0,1,3,.26,11.72,11.72,0,0,1,2.65.86V47.5a12.48,12.48,0,0,0-5.18-1.15,5.75,5.75,0,0,0-3.24.76,2.5,2.5,0,0,0-1.12,2.18,2.69,2.69,0,0,0,.49,1.63,4,4,0,0,0,1.44,1.18c.64.34,1.59.77,2.84,1.28a21.61,21.61,0,0,1,3.3,1.62,5.38,5.38,0,0,1,1.84,1.87,5.48,5.48,0,0,1,.63,2.75,4.94,4.94,0,0,1-1.91,4.15,9.18,9.18,0,0,1-5.65,1.47A19.36,19.36,0,0,1,123.66,64.93Z"/><path class="cls-2" d="M80.25,34.31v5.3h-.91V32.17l5.44,5.51V32.51h.91v7.31Z"/><path class="cls-2" d="M92.48,38.7a3.27,3.27,0,0,1-2.46,1,3.63,3.63,0,0,1-2.57-6.22,3.58,3.58,0,0,1,2.65-1.1,3.73,3.73,0,0,1,3,1.36l-.62.59a2.9,2.9,0,0,0-2.3-1.15,2.8,2.8,0,0,0-2,.84,2.71,2.71,0,0,0-.84,2,2.87,2.87,0,0,0,.82,2,2.68,2.68,0,0,0,2,.86,2.36,2.36,0,0,0,1.58-.61,2.13,2.13,0,0,0,.79-1.47H90.57V36h2.88v.28A3.31,3.31,0,0,1,92.48,38.7Z"/><path class="cls-2" d="M99.86,38.7a3.31,3.31,0,0,1-2.47,1,3.55,3.55,0,0,1-2.58-1.08,3.59,3.59,0,0,1,0-5.14,3.58,3.58,0,0,1,2.65-1.1,3.77,3.77,0,0,1,3,1.36l-.63.59a2.9,2.9,0,0,0-2.29-1.15,2.82,2.82,0,0,0-2.06.84,2.71,2.71,0,0,0-.84,2,2.84,2.84,0,0,0,.83,2,2.65,2.65,0,0,0,2,.86A2.34,2.34,0,0,0,99,38.26a2.09,2.09,0,0,0,.79-1.47H97.94V36h2.88v.28A3.34,3.34,0,0,1,99.86,38.7Z"/></g></g></svg>