<svg xmlns="http://www.w3.org/2000/svg" viewBox="0 0 151.16 120"><defs><style>.cls-1{fill:#fff;}.cls-2{fill:#e42027;}.cls-3{fill:#660c16;}.cls-4{fill:#f6b705;}</style></defs><title>menu-ham_benafits</title><g id="Layer_2" data-name="Layer 2"><g id="Layer_1-2" data-name="Layer 1"><rect class="cls-1" width="151.16" height="120"/><rect class="cls-2" x="23.33" y="85.56" width="107.23" height="19.28" rx="9.64"/><path class="cls-1" d="M34.27,99.14v-2.9a2,2,0,0,0-.87-.82A2.79,2.79,0,0,0,32,95.09a2.33,2.33,0,0,0-1.58.52,1.67,1.67,0,0,0-.58,1.3,1.32,1.32,0,0,0,.36.93,1.2,1.2,0,0,0,.9.38,2,2,0,0,0,1.08-.32l.63.77a2.52,2.52,0,0,1-1.71.56,2.27,2.27,0,0,1-2.34-2.32,2.66,2.66,0,0,1,.86-2A3.32,3.32,0,0,1,32,94.08a3.28,3.28,0,0,1,2.23.76V93.78a1.4,1.4,0,0,0-.7-.68,2.54,2.54,0,0,0-1.15-.28,2.17,2.17,0,0,0-2.14,1.1H29.12a2.85,2.85,0,0,1,1.22-1.56,3.75,3.75,0,0,1,2.06-.54,3.81,3.81,0,0,1,1.39.25l.68-.76.88.59-.3.37-.35.36a2.22,2.22,0,0,1,.65,1v5.56Z"/><path class="cls-1" d="M29.77,91v-.9h5.58V91Z"/><path class="cls-1" d="M41.47,99.14v-4.7A1.49,1.49,0,0,0,41,93.26a1.81,1.81,0,0,0-1.28-.44,2.73,2.73,0,0,0-1.5.47,1.34,1.34,0,0,0-.7,1.14v4.71H36.43v-7.2h1.08v.74a3.2,3.2,0,0,1,2.23-.86,3.67,3.67,0,0,1,1.13.17,2.69,2.69,0,0,1,.89.51,2.37,2.37,0,0,1,.59.78,2.64,2.64,0,0,1,.2,1v4.82Z"/><path class="cls-1" d="M49.46,96.87a2,2,0,0,1-1,1.77,4.32,4.32,0,0,1-2.34.59,8.93,8.93,0,0,1-2.58-.39V95.63l1.08-.34v2.77a5.7,5.7,0,0,0,1.46.2,3.39,3.39,0,0,0,1.55-.32,1.16,1.16,0,0,0,.74-1.07c0-.79-.68-1.29-2-1.51a9,9,0,0,1-2-.47,1.29,1.29,0,0,1-.91-1.2,1.55,1.55,0,0,1,.91-1.33,3.8,3.8,0,0,1,2-.53,3.7,3.7,0,0,1,1.05.15,3.25,3.25,0,0,1,.93.41,2.54,2.54,0,0,1,.72.66,2.18,2.18,0,0,1,.41.87H48.24a1.6,1.6,0,0,0-.79-.79,2.75,2.75,0,0,0-1.23-.29,2.9,2.9,0,0,0-1.15.25c-.35.17-.52.35-.52.54s.67.54,2,.74C48.49,94.67,49.46,95.51,49.46,96.87Z"/><path class="cls-1" d="M43.6,91v-.9h5.58V91Z"/><path class="cls-1" d="M55.46,98.57a3.4,3.4,0,0,1-2.15.7,3.49,3.49,0,0,1-2.15-.7,2.16,2.16,0,0,1-.9-1.77V91.94h1.08V96.8A1.21,1.21,0,0,0,52,97.88a2.44,2.44,0,0,0,1.36.38,2.4,2.4,0,0,0,1.4-.4,1.21,1.21,0,0,0,.59-1.06V89.6h1.08v7.2A2.16,2.16,0,0,1,55.46,98.57Z"/><path class="cls-1" d="M63.38,96.86a2.1,2.1,0,0,1-.94,1.79,3.56,3.56,0,0,1-2.16.63,3.33,3.33,0,0,1-2.14-.66,2.4,2.4,0,0,1-1-2h1.09a1.52,1.52,0,0,0,.64,1.3,2.42,2.42,0,0,0,1.41.38,3.08,3.08,0,0,0,.75-.09,2,2,0,0,0,.63-.27,1.51,1.51,0,0,0,.44-.43,1,1,0,0,0,.16-.55q0-.91-2-1.11a6.85,6.85,0,0,1-2-.43,1.42,1.42,0,0,1-.93-1.35,1.84,1.84,0,0,1,.86-1.55,3.3,3.3,0,0,1,2-.65,3.71,3.71,0,0,1,2.06.55,2.18,2.18,0,0,1,1,1.52H62.17c-.25-.71-.9-1.06-1.94-1.06a2.52,2.52,0,0,0-.67.09,3,3,0,0,0-.57.23,1.27,1.27,0,0,0-.38.34.62.62,0,0,0-.15.4q0,.78,2.07.9Q63.38,95,63.38,96.86Z"/><path class="cls-1" d="M64,94V92.84h1.08v.51h1.17V94Zm0,4.21V97.05h1.08v.51h1.17v.68Z"/><path class="cls-1" d="M67.46,89c-.21,0-.32,0-.32.16s.11.23.32.38a2.53,2.53,0,0,1,.6.52,1.57,1.57,0,0,1,.32,1v8.06H67.3V91.2a1.48,1.48,0,0,0-.65-1.09c-.43-.37-.65-.68-.65-1a1,1,0,0,1,.44-.86A1.78,1.78,0,0,1,67.53,88H70v1Z"/><path class="cls-1" d="M72.54,99.25a3.86,3.86,0,0,1-2.5-.72,2.11,2.11,0,0,1-.85-1.71,1.88,1.88,0,0,1,.43-1.17,2.12,2.12,0,0,1,.85-.68,1.79,1.79,0,0,1-.78-.53,1.2,1.2,0,0,1-.34-.84,1.51,1.51,0,0,1,.17-.7,1.61,1.61,0,0,1,.49-.55,2.62,2.62,0,0,1,.73-.36,2.88,2.88,0,0,1,.9-.14,3.78,3.78,0,0,1,1.17.2v1l-.71-.14a3.15,3.15,0,0,0-.44,0c-.79,0-1.19.25-1.19.74s.47.79,1.4.79h.94v1H72a1.67,1.67,0,0,0-.63.11,1.92,1.92,0,0,0-.55.29,1.65,1.65,0,0,0-.4.44,1.09,1.09,0,0,0-.15.56,1.18,1.18,0,0,0,.6,1,3,3,0,0,0,1.63.39,3.44,3.44,0,0,0,1.94-.59V91.94h1.08v6.12A3.8,3.8,0,0,1,72.54,99.25Z"/><path class="cls-1" d="M82.47,96.3a2.65,2.65,0,0,1-.88,2.09,3.79,3.79,0,0,1-2.57.86,6.59,6.59,0,0,1-2.38-.41v-6.9h1.08V98.1a5,5,0,0,0,.65.14,3,3,0,0,0,.67,0,2.77,2.77,0,0,0,1.72-.58,1.76,1.76,0,0,0,.63-1.4c0-1.31-.92-2.11-2.77-2.41l2.38-2,.88.49-1.31,1.18A2.85,2.85,0,0,1,82.47,96.3Z"/><path class="cls-1" d="M88.32,99.14V98.4a3.14,3.14,0,0,1-2.23.87,2.93,2.93,0,0,1-2-.69,2.29,2.29,0,0,1-.79-1.81V91.94h1.08v4.7a1.53,1.53,0,0,0,.48,1.19,1.89,1.89,0,0,0,1.29.43,2.73,2.73,0,0,0,1.49-.47,1.34,1.34,0,0,0,.7-1.13V91.94H89.4v7.2Z"/><path class="cls-1" d="M89.24,90.39c-.37,0-.56.15-.56.45V91H87.6v-.32q0-1.05,1.23-1h.94v.72Z"/><path class="cls-1" d="M95.27,98.55a2.77,2.77,0,0,1-2,.72,3,3,0,0,1-2.14-.85,2.88,2.88,0,0,1-.84-2.12,3,3,0,0,1,1.58-2.7L91,92.39l.88-.56,1.39,1.77c-1.25.92-1.87,1.82-1.87,2.7a2,2,0,0,0,.52,1.42,1.8,1.8,0,0,0,1.38.56,1.71,1.71,0,0,0,1.23-.45A1.5,1.5,0,0,0,95,96.71V91.94h1.08v4.77A2.41,2.41,0,0,1,95.27,98.55Z"/><path class="cls-1" d="M104.18,95.54a3.73,3.73,0,0,1-1,2.68,3.87,3.87,0,0,1-5.3,0A4.16,4.16,0,0,1,97,94.69h2.82v1H98a3.31,3.31,0,0,0,.24,1,2.64,2.64,0,0,0,.53.81,2.33,2.33,0,0,0,.8.53,2.59,2.59,0,0,0,1,.19,2.68,2.68,0,0,0,1-.2,2.21,2.21,0,0,0,.81-.57,2.44,2.44,0,0,0,.53-.86,2.94,2.94,0,0,0,.19-1.09,3,3,0,0,0-.19-1.09,2.57,2.57,0,0,0-.52-.86,2.13,2.13,0,0,0-.81-.57,2.77,2.77,0,0,0-1-.2,2.45,2.45,0,0,0-2.27,1.37H97.09a3.76,3.76,0,0,1,6.09-1.33A3.74,3.74,0,0,1,104.18,95.54Z"/><path class="cls-1" d="M111,95.47a3.49,3.49,0,0,1-1.09,2.72,4.35,4.35,0,0,1-3,1h-.4l-.39,0-1.66-5.79,1.06-.33L107,98.19a2.91,2.91,0,0,0,2.12-.7,2.6,2.6,0,0,0,.8-2c0-1.76-1-2.65-2.9-2.65h-.24l-.25,0v-1l.32,0h.29a4,4,0,0,1,2.92,1A3.62,3.62,0,0,1,111,95.47Z"/><path class="cls-1" d="M116.75,99.14v-.72a3,3,0,0,1-2.18.83,3.16,3.16,0,0,1-1.09-.18,2.65,2.65,0,0,1-.85-.5,2.56,2.56,0,0,1-.55-.78,2.46,2.46,0,0,1-.19-1v-.75h-.54V95H113V96.8a1.31,1.31,0,0,0,.47,1.06,1.76,1.76,0,0,0,1.18.4,2.5,2.5,0,0,0,1.44-.47,1.35,1.35,0,0,0,.69-1.13V94.35a1.23,1.23,0,0,0-.17-.62,1.51,1.51,0,0,0-.43-.48,1.87,1.87,0,0,0-.63-.32,2.67,2.67,0,0,0-.75-.11,3,3,0,0,0-1.32.31,1.64,1.64,0,0,0-.86,1h-1.08a2.76,2.76,0,0,1,1.22-1.71,3.66,3.66,0,0,1,2-.58,3.43,3.43,0,0,1,2.14.69,2.24,2.24,0,0,1,.92,1.83v4.79Z"/><path class="cls-1" d="M115.22,91V89.42h1.08v.72h3.78V91Z"/><path class="cls-1" d="M124,99.14V98.4a3.18,3.18,0,0,1-2.24.87,3,3,0,0,1-2-.69,2.28,2.28,0,0,1-.78-1.81V91.94H120v4.7a1.52,1.52,0,0,0,.47,1.19,1.89,1.89,0,0,0,1.29.43,2.7,2.7,0,0,0,1.49-.47,1.35,1.35,0,0,0,.71-1.13V91.94H125v7.2Z"/><path class="cls-2" d="M48.4,56.56a7.26,7.26,0,1,0-11.19-9.24A7.25,7.25,0,1,0,26,56.56L37.14,67.75l.07.07.08-.07Z"/><path class="cls-2" d="M37.21,38.19a.43.43,0,0,1-.43-.43V34.51a.44.44,0,0,1,.43-.44.44.44,0,0,1,.44.44v3.25A.44.44,0,0,1,37.21,38.19Z"/><path class="cls-2" d="M31.75,39.35a.42.42,0,0,1-.37-.21l-1.63-2.82a.43.43,0,0,1,.75-.43l1.63,2.81a.44.44,0,0,1-.16.6A.42.42,0,0,1,31.75,39.35Z"/><path class="cls-2" d="M27.45,42.53a.39.39,0,0,1-.21-.06l-2.82-1.63a.43.43,0,0,1-.16-.59.44.44,0,0,1,.59-.16l2.82,1.63a.43.43,0,0,1,.16.59A.44.44,0,0,1,27.45,42.53Z"/><path class="cls-2" d="M47,42.53a.43.43,0,0,1-.21-.81l2.81-1.63a.43.43,0,0,1,.44.75l-2.82,1.63A.43.43,0,0,1,47,42.53Z"/><path class="cls-2" d="M42.67,39.35a.41.41,0,0,1-.21-.05.44.44,0,0,1-.16-.6l1.63-2.81a.43.43,0,0,1,.59-.16.45.45,0,0,1,.16.59l-1.63,2.82A.43.43,0,0,1,42.67,39.35Z"/><path class="cls-3" d="M44.33,26.47l-.15,0a25.34,25.34,0,0,0-2.72-.59.55.55,0,0,1-.45-.62.56.56,0,0,1,.62-.45c.95.16,1.91.36,2.84.61a.54.54,0,0,1-.14,1.07Z"/><path class="cls-3" d="M37.28,79.14a27.35,27.35,0,1,1,0-54.69.54.54,0,1,1,0,1.08,26.26,26.26,0,1,0,22.3,12.39,26.36,26.36,0,0,0-10.32-9.5.54.54,0,0,1-.23-.73.53.53,0,0,1,.73-.23A27.35,27.35,0,0,1,37.28,79.14Z"/><path class="cls-3" d="M47.64,26.76a.69.69,0,1,1-1.37,0,.69.69,0,0,1,1.37,0Z"/><path class="cls-3" d="M37.21,68.26a.43.43,0,0,1-.3-.13l-.08-.07L25.72,56.86l0,0a7.69,7.69,0,0,1,5.84-12.69,7.61,7.61,0,0,1,5.67,2.5A7.69,7.69,0,0,1,48.72,56.84l0,0L37.52,68.13A.44.44,0,0,1,37.21,68.26Zm-10.86-12L37.21,67.21,48.08,56.27a6.82,6.82,0,1,0-10.53-8.68.44.44,0,0,1-.34.16.46.46,0,0,1-.34-.16,6.82,6.82,0,1,0-10.52,8.68Z"/><path class="cls-4" d="M57.14,43.79H55.5v-3.6a.43.43,0,1,0-.86,0v3.6H53a.43.43,0,0,0-.43.43.44.44,0,0,0,.43.44h1.64v3.59a.43.43,0,1,0,.86,0V44.66h1.64a.44.44,0,0,0,.43-.44A.43.43,0,0,0,57.14,43.79Z"/><path class="cls-4" d="M60.42,52h-1V49.71a.43.43,0,0,0-.86,0V52h-1a.43.43,0,0,0-.43.43.44.44,0,0,0,.43.44h1v2.24a.43.43,0,1,0,.86,0V52.83h1a.44.44,0,0,0,.43-.44A.43.43,0,0,0,60.42,52Z"/><path class="cls-4" d="M21.46,57H19.7V53.13a.43.43,0,0,0-.86,0V57H17.07a.43.43,0,0,0-.43.43.44.44,0,0,0,.43.44h1.77v3.84a.43.43,0,0,0,.86,0V57.84h1.76a.44.44,0,0,0,.44-.44A.44.44,0,0,0,21.46,57Z"/><path class="cls-2" d="M79.78,54.86a4.72,4.72,0,0,1-2,4,7.18,7.18,0,0,1-4.34,1.21H69.27V41.36h2.2c4.43,0,6.64,1.71,6.64,5.15A4.79,4.79,0,0,1,78,47.57a5.87,5.87,0,0,1-.34,1,3.51,3.51,0,0,1-.5.8,2.33,2.33,0,0,1-.6.51v.32a3.58,3.58,0,0,1,2.27,1.64A5.18,5.18,0,0,1,79.78,54.86ZM76,46.54c0-2.06-1.3-3.09-3.88-3.09h-.6v6.22h.53a5.23,5.23,0,0,0,2.77-.57A2.73,2.73,0,0,0,76,46.54Zm1.52,8.18c0-2.14-1.55-3.2-4.65-3.2H71.54V58h1.7Q77.55,58,77.54,54.72Z"/><path class="cls-2" d="M86.43,60.51a5.1,5.1,0,0,1-4.05-1.74,6.38,6.38,0,0,1-1.53-4.37,6.85,6.85,0,0,1,1.44-4.54,5.06,5.06,0,0,1,4.1-1.72,4.72,4.72,0,0,1,4,1.81,6.92,6.92,0,0,1,1.28,4.37v.36h-8.6a4.44,4.44,0,0,0,1,2.74,3,3,0,0,0,2.41,1.1,4,4,0,0,0,3.41-2.24l1.82,1A5.66,5.66,0,0,1,86.43,60.51Zm0-10.45q-2.6,0-3.23,2.91h6.32Q88.85,50.06,86.39,50.06Z"/><path class="cls-2" d="M100.64,60.12V53.44a5.21,5.21,0,0,0-.39-2.35,2.19,2.19,0,0,0-2.1-1,2.34,2.34,0,0,0-2.45,1.53,9.22,9.22,0,0,0-.35,3.13v5.33H93.18V48.46h2.17V50.1a3.92,3.92,0,0,1,3.44-2q4,0,4,5v6.93Z"/><path class="cls-2" d="M110.13,60.51a5.14,5.14,0,0,1-4.06-1.74,6.42,6.42,0,0,1-1.52-4.37A6.85,6.85,0,0,1,106,49.86a5.06,5.06,0,0,1,4.1-1.72,4.72,4.72,0,0,1,4,1.81,6.92,6.92,0,0,1,1.28,4.37v.36h-8.6a4.5,4.5,0,0,0,1,2.74,3,3,0,0,0,2.42,1.1,4.06,4.06,0,0,0,3.41-2.24l1.81,1A5.63,5.63,0,0,1,110.13,60.51Zm0-10.45q-2.59,0-3.23,2.91h6.32Q112.54,50.06,110.09,50.06Z"/><path class="cls-2" d="M119.47,50.56v9.56H117.3V50.56h-1v-2.1h1V42.81q0-4.58,3.66-4.58a5.67,5.67,0,0,1,1.53.28v2.24a3.13,3.13,0,0,0-1.46-.43c-1,0-1.56,1.06-1.56,3.17v5h3v2.1Z"/><path class="cls-2" d="M126.18,43.17a1.49,1.49,0,0,1-.42,1,1.45,1.45,0,0,1-1.07.44,1.5,1.5,0,0,1-1.49-1.49,1.53,1.53,0,0,1,.44-1.12,1.44,1.44,0,0,1,1-.45,1.42,1.42,0,0,1,1.07.45A1.56,1.56,0,0,1,126.18,43.17Zm-2.59,16.95V48.46h2.17V60.12Z"/><path class="cls-2" d="M131.41,50.56v9.56h-2.2V50.56H128v-2.1h1.18V44h2.2v4.44h2.13v2.1Z"/><path class="cls-2" d="M141.5,56.67a3.69,3.69,0,0,1-1.14,2.72,4.06,4.06,0,0,1-1.22.81,3.61,3.61,0,0,1-1.51.31,3.89,3.89,0,0,1-3.91-2.6l1.85-.89a2.37,2.37,0,0,0,2.06,1.5,1.77,1.77,0,0,0,1.21-.46,1.54,1.54,0,0,0,.49-1.18,1.42,1.42,0,0,0-.85-1.28l-2.06-1.17a5.78,5.78,0,0,1-1.56-1.14,2.59,2.59,0,0,1-.61-1.77,3.34,3.34,0,0,1,.27-1.34,3.4,3.4,0,0,1,.71-1.06,3.24,3.24,0,0,1,1.05-.71,3.09,3.09,0,0,1,1.28-.27,3.27,3.27,0,0,1,3.09,2l-1.71.92a1.87,1.87,0,0,0-1.49-1,1.14,1.14,0,0,0-.82.34,1,1,0,0,0-.35.8,1.49,1.49,0,0,0,.81,1.21c.1,0,.29.14.59.3s.71.35,1.23.58C140.64,54.17,141.5,55.27,141.5,56.67Z"/><path class="cls-4" d="M90.34,43.92l-1.49-7.79-3.11,7.94L82.6,36.13l-1.53,7.79h-.53l1.9-9.6,3.28,8.35L89,34.32l1.89,9.6Z"/><path class="cls-4" d="M92.63,47.06h-.54l1.28-3.16-2.6-5.73h.56l2.34,5.09,2.06-5.09h.54Z"/></g></g></svg>