<svg xmlns="http://www.w3.org/2000/svg" viewBox="0 0 151.16 120"><defs><style>.cls-1{fill:#fff;}.cls-2{fill:#e42027;}.cls-3{fill:#4280ef;}.cls-4{fill:#e54335;}.cls-5{fill:#f6b705;}.cls-6{fill:#34a353;}.cls-7{fill:none;}.cls-8{fill:#f99ba7;}.cls-9{fill:#e83f4c;}.cls-10{fill:#660c16;}.cls-11{fill:#1e2248;}</style></defs><title>menu-ham_km360</title><g id="Layer_2" data-name="Layer 2"><g id="Layer_1-2" data-name="Layer 1"><rect class="cls-1" width="151.16" height="120"/><rect class="cls-2" x="48.39" y="85.49" width="57.23" height="19.28" rx="9.64"/><path class="cls-3" d="M78.41,36.8h.65a1.73,1.73,0,0,0,.65-.11,1.12,1.12,0,0,0,.44-.34l4.11-5.21a1.51,1.51,0,0,1,.54-.46,1.87,1.87,0,0,1,.72-.12h2.39l-5,6.19a5.44,5.44,0,0,1-.45.48,2.25,2.25,0,0,1-.46.32,2.06,2.06,0,0,1,.61.35,3.36,3.36,0,0,1,.53.58l5.17,7H85.84a1.58,1.58,0,0,1-.74-.13,1.21,1.21,0,0,1-.4-.41l-4.22-5.5A1.28,1.28,0,0,0,80,39a1.79,1.79,0,0,0-.73-.12h-.88v6.55H75.64V30.55h2.77Z"/><path class="cls-4" d="M97.73,40l.3.71c.09-.24.19-.49.3-.73a7.32,7.32,0,0,1,.33-.69L103.07,31a1,1,0,0,1,.17-.25.5.5,0,0,1,.19-.13.6.6,0,0,1,.24-.05h2.41V45.45h-2.44V35.83c0-.18,0-.37,0-.59s0-.43,0-.65L99.2,43a1,1,0,0,1-.4.45,1,1,0,0,1-.58.16h-.38a1,1,0,0,1-.57-.16,1.13,1.13,0,0,1-.41-.45L92.3,34.56c0,.23,0,.45.06.67s0,.42,0,.6v9.62H89.93V30.56h2.41a.6.6,0,0,1,.24.05.63.63,0,0,1,.2.13A1,1,0,0,1,93,31l4.45,8.27A7.27,7.27,0,0,1,97.73,40Z"/><path class="cls-5" d="M83.38,49.44a8,8,0,0,1,2.72.43,6.06,6.06,0,0,1,2.08,1.19,5.25,5.25,0,0,1,1.78,4,6.73,6.73,0,0,1-.23,1.83,4.45,4.45,0,0,1-.68,1.38,4,4,0,0,1-1.09,1A6.56,6.56,0,0,1,86.5,60a5.64,5.64,0,0,1,2.93,1.89,5.06,5.06,0,0,1,1,3.18,6.64,6.64,0,0,1-.6,2.89A6.33,6.33,0,0,1,88.16,70a7.34,7.34,0,0,1-2.37,1.29,9.32,9.32,0,0,1-2.87.43,9.78,9.78,0,0,1-2.86-.37,6.19,6.19,0,0,1-2.13-1.12,6.61,6.61,0,0,1-1.54-1.81A11.81,11.81,0,0,1,75.3,66l1.64-.68a2.22,2.22,0,0,1,.87-.18,1.48,1.48,0,0,1,.7.17,1.15,1.15,0,0,1,.47.48c.18.35.38.7.6,1a4.27,4.27,0,0,0,.78.91,3.43,3.43,0,0,0,1.06.65,3.81,3.81,0,0,0,1.46.25,4.06,4.06,0,0,0,1.66-.31,3.61,3.61,0,0,0,1.19-.8,3.68,3.68,0,0,0,.71-1.11,3.57,3.57,0,0,0,.23-1.23,5.72,5.72,0,0,0-.17-1.43,2.15,2.15,0,0,0-.69-1.1,3.78,3.78,0,0,0-1.52-.71,11,11,0,0,0-2.65-.25V59a9,9,0,0,0,2.28-.24,3.71,3.71,0,0,0,1.44-.67,2.27,2.27,0,0,0,.75-1,4.08,4.08,0,0,0,.21-1.33,3.08,3.08,0,0,0-.84-2.35,3.26,3.26,0,0,0-2.31-.79,3.42,3.42,0,0,0-2.21.7,3.7,3.7,0,0,0-1.22,1.8,1.62,1.62,0,0,1-.5.82,1.28,1.28,0,0,1-.83.25,3.08,3.08,0,0,1-.51,0l-2-.35A8.16,8.16,0,0,1,76.81,53a6.46,6.46,0,0,1,3.86-3.17A8.79,8.79,0,0,1,83.38,49.44Z"/><path class="cls-3" d="M101.57,57.88a7.3,7.3,0,0,1,2.41.4,6,6,0,0,1,3.5,3.28,7,7,0,0,1,.54,2.86,7.4,7.4,0,0,1-.56,2.86,6.9,6.9,0,0,1-1.57,2.33,7.32,7.32,0,0,1-2.44,1.57,9.11,9.11,0,0,1-6.29,0,7.06,7.06,0,0,1-2.37-1.57,6.83,6.83,0,0,1-1.5-2.41,9,9,0,0,1-.52-3.14,8.71,8.71,0,0,1,.63-3.16,14,14,0,0,1,1.94-3.38l5.21-7a2.23,2.23,0,0,1,.79-.62,2.71,2.71,0,0,1,1.2-.25h3.32L99.38,57.6l-.4.49-.37.47a6.21,6.21,0,0,1,1.37-.5A6.67,6.67,0,0,1,101.57,57.88Zm-5.22,6.78a5.1,5.1,0,0,0,.25,1.65,3.29,3.29,0,0,0,2,2.1,4.82,4.82,0,0,0,3.32,0,3.75,3.75,0,0,0,1.28-.84,4,4,0,0,0,.84-1.28,4.17,4.17,0,0,0,.3-1.59A4.51,4.51,0,0,0,104,63a3.64,3.64,0,0,0-.81-1.27,3.59,3.59,0,0,0-1.27-.79,4.72,4.72,0,0,0-1.63-.27,4.25,4.25,0,0,0-1.62.3,3.68,3.68,0,0,0-1.24.84,3.56,3.56,0,0,0-.8,1.27A4.3,4.3,0,0,0,96.35,64.66Z"/><path class="cls-6" d="M125.73,60.59a17.87,17.87,0,0,1-.61,5A10.27,10.27,0,0,1,123.43,69a6.91,6.91,0,0,1-2.55,2,7.52,7.52,0,0,1-3.18.67,7.4,7.4,0,0,1-3.16-.67A6.85,6.85,0,0,1,112,69a10.08,10.08,0,0,1-1.68-3.48,18.28,18.28,0,0,1-.6-5,18.15,18.15,0,0,1,.6-5A10.08,10.08,0,0,1,112,52.15a6.85,6.85,0,0,1,2.53-2,7.4,7.4,0,0,1,3.16-.67,7.52,7.52,0,0,1,3.18.67,6.91,6.91,0,0,1,2.55,2,10.27,10.27,0,0,1,1.69,3.48A17.75,17.75,0,0,1,125.73,60.59Zm-3.85,0a18.58,18.58,0,0,0-.34-3.92,8.37,8.37,0,0,0-.93-2.48,3.29,3.29,0,0,0-2.91-1.66,3.43,3.43,0,0,0-1.55.37,3.38,3.38,0,0,0-1.32,1.29,7.87,7.87,0,0,0-.91,2.48,18.58,18.58,0,0,0-.34,3.92,18.62,18.62,0,0,0,.34,3.93,7.87,7.87,0,0,0,.91,2.48,3.38,3.38,0,0,0,1.32,1.29,3.43,3.43,0,0,0,1.55.37A3.29,3.29,0,0,0,120.61,67a8.37,8.37,0,0,0,.93-2.48A18.62,18.62,0,0,0,121.88,60.59Z"/><path class="cls-4" d="M131.05,49.05a3.38,3.38,0,0,1,1.3.23,2.84,2.84,0,0,1,1,.65,3,3,0,0,1,.63,1,4,4,0,0,1,.23,1.37,3.9,3.9,0,0,1-.23,1.37,3.06,3.06,0,0,1-.63,1,2.73,2.73,0,0,1-1,.66,3.38,3.38,0,0,1-1.3.23,3.43,3.43,0,0,1-1.31-.23,2.65,2.65,0,0,1-1-.66,3,3,0,0,1-.65-1,3.9,3.9,0,0,1-.23-1.37,4,4,0,0,1,.23-1.37,2.92,2.92,0,0,1,.65-1,2.75,2.75,0,0,1,1-.65A3.43,3.43,0,0,1,131.05,49.05Zm0,5.42a1.36,1.36,0,0,0,1.18-.54,3.4,3.4,0,0,0,0-3.16,1.58,1.58,0,0,0-2.38,0,2.71,2.71,0,0,0-.39,1.58,2.65,2.65,0,0,0,.39,1.57A1.36,1.36,0,0,0,131.05,54.47Z"/><path class="cls-1" d="M60.9,99v-3.6a1.37,1.37,0,0,0-.56-1.12A2.07,2.07,0,0,0,59,93.86L56.76,95.4V99H55.68v-7.2h1.08v2.4l3.69-2.49,1.22.33L60,93.19a2.51,2.51,0,0,1,1.41.72A1.85,1.85,0,0,1,62,95.24V99Z"/><path class="cls-1" d="M59.49,90.92v-.7a.33.33,0,0,0-.38-.38H59v-.72h.74c.59,0,.88.23.88.69V90h2.27v.9Z"/><path class="cls-1" d="M70,95.42a3.73,3.73,0,0,1-1,2.68,3.87,3.87,0,0,1-5.3,0,4.27,4.27,0,0,1-.93-3.52h2.82v1H63.78a3,3,0,0,0,.23,1,2.64,2.64,0,0,0,.53.81,2.2,2.2,0,0,0,.8.53,2.59,2.59,0,0,0,1,.19,2.68,2.68,0,0,0,1-.2,2.22,2.22,0,0,0,.81-.56,2.58,2.58,0,0,0,.53-.87,2.94,2.94,0,0,0,.19-1.09,3,3,0,0,0-.19-1.09,2.68,2.68,0,0,0-.52-.86,2.13,2.13,0,0,0-.81-.57,2.73,2.73,0,0,0-1.05-.2,2.45,2.45,0,0,0-2.27,1.37H62.91A3.76,3.76,0,0,1,69,92.74,3.74,3.74,0,0,1,70,95.42Z"/><path class="cls-1" d="M76.81,95.35a3.49,3.49,0,0,1-1.09,2.72,4.35,4.35,0,0,1-3,1h-.39l-.4,0-1.66-5.8,1.07-.33,1.47,5.19a3,3,0,0,0,2.12-.69,2.64,2.64,0,0,0,.8-2c0-1.76-1-2.65-2.9-2.65h-.24l-.25,0v-1l.32,0H73a4,4,0,0,1,2.91,1A3.58,3.58,0,0,1,76.81,95.35Z"/><path class="cls-1" d="M82.82,99v-2.9A2,2,0,0,0,82,95.3,2.82,2.82,0,0,0,80.59,95a2.33,2.33,0,0,0-1.58.52,1.67,1.67,0,0,0-.58,1.3,1.32,1.32,0,0,0,.36.93,1.17,1.17,0,0,0,.9.38,1.94,1.94,0,0,0,1.08-.32l.63.77a2.55,2.55,0,0,1-1.71.56A2.31,2.31,0,0,1,78,98.43a2.27,2.27,0,0,1-.65-1.64,2.66,2.66,0,0,1,.86-2A3.35,3.35,0,0,1,80.59,94a3.29,3.29,0,0,1,2.23.76V93.66a1.4,1.4,0,0,0-.7-.68A2.57,2.57,0,0,0,81,92.7a2.19,2.19,0,0,0-2.15,1.1H77.67a2.81,2.81,0,0,1,1.22-1.56A3.84,3.84,0,0,1,81,91.7a3.72,3.72,0,0,1,1.38.25l.69-.76.88.6-.31.36c-.1.12-.22.24-.34.36a2.22,2.22,0,0,1,.65.95V99Z"/><path class="cls-1" d="M90.32,98.46a3,3,0,0,1-2,.69,3.21,3.21,0,0,1-2.23-.87V99H85v-7.2h1.08v4.72a1.34,1.34,0,0,0,.7,1.13,2.73,2.73,0,0,0,1.5.47,1.82,1.82,0,0,0,1.28-.43A1.53,1.53,0,0,0,90,96.52v-4.7H91.1v4.83A2.28,2.28,0,0,1,90.32,98.46Z"/><path class="cls-1" d="M90,101.9v-1.26H89.3v-.9h1.8v2.16Z"/><path class="cls-1" d="M97.26,99V93.59a1.8,1.8,0,0,0-1.7-.89,2.31,2.31,0,0,0-1.87.92,3.24,3.24,0,0,0-.7,2,3,3,0,0,0,.4,1.73,1.41,1.41,0,0,0,1.29.77,1.3,1.3,0,0,0,1-.5l.75.67a2.21,2.21,0,0,1-1.78.84,2.44,2.44,0,0,1-2.07-.94,4.53,4.53,0,0,1,.33-5.3,3.23,3.23,0,0,1,2.53-1.17,3,3,0,0,1,2.87,1.54V99Z"/><path class="cls-7" d="M22.85,49.29a15.74,15.74,0,1,1,28.7,8.19l2.83,2.82a2.39,2.39,0,0,1,.71-.1,2.33,2.33,0,0,1,1.69.7l4.84,4.83A26.81,26.81,0,1,0,12.15,49.29Z"/><path class="cls-7" d="M43.3,45.3V59.07a11.51,11.51,0,1,0-15.63-14.2h15.2A.43.43,0,0,1,43.3,45.3Z"/><path class="cls-7" d="M50.19,65.09a2.45,2.45,0,0,1,.11-.71l-2.83-2.82A15.6,15.6,0,0,1,40,64.25V78.34A26.64,26.64,0,0,0,56.15,72l-5.26-5.26A2.38,2.38,0,0,1,50.19,65.09Z"/><path class="cls-1" d="M12.88,56.7h12.2a16.64,16.64,0,0,1-1.16-2.36h-11a.27.27,0,1,1,0-.54H23.72a15.32,15.32,0,0,1-.81-3.64H12.09q0,.71,0,1.41A27,27,0,0,0,12.61,57v0A.28.28,0,0,1,12.88,56.7Z"/><path class="cls-1" d="M38.57,64.32a15.83,15.83,0,0,1-6.2-1.26H14.64a25.45,25.45,0,0,0,1.27,2.36H35.69a.27.27,0,1,1,0,.54H16.25a26.57,26.57,0,0,0,1.69,2.36H35.69a.27.27,0,1,1,0,.54H18.39a25.31,25.31,0,0,0,2.26,2.37h15a.27.27,0,0,1,0,.54H21.25a26,26,0,0,0,3.14,2.36h11.3a.27.27,0,1,1,0,.54H25.27a26.68,26.68,0,0,0,13.59,3.7h.27V64.31Z"/><path class="cls-1" d="M25.42,57.25H12.88a.28.28,0,0,1-.26-.18c.18.86.41,1.71.67,2.54H27.34A15.74,15.74,0,0,1,25.42,57.25Z"/><path class="cls-1" d="M27.9,60.15H13.46a24.09,24.09,0,0,0,.93,2.36H31.24A15.68,15.68,0,0,1,27.9,60.15Z"/><path class="cls-8" d="M12.88,53.8a.27.27,0,1,0,0,.54h11c-.07-.18-.14-.36-.2-.54Z"/><path class="cls-8" d="M12.88,57.25H25.42c-.11-.18-.23-.36-.34-.55H12.88a.28.28,0,0,0-.27.28v0s0,0,0,.07A.28.28,0,0,0,12.88,57.25Z"/><path class="cls-8" d="M27.43,59.7l-.09-.09h-14c.05.18.11.36.17.54H27.9C27.74,60,27.59,59.86,27.43,59.7Z"/><path class="cls-8" d="M31.24,62.51H14.39c.08.19.16.37.25.55H32.37C32,62.89,31.61,62.71,31.24,62.51Z"/><path class="cls-8" d="M36,65.69a.27.27,0,0,0-.27-.27H15.91c.11.18.22.36.34.54H35.69A.27.27,0,0,0,36,65.69Z"/><path class="cls-8" d="M36,68.59a.27.27,0,0,0-.27-.27H17.94q.22.29.45.54h17.3A.27.27,0,0,0,36,68.59Z"/><path class="cls-8" d="M36,71.5a.27.27,0,0,0-.27-.27h-15l.6.54H35.69A.27.27,0,0,0,36,71.5Z"/><path class="cls-8" d="M36,74.4a.27.27,0,0,0-.27-.27H24.39c.29.19.59.37.88.54H35.69A.27.27,0,0,0,36,74.4Z"/><path class="cls-1" d="M50.64,57.27a14.88,14.88,0,1,0-3.37,3.37.44.44,0,0,1,.25-.08.48.48,0,0,1,.31.13l2.88,2.89,2.86-2.86-2.89-2.89A.43.43,0,0,1,50.64,57.27Zm-3.32,0a12.37,12.37,0,0,1-17.51,0l-.26-.27L29.48,57l-.21-.24,0-.05a12.33,12.33,0,0,1-2.63-4.95l0-.13-.05-.2a12.43,12.43,0,0,1,.14-6.23l0,0A12.38,12.38,0,1,1,47.32,57.32Z"/><path class="cls-9" d="M55.09,61.06a1.54,1.54,0,0,0-1.09.45L51.5,64a1.55,1.55,0,0,0,0,2.16l5.31,5.3a27.14,27.14,0,0,0,4.33-5l-5-5A1.53,1.53,0,0,0,55.09,61.06Z"/><path class="cls-5" d="M27.41,45.73a11.55,11.55,0,0,0-.32,3.69H38.5a.44.44,0,0,1,.44.44.44.44,0,0,1-.44.43H27.19a11.46,11.46,0,0,0,1.1,3.46H38.5a.44.44,0,1,1,0,.87H28.77a11.82,11.82,0,0,0,1.66,2.09,11.32,11.32,0,0,0,1.65,1.37H38.5a.44.44,0,1,1,0,.87H33.57a11.51,11.51,0,0,0,5,1.13h0a11.62,11.62,0,0,0,3.87-.66V45.73Z"/><path class="cls-1" d="M38.5,50.29a.44.44,0,0,0,.44-.43.44.44,0,0,0-.44-.44H27c0,.29.06.58.11.87H38.5Z"/><path class="cls-10" d="M23.15,50.29a.43.43,0,0,0,.43-.43.44.44,0,0,0-.43-.44H11.69c0,.29.06.58.1.87H23.15Z"/><path class="cls-1" d="M38.94,54.19a.44.44,0,0,0-.44-.44H28.26q.22.45.48.87H38.5A.44.44,0,0,0,38.94,54.19Z"/><path class="cls-1" d="M38.94,58.52a.44.44,0,0,0-.44-.44H32A10.92,10.92,0,0,0,33.5,59h5A.44.44,0,0,0,38.94,58.52Z"/><path class="cls-10" d="M39.13,64.31V78.37l.87,0V64.25Q39.57,64.3,39.13,64.31Z"/><path class="cls-10" d="M22.91,50.16a15.32,15.32,0,0,0,.81,3.64c.06.18.13.36.2.54a16.64,16.64,0,0,0,1.16,2.36c.11.19.23.37.34.55a15.74,15.74,0,0,0,1.92,2.36l.09.09c.16.16.31.31.47.45a15.68,15.68,0,0,0,3.34,2.36c.37.2.75.38,1.13.55a15.83,15.83,0,0,0,6.2,1.26h.56q.43,0,.87-.06a15.6,15.6,0,0,0,7.47-2.69l2.83,2.82a2.31,2.31,0,0,1,.59-1l2.5-2.5a2.36,2.36,0,0,1,1-.6l-2.83-2.82a15.74,15.74,0,1,0-28.7-8.19Q22.87,49.72,22.91,50.16Zm27.8,13.42-2.88-2.89a.48.48,0,0,0-.31-.13.44.44,0,0,0-.25.08A14.89,14.89,0,0,1,28,59.09a14.88,14.88,0,1,1,22.6-1.82.43.43,0,0,0,0,.56l2.89,2.89Z"/><path class="cls-10" d="M47.32,39.82a12.37,12.37,0,0,0-20.64,5.31.43.43,0,0,1,.4-.26h.59A11.51,11.51,0,1,1,43.3,59.07v.65a.42.42,0,0,1-.28.4,12.28,12.28,0,0,1-4.45.83h0a12.31,12.31,0,0,1-8.76-3.63,12.38,12.38,0,0,0,17.51-17.5Z"/><path class="cls-11" d="M26.6,51.74a12.33,12.33,0,0,0,2.63,4.95A12.44,12.44,0,0,1,26.6,51.74Z"/><path class="cls-11" d="M26.57,51.61l-.05-.2Z"/><path class="cls-11" d="M29.48,57l-.21-.24Z"/><path class="cls-11" d="M29.55,57.05l.26.27Z"/><path class="cls-10" d="M55.09,60.2a2.39,2.39,0,0,0-.71.1,2.36,2.36,0,0,0-1,.6l-2.5,2.5a2.31,2.31,0,0,0-.59,1,2.45,2.45,0,0,0-.11.71,2.38,2.38,0,0,0,.7,1.69L56.15,72q.33-.27.66-.57l-5.31-5.3a1.55,1.55,0,0,1,0-2.16l2.5-2.5a1.53,1.53,0,0,1,2.17,0l5,5,.48-.75L56.78,60.9A2.33,2.33,0,0,0,55.09,60.2Z"/><path class="cls-10" d="M38.57,61h0A12.28,12.28,0,0,0,43,60.12a.42.42,0,0,0,.28-.4V45.3a.43.43,0,0,0-.43-.43H27.08a.43.43,0,0,0-.4.26l0,0a12.43,12.43,0,0,0-.14,6.23l.05.2,0,.13a12.44,12.44,0,0,0,2.63,4.95l0,.05.21.24.07.07.26.27A12.31,12.31,0,0,0,38.57,61Zm3.87-1.53a11.62,11.62,0,0,1-3.87.66h0a11.51,11.51,0,0,1-5-1.13H33.5A10.92,10.92,0,0,1,32,58.08h0a11.32,11.32,0,0,1-1.65-1.37,11.82,11.82,0,0,1-1.66-2.09h0q-.25-.42-.48-.87h0a11.46,11.46,0,0,1-1.1-3.46h0c0-.29-.08-.58-.11-.87h.05a11.55,11.55,0,0,1,.32-3.69h15Z"/><path class="cls-10" d="M45.91,26.24a.39.39,0,0,1-.15,0A24.8,24.8,0,0,0,43,25.64a.56.56,0,0,1-.45-.62.54.54,0,0,1,.62-.45,27,27,0,0,1,2.84.61.53.53,0,0,1,.38.66A.55.55,0,0,1,45.91,26.24Z"/><path class="cls-10" d="M38.86,78.91a27.35,27.35,0,0,1,0-54.69.55.55,0,0,1,0,1.09,26.24,26.24,0,1,0,22.3,12.38,26.4,26.4,0,0,0-10.31-9.5.53.53,0,0,1-.24-.72.54.54,0,0,1,.73-.24A27.33,27.33,0,0,1,66.2,51.57,27.35,27.35,0,0,1,38.86,78.91Z"/><path class="cls-10" d="M49.23,26.54a.69.69,0,1,1-.69-.69A.69.69,0,0,1,49.23,26.54Z"/></g></g></svg>