<svg xmlns="http://www.w3.org/2000/svg" xmlns:xlink="http://www.w3.org/1999/xlink" viewBox="0 0 15.47 23.17"><defs><style>.cls-1,.cls-4{fill:none;}.cls-2{clip-path:url(#clip-path);}.cls-3{fill:#ff395a;}.cls-4,.cls-5{stroke:#282827;stroke-miterlimit:10;}.cls-4{stroke-linecap:round;stroke-width:0.47px;}.cls-5,.cls-6{fill:#282827;}.cls-5{stroke-width:0.49px;}</style><clipPath id="clip-path" transform="translate(-1.75 -0.95)"><rect class="cls-1" width="18.51" height="26.36"/></clipPath></defs><g id="Layer_2" data-name="Layer 2"><g id="Layer_1-2" data-name="Layer 1"><g class="cls-2"><path class="cls-3" d="M10.23,15.25c-.05.39,2.25.13,3.28-.3a1.77,1.77,0,0,1,.62-.13,1.25,1.25,0,0,1,.43.07l1.77.54a.19.19,0,0,0,.19,0,.19.19,0,0,0,.07-.19l-.36-1.92a1.48,1.48,0,0,1,.15-1h0a5.59,5.59,0,0,0,.45-3.84S10.94,9.28,10.23,15.25Z" transform="translate(-1.75 -0.95)"/><ellipse class="cls-3" cx="9.19" cy="8.35" rx="4.49" ry="3.27" transform="translate(-4.85 9.1) rotate(-50.12)"/><path class="cls-4" d="M2.58,9.29h0a1.49,1.49,0,0,1,.16,1l-.36,1.92a.19.19,0,0,0,.06.19.19.19,0,0,0,.19,0l1.77-.54a1.61,1.61,0,0,1,.43-.07,1.68,1.68,0,0,1,.62.13A5.58,5.58,0,1,0,2.58,9.29Z" transform="translate(-1.75 -0.95)"/><path class="cls-5" d="M10.16,6.59a.22.22,0,0,1,0,.44.22.22,0,0,1,0-.44Z" transform="translate(-1.75 -0.95)"/><path class="cls-5" d="M7.57,6.59a.21.21,0,0,1,.21.22.21.21,0,1,1-.42,0A.21.21,0,0,1,7.57,6.59Z" transform="translate(-1.75 -0.95)"/><path class="cls-5" d="M5,6.59a.2.2,0,0,1,.21.22A.2.2,0,0,1,5,7a.2.2,0,0,1-.21-.22A.2.2,0,0,1,5,6.59Z" transform="translate(-1.75 -0.95)"/><path class="cls-4" d="M12.6,4.32a5.58,5.58,0,0,1,3.78,8h0a1.48,1.48,0,0,0-.15,1l.36,1.92a.19.19,0,0,1-.07.19.19.19,0,0,1-.19,0l-1.77-.54a1.25,1.25,0,0,0-.43-.07,1.77,1.77,0,0,0-.62.13,5.59,5.59,0,0,1-7.15-2.72" transform="translate(-1.75 -0.95)"/><path class="cls-6" d="M4.67,24.06V19.74H5v4.32Zm1,0V19.74H6v4.32Z" transform="translate(-1.75 -0.95)"/><path class="cls-6" d="M9.89,22.37a1.66,1.66,0,0,1-.49,1.25,2,2,0,0,1-1.42.5,3.15,3.15,0,0,1-1.26-.21V19.74H7v3.92a2.4,2.4,0,0,0,1,.15,1.7,1.7,0,0,0,1.16-.4,1.35,1.35,0,0,0,.41-1,1.49,1.49,0,0,0-.41-1.09,2.09,2.09,0,0,0-1.07-.56l1.08-1,.23.2-.76.73A1.76,1.76,0,0,1,9.89,22.37Z" transform="translate(-1.75 -0.95)"/><path class="cls-6" d="M13.5,24.06V21.2a1.18,1.18,0,0,0-.33-.88,1.22,1.22,0,0,0-.89-.33,1.64,1.64,0,0,0-1,.35,1.07,1.07,0,0,0-.49.85v2.87h-.32V19.74h.32v.61a1.45,1.45,0,0,1,.63-.49,2,2,0,0,1,.85-.19,1.79,1.79,0,0,1,.62.1,1.48,1.48,0,0,1,.49.29,1.36,1.36,0,0,1,.32.46,1.44,1.44,0,0,1,.11.59v2.95Z" transform="translate(-1.75 -0.95)"/></g></g></g></svg>