<svg xmlns="http://www.w3.org/2000/svg" xmlns:xlink="http://www.w3.org/1999/xlink" viewBox="0 0 15.23 25.74"><defs><style>.cls-1,.cls-5{fill:none;}.cls-2{clip-path:url(#clip-path);}.cls-3{fill:#282827;}.cls-4{fill:#ff395a;}.cls-5{stroke:#282827;stroke-linecap:round;stroke-linejoin:round;stroke-width:0.56px;}</style><clipPath id="clip-path" transform="translate(-1.37 0.03)"><rect class="cls-1" width="18.51" height="26.36"/></clipPath></defs><g id="Layer_2" data-name="Layer 2"><g id="Layer_1-2" data-name="Layer 1"><g class="cls-2"><path class="cls-3" d="M5.93,24.06V21.17a1.08,1.08,0,0,0-.4-.89,1.51,1.51,0,0,0-1-.29,1.54,1.54,0,0,0-1.35.65v3.09h.65v.33h-1V20.54a1.92,1.92,0,0,1,1.67-.87A1.81,1.81,0,0,1,5.74,20a1.22,1.22,0,0,1,.51,1v3Z" transform="translate(-1.37 0.03)"/><path class="cls-3" d="M6,25.52a.81.81,0,0,1-.54.19.86.86,0,0,1-.74-.35v-.55H4.42v-.32h.65v.76a.54.54,0,0,0,.73.07.32.32,0,0,0,.13-.27v-.56h.32v.57A.54.54,0,0,1,6,25.52Z" transform="translate(-1.37 0.03)"/><path class="cls-3" d="M10,24.06V21.17a1.1,1.1,0,0,0-.4-.89,1.51,1.51,0,0,0-1-.29,1.54,1.54,0,0,0-1.35.65v3.42H7V20.54a1.92,1.92,0,0,1,1.67-.87A1.83,1.83,0,0,1,9.84,20a1.22,1.22,0,0,1,.51,1v3Z" transform="translate(-1.37 0.03)"/><path class="cls-3" d="M12.19,18.14a.74.74,0,0,1-.28.55.74.74,0,0,0-.27.54v4.83h-.32V19.17a.79.79,0,0,1,.27-.58.68.68,0,0,0,.28-.43.47.47,0,0,0-.19-.39.71.71,0,0,0-.49-.16.8.8,0,0,0-.51.17.54.54,0,0,0-.21.42h-.32a.79.79,0,0,1,.3-.62,1.19,1.19,0,0,1,1.46,0A.71.71,0,0,1,12.19,18.14Z" transform="translate(-1.37 0.03)"/><path class="cls-3" d="M15.76,21.82a2.25,2.25,0,0,1-.68,1.69,2.12,2.12,0,0,1-1.74.58l-.52-2.32h-.44v-.32h.7l.52,2.33a1.63,1.63,0,0,0,1.31-.55,2,2,0,0,0,.53-1.41A1.88,1.88,0,0,0,15,20.51a1.54,1.54,0,0,0-1.2-.52,2.09,2.09,0,0,0-1.52.65L12,20.42a2.33,2.33,0,0,1,1.8-.75,1.81,1.81,0,0,1,1.42.6A2.25,2.25,0,0,1,15.76,21.82Z" transform="translate(-1.37 0.03)"/><path class="cls-4" d="M3.45,14.79S9,6.18,16.25,7.09l-.23.8-.29.32s-.09,0,0,.19a1.37,1.37,0,0,0,.27.48.86.86,0,0,1,.23.3c.07.15,0,.25,0,.47s0,.37-.14.42a3.76,3.76,0,0,0-.38.24c-.16.09-.36.1-.34.22s0,.18.18.31a1,1,0,0,1,.2.28,1.27,1.27,0,0,1,.17.35c.06.2.11.18,0,.38s-.17.22-.26.41-.23.16-.31.32-.15.12-.22.2.09.52.13.64,0,.09-.08.29a4.19,4.19,0,0,1-.45.59,1.51,1.51,0,0,1-.69.35c-.21,0-6.31.43-7.21-.27L5.24,15Z" transform="translate(-1.37 0.03)"/><path class="cls-5" d="M6.55,6.17c.91-1.13,2.79-.54,3.82-2.1S10.58.12,12.08.26s2.36,3.64.74,5.27c2.23,0,3.4.44,3.43,1.56a1,1,0,0,1-.92,1.16c1.46.32,1.23,2.09-.23,2.28.94.19,1.55,1.65-.2,2.16.78.43.72,1.8-1.37,1.93-1.44.09-5.51.44-6.85-.34" transform="translate(-1.37 0.03)"/><path class="cls-5" d="M6.61,14.11c.22,1.24-3.27,1.08-4.22.39s-.76-6.1-.63-8C1.87,5.07,6.62,5,6.55,6.17A40.66,40.66,0,0,0,6.61,14.11Z" transform="translate(-1.37 0.03)"/><path class="cls-5" d="M5,12.43a1,1,0,1,1-.91-1A1,1,0,0,1,5,12.43Z" transform="translate(-1.37 0.03)"/></g></g></g></svg>