<svg xmlns="http://www.w3.org/2000/svg" xmlns:xlink="http://www.w3.org/1999/xlink" viewBox="0 0 15.53 23.41"><defs><style>.cls-1,.cls-4{fill:none;}.cls-2{clip-path:url(#clip-path);}.cls-3{fill:#ff395a;}.cls-4{stroke:#282827;stroke-linecap:round;stroke-linejoin:round;stroke-width:0.53px;}.cls-5{fill:#282827;}</style><clipPath id="clip-path" transform="translate(-1.74 -0.74)"><rect class="cls-1" width="18.51" height="26.36"/></clipPath></defs><g id="Layer_2" data-name="Layer 2"><g id="Layer_1-2" data-name="Layer 1"><g class="cls-2"><path class="cls-3" d="M14,15.41c.12,0,.32-.15.43-.15.64,0,.8-.36,1.27-.65a6.07,6.07,0,0,0,.76-.84l.38-.82.12-.84-.35-.45A2.5,2.5,0,0,0,15,11a2.52,2.52,0,0,0-1.87.83l-.47.52a2.48,2.48,0,0,0-.43.67A8.83,8.83,0,0,1,7.87,9.08C8.21,8.93,6.39,7.28,6.64,7l1.6-1.46c.46-.5.37-.23.34-.9s.47-.29,0-.74l-.29-.26a2.53,2.53,0,0,0-3.56.17l-.47.53A2.11,2.11,0,0,0,4,4.58a3,3,0,0,0-.7,2.75C4.39,12.76,8.53,14.92,14,15.41Z" transform="translate(-1.74 -0.74)"/><path class="cls-4" d="M13.2,15.4h.36A3.33,3.33,0,0,0,15.27,15a2.43,2.43,0,0,0,.61-.49l.48-.53a2.51,2.51,0,0,0-.18-3.55l-.8-.72A2.5,2.5,0,0,0,13.69,9a2.52,2.52,0,0,0-1.87.83l-.47.52a2.58,2.58,0,0,0-.43.66A8.79,8.79,0,0,1,6.6,7.08a2.54,2.54,0,0,0,.89-.63L8,5.93a2.54,2.54,0,0,0,.65-1.82,2.48,2.48,0,0,0-.83-1.74L7,1.65a2.52,2.52,0,0,0-3.56.18L3,2.35a2.11,2.11,0,0,0-.19.23,3,3,0,0,0-.69,2.76A12.52,12.52,0,0,0,13.2,15.4Z" transform="translate(-1.74 -0.74)"/><path class="cls-5" d="M5.37,17.7c-.27,0-.4.08-.4.24s.07.19.2.28a2.43,2.43,0,0,1,.4.3.74.74,0,0,1,.21.57v5H5.45v-5A.76.76,0,0,0,5,18.47c-.26-.18-.39-.35-.39-.53a.46.46,0,0,1,.23-.42,1,1,0,0,1,.55-.15H6.76v.33Z" transform="translate(-1.74 -0.74)"/><path class="cls-5" d="M9.5,24.06V21.2a1.15,1.15,0,0,0-.34-.88A1.18,1.18,0,0,0,8.28,20a1.64,1.64,0,0,0-1,.35,1,1,0,0,0-.49.85v2.87H6.48V19.74H6.8v.61a1.45,1.45,0,0,1,.63-.49,2,2,0,0,1,.85-.19,1.79,1.79,0,0,1,.62.1,1.59,1.59,0,0,1,.49.29,1.36,1.36,0,0,1,.32.46,1.63,1.63,0,0,1,.11.59v2.95Z" transform="translate(-1.74 -0.74)"/><path class="cls-5" d="M13.8,22.74a1.24,1.24,0,0,1-.52,1.05,1.85,1.85,0,0,1-1.17.35,1.9,1.9,0,0,1-1.18-.35,1.26,1.26,0,0,1-.52-1.05h.33a.92.92,0,0,0,.42.81,1.55,1.55,0,0,0,.95.27,1.6,1.6,0,0,0,.94-.27,1,1,0,0,0,.43-.81c0-.46-.44-.77-1.32-.94-.27-.05-.5-.09-.68-.14a2.4,2.4,0,0,1-.43-.14.77.77,0,0,1-.54-.7A1,1,0,0,1,11,20a1.84,1.84,0,0,1,1.06-.3,2,2,0,0,1,1.09.28,1.25,1.25,0,0,1,.61.85H13.4a1,1,0,0,0-.53-.61,1.66,1.66,0,0,0-.82-.2,1.71,1.71,0,0,0-.82.22.62.62,0,0,0-.37.55c0,.2.15.36.45.49l.33.09.59.12C13.28,21.69,13.8,22.11,13.8,22.74Z" transform="translate(-1.74 -0.74)"/></g></g></g></svg>